<svg width="75" height="60" viewBox="0 0 75 60" fill="none" xmlns="http://www.w3.org/2000/svg">
<path d="M64.0466 32.2595C65.4774 30.4125 66.8411 28.5157 68.1766 26.5991C69.4717 24.7405 70.9791 22.8849 71.8923 20.7996C71.9278 20.7186 71.8082 20.6477 71.7725 20.7295C70.8937 22.7366 69.4553 24.5186 68.2104 26.3083C66.8321 28.29 65.4269 30.2528 63.9485 32.1613C63.8943 32.231 63.9919 32.33 64.0466 32.2595Z" fill="#184F78"/>
<path d="M71.7638 20.8972C72.1404 23.1545 72.7098 25.3842 73.2109 27.6164C73.7157 29.8639 74.2318 32.1089 74.8629 34.325C74.8874 34.4108 75.0213 34.3743 74.9967 34.288C74.3657 32.072 73.8494 29.827 73.3448 27.5795C72.8436 25.3473 72.2742 23.1176 71.8976 20.8602C71.8832 20.7723 71.7493 20.8095 71.7638 20.8972Z" fill="#184F78"/>
<path d="M63.8847 32.376C64.3833 33.0385 65.2364 33.3901 65.975 33.7163C66.8616 34.1078 67.8084 34.4554 68.7703 34.6C69.7327 34.7447 70.737 34.7173 71.7077 34.7437C72.7669 34.7724 73.8125 34.7605 74.8447 34.4974C74.9314 34.4754 74.8946 34.3413 74.8078 34.3635C73.0701 34.8064 71.0737 34.6631 69.2978 34.5182C68.4114 34.4458 67.5611 34.1911 66.7326 33.8774C65.8454 33.5416 64.5954 33.0911 64.0042 32.3057C63.9514 32.2352 63.8307 32.3044 63.8847 32.376Z" fill="#184F78"/>
<path d="M64.9225 31.7909C65.1098 31.7984 65.2964 31.7921 65.4829 31.7722C65.5708 31.7627 65.5718 31.6239 65.4829 31.6333C65.2964 31.6532 65.1101 31.6595 64.9225 31.652C64.8331 31.6482 64.8331 31.7871 64.9225 31.7909Z" fill="#184F78"/>
<path d="M66.4743 31.7312C66.7915 31.7709 67.1087 31.8105 67.4259 31.85C67.5144 31.8611 67.5136 31.722 67.4259 31.7111C67.1087 31.6714 66.7915 31.6318 66.4743 31.5923C66.3858 31.5814 66.3866 31.7203 66.4743 31.7312Z" fill="#184F78"/>
<path d="M68.4162 31.8563C68.7202 31.9173 69.0244 31.9784 69.3284 32.0396C69.4157 32.0573 69.453 31.9234 69.3653 31.9058C69.0614 31.8447 68.7574 31.7837 68.4532 31.7226C68.3659 31.7048 68.3285 31.8387 68.4162 31.8563Z" fill="#184F78"/>
<path d="M70.4693 32.179C70.6881 32.265 70.9114 32.3348 71.1404 32.389C71.2273 32.4095 71.2644 32.2757 71.1774 32.2551C70.9485 32.201 70.7253 32.1311 70.5062 32.0451C70.4232 32.0122 70.3871 32.1464 70.4693 32.179Z" fill="#184F78"/>
<path d="M72.1536 32.6969C72.3366 32.776 72.5225 32.8467 72.7125 32.9078C72.7977 32.9352 72.8344 32.8012 72.7494 32.7739C72.5711 32.7166 72.3957 32.6514 72.2239 32.5769C72.1425 32.5419 72.0716 32.6615 72.1536 32.6969Z" fill="#184F78"/>
<path d="M73.6445 33.2594C73.8266 33.3683 74.0141 33.466 74.2076 33.5529C74.2883 33.5892 74.359 33.4696 74.2776 33.4329C74.0842 33.346 73.8967 33.2483 73.7146 33.1394C73.6378 33.0934 73.5679 33.2134 73.6445 33.2594Z" fill="#184F78"/>
<path d="M69.2707 33.3871C70.2423 33.5877 71.2409 33.5839 72.2091 33.8065C73.1095 34.0134 73.976 34.3211 74.8955 34.4411C74.9838 34.4527 74.983 34.3136 74.8955 34.3023C73.9061 34.173 72.9761 33.818 72.0024 33.6187C71.1123 33.4366 70.198 33.4371 69.3078 33.2533C69.2204 33.2352 69.183 33.3691 69.2707 33.3871Z" fill="#184F78"/>
<path opacity="0.12" d="M25.6437 35.3743C25.3697 35.3693 25.1375 35.1687 25.0964 34.8979C24.3642 30.0708 20.2352 26.3176 15.1928 26.2232C10.1504 26.129 5.88405 29.7252 4.97187 34.5215C4.92068 34.7907 4.68089 34.9824 4.40689 34.9772L2.07797 34.9335C1.76517 34.9277 1.50691 35.1765 1.50104 35.4893L1.46202 37.5719C1.45614 37.8847 1.70496 38.1432 2.01797 38.1488L27.9126 38.633C28.2254 38.6389 28.4839 38.3901 28.4896 38.0773L28.5286 35.9947C28.5345 35.6819 28.2856 35.4234 27.9728 35.4177L25.6437 35.3743ZM15.1301 29.5792C18.2178 29.6369 20.7954 31.7384 21.5976 34.5666C21.7015 34.9325 21.4208 35.2952 21.0404 35.2881L9.0104 35.0632C8.63026 35.0561 8.36319 34.6831 8.48067 34.3214C9.38803 31.5253 12.0423 29.5215 15.1301 29.5792Z" fill="#184F78"/>
<path d="M19.1778 1.26052C20.5406 7.42193 21.5539 13.6559 22.2127 19.9317C22.2227 20.0273 22.3704 20.0045 22.3603 19.909C21.7014 13.6333 20.6883 7.39927 19.3255 1.23786C19.3049 1.14451 19.157 1.16653 19.1778 1.26052Z" fill="#184F78"/>
<path d="M9.40326 12.5359C18.7418 11.2746 28.1739 9.97891 37.0293 6.60691C37.1191 6.57271 37.0581 6.43635 36.9683 6.47054C28.1253 9.83772 18.7057 11.1286 9.3806 12.3882C9.28514 12.401 9.3078 12.5487 9.40326 12.5359Z" fill="#184F78"/>
<path d="M19.9771 0.601154C20.1048 0.7671 20.2326 0.933046 20.3604 1.09899C20.4191 1.17515 20.5351 1.08116 20.4764 1.00479C20.3486 0.838848 20.2208 0.672904 20.0931 0.506957C20.0346 0.431012 19.9183 0.524999 19.9771 0.601154Z" fill="#184F78"/>
<path d="M20.4161 0.327794C20.4895 0.801087 20.4079 1.26452 20.17 1.68117C20.1228 1.76383 20.2428 1.85299 20.2904 1.76949C20.5482 1.31781 20.6437 0.819339 20.5638 0.304927C20.5491 0.2101 20.4014 0.232548 20.4161 0.327794Z" fill="#184F78"/>
<path d="M36.0732 8.04565C36.3564 8.28733 36.6858 8.44719 37.0491 8.52649C37.1431 8.54705 37.1597 8.39831 37.0666 8.37817C36.7288 8.30432 36.4242 8.14929 36.1615 7.92523C36.0883 7.86271 36.0004 7.98355 36.0732 8.04565Z" fill="#184F78"/>
<path d="M36.7628 7.83902C36.6346 8.15769 36.4616 8.44973 36.2442 8.71595C36.1834 8.79064 36.304 8.87875 36.3646 8.80428C36.5895 8.52882 36.7691 8.22399 36.9017 7.89399C36.9378 7.80461 36.7987 7.74986 36.7628 7.83902Z" fill="#184F78"/>
<path d="M36.2332 6.18463C36.5187 6.28302 36.783 6.41708 37.0306 6.59079C37.0253 6.55596 37.0199 6.52114 37.0146 6.48631C36.8779 6.65687 36.7826 6.8417 36.7247 7.05275C36.6995 7.14464 36.8382 7.20045 36.8636 7.10772C36.9181 6.90925 37.006 6.73555 37.1351 6.57463C37.1598 6.54359 37.151 6.49261 37.1191 6.47016C36.8613 6.28932 36.586 6.14812 36.2883 6.04554C36.1973 6.01428 36.1421 6.15316 36.2332 6.18463Z" fill="#184F78"/>
<path d="M19.0768 1.74453C19.0972 1.66124 19.1177 1.57795 19.1381 1.49487C19.1498 1.44683 19.1681 1.39396 19.1748 1.34508C19.179 1.32851 19.183 1.31172 19.187 1.29515C19.1631 1.25151 19.1645 1.24249 19.1916 1.26767C19.2476 1.27816 19.3338 1.37571 19.3773 1.4118C19.4509 1.47285 19.5218 1.53683 19.5904 1.60334C19.6586 1.66942 19.7757 1.57606 19.7064 1.50914C19.6116 1.41746 19.514 1.32893 19.4108 1.2469C19.3468 1.19592 19.2501 1.08704 19.1576 1.10172C19.0817 1.11389 19.0607 1.18941 19.0443 1.25277C19.0038 1.41054 18.9667 1.56914 18.9281 1.72732C18.9056 1.82047 19.0542 1.83684 19.0768 1.74453Z" fill="#184F78"/>
<path d="M16.8204 13.157C17.1745 11.4483 17.5309 9.73553 18.0577 8.06998C18.3097 7.2734 18.6005 6.48793 18.947 5.72743C19.1445 5.29442 19.3471 4.84295 19.6035 4.4414C19.8141 4.11161 19.9601 3.85587 20.4846 3.9979C20.7089 4.05874 20.9462 4.27315 21.126 4.42294C23.5084 6.40821 24.8192 9.35874 27.099 11.4489C27.1699 11.5139 27.2576 11.3929 27.1873 11.3285C25.8094 10.0651 24.7791 8.50635 23.6636 7.02018C23.1257 6.30373 22.5651 5.60072 21.9318 4.96525C21.5101 4.54231 20.8931 3.80888 20.245 3.80153C19.6484 3.79482 19.4054 4.47371 19.173 4.92099C18.7234 5.78596 18.3575 6.69269 18.0481 7.61641C17.4445 9.41769 17.0566 11.2819 16.6716 13.1392C16.6525 13.2338 16.8011 13.2504 16.8204 13.157Z" fill="#184F78"/>
<path d="M46.1568 9.75737C47.1487 8.54057 48.0959 7.28894 48.998 6.00396C48.9479 5.98906 48.8976 5.97438 48.8474 5.95948C48.8174 6.78103 48.7551 7.5793 48.574 8.38322C48.4333 9.00861 48.3009 9.62415 48.4257 10.264C48.4459 10.367 48.604 10.328 48.5839 10.225C48.4381 9.47708 48.6712 8.76232 48.817 8.03518C48.954 7.35188 48.985 6.65726 49.0104 5.96263C49.0136 5.8785 48.9041 5.8548 48.8596 5.91816C47.9577 7.20314 47.0102 8.45455 46.0183 9.67156C45.9523 9.75254 46.0916 9.83772 46.1568 9.75737Z" fill="#FC611F"/>
<path d="M47.0521 8.30099C47.6026 8.38806 48.1466 8.5026 48.6856 8.64463C48.7869 8.67128 48.8335 8.51519 48.7317 8.48833C48.1928 8.3463 47.6488 8.23197 47.0983 8.14469C46.9961 8.12833 46.9485 8.28442 47.0521 8.30099Z" fill="#FC611F"/>
<path d="M49.8194 8.44218C50.3476 8.58883 50.8725 8.7468 51.3941 8.9161C51.494 8.94841 51.5401 8.79212 51.4402 8.75981C50.9187 8.59072 50.3938 8.43274 49.8655 8.28589C49.7644 8.25798 49.718 8.41407 49.8194 8.44218Z" fill="#FC611F"/>
<path d="M49.7568 9.27232C50.3549 9.44016 50.9531 9.60799 51.551 9.77583C51.6519 9.80415 51.6982 9.64785 51.5971 9.61953C50.999 9.4517 50.4009 9.28386 49.803 9.11603C49.7021 9.08771 49.6555 9.24379 49.7568 9.27232Z" fill="#FC611F"/>
<path d="M53.2525 8.39768C53.5106 9.08706 53.7686 9.77644 54.0269 10.4656C54.0487 10.5241 54.1393 10.5581 54.1752 10.4891C54.5776 9.71623 54.9773 8.94209 55.3824 8.17069C55.5292 7.89103 55.7019 7.68921 56.0535 7.77103C56.2635 7.81991 56.4712 7.88621 56.6785 7.94579C57.0943 8.06558 57.508 8.19188 57.9217 8.31859C59.5459 8.81664 61.175 9.27105 62.8298 9.6556C66.144 10.4258 69.5063 11.0656 72.6656 12.3674C72.7625 12.4072 72.8079 12.2507 72.7118 12.2111C70.0533 11.1155 67.2456 10.4853 64.4488 9.857C63.0598 9.54483 61.6703 9.23098 60.297 8.85419C58.9161 8.4753 57.5619 8.00327 56.1779 7.63592C55.6199 7.48781 55.4564 7.6762 55.2061 8.15684C54.8163 8.90559 54.4265 9.65413 54.0368 10.4029C54.0863 10.4106 54.1356 10.4186 54.1851 10.4264C53.927 9.737 53.669 9.04762 53.4107 8.35845C53.3746 8.26174 53.2158 8.29929 53.2525 8.39768Z" fill="#FC611F"/>
<path d="M56.0275 9.20498C56.0291 8.95302 56.1961 8.96392 56.5282 9.23749C56.5022 9.30106 56.476 9.36484 56.45 9.42841C56.3581 9.59142 56.2192 9.70303 56.0698 9.80771C55.8477 9.96338 55.6037 10.092 55.3696 10.229C55.3148 10.2611 55.3114 10.366 55.3855 10.3788C55.8028 10.4503 56.0264 10.8686 56.48 10.8076C56.5838 10.7935 56.5442 10.6353 56.441 10.6492C56.0579 10.7008 55.7919 10.2842 55.4316 10.2223C55.4369 10.2722 55.4421 10.3221 55.4476 10.3721C55.924 10.0932 56.8098 9.71351 56.703 9.01595C56.6732 8.82147 56.5215 8.60602 56.3015 8.627C56.044 8.65155 55.9062 8.93896 55.8714 9.15882C55.855 9.26078 56.0111 9.3084 56.0275 9.20498Z" fill="#FC611F"/>
<path d="M58.0963 9.09084C57.9337 9.24399 57.3616 9.58196 57.5137 9.87106C57.5863 10.0091 57.798 10.0095 57.9037 10.1006C58.1961 10.3525 57.949 10.6653 57.679 10.761C57.5154 10.8189 57.3303 10.8086 57.1593 10.8059C57.0547 10.8042 57.0511 10.9672 57.1564 10.9689C57.5588 10.9754 58.0894 10.9217 58.1892 10.444C58.2211 10.2909 58.1886 10.143 58.0776 10.0311C58.0218 9.97491 57.9471 9.95812 57.8882 9.91113C57.8382 9.89225 57.8021 9.85469 57.7801 9.79868C57.6731 9.74266 57.661 9.69211 57.7436 9.64658C57.7961 9.50812 58.1001 9.31091 58.2079 9.20937C58.2845 9.13741 58.1729 9.01888 58.0963 9.09084Z" fill="#FC611F"/>
<path d="M58.0939 9.21527C58.396 9.31031 58.7027 9.37849 59.0162 9.42338C59.1196 9.43828 59.1219 9.27506 59.0191 9.26037C58.7204 9.21758 58.4279 9.14939 58.1401 9.05897C58.04 9.0275 57.9939 9.1838 58.0939 9.21527Z" fill="#FC611F"/>
<path d="M59.7897 11.0279C60.2798 11.1409 60.7737 11.2316 61.2717 11.3012C61.3751 11.3157 61.3777 11.1527 61.2746 11.1382C60.7909 11.0707 60.3117 10.9813 59.8359 10.8716C59.7341 10.8481 59.6874 11.0042 59.7897 11.0279Z" fill="#FC611F"/>
<path d="M60.7258 10.6966C60.6079 11.0961 60.4898 11.4955 60.3719 11.8949C60.3421 11.9954 60.4984 12.0418 60.5282 11.9411C60.6461 11.5417 60.7642 11.1422 60.8821 10.7428C60.9119 10.6421 60.7556 10.5957 60.7258 10.6966Z" fill="#FC611F"/>
<path d="M63.1126 10.5101C62.9076 11.2039 62.7027 11.8976 62.4979 12.5914C62.4681 12.6919 62.6244 12.7383 62.6542 12.6376C62.8592 11.9438 63.0641 11.25 63.2689 10.5562C63.2987 10.4555 63.1424 10.4092 63.1126 10.5101Z" fill="#FC611F"/>
<path d="M65.0502 10.8827C64.5981 10.8795 64.2778 11.2796 64.1819 11.6935C64.1083 12.0118 64.1387 12.6903 64.4972 12.8623C64.8845 13.048 65.3272 12.2379 65.4333 11.9814C65.6005 11.5777 65.5349 11.12 65.179 10.8495C65.0955 10.786 65.0102 10.9251 65.093 10.988C65.4274 11.2423 65.4088 11.6824 65.2361 12.0229C65.1193 12.2531 64.7714 12.9089 64.4488 12.5577C64.0369 12.1093 64.4318 11.0415 65.0475 11.0459C65.152 11.0463 65.1556 10.8833 65.0502 10.8827Z" fill="#FC611F"/>
<path d="M66.0281 12.6559C66.1285 12.6857 66.1749 12.5294 66.0742 12.4996C65.9735 12.4698 65.9271 12.6261 66.0281 12.6559Z" fill="#FC611F"/>
<path d="M67.0357 12.4505C67.1494 12.9313 67.2629 13.4122 67.3764 13.893C67.3913 13.9564 67.493 13.9816 67.5247 13.9165C67.7041 13.5475 67.8837 13.1785 68.0631 12.8097C68.28 12.3636 68.4218 11.7336 69.0514 11.8014C69.4303 11.8423 69.8423 12.0334 70.2082 12.1419C70.6022 12.2585 70.996 12.3752 71.39 12.4918C71.4905 12.5216 71.5368 12.3653 71.4361 12.3355C70.9192 12.1824 70.4021 12.0294 69.8851 11.8763C69.545 11.7756 69.0482 11.5194 68.6832 11.634C68.3832 11.7282 68.2521 12.0519 68.1264 12.3085C67.8784 12.8151 67.6328 13.3232 67.386 13.8305C67.4356 13.8383 67.4849 13.8462 67.5344 13.854C67.4209 13.3732 67.3072 12.8923 67.1937 12.4115C67.17 12.3093 67.0116 12.3481 67.0357 12.4505Z" fill="#FC611F"/>
<path d="M69.7978 12.5583C69.5664 12.7176 69.3236 12.8684 69.1002 13.0385C69.0236 13.0969 68.9448 13.1346 68.9613 13.2425C68.9729 13.318 69.0371 13.3497 69.0893 13.3967C69.198 13.4944 69.4246 13.7126 69.3698 13.8941C69.2997 14.1265 68.9156 14.0309 68.7503 13.9981C68.6483 13.978 68.6011 14.1341 68.7041 14.1544C69.0371 14.2205 69.589 14.2891 69.5244 13.8005C69.4974 13.5955 69.382 13.4867 69.2697 13.3289C69.2523 13.3046 69.1801 13.284 69.1753 13.258C69.1573 13.1585 69.3297 13.0771 69.3927 13.0339C69.5536 12.9232 69.7147 12.8122 69.8756 12.7014C69.9612 12.6427 69.8842 12.4987 69.7978 12.5583Z" fill="#FC611F"/>
<path d="M69.7974 12.74C70.0827 12.7819 70.368 12.8237 70.6532 12.8657C70.7566 12.8808 70.7589 12.7177 70.6561 12.7026C70.3708 12.6607 70.0854 12.6189 69.8003 12.577C69.6971 12.5619 69.6948 12.7249 69.7974 12.74Z" fill="#FC611F"/>
<path d="M53.1851 11.0908C59.2022 12.5341 64.9944 14.8513 71.1145 15.8713C71.2167 15.8883 71.2641 15.7322 71.1607 15.715C65.0406 14.695 59.2484 12.3779 53.231 10.9345C53.1297 10.9101 53.0829 11.0664 53.1851 11.0908Z" fill="#FC611F"/>
<path d="M62.1738 14.2133C61.8981 14.3807 61.6225 14.5482 61.3468 14.7158C61.2333 14.7848 61.0468 14.8482 61.0178 14.9931C61.0107 15.0286 61.0204 15.0657 61.0529 15.0854C61.3342 15.2568 62.0792 15.3424 62.2758 15.0034C62.3299 14.9101 62.2017 14.8381 62.1373 14.9174C61.8497 15.2707 61.7565 15.6934 61.8585 16.1367C61.882 16.2389 62.0404 16.2001 62.0167 16.0977C61.9235 15.6934 62.0148 15.324 62.2756 15.0036C62.2294 14.9749 62.1833 14.9463 62.1371 14.9176C62.0307 15.101 61.6793 15.0487 61.51 15.0309C61.2958 15.0082 61.2383 15.0095 61.4244 14.8593C61.6682 14.6623 61.9839 14.5194 62.2512 14.3568C62.341 14.3023 62.2636 14.1588 62.1738 14.2133Z" fill="#FC611F"/>
<path d="M73.1957 15.7432C72.7832 15.5424 72.0544 16.1722 72.3177 16.6025C72.4385 16.7999 72.6959 16.8312 72.895 16.751C73.2095 16.6245 73.4036 16.2987 73.4818 15.9849C73.4285 15.9767 73.3755 15.9685 73.3222 15.9603C73.2806 16.3455 73.3855 16.6998 73.6186 17.0074C73.682 17.0911 73.8001 16.9784 73.7373 16.8958C73.5301 16.6222 73.4483 16.3031 73.485 15.9632C73.4948 15.8718 73.3473 15.8502 73.3253 15.9387C73.2487 16.2458 73.0102 16.6692 72.6397 16.6058C72.1542 16.523 72.7492 15.7065 73.1094 15.8816C73.203 15.927 73.2899 15.7889 73.1957 15.7432Z" fill="#FC611F"/>
<path d="M74.4212 15.5124C74.5721 15.2881 74.8593 15.5489 74.6677 15.7337C74.5765 15.8218 74.467 15.8684 74.3965 15.9794C74.37 16.0211 74.3904 16.09 74.4426 16.1007C74.5926 16.1313 74.7229 16.189 74.8465 16.2798C74.9312 16.3419 75.0166 16.203 74.9325 16.1414C74.7982 16.0428 74.6522 15.9779 74.4888 15.9444C74.5041 15.9848 74.5196 16.0251 74.5349 16.0656C74.6165 15.9372 74.7798 15.8928 74.858 15.7595C74.9166 15.6597 74.9124 15.533 74.8597 15.432C74.7368 15.1962 74.4195 15.2233 74.2828 15.4266C74.224 15.5134 74.3627 15.5992 74.4212 15.5124Z" fill="#FC611F"/>
<path opacity="0.12" d="M41.5905 40.2394L19.0159 50.0481C18.4228 50.3057 18.5858 51.1881 19.232 51.2166L46.5964 52.4311C47.0469 52.4511 47.3626 51.9922 47.1828 51.5787L42.3932 40.5554C42.2587 40.2468 41.8996 40.1052 41.5905 40.2394ZM41.6728 48.9742L32.6535 48.1576C32.4406 48.1383 32.3701 47.8192 32.5602 47.7349L39.7941 44.5263C39.8931 44.4825 40.0139 44.5383 40.0639 44.6512L41.8492 48.6762C41.9161 48.8273 41.8213 48.9876 41.6728 48.9742Z" fill="#184F78"/>
<path d="M55.0674 29.8553H28.5692C28.2549 29.8553 28 29.6004 28 29.2861V26.2381C28 25.9236 28.2549 25.6689 28.5692 25.6689H55.0674C55.3819 25.6689 55.6366 25.9238 55.6366 26.2381V29.2861C55.6366 29.6004 55.3817 29.8553 55.0674 29.8553Z" fill="#184F78"/>
<path d="M56.4795 25.6689H29.9813C29.6668 25.6689 29.4121 25.414 29.4121 25.0997V22.0517C29.4121 21.7372 29.667 21.4825 29.9813 21.4825H56.4795C56.794 21.4825 57.0487 21.7374 57.0487 22.0517V25.0997C57.0489 25.414 56.794 25.6689 56.4795 25.6689Z" fill="#FC611F"/>
<path d="M51.9084 21.4684H25.41C25.0957 21.4684 24.8408 21.2135 24.8408 20.8992V17.8512C24.8408 17.5369 25.0957 17.282 25.41 17.282H51.9082C52.2225 17.282 52.4774 17.5369 52.4774 17.8512V20.8992C52.4776 21.2135 52.2227 21.4684 51.9084 21.4684Z" fill="#16B6C6"/>
<path d="M31.6156 17.282H28.7695V21.4684H31.6156V17.282Z" fill="#118995"/>
<path opacity="0.3" d="M37.0463 21.4823H34.2002V25.6687H37.0463V21.4823Z" fill="white"/>
<path d="M34.3441 25.6689H31.498V29.8553H34.3441V25.6689Z" fill="#124768"/>
<path d="M56.2147 21.4823H33.7812L57.0493 23.5756V22.3166C57.0493 21.8559 56.6756 21.4823 56.2147 21.4823Z" fill="#EA541F"/>
<path d="M54.8009 25.6689H32.3672L55.6352 27.7622V26.5032C55.6352 26.0423 55.2618 25.6689 54.8009 25.6689Z" fill="#124768"/>
<path opacity="0.12" d="M28.3204 29.0871L27.999 35.1843L52.8344 29.8553" fill="#184F78"/>
<path d="M38.9485 36.4319L18.3794 49.9503C17.839 50.3055 18.1503 51.147 18.7917 51.065L45.9617 47.5906C46.4089 47.5333 46.6416 47.0275 46.394 46.6507L39.7929 36.6069C39.608 36.3251 39.23 36.2469 38.9485 36.4319ZM40.5204 45.0244L31.4943 45.7595C31.2811 45.7769 31.1571 45.4744 31.33 45.359L37.91 40.9628C38 40.9026 38.1286 40.937 38.1972 41.0396L40.6434 44.7009C40.7353 44.8381 40.6692 45.0124 40.5204 45.0244Z" fill="#FDC00F"/>
<path opacity="0.12" d="M69.9639 32.0896L48.4333 44.5202C48.2028 44.6533 47.908 44.5744 47.7748 44.3438L46.5607 42.2408C46.4277 42.0103 46.5066 41.7155 46.7371 41.5823L68.2677 29.1517C68.4982 29.0186 68.793 29.0975 68.9262 29.3281L70.1403 31.4311C70.2733 31.6616 70.1944 31.9566 69.9639 32.0896Z" fill="#184F78"/>
<path d="M65.2532 24.7347L48.7615 43.3385C48.5848 43.5378 48.2802 43.556 48.0809 43.3794L46.2639 41.7686C46.0646 41.592 46.0463 41.2873 46.223 41.088L62.7147 22.4842C62.8913 22.2849 63.1959 22.2667 63.3952 22.4433L65.2123 24.0541C65.4114 24.2308 65.4298 24.5356 65.2532 24.7347Z" fill="#16B6C6"/>
<path d="M66.3367 55.7411L52.45 49.6086C52.1298 49.4672 51.9851 49.0933 52.1265 48.7732L58.8097 33.6398C58.9511 33.3199 59.3251 33.1749 59.6451 33.3163L73.5315 39.4488C73.8517 39.5902 73.9964 39.964 73.855 40.2841L67.1718 55.4176C67.0307 55.7375 66.6566 55.8825 66.3367 55.7411Z" fill="#134768"/>
<path d="M66.0634 55.0059L52.6756 49.0938C52.3554 48.9524 52.2107 48.5783 52.3521 48.2584L58.8078 33.6398C58.9492 33.3199 59.3233 33.1749 59.6432 33.3163L73.031 39.2285C73.3512 39.3699 73.4959 39.7439 73.3545 40.0639L66.8988 54.6824C66.7574 55.0024 66.3833 55.1473 66.0634 55.0059Z" fill="#25668E"/>
<path d="M61.5323 46.0325C64.442 47.8933 67.5799 48.1692 69.8364 48.0354L73.3568 40.0636C73.4982 39.7435 73.3532 39.3696 73.0332 39.2282L59.6455 33.3161C59.3253 33.1747 58.9515 33.3196 58.8101 33.6396L54.1768 44.1311C55.5268 43.8399 58.0609 43.812 61.5323 46.0325Z" fill="#184F78"/>
<path d="M71.8544 40.4041L59.5742 34.9809L58.5814 37.229L70.8615 42.6522L71.8544 40.4041Z" fill="#25668E"/>
<path d="M58.2504 42.2132L56.3127 41.3574C56.2687 41.3379 56.2487 41.2865 56.2682 41.2427L57.0657 39.4372C57.0852 39.3931 57.1366 39.3734 57.1804 39.3927L59.1181 40.2485C59.1621 40.268 59.1821 40.3194 59.1625 40.3632L58.3651 42.1687C58.3458 42.2128 58.2944 42.2327 58.2504 42.2132Z" fill="#16B6C6"/>
<path d="M61.0208 43.4369L59.0831 42.5812C59.0391 42.5617 59.0193 42.5103 59.0386 42.4664L59.8361 40.6609C59.8556 40.6169 59.907 40.5972 59.9508 40.6165L61.8885 41.4722C61.9326 41.4917 61.9525 41.5429 61.933 41.587L61.1355 43.3924C61.1162 43.4363 61.0648 43.4562 61.0208 43.4369Z" fill="#16B6C6"/>
<path d="M63.7916 44.6604L61.8537 43.8047C61.8097 43.7852 61.7897 43.7338 61.8092 43.6899L62.6067 41.8845C62.6262 41.8404 62.6774 41.8207 62.7214 41.84L64.6593 42.6957C64.7034 42.715 64.7231 42.7664 64.7038 42.8105L63.9063 44.616C63.8868 44.66 63.8354 44.6799 63.7916 44.6604Z" fill="#16B6C6"/>
<path d="M66.5629 45.8842L64.6252 45.0284C64.5812 45.0089 64.5612 44.9577 64.5807 44.9137L65.3782 43.1082C65.3975 43.0641 65.4491 43.0442 65.4929 43.0637L67.4306 43.9194C67.4746 43.939 67.4946 43.9904 67.475 44.0342L66.6776 45.8397C66.6583 45.8835 66.6067 45.9035 66.5629 45.8842Z" fill="#16B6C6"/>
<path d="M69.3343 47.1077L67.3967 46.2519C67.3526 46.2324 67.3327 46.181 67.3522 46.1372L68.1496 44.3317C68.1692 44.2876 68.2206 44.2679 68.2644 44.2872L70.2021 45.143C70.2461 45.1625 70.266 45.2137 70.2465 45.2577L69.4491 47.0632C69.4298 47.1072 69.3784 47.1272 69.3343 47.1077Z" fill="#16B6C6"/>
<path d="M56.7476 45.6166L54.8097 44.7609C54.7656 44.7414 54.7459 44.6902 54.7652 44.6461L55.5626 42.8407C55.5822 42.7966 55.6333 42.7767 55.6774 42.7962L57.6153 43.6519C57.6593 43.6714 57.6793 43.7228 57.6597 43.7667L56.8623 45.5722C56.8428 45.6162 56.7914 45.6362 56.7476 45.6166Z" fill="#16B6C6"/>
<path d="M59.5199 46.8404L57.5822 45.9846C57.5382 45.9651 57.5183 45.9137 57.5378 45.8699L58.3352 44.0644C58.3545 44.0203 58.4059 44.0006 58.4499 44.0199L60.3878 44.8757C60.4319 44.8952 60.4516 44.9464 60.4323 44.9904L59.6349 46.7959C59.6151 46.8397 59.5637 46.8597 59.5199 46.8404Z" fill="#16B6C6"/>
<path d="M62.2894 48.0639L60.3518 47.2081C60.3077 47.1888 60.2878 47.1374 60.3073 47.0934L61.1047 45.2879C61.1242 45.2438 61.1756 45.2239 61.2195 45.2434L63.1571 46.0992C63.2012 46.1185 63.2211 46.1701 63.2016 46.2139L62.4042 48.0194C62.3849 48.0635 62.3335 48.0834 62.2894 48.0639Z" fill="#16B6C6"/>
<path d="M65.0599 49.2876L63.1223 48.4319C63.0782 48.4124 63.0583 48.3612 63.0778 48.3171L63.8752 46.5117C63.8947 46.4676 63.9459 46.4477 63.99 46.4672L65.9276 47.3229C65.9717 47.3424 65.9916 47.3938 65.9721 47.4377L65.1747 49.2432C65.1554 49.287 65.104 49.3069 65.0599 49.2876Z" fill="#16B6C6"/>
<path d="M67.8304 50.5111L65.8927 49.6554C65.8486 49.6359 65.8289 49.5845 65.8482 49.5406L66.6456 47.7351C66.6652 47.6911 66.7163 47.6711 66.7604 47.6907L68.6983 48.5464C68.7423 48.5659 68.7623 48.6173 68.7427 48.6612L67.9453 50.4666C67.9256 50.5107 67.8742 50.5306 67.8304 50.5111Z" fill="#16B6C6"/>
<path d="M60.8343 51.357L58.8967 50.5013C58.8526 50.4817 58.8327 50.4306 58.8522 50.3865L59.6496 48.581C59.6692 48.537 59.7203 48.517 59.7644 48.5365L61.7023 49.3923C61.7463 49.4118 61.766 49.4632 61.7467 49.507L60.9493 51.3125C60.9298 51.3566 60.8784 51.3765 60.8343 51.357Z" fill="#16B6C6"/>
<path d="M57.6003 49.9289L53.301 48.0303C53.2569 48.0108 53.237 47.9596 53.2565 47.9155L54.0539 46.1101C54.0734 46.066 54.1246 46.0461 54.1687 46.0656L58.468 47.9642C58.5121 47.9835 58.532 48.0349 58.5125 48.079L57.7151 49.8845C57.6955 49.9285 57.6441 49.9484 57.6003 49.9289Z" fill="#FDC00F"/>
<path d="M63.6049 52.5807L61.6672 51.725C61.6231 51.7055 61.6032 51.6541 61.6227 51.6102L62.4202 49.8047C62.4395 49.7607 62.4909 49.741 62.5349 49.7603L64.4726 50.616C64.5166 50.6355 64.5366 50.6867 64.517 50.7308L63.7196 52.5362C63.7003 52.5803 63.6489 52.6002 63.6049 52.5807Z" fill="#16B6C6"/>
<path d="M66.3773 53.8044L64.4397 52.9487C64.3956 52.9294 64.3757 52.878 64.3952 52.8339L65.1926 51.0285C65.2121 50.9844 65.2635 50.9645 65.3074 50.984L67.245 51.8397C67.2891 51.859 67.309 51.9104 67.2895 51.9545L66.4921 53.76C66.4726 53.8038 66.4212 53.8237 66.3773 53.8044Z" fill="#16B6C6"/>
<path d="M23.153 27.0466C22.8945 27.1377 22.6067 27.0311 22.4734 26.7917C20.0992 22.5256 14.9183 20.4534 10.1613 22.1289C5.40418 23.8043 2.66532 28.6654 3.48834 33.4778C3.53449 33.748 3.37694 34.0113 3.11847 34.1024L0.92151 34.8761C0.626329 34.9799 0.471291 35.3034 0.575349 35.5986L1.26725 37.5633C1.3711 37.8585 1.6946 38.0133 1.98978 37.9095L26.4182 29.3063C26.7134 29.2024 26.8682 28.8789 26.7644 28.5838L26.0725 26.619C25.9686 26.3239 25.6451 26.169 25.3499 26.2729L23.153 27.0466ZM11.2763 25.2948C14.1893 24.2689 17.3391 25.3362 19.0798 27.7051C19.3049 28.0117 19.169 28.4497 18.8102 28.576L7.46142 32.5728C7.10267 32.6991 6.7221 32.4431 6.70553 32.063C6.57756 29.1263 8.36332 26.3207 11.2763 25.2948Z" fill="#FC611F"/>
<path d="M0.42327 45.6642C0.512852 46.425 0.615022 47.2203 0.846844 47.9531C1.01321 48.4793 1.38811 48.86 1.96588 48.8372C2.0326 48.8344 2.01561 48.7318 1.94952 48.7344C1.19489 48.7644 0.965588 48.0729 0.8309 47.4643C0.698101 46.8643 0.598028 46.258 0.526069 45.6477C0.518307 45.5812 0.415507 45.5977 0.42327 45.6642Z" fill="#184F78"/>
<path d="M0.0447237 47.0113C0.46578 47.033 0.881593 47.0099 1.29782 46.9406C1.36391 46.9297 1.34754 46.8269 1.28146 46.8378C0.874879 46.9056 0.468088 46.9291 0.0562624 46.9079C-0.0104521 46.9044 -0.0222006 47.008 0.0447237 47.0113Z" fill="#184F78"/>
<path d="M3.03299 46.9459C2.82677 46.6476 2.23473 46.6549 2.03374 46.9637C1.77905 47.3548 2.00479 48.006 2.36186 48.2479C2.73509 48.5009 3.1681 48.3444 3.31454 47.9225C3.40181 47.6712 3.36845 47.3718 3.31307 47.1171C3.2816 46.9721 3.2344 46.8481 3.07873 46.8167C3.03971 46.8087 3.00908 46.8565 3.02565 46.8899C3.15027 47.1423 3.27824 47.3926 3.48153 47.5919C3.68105 47.7876 3.92546 47.9263 4.16735 48.0626C4.22504 48.0952 4.28672 48.0112 4.2284 47.9783C4.00476 47.852 3.77881 47.7251 3.58958 47.5495C3.37769 47.3531 3.24698 47.1026 3.12048 46.8467C3.10285 46.871 3.08502 46.8956 3.0674 46.9199C3.31202 46.9696 3.26985 47.6607 3.23419 47.813C3.13852 48.2202 2.73802 48.4031 2.38725 48.1392C2.11703 47.9359 2.02242 47.5864 2.0585 47.2619C2.08326 47.0382 2.20578 46.9075 2.42921 46.8582C2.62012 46.816 2.83495 46.8412 2.95264 47.0118C2.99061 47.067 3.07097 47.0007 3.03299 46.9459Z" fill="#184F78"/>
<path d="M4.29087 46.4759C4.52772 46.958 4.68591 47.4645 4.765 47.9957C4.7992 47.9902 4.83339 47.9848 4.8678 47.9793C4.82311 47.745 4.78032 47.51 4.74088 47.2746C4.69829 47.0206 4.59738 46.5227 5.02053 46.5693C5.31319 46.6016 5.33585 46.9675 5.40068 47.1905C5.4655 47.4135 5.55949 47.6212 5.67572 47.8218C5.70887 47.879 5.80411 47.8367 5.77033 47.7785C5.656 47.5809 5.56474 47.3795 5.50096 47.1601C5.45648 47.0071 5.43466 46.8366 5.35683 46.695C5.26368 46.5257 5.09774 46.4216 4.90158 46.4665C4.71046 46.5103 4.59905 46.6599 4.58437 46.8513C4.55668 47.2144 4.69745 47.6413 4.765 47.9957C4.77759 48.0613 4.87766 48.0456 4.8678 47.9793C4.78724 47.4389 4.62654 46.9234 4.38548 46.4329C4.35611 46.3729 4.26108 46.4157 4.29087 46.4759Z" fill="#184F78"/>
<path d="M6.6415 45.1192C6.39415 46.0968 6.41178 47.3667 7.46641 47.8593C7.52725 47.8876 7.56438 47.7905 7.50396 47.7624C6.50555 47.296 6.50618 46.0748 6.73843 45.157C6.75479 45.0926 6.65786 45.0544 6.6415 45.1192Z" fill="#184F78"/>
<path d="M9.79558 44.7309C10.2781 45.4026 10.8278 46.2347 10.4285 47.0797C10.3998 47.1404 10.4971 47.1775 10.5254 47.1173C10.9408 46.2378 10.3796 45.3659 9.87593 44.6646C9.8369 44.6105 9.75655 44.6766 9.79558 44.7309Z" fill="#184F78"/>
<path d="M11.2112 45.5988C11.6605 45.5474 12.107 45.4796 12.5513 45.3957C12.617 45.3834 12.6008 45.2806 12.535 45.2929C12.0906 45.3768 11.644 45.4444 11.1948 45.496C11.1281 45.5038 11.1449 45.6064 11.2112 45.5988Z" fill="#184F78"/>
<path d="M11.5235 46.1871C11.9289 46.122 12.3342 46.0572 12.7397 45.9922C12.8058 45.9815 12.7894 45.8789 12.7231 45.8894C12.3178 45.9544 11.9125 46.0192 11.507 46.0843C11.4409 46.095 11.4572 46.1978 11.5235 46.1871Z" fill="#184F78"/>
<path d="M14.4219 42.8501C14.067 42.8129 13.6631 43.1362 13.8184 43.5267C13.8725 43.6628 13.9933 43.684 14.1295 43.6844C14.3091 43.6848 14.4228 43.6259 14.5864 43.7369C14.9263 43.9672 14.5766 44.2932 14.3089 44.3608C14.2444 44.3769 14.2604 44.48 14.3254 44.4636C14.6387 44.3845 14.9735 44.0879 14.7746 43.7398C14.6982 43.6062 14.568 43.5583 14.4192 43.5567C14.3328 43.5558 14.1383 43.615 14.0636 43.5791C14.0095 43.495 13.9554 43.4111 13.901 43.3269C13.9249 43.2615 13.9491 43.1962 13.973 43.1308C14.0764 42.9799 14.2417 42.9357 14.4106 42.9533C14.4773 42.9604 14.4886 42.857 14.4219 42.8501Z" fill="#184F78"/>
<path d="M15.2446 43.0991C15.2811 43.4128 15.3534 43.7159 15.4609 44.0128C15.4837 44.0757 15.5781 44.0323 15.5555 43.9696C15.4512 43.6811 15.3826 43.387 15.3474 43.0825C15.3394 43.016 15.2368 43.0326 15.2446 43.0991Z" fill="#184F78"/>
<path d="M15.1905 42.6303C15.2566 42.6196 15.2402 42.517 15.1741 42.5275C15.1078 42.5382 15.1242 42.641 15.1905 42.6303Z" fill="#184F78"/>
<path d="M15.7425 42.6159C15.8541 42.9988 15.9657 43.3817 16.0773 43.7644C16.0956 43.8271 16.1877 43.8162 16.1801 43.7478C16.16 43.5661 16.101 43.3928 16.0769 43.2122C16.0456 42.9766 16.1828 42.4332 16.5502 42.7387C16.7902 42.9384 16.8158 43.4902 16.8561 43.7763C16.8653 43.8426 16.9681 43.8262 16.9589 43.76C16.9136 43.4379 16.859 42.5312 16.3601 42.5539C15.7502 42.5815 16.0419 43.4421 16.0775 43.7641C16.1117 43.7587 16.1459 43.7532 16.1803 43.7476C16.0687 43.3647 15.9571 42.982 15.8455 42.5992C15.8268 42.536 15.7238 42.5518 15.7425 42.6159Z" fill="#184F78"/>
<path d="M13.1274 45.3225C16.1422 44.7076 19.1414 44.0178 22.1217 43.2536C22.1861 43.237 22.1702 43.1342 22.1054 43.1508C19.1248 43.915 16.1258 44.605 13.1111 45.2197C13.0456 45.2332 13.0618 45.336 13.1274 45.3225Z" fill="#184F78"/>
<path d="M15.6697 45.7425C15.269 45.9639 14.8249 46.5041 14.9923 46.9992C15.1012 47.3216 15.8818 47.4882 15.9112 47.0609C15.9158 46.9941 15.8124 46.9826 15.8078 47.0493C15.8019 47.133 15.53 47.1983 15.4568 47.192C15.362 47.1838 15.2963 47.1695 15.2168 47.1148C15.023 46.9811 15.053 46.7302 15.1186 46.5324C15.2189 46.2297 15.4362 45.9899 15.713 45.8371C15.7711 45.805 15.7285 45.71 15.6697 45.7425Z" fill="#184F78"/>
<path d="M16.483 46.1029C16.2369 46.2802 16.1482 46.6322 16.3011 46.901C16.4486 47.1605 16.796 47.2597 17.0685 47.1561C17.3647 47.0434 17.5198 46.7042 17.4537 46.4006C17.4281 46.2833 17.3692 46.1531 17.2638 46.0876C17.0853 45.9764 16.7341 46.0448 16.5321 46.0461C16.4658 46.0465 16.4538 46.1499 16.5205 46.1495C16.7624 46.148 17.2059 46.0563 17.3215 46.3257C17.4271 46.5718 17.3339 46.9006 17.0935 47.0289C16.861 47.1531 16.5291 47.0904 16.3945 46.851C16.2656 46.6222 16.3395 46.3345 16.5489 46.1835C16.6034 46.1442 16.5373 46.0639 16.483 46.1029Z" fill="#184F78"/>
<path d="M18.1204 45.4589C17.8718 45.4583 17.7088 45.7136 17.8389 45.937C17.9014 46.0442 18.0147 46.1147 18.134 46.1403C18.2358 46.1621 18.3828 46.1269 18.4747 46.1772C18.7072 46.3046 18.5471 46.524 18.4298 46.6079C18.3629 46.6558 18.2931 46.6765 18.2119 46.6856C18.1454 46.6929 18.1619 46.7955 18.2284 46.7884C18.4621 46.7628 18.7418 46.5593 18.6998 46.2914C18.681 46.1707 18.5908 46.1036 18.4775 46.0715C18.4032 46.0503 18.3277 46.0551 18.2515 46.0482C18.1665 46.0404 18.0967 46.0312 18.0283 45.9752C17.9368 45.9408 17.9165 45.8709 17.967 45.7658C17.9219 45.6265 17.9693 45.5585 18.1091 45.5623C18.1754 45.5623 18.1873 45.4589 18.1204 45.4589Z" fill="#184F78"/>
<path d="M19.6371 44.5952C19.4065 44.9594 19.2183 45.4838 19.3589 45.9156C19.4921 46.3253 19.9495 46.4447 20.325 46.5229C20.3907 46.5366 20.4014 46.4331 20.3363 46.4195C19.9717 46.3436 19.5257 46.2282 19.4382 45.8063C19.3579 45.4188 19.5169 44.9789 19.7214 44.656C19.7571 44.5998 19.673 44.5385 19.6371 44.5952Z" fill="#184F78"/>
<path d="M20.5611 44.8502C20.6255 44.7325 20.7472 44.6975 20.8712 44.7288C21.0365 44.7705 21.121 44.9262 21.1447 45.0863C21.1844 45.3542 21.1196 45.7918 20.7797 45.8052C20.713 45.8079 20.73 45.9105 20.7963 45.908C21.2419 45.8904 21.335 45.2694 21.2133 44.934C21.1066 44.6394 20.6603 44.4542 20.4767 44.7894C20.4451 44.8473 20.529 44.909 20.5611 44.8502Z" fill="#184F78"/>
<path d="M21.2349 44.4586C21.1057 44.506 21.0855 44.6308 21.0838 44.7563C21.0815 44.9472 21.0759 45.2914 21.1969 45.4544C21.3723 45.6907 21.855 45.4972 21.9826 45.2981C22.0187 45.2419 21.9346 45.1807 21.8983 45.2371C21.7946 45.3986 21.3517 45.5768 21.2544 45.3223C21.2001 45.1807 21.1036 44.6172 21.2779 44.5532C21.3408 44.5301 21.2974 44.4355 21.2349 44.4586Z" fill="#184F78"/>
<path d="M21.7296 43.949C21.9327 43.9211 22.1708 44.1558 22.3055 44.284C22.4408 44.4128 22.5619 44.5563 22.6477 44.7235C22.8197 45.0586 22.8275 45.4586 22.6032 45.7706C22.564 45.8249 22.6483 45.886 22.6876 45.8317C22.9515 45.4643 22.9248 44.9902 22.7025 44.6081C22.5317 44.3144 22.0955 43.7937 21.7133 43.8462C21.6468 43.8554 21.6633 43.958 21.7296 43.949Z" fill="#184F78"/>
<path d="M18.3705 41.7751C18.1399 42.1393 17.9517 42.664 18.0923 43.0955C18.2255 43.5053 18.6829 43.6246 19.0584 43.7029C19.1241 43.7165 19.1348 43.6131 19.0699 43.5995C18.7053 43.5235 18.2593 43.4081 18.1718 42.9862C18.0915 42.5988 18.2505 42.1588 18.455 41.8362C18.4903 41.7797 18.4064 41.7185 18.3705 41.7751Z" fill="#184F78"/>
<path d="M19.2963 42.0302C19.3607 41.9125 19.4824 41.8775 19.6064 41.9087C19.7717 41.9505 19.8563 42.1062 19.88 42.2662C19.9196 42.5341 19.8548 42.9718 19.5149 42.9852C19.4482 42.9879 19.4652 43.0905 19.5315 43.088C19.9769 43.0704 20.0702 42.4494 19.9488 42.1139C19.842 41.8194 19.3958 41.6341 19.2122 41.9694C19.1803 42.0273 19.2642 42.089 19.2963 42.0302Z" fill="#184F78"/>
<path d="M19.9683 41.6385C19.8391 41.686 19.8189 41.8108 19.8172 41.9362C19.8149 42.1274 19.8093 42.4714 19.9303 42.6344C20.1057 42.8707 20.5884 42.6772 20.716 42.4781C20.7521 42.4219 20.668 42.3607 20.6317 42.4171C20.528 42.5786 20.0851 42.7567 19.9878 42.5023C19.9335 42.3607 19.837 41.7971 20.0113 41.7332C20.0742 41.7101 20.031 41.6155 19.9683 41.6385Z" fill="#184F78"/>
<path d="M7.66839 45.7064C7.78336 45.4865 8.05651 45.4473 8.26882 45.5358C8.49498 45.63 8.60848 45.8659 8.64561 46.0952C8.71442 46.5204 8.61246 47.2731 8.05378 47.2868C7.9877 47.2885 7.97553 47.3919 8.04245 47.3902C8.72974 47.3734 8.87848 46.4386 8.70939 45.9143C8.5575 45.4433 7.85511 45.1265 7.57146 45.6689C7.54042 45.7282 7.63776 45.7651 7.66839 45.7064Z" fill="#184F78"/>
<path d="M8.77267 45.1406C8.57903 45.2002 8.55113 45.4027 8.54987 45.5816C8.5484 45.7889 8.57336 46.0012 8.60231 46.2062C8.62266 46.3514 8.63127 46.5504 8.7219 46.6763C8.84861 46.8523 9.10435 46.8244 9.2938 46.797C9.55142 46.7596 9.7845 46.6577 9.9257 46.4315C9.96094 46.3748 9.87702 46.3136 9.84136 46.3704C9.65611 46.6671 8.92246 46.9188 8.76197 46.4969C8.69483 46.3205 8.68854 46.0889 8.67218 45.9022C8.65644 45.7234 8.57399 45.3099 8.81588 45.2355C8.87966 45.2157 8.83602 45.1211 8.77267 45.1406Z" fill="#184F78"/>
<path d="M20.461 41.1289C20.6641 41.101 20.9024 41.3358 21.0369 41.464C21.1722 41.5928 21.2932 41.7363 21.3791 41.9035C21.5509 42.2385 21.5588 42.6386 21.3346 42.9506C21.2956 43.0049 21.3797 43.066 21.4189 43.0116C21.6828 42.6445 21.6562 42.1704 21.4338 41.7881C21.263 41.4944 20.8269 40.9737 20.4446 41.0264C20.3783 41.0354 20.3947 41.138 20.461 41.1289Z" fill="#184F78"/>
<path opacity="0.12" d="M15.8837 56.0179L15.5342 54.944C15.4549 54.9096 15.3798 54.8733 15.308 54.8351C15.2841 54.8223 15.2625 54.8087 15.2392 54.7955C15.1931 54.7692 15.1467 54.7432 15.1037 54.7155C15.0779 54.699 15.0542 54.6816 15.0296 54.6646C14.9923 54.6388 14.9549 54.613 14.9199 54.5861C14.8956 54.5672 14.8727 54.5479 14.8494 54.5286C14.8173 54.502 14.7854 54.4753 14.7556 54.4478C14.7336 54.4275 14.7126 54.4067 14.6917 54.386C14.6635 54.3581 14.6361 54.3301 14.61 54.3016C14.5905 54.2802 14.5719 54.2586 14.5534 54.2368C14.5286 54.2074 14.5047 54.1778 14.4819 54.1478C14.4653 54.1262 14.4491 54.1042 14.4336 54.0822C14.4114 54.0507 14.3902 54.0188 14.37 53.9867C14.3566 53.9653 14.343 53.9441 14.3304 53.9225C14.3102 53.8883 14.2916 53.8537 14.2735 53.8189C14.263 53.7987 14.2523 53.7788 14.2425 53.7585C14.2238 53.7199 14.2068 53.6808 14.1905 53.6418C14.1835 53.625 14.1758 53.6085 14.1693 53.5917C14.1506 53.5443 14.1338 53.4966 14.1183 53.4486C14.1153 53.4398 14.112 53.4312 14.1093 53.4224C14.0352 53.1864 13.9968 52.9466 13.9828 52.7139C13.9828 52.7135 13.9828 52.7129 13.9828 52.7124C13.9792 52.6547 13.9773 52.5975 13.9767 52.5408C13.9767 52.5398 13.9767 52.5385 13.9767 52.5373C13.976 52.4806 13.9767 52.4248 13.9786 52.3696C14.0031 51.6205 14.2362 51.0226 14.2362 51.0226L14.0115 50.1483L8.9668 51.5968L9.31652 52.5209C11.8638 53.9943 10.2155 56.4417 10.2155 56.4417L10.5652 57.5656L15.8837 56.0179Z" fill="#184F78"/>
<path d="M7.61719 50.7496L12.6619 49.3012L12.8866 50.1752C12.8866 50.1752 11.7627 53.0473 14.1852 54.096L14.5349 55.17L9.2154 56.7182L8.86567 55.5944C8.86567 55.5944 10.514 53.1469 7.9667 51.6735L7.61719 50.7496Z" fill="#184F78"/>
<path d="M11.1385 53.247C11.3039 53.247 11.438 53.1129 11.438 52.9474C11.438 52.782 11.3039 52.6478 11.1385 52.6478C10.973 52.6478 10.8389 52.782 10.8389 52.9474C10.8389 53.1129 10.973 53.247 11.1385 53.247Z" fill="#F5F8FB"/>
<path d="M14.1844 54.0962C12.8666 53.5256 12.5989 52.416 12.6281 51.5223C11.8705 53.1819 10.6665 54.9715 8.86523 55.596L9.21433 56.7184L14.5339 55.1702L14.1844 54.0962Z" fill="#124768"/>
<path d="M9.72754 51.178C9.80244 51.178 11.1885 50.7534 11.1885 50.7534L12.4247 54.7741L10.8592 55.266L9.72754 51.178Z" fill="#F5F8FB"/>
<path d="M10.4424 50.9789L11.3004 50.6957L12.5179 54.7508L11.6252 55.0349" fill="#E1E8EF"/>
<path d="M11.4799 53.2086C11.4799 53.3578 11.3588 53.4788 11.2097 53.4788C11.0605 53.4788 10.9395 53.3578 10.9395 53.2086C10.9395 53.0594 11.0605 52.9384 11.2097 52.9384C11.359 52.9384 11.4799 53.0594 11.4799 53.2086Z" fill="#184F78"/>
<path opacity="0.12" d="M49.6791 59.0203C49.6791 59.0195 49.6794 59.0186 49.6794 59.0178C49.6773 58.9937 49.6676 58.9702 49.6496 58.9513C49.6405 58.9418 49.6294 58.9337 49.616 58.9271L48.4198 58.3441L46.2306 57.2771L46.2295 57.2845C46.2142 57.2792 46.1993 57.2729 46.1831 57.2696L28.2594 53.4436C28.1029 53.4102 27.9395 53.4639 27.8369 53.5869C27.6801 53.7742 27.467 54.0795 27.3841 54.4225V54.4227C27.3755 54.4579 27.3688 54.4934 27.3631 54.5293C27.3625 54.5335 27.3619 54.5377 27.3613 54.5419C27.3566 54.5746 27.3533 54.6073 27.3514 54.6405C27.351 54.6486 27.3508 54.6568 27.3504 54.665C27.3493 54.6948 27.3493 54.7248 27.3508 54.7548C27.3514 54.767 27.3527 54.7791 27.3537 54.7913C27.356 54.8181 27.359 54.8452 27.3636 54.8721C27.3663 54.888 27.3703 54.904 27.3738 54.9199C27.3791 54.9436 27.3843 54.9673 27.3917 54.9912C27.3978 55.0112 27.4059 55.0309 27.4135 55.0508C27.4213 55.0709 27.428 55.0913 27.4372 55.1114C27.4483 55.136 27.4626 55.1603 27.4762 55.1847C27.485 55.2004 27.4924 55.2161 27.502 55.2319C27.5272 55.2719 27.5555 55.3118 27.588 55.3512C27.604 55.3705 27.6216 55.3884 27.6403 55.4047C27.6969 55.4534 27.7655 55.4876 27.8392 55.5027L36.7934 57.355L45.7476 59.2072C45.7766 59.2133 45.8053 59.2162 45.8336 59.2162C45.8619 59.2165 45.8901 59.2137 45.9173 59.2087C45.9364 59.2051 45.9547 59.1986 45.9729 59.1925V59.193L48.2588 59.1611L49.5682 59.1428C49.598 59.1424 49.6225 59.1321 49.6412 59.1158C49.6429 59.1143 49.6437 59.1122 49.6454 59.1107C49.6559 59.1004 49.6636 59.0881 49.6693 59.0746C49.6762 59.0572 49.6804 59.0388 49.6791 59.0203Z" fill="#184F78"/>
<path d="M46.5596 58.1346L46.9809 57.103C47.0734 56.8766 46.9616 56.6186 46.7334 56.5313L29.6181 49.9761C29.4688 49.9189 29.2991 49.9468 29.1786 50.0523C28.8352 50.3529 28.2291 51.027 28.6596 51.7566C28.7106 51.8431 28.7905 51.91 28.8843 51.9453L46.0031 58.3779C46.2236 58.4608 46.4705 58.353 46.5596 58.1346Z" fill="#184F78"/>
<path d="M46.6474 57.5411C46.5169 57.4995 32.2736 52.179 28.6022 50.8076C28.4849 51.0908 28.4598 51.4174 28.6599 51.7565C28.7109 51.8429 28.7908 51.9098 28.8846 51.9451L46.0034 58.3777C46.2243 58.4608 46.471 58.353 46.5602 58.1346L46.9814 57.103C47.0167 57.0166 47.0219 56.9257 47.0024 56.8414L46.6474 57.5411Z" fill="#124768"/>
<path d="M46.7787 56.5462L49.8679 58.7006C49.9656 58.7688 49.9052 58.9225 49.7871 58.9057L46.2275 58.3985L46.7787 56.5462Z" fill="#EFC4A3"/>
<path d="M48.4906 58.721L49.787 58.9056C49.9051 58.9224 49.9657 58.7688 49.8677 58.7004L48.7762 57.9391C48.4468 58.259 48.4296 58.5328 48.4906 58.721Z" fill="#184F78"/>
</svg>
