<svg width="109" height="138" viewBox="0 0 109 138" fill="none" xmlns="http://www.w3.org/2000/svg">
<g filter="url(#filter0_d_245_4538)">
<path fill-rule="evenodd" clip-rule="evenodd" d="M26.3438 74.044L54.3425 86.5098L45.6556 106.021C44.6883 108.193 44.2047 109.28 43.4504 109.742C42.7915 110.146 41.9966 110.265 41.2481 110.072C40.3913 109.851 39.6104 108.955 38.0485 107.162L31.646 99.8109L21.8992 99.9715C19.5215 100.011 18.3327 100.03 17.5952 99.5414C16.9509 99.1143 16.5076 98.4439 16.367 97.6838C16.206 96.8138 16.6896 95.7276 17.6568 93.5551L26.3438 74.044Z" fill="#BC24A3"/>
</g>
<mask id="mask0_245_4538" style="mask-type:luminance" maskUnits="userSpaceOnUse" x="16" y="74" width="39" height="37">
<path fill-rule="evenodd" clip-rule="evenodd" d="M26.3438 74.044L54.3425 86.5098L44.5646 108.471C43.7168 110.375 41.1792 110.756 39.8102 109.184L31.646 99.8109L19.2174 100.016C17.1334 100.05 15.7181 97.9095 16.5659 96.0055L26.3438 74.044Z" fill="white"/>
</mask>
<g mask="url(#mask0_245_4538)">
<g filter="url(#filter1_d_245_4538)">
<path fill-rule="evenodd" clip-rule="evenodd" d="M40.3431 80.2769L26.3438 74.044L17.6568 93.5551C16.6896 95.7276 16.206 96.8138 16.367 97.6838C16.5076 98.4439 16.9509 99.1143 17.5952 99.5414C18.3327 100.03 19.5215 100.011 21.8992 99.9715L31.646 99.8109L40.3431 80.2769Z" fill="#BC24A3"/>
<path d="M38.0485 107.162C39.6104 108.955 40.3913 109.851 41.2481 110.072C41.9966 110.265 42.7915 110.146 43.4504 109.742C44.2047 109.28 44.6883 108.193 45.6556 106.021L54.3425 86.5098L40.3431 80.2769L31.646 99.8109L38.0485 107.162Z" fill="#6239D5"/>
</g>
<path fill-rule="evenodd" clip-rule="evenodd" d="M26.3438 74.044L54.3425 86.5098L42.7463 112.555L31.646 99.8109L14.7476 100.089L26.3438 74.044Z" fill="url(#paint0_linear_245_4538)" fill-opacity="0.3" style="mix-blend-mode:overlay"/>
<path fill-rule="evenodd" clip-rule="evenodd" d="M26.3438 74.044L54.3425 86.5098L42.7463 112.555L31.646 99.8109L14.7476 100.089L26.3438 74.044Z" fill="url(#paint1_radial_245_4538)" fill-opacity="0.6" style="mix-blend-mode:overlay"/>
<path fill-rule="evenodd" clip-rule="evenodd" d="M39.6299 64.3552L52.6526 70.1533L36.418 106.617L29.9066 103.718L23.3953 100.819L39.6299 64.3552Z" fill="white"/>
<g style="mix-blend-mode:soft-light">
<path d="M32.4311 61.2475L59.7786 73.4233C59.9134 73.4834 59.9742 73.6418 59.9142 73.7766L44.4832 108.435C43.6876 110.222 41.355 110.624 40.0043 109.263L39.8775 109.125L31.8215 99.8773C31.7568 99.8031 31.6702 99.753 31.5755 99.7336L31.4789 99.7248L19.2157 99.9262C17.1968 99.9594 15.8256 97.8862 16.6468 96.0416L32.0778 61.3831L32.105 61.3364C32.1773 61.2352 32.313 61.1949 32.4311 61.2475Z" stroke="url(#paint2_linear_245_4538)" stroke-width="0.178189" stroke-linecap="round" stroke-linejoin="round"/>
</g>
</g>
<g filter="url(#filter2_d_245_4538)">
<path fill-rule="evenodd" clip-rule="evenodd" d="M53.9492 86.5098L81.9479 74.044L90.6349 93.5551C91.6021 95.7275 92.0857 96.8138 91.9247 97.6838C91.7841 98.4439 91.3408 99.1143 90.6965 99.5414C89.959 100.03 88.7701 100.011 86.3924 99.9715L76.6457 99.8109L70.2432 107.162C68.6813 108.955 67.9003 109.851 67.0436 110.072C66.2951 110.265 65.5002 110.146 64.8413 109.742C64.087 109.28 63.6034 108.193 62.6361 106.021L53.9492 86.5098Z" fill="#BC24A3"/>
</g>
<mask id="mask1_245_4538" style="mask-type:luminance" maskUnits="userSpaceOnUse" x="53" y="74" width="39" height="37">
<path fill-rule="evenodd" clip-rule="evenodd" d="M53.9492 86.5098L81.9479 74.044L91.7258 96.0054C92.5736 97.9095 91.1583 100.05 89.0743 100.016L76.6457 99.8109L68.4815 109.184C67.1125 110.756 64.5748 110.375 63.7271 108.471L53.9492 86.5098Z" fill="white"/>
</mask>
<g mask="url(#mask1_245_4538)">
<g filter="url(#filter3_d_245_4538)">
<path fill-rule="evenodd" clip-rule="evenodd" d="M81.9479 74.044L67.9486 80.2769L76.6457 99.8109L86.3924 99.9715C88.7701 100.011 89.959 100.03 90.6965 99.5414C91.3408 99.1143 91.7841 98.4439 91.9247 97.6838C92.0857 96.8138 91.6021 95.7275 90.6349 93.5551L81.9479 74.044Z" fill="#BC24A3"/>
<path d="M62.6361 106.021C63.6034 108.193 64.087 109.28 64.8413 109.742C65.5002 110.146 66.2951 110.265 67.0436 110.072C67.9003 109.851 68.6813 108.955 70.2432 107.162L76.6457 99.8109L67.9486 80.2769L53.9492 86.5098L62.6361 106.021Z" fill="#6239D5"/>
</g>
<path fill-rule="evenodd" clip-rule="evenodd" d="M53.9492 86.5098L81.9479 74.044L93.5441 100.089L76.6457 99.8109L65.5454 112.555L53.9492 86.5098Z" fill="url(#paint3_linear_245_4538)" fill-opacity="0.3" style="mix-blend-mode:overlay"/>
<path fill-rule="evenodd" clip-rule="evenodd" d="M53.9492 86.5098L81.9479 74.044L93.5441 100.089L76.6457 99.8109L65.5454 112.555L53.9492 86.5098Z" fill="url(#paint4_radial_245_4538)" fill-opacity="0.6" style="mix-blend-mode:overlay"/>
<path fill-rule="evenodd" clip-rule="evenodd" d="M55.6387 70.1533L68.6613 64.3552L84.8959 100.819L78.3846 103.718L71.8733 106.617L55.6387 70.1533Z" fill="white"/>
<g style="mix-blend-mode:soft-light">
<path d="M48.5131 73.4234L75.8606 61.2475C75.9955 61.1875 76.1539 61.2483 76.2139 61.3831L91.6449 96.0416C92.4405 97.8286 91.1784 99.8311 89.2632 99.9241L89.076 99.9262L76.8128 99.7248C76.7144 99.7233 76.6192 99.7541 76.5414 99.8115L76.4702 99.8774L68.4142 109.125C67.088 110.648 64.6298 110.28 63.8085 108.435L48.3775 73.7767L48.361 73.7252C48.3342 73.6038 48.3951 73.4759 48.5131 73.4234Z" stroke="url(#paint5_linear_245_4538)" stroke-width="0.178189" stroke-linecap="round" stroke-linejoin="round"/>
</g>
</g>
<g filter="url(#filter4_dddd_245_4538)">
<path d="M50.8734 15.5255C53.2508 14.153 56.1797 14.153 58.557 15.5255L86.1406 31.4509C88.5179 32.8234 89.9824 35.36 89.9824 38.1051V69.9559C89.9824 72.701 88.518 75.2375 86.1406 76.6101L58.557 92.5355C56.1797 93.908 53.2508 93.908 50.8734 92.5355L23.2898 76.6101C20.9125 75.2375 19.448 72.701 19.448 69.9559V38.1051C19.448 35.36 20.9125 32.8234 23.2898 31.4509L50.8734 15.5255Z" fill="white"/>
</g>
<mask id="mask2_245_4538" style="mask-type:alpha" maskUnits="userSpaceOnUse" x="19" y="14" width="71" height="80">
<path d="M50.8734 15.5255C53.2508 14.153 56.1797 14.153 58.557 15.5255L86.1406 31.4509C88.5179 32.8234 89.9824 35.36 89.9824 38.1051V69.9559C89.9824 72.701 88.518 75.2375 86.1406 76.6101L58.557 92.5355C56.1797 93.908 53.2508 93.908 50.8734 92.5355L23.2898 76.6101C20.9125 75.2375 19.448 72.701 19.448 69.9559V38.1051C19.448 35.36 20.9125 32.8234 23.2898 31.4509L50.8734 15.5255Z" fill="black"/>
</mask>
<g mask="url(#mask2_245_4538)">
<mask id="mask3_245_4538" style="mask-type:alpha" maskUnits="userSpaceOnUse" x="19" y="14" width="71" height="80">
<path d="M50.8734 15.5255C53.2508 14.153 56.1797 14.153 58.557 15.5255L86.1406 31.4509C88.5179 32.8234 89.9824 35.36 89.9824 38.1051V69.9559C89.9824 72.701 88.518 75.2375 86.1406 76.6101L58.557 92.5355C56.1797 93.908 53.2508 93.908 50.8734 92.5355L23.2898 76.6101C20.9125 75.2375 19.448 72.701 19.448 69.9559V38.1051C19.448 35.36 20.9125 32.8234 23.2898 31.4509L50.8734 15.5255Z" fill="url(#paint6_linear_245_4538)"/>
</mask>
<g mask="url(#mask3_245_4538)">
<rect x="0.929688" y="0.245331" width="107.57" height="107.57" fill="#A9299C"/>
<rect x="0.929688" y="0.245331" width="107.57" height="107.57" fill="url(#paint7_linear_245_4538)" fill-opacity="0.6" style="mix-blend-mode:overlay"/>
<rect x="0.929688" y="0.245331" width="107.57" height="107.57" fill="url(#paint8_radial_245_4538)" fill-opacity="0.6" style="mix-blend-mode:overlay"/>
<rect x="0.929688" y="0.245361" width="107.57" height="107.57" fill="black" fill-opacity="0.16" style="mix-blend-mode:overlay"/>
<rect x="0.929688" y="0.245361" width="107.57" height="107.57" fill="black" fill-opacity="0.12" style="mix-blend-mode:darken"/>
</g>
<g filter="url(#filter5_d_245_4538)">
<mask id="mask4_245_4538" style="mask-type:alpha" maskUnits="userSpaceOnUse" x="19" y="14" width="71" height="80">
<path d="M53.1182 14.6644C54.171 14.4406 55.2597 14.4407 56.3125 14.6644C57.5028 14.9174 58.6232 15.564 60.8623 16.8567L83.8359 30.1204C86.075 31.4131 87.1945 32.0599 88.0088 32.9642C88.7292 33.7643 89.2737 34.7069 89.6064 35.7308C89.9824 36.888 89.9824 38.1816 89.9824 40.7669V67.2942L89.9766 69.0101C89.9589 70.5181 89.8883 71.4626 89.6064 72.3304L89.4717 72.7112C89.1348 73.5882 88.639 74.3981 88.0088 75.0979L87.8525 75.2649C87.0504 76.0855 85.9345 76.7301 83.8359 77.9417L60.8623 91.2054L59.374 92.0579C58.0591 92.7967 57.2051 93.208 56.3125 93.3978L55.916 93.471C55.1208 93.5967 54.3099 93.5968 53.5146 93.471L53.1182 93.3978C52.2256 93.208 51.3717 92.7968 50.0566 92.0579L48.5684 91.2054L25.5947 77.9417C23.4958 76.7299 22.3802 76.0857 21.5781 75.2649L21.4219 75.0979C20.7916 74.398 20.2959 73.5884 19.959 72.7112L19.8242 72.3304C19.5423 71.4626 19.4717 70.5181 19.4541 69.0101L19.4482 67.2942V40.7669C19.4482 38.3438 19.4483 37.0554 19.7578 35.9505L19.8242 35.7308C20.1153 34.835 20.569 34.0011 21.1602 33.2708L21.4219 32.9642C22.0325 32.2861 22.8151 31.752 24.1123 30.9827L25.5947 30.1204L48.5684 16.8567C50.6676 15.6448 51.7836 15.0004 52.8955 14.7161L53.1182 14.6644ZM67.5469 83.6302L41.8857 83.6292C41.785 83.6292 41.6872 83.6283 41.5928 83.6282L50.1055 88.5433L51.6113 89.4036C52.8372 90.0895 53.3061 90.295 53.7568 90.3909L53.9941 90.4349C54.5511 90.5231 55.1209 90.5083 55.6738 90.3909L55.9043 90.3323C56.4609 90.1657 57.2096 89.7647 59.3252 88.5433L67.8369 83.6282L67.5469 83.6302ZM59.0576 80.5569H67.5459L68.5947 80.5501C69.3941 80.5382 69.527 80.5103 69.6182 80.4808L69.7686 80.4231C69.9154 80.3578 70.0519 80.2694 70.1719 80.1614L70.2598 80.0657C70.3766 79.9169 70.6135 79.5476 71.2734 78.4046L75.5176 71.053L59.0576 80.5569ZM38.1592 78.4056C39.0369 79.9258 39.1648 80.0758 39.2598 80.1614L39.3848 80.263C39.5149 80.3575 39.6599 80.4308 39.8135 80.4808L39.9414 80.5101C40.1291 80.5368 40.5673 80.5569 41.8857 80.5569H50.375L33.9131 71.0521L38.1592 78.4056ZM22.5215 67.2942C22.5215 70.0869 22.5572 70.7967 22.7471 71.3812L22.8281 71.6087C23.0303 72.1351 23.3278 72.6212 23.7061 73.0413L23.8721 73.2112C24.2947 73.61 25.0159 74.0579 27.1318 75.2796L35.6445 80.1946L35.498 79.9417L22.667 57.719C22.6167 57.6319 22.5686 57.5468 22.5215 57.4651V67.2942ZM86.7646 57.719L73.9346 79.9417L73.7881 80.1927L82.2988 75.2796C84.7162 73.8839 85.3134 73.4977 85.7246 73.0413L85.8818 72.8567C86.2364 72.4187 86.5089 71.9184 86.6836 71.3812L86.748 71.1517C86.882 70.5863 86.9092 69.737 86.9092 67.2942V57.4671C86.8624 57.5482 86.8146 57.6326 86.7646 57.719ZM25.3281 51.8792C24.6691 53.0207 24.4682 53.4104 24.3975 53.5862L24.3574 53.7112C24.3239 53.8692 24.3162 54.0317 24.333 54.1917L24.3584 54.3509C24.3851 54.4759 24.4511 54.6629 25.3281 56.1819L29.5732 63.5345V44.5267L25.3281 51.8792ZM79.8584 63.5345L84.1035 56.1819L84.6221 55.2708C85.0119 54.5718 85.0543 54.4436 85.0742 54.3499L85.0986 54.1917C85.1155 54.0317 85.1078 53.8683 85.0742 53.7103L85.0352 53.5862C84.9645 53.4105 84.7631 53.0216 84.1035 51.8792L79.8584 44.5267V63.5345ZM27.1318 32.7825C25.0161 34.0041 24.2947 34.4521 23.8721 34.8509L23.7061 35.0208C23.3282 35.4406 23.0302 35.9264 22.8281 36.4524L22.7471 36.681C22.5574 37.2653 22.5215 37.9753 22.5215 40.7669V50.597L22.668 50.3421L35.4971 28.1194C35.5468 28.0334 35.5949 27.9492 35.6416 27.8685L27.1318 32.7825ZM73.9346 28.1194L86.7646 50.3431L86.9092 50.595V40.7669C86.9092 38.3235 86.8821 37.4749 86.748 36.9095L86.6836 36.681C86.5089 36.1432 86.2368 35.6428 85.8818 35.2044L85.7246 35.0208C85.4162 34.6783 85.0041 34.3754 83.7969 33.6565L82.2988 32.7825L73.7891 27.8694C73.8358 27.9502 73.8848 28.0333 73.9346 28.1194ZM41.8857 27.5042C40.566 27.5042 40.1278 27.5253 39.9404 27.5521L39.8135 27.5804C39.6601 27.6303 39.5147 27.7037 39.3848 27.7981L39.2598 27.8997C39.1648 27.9853 39.0366 28.1368 38.1592 29.6565L33.9141 37.0081L50.375 27.5042H41.8857ZM75.5166 37.0071L71.2725 29.6565C70.6127 28.5137 70.3766 28.1444 70.2598 27.9954L70.1719 27.8997C70.0519 27.7917 69.9154 27.7034 69.7686 27.638L69.6182 27.5804C69.4966 27.5409 69.3022 27.5042 67.5459 27.5042H59.0576L75.5166 37.0071ZM55.6738 17.6712C55.1209 17.5537 54.5511 17.5381 53.9941 17.6263L53.7568 17.6712C53.1559 17.7991 52.5232 18.123 50.1055 19.5188L41.5947 24.4319C41.6882 24.4319 41.7851 24.431 41.8848 24.431L67.5459 24.4319C67.6455 24.4319 67.7425 24.4319 67.8359 24.4319L59.3252 19.5188C56.9068 18.1226 56.2749 17.799 55.6738 17.6712Z" fill="black"/>
</mask>
<g mask="url(#mask4_245_4538)">
<rect x="0.930664" y="0.24527" width="107.57" height="107.57" fill="#A9299C"/>
<rect x="0.930664" y="0.24527" width="107.57" height="107.57" fill="url(#paint9_linear_245_4538)" fill-opacity="0.6" style="mix-blend-mode:overlay"/>
<rect x="0.930664" y="0.24527" width="107.57" height="107.57" fill="url(#paint10_radial_245_4538)" fill-opacity="0.6" style="mix-blend-mode:overlay"/>
<g style="mix-blend-mode:soft-light">
<path fill-rule="evenodd" clip-rule="evenodd" d="M0.930664 0.245361H65.4729L44.8743 107.816H0.930664V0.245361Z" fill="url(#paint11_linear_245_4538)" style="mix-blend-mode:lighten"/>
</g>
<g style="mix-blend-mode:soft-light">
<mask id="path-23-inside-1_245_4538" fill="white">
<path d="M53.1182 14.6644C54.171 14.4406 55.2597 14.4407 56.3125 14.6644C57.5028 14.9174 58.6232 15.564 60.8623 16.8567L83.8359 30.1204C86.075 31.4131 87.1945 32.0599 88.0088 32.9642C88.7292 33.7643 89.2737 34.7069 89.6064 35.7308C89.9824 36.888 89.9824 38.1816 89.9824 40.7669V67.2942L89.9766 69.0101C89.9589 70.5181 89.8883 71.4626 89.6064 72.3304L89.4717 72.7112C89.1348 73.5882 88.639 74.3981 88.0088 75.0979L87.8525 75.2649C87.0504 76.0855 85.9345 76.7301 83.8359 77.9417L60.8623 91.2054L59.374 92.0579C58.0591 92.7967 57.2051 93.208 56.3125 93.3978L55.916 93.471C55.1208 93.5967 54.3099 93.5968 53.5146 93.471L53.1182 93.3978C52.2256 93.208 51.3717 92.7968 50.0566 92.0579L48.5684 91.2054L25.5947 77.9417C23.4958 76.7299 22.3802 76.0857 21.5781 75.2649L21.4219 75.0979C20.7916 74.398 20.2959 73.5884 19.959 72.7112L19.8242 72.3304C19.5423 71.4626 19.4717 70.5181 19.4541 69.0101L19.4482 67.2942V40.7669C19.4482 38.3438 19.4483 37.0554 19.7578 35.9505L19.8242 35.7308C20.1153 34.835 20.569 34.0011 21.1602 33.2708L21.4219 32.9642C22.0325 32.2861 22.8151 31.752 24.1123 30.9827L25.5947 30.1204L48.5684 16.8567C50.6676 15.6448 51.7836 15.0004 52.8955 14.7161L53.1182 14.6644ZM67.5469 83.6302L41.8857 83.6292C41.785 83.6292 41.6872 83.6283 41.5928 83.6282L50.1055 88.5433L51.6113 89.4036C52.8372 90.0895 53.3061 90.295 53.7568 90.3909L53.9941 90.4349C54.5511 90.5231 55.1209 90.5083 55.6738 90.3909L55.9043 90.3323C56.4609 90.1657 57.2096 89.7647 59.3252 88.5433L67.8369 83.6282L67.5469 83.6302ZM59.0576 80.5569H67.5459L68.5947 80.5501C69.3941 80.5382 69.527 80.5103 69.6182 80.4808L69.7686 80.4231C69.9154 80.3578 70.0519 80.2694 70.1719 80.1614L70.2598 80.0657C70.3766 79.9169 70.6135 79.5476 71.2734 78.4046L75.5176 71.053L59.0576 80.5569ZM38.1592 78.4056C39.0369 79.9258 39.1648 80.0758 39.2598 80.1614L39.3848 80.263C39.5149 80.3575 39.6599 80.4308 39.8135 80.4808L39.9414 80.5101C40.1291 80.5368 40.5673 80.5569 41.8857 80.5569H50.375L33.9131 71.0521L38.1592 78.4056ZM22.5215 67.2942C22.5215 70.0869 22.5572 70.7967 22.7471 71.3812L22.8281 71.6087C23.0303 72.1351 23.3278 72.6212 23.7061 73.0413L23.8721 73.2112C24.2947 73.61 25.0159 74.0579 27.1318 75.2796L35.6445 80.1946L35.498 79.9417L22.667 57.719C22.6167 57.6319 22.5686 57.5468 22.5215 57.4651V67.2942ZM86.7646 57.719L73.9346 79.9417L73.7881 80.1927L82.2988 75.2796C84.7162 73.8839 85.3134 73.4977 85.7246 73.0413L85.8818 72.8567C86.2364 72.4187 86.5089 71.9184 86.6836 71.3812L86.748 71.1517C86.882 70.5863 86.9092 69.737 86.9092 67.2942V57.4671C86.8624 57.5482 86.8146 57.6326 86.7646 57.719ZM25.3281 51.8792C24.6691 53.0207 24.4682 53.4104 24.3975 53.5862L24.3574 53.7112C24.3239 53.8692 24.3162 54.0317 24.333 54.1917L24.3584 54.3509C24.3851 54.4759 24.4511 54.6629 25.3281 56.1819L29.5732 63.5345V44.5267L25.3281 51.8792ZM79.8584 63.5345L84.1035 56.1819L84.6221 55.2708C85.0119 54.5718 85.0543 54.4436 85.0742 54.3499L85.0986 54.1917C85.1155 54.0317 85.1078 53.8683 85.0742 53.7103L85.0352 53.5862C84.9645 53.4105 84.7631 53.0216 84.1035 51.8792L79.8584 44.5267V63.5345ZM27.1318 32.7825C25.0161 34.0041 24.2947 34.4521 23.8721 34.8509L23.7061 35.0208C23.3282 35.4406 23.0302 35.9264 22.8281 36.4524L22.7471 36.681C22.5574 37.2653 22.5215 37.9753 22.5215 40.7669V50.597L22.668 50.3421L35.4971 28.1194C35.5468 28.0334 35.5949 27.9492 35.6416 27.8685L27.1318 32.7825ZM73.9346 28.1194L86.7646 50.3431L86.9092 50.595V40.7669C86.9092 38.3235 86.8821 37.4749 86.748 36.9095L86.6836 36.681C86.5089 36.1432 86.2368 35.6428 85.8818 35.2044L85.7246 35.0208C85.4162 34.6783 85.0041 34.3754 83.7969 33.6565L82.2988 32.7825L73.7891 27.8694C73.8358 27.9502 73.8848 28.0333 73.9346 28.1194ZM41.8857 27.5042C40.566 27.5042 40.1278 27.5253 39.9404 27.5521L39.8135 27.5804C39.6601 27.6303 39.5147 27.7037 39.3848 27.7981L39.2598 27.8997C39.1648 27.9853 39.0366 28.1368 38.1592 29.6565L33.9141 37.0081L50.375 27.5042H41.8857ZM75.5166 37.0071L71.2725 29.6565C70.6127 28.5137 70.3766 28.1444 70.2598 27.9954L70.1719 27.8997C70.0519 27.7917 69.9154 27.7034 69.7686 27.638L69.6182 27.5804C69.4966 27.5409 69.3022 27.5042 67.5459 27.5042H59.0576L75.5166 37.0071ZM55.6738 17.6712C55.1209 17.5537 54.5511 17.5381 53.9941 17.6263L53.7568 17.6712C53.1559 17.7991 52.5232 18.123 50.1055 19.5188L41.5947 24.4319C41.6882 24.4319 41.7851 24.431 41.8848 24.431L67.5459 24.4319C67.6455 24.4319 67.7425 24.4319 67.8359 24.4319L59.3252 19.5188C56.9068 18.1226 56.2749 17.799 55.6738 17.6712Z"/>
</mask>
<path d="M53.1182 14.6644L53.0782 14.4764L53.0747 14.4773L53.1182 14.6644ZM56.3125 14.6644L56.3524 14.4765L56.3524 14.4765L56.3125 14.6644ZM60.8623 16.8567L60.7663 17.0231L60.7663 17.0231L60.8623 16.8567ZM83.8359 30.1204L83.932 29.9541L83.932 29.9541L83.8359 30.1204ZM88.0088 32.9642L88.1515 32.8356L88.1515 32.8356L88.0088 32.9642ZM89.6064 35.7308L89.7891 35.6714L89.7891 35.6714L89.6064 35.7308ZM89.9824 40.7669L90.1745 40.7669L89.9824 40.7669ZM89.9824 67.2942L90.1745 67.2949V67.2942H89.9824ZM89.9766 69.0101L90.1686 69.0123L90.1687 69.0107L89.9766 69.0101ZM89.6064 72.3304L89.7876 72.3945L89.7891 72.3897L89.6064 72.3304ZM89.4717 72.7112L89.6511 72.7801L89.6528 72.7753L89.4717 72.7112ZM88.0088 75.0979L88.1491 75.2292L88.1515 75.2265L88.0088 75.0979ZM87.8525 75.2649L87.9899 75.3993L87.9928 75.3962L87.8525 75.2649ZM83.8359 77.9417L83.932 78.1081L83.932 78.1081L83.8359 77.9417ZM60.8623 91.2054L60.9578 91.3721L60.9583 91.3717L60.8623 91.2054ZM59.374 92.0579L59.4681 92.2254L59.4695 92.2246L59.374 92.0579ZM56.3125 93.3978L56.3474 93.5867L56.3524 93.5856L56.3125 93.3978ZM55.916 93.471L55.946 93.6608L55.9509 93.6599L55.916 93.471ZM53.5146 93.471L53.4797 93.66L53.4846 93.6607L53.5146 93.471ZM53.1182 93.3978L53.0782 93.5857L53.0833 93.5866L53.1182 93.3978ZM50.0566 92.0579L49.9612 92.2246L49.9625 92.2254L50.0566 92.0579ZM48.5684 91.2054L48.4723 91.3717L48.4729 91.3721L48.5684 91.2054ZM25.5947 77.9417L25.4987 78.1081L25.4987 78.1081L25.5947 77.9417ZM21.5781 75.2649L21.4378 75.3962L21.4407 75.3992L21.5781 75.2649ZM21.4219 75.0979L21.2791 75.2265L21.2816 75.2292L21.4219 75.0979ZM19.959 72.7112L19.7778 72.7753L19.7797 72.7801L19.959 72.7112ZM19.8242 72.3304L19.6415 72.3897L19.6431 72.3944L19.8242 72.3304ZM19.4541 69.0101L19.262 69.0107L19.262 69.0123L19.4541 69.0101ZM19.4482 67.2942H19.2562L19.2562 67.2949L19.4482 67.2942ZM19.4482 40.7669H19.2562H19.4482ZM19.7578 35.9505L19.5739 35.8949L19.5728 35.8987L19.7578 35.9505ZM19.8242 35.7308L19.6415 35.6714L19.6403 35.6752L19.8242 35.7308ZM21.1602 33.2708L21.014 33.1461L21.0109 33.1499L21.1602 33.2708ZM21.4219 32.9642L21.2791 32.8356L21.2758 32.8395L21.4219 32.9642ZM24.1123 30.9827L24.0157 30.8167L24.0143 30.8175L24.1123 30.9827ZM25.5947 30.1204L25.4987 29.9541L25.4981 29.9544L25.5947 30.1204ZM48.5684 16.8567L48.6644 17.0231L48.6644 17.0231L48.5684 16.8567ZM52.8955 14.7161L52.852 14.529L52.8479 14.53L52.8955 14.7161ZM67.5469 83.6302L67.5469 83.8223L67.5482 83.8223L67.5469 83.6302ZM41.8857 83.6292L41.8857 83.4371L41.8857 83.4371L41.8857 83.6292ZM41.5928 83.6282L41.5929 83.4361C41.5059 83.4361 41.4298 83.4945 41.4072 83.5784C41.3847 83.6624 41.4214 83.7511 41.4967 83.7946L41.5928 83.6282ZM50.1055 88.5433L50.0094 88.7096L50.0102 88.71L50.1055 88.5433ZM51.6113 89.4036L51.516 89.5704L51.5175 89.5712L51.6113 89.4036ZM53.7568 90.3909L53.7169 90.5789L53.7219 90.5798L53.7568 90.3909ZM53.9941 90.4349L53.9592 90.6238L53.9641 90.6246L53.9941 90.4349ZM55.6738 90.3909L55.7138 90.579L55.7212 90.5771L55.6738 90.3909ZM55.9043 90.3323L55.9517 90.5187L55.9594 90.5163L55.9043 90.3323ZM59.3252 88.5433L59.4212 88.7096L59.4213 88.7096L59.3252 88.5433ZM67.8369 83.6282L67.933 83.7946C68.0085 83.751 68.0451 83.662 68.0223 83.5779C67.9994 83.4937 67.9228 83.4356 67.8356 83.4361L67.8369 83.6282ZM59.0576 80.5569L58.9616 80.3906C58.8863 80.4341 58.8496 80.5227 58.8721 80.6067C58.8946 80.6906 58.9707 80.749 59.0576 80.749V80.5569ZM67.5459 80.5569V80.749L67.5472 80.749L67.5459 80.5569ZM68.5947 80.5501L68.596 80.7422L68.5976 80.7422L68.5947 80.5501ZM69.6182 80.4808L69.6775 80.6637L69.6869 80.6601L69.6182 80.4808ZM69.7686 80.4231L69.8374 80.6028L69.8467 80.5986L69.7686 80.4231ZM70.1719 80.1614L70.3004 80.3042C70.3049 80.3001 70.3092 80.2958 70.3134 80.2914L70.1719 80.1614ZM70.2598 80.0657L70.4012 80.1957C70.4046 80.192 70.4078 80.1882 70.4109 80.1843L70.2598 80.0657ZM71.2734 78.4046L71.4398 78.5006L71.4398 78.5006L71.2734 78.4046ZM75.5176 71.053L75.6839 71.1491C75.7274 71.0738 75.7149 70.9787 75.6534 70.9172C75.5919 70.8557 75.4968 70.8432 75.4215 70.8867L75.5176 71.053ZM38.1592 78.4056L38.3255 78.3095L38.3255 78.3095L38.1592 78.4056ZM39.2598 80.1614L39.131 80.3043L39.1386 80.3105L39.2598 80.1614ZM39.3848 80.263L39.2635 80.4123L39.2718 80.4184L39.3848 80.263ZM39.8135 80.4808L39.7541 80.6634C39.7595 80.6652 39.765 80.6667 39.7706 80.668L39.8135 80.4808ZM39.9414 80.5101L39.8985 80.6973C39.9038 80.6985 39.909 80.6995 39.9144 80.7002L39.9414 80.5101ZM41.8857 80.5569L41.8857 80.749H41.8857V80.5569ZM50.375 80.5569V80.749C50.4619 80.749 50.538 80.6906 50.5605 80.6067C50.583 80.5227 50.5463 80.4341 50.471 80.3906L50.375 80.5569ZM33.9131 71.0521L34.0091 70.8857C33.9338 70.8422 33.8387 70.8547 33.7773 70.9162C33.7158 70.9777 33.7033 71.0728 33.7467 71.1481L33.9131 71.0521ZM22.5215 67.2942L22.3294 67.2942L22.3294 67.2942L22.5215 67.2942ZM22.7471 71.3812L22.5643 71.4405L22.5661 71.4456L22.7471 71.3812ZM22.8281 71.6087L22.6471 71.6732L22.6488 71.6776L22.8281 71.6087ZM23.7061 73.0413L23.5632 73.1699L23.5687 73.1755L23.7061 73.0413ZM23.8721 73.2112L23.7346 73.3456L23.7402 73.351L23.8721 73.2112ZM27.1318 75.2796L27.2279 75.1132L27.2279 75.1132L27.1318 75.2796ZM35.6445 80.1946L35.5485 80.361C35.6238 80.4045 35.719 80.3919 35.7804 80.3304C35.8419 80.2688 35.8544 80.1736 35.8108 80.0984L35.6445 80.1946ZM35.498 79.9417L35.3317 80.0377L35.3318 80.038L35.498 79.9417ZM22.667 57.719L22.5006 57.8151L22.5006 57.8151L22.667 57.719ZM22.5215 57.4651L22.6879 57.3692C22.6445 57.2939 22.5558 57.2571 22.4718 57.2796C22.3878 57.3021 22.3294 57.3782 22.3294 57.4651H22.5215ZM86.7646 57.719L86.5983 57.623L86.5983 57.623L86.7646 57.719ZM73.9346 79.9417L74.1005 80.0385L74.1009 80.0377L73.9346 79.9417ZM73.7881 80.1927L73.6222 80.0958C73.5783 80.1711 73.5905 80.2664 73.6519 80.3282C73.7134 80.3899 73.8087 80.4026 73.8841 80.359L73.7881 80.1927ZM82.2988 75.2796L82.3949 75.4459L82.3949 75.4459L82.2988 75.2796ZM85.7246 73.0413L85.8674 73.1699L85.8708 73.1659L85.7246 73.0413ZM85.8818 72.8567L86.0281 72.9813L86.0311 72.9776L85.8818 72.8567ZM86.6836 71.3812L86.8664 71.4406L86.8685 71.4331L86.6836 71.3812ZM86.748 71.1517L86.9331 71.2036L86.935 71.1959L86.748 71.1517ZM86.9092 67.2942L87.1013 67.2942V67.2942H86.9092ZM86.9092 57.4671H87.1013C87.1013 57.3801 87.0428 57.304 86.9588 57.2815C86.8748 57.259 86.7862 57.2958 86.7428 57.3712L86.9092 57.4671ZM25.3281 51.8792L25.1618 51.7832L25.1618 51.7832L25.3281 51.8792ZM24.3975 53.5862L24.2188 53.5144L24.2145 53.5276L24.3975 53.5862ZM24.3574 53.7112L24.1745 53.6526C24.1725 53.6588 24.1709 53.665 24.1695 53.6714L24.3574 53.7112ZM24.333 54.1917L24.1417 54.2118L24.1433 54.222L24.333 54.1917ZM24.3584 54.3509L24.1684 54.3812L24.1705 54.391L24.3584 54.3509ZM25.3281 56.1819L25.1618 56.278L25.1618 56.278L25.3281 56.1819ZM29.5732 63.5345L29.4069 63.6305C29.4504 63.7058 29.539 63.7425 29.623 63.72C29.7069 63.6975 29.7653 63.6214 29.7653 63.5345H29.5732ZM29.5732 44.5267H29.7653C29.7653 44.4397 29.7069 44.3636 29.623 44.3411C29.539 44.3186 29.4504 44.3553 29.4069 44.4306L29.5732 44.5267ZM79.8584 63.5345H79.6663C79.6663 63.6214 79.7247 63.6975 79.8087 63.72C79.8927 63.7425 79.9813 63.7058 80.0248 63.6305L79.8584 63.5345ZM84.1035 56.1819L84.2699 56.278L84.2705 56.2769L84.1035 56.1819ZM84.6221 55.2708L84.789 55.3658L84.7898 55.3644L84.6221 55.2708ZM85.0742 54.3499L85.2624 54.39L85.2641 54.3792L85.0742 54.3499ZM85.0986 54.1917L85.2887 54.221L85.2897 54.2118L85.0986 54.1917ZM85.0742 53.7103L85.2621 53.6703C85.2608 53.6643 85.2593 53.6584 85.2574 53.6525L85.0742 53.7103ZM85.0352 53.5862L85.2184 53.5285C85.2169 53.5238 85.2152 53.5192 85.2134 53.5146L85.0352 53.5862ZM84.1035 51.8792L84.2699 51.7832L84.2699 51.7832L84.1035 51.8792ZM79.8584 44.5267L80.0248 44.4306C79.9813 44.3553 79.8927 44.3186 79.8087 44.3411C79.7247 44.3636 79.6663 44.4397 79.6663 44.5267H79.8584ZM27.1318 32.7825L27.2279 32.9489L27.2279 32.9489L27.1318 32.7825ZM23.8721 34.8509L23.7401 34.711L23.7347 34.7166L23.8721 34.8509ZM23.7061 35.0208L23.5685 34.8864L23.5633 34.8923L23.7061 35.0208ZM22.8281 36.4524L22.6487 36.3835L22.6471 36.3882L22.8281 36.4524ZM22.7471 36.681L22.566 36.6167L22.5644 36.6216L22.7471 36.681ZM22.5215 40.7669L22.3294 40.7669V40.7669H22.5215ZM22.5215 50.597H22.3294C22.3294 50.684 22.3879 50.7601 22.472 50.7826C22.556 50.805 22.6447 50.7681 22.688 50.6927L22.5215 50.597ZM22.668 50.3421L22.5016 50.2461L22.5014 50.2464L22.668 50.3421ZM35.4971 28.1194L35.3307 28.0234L35.3307 28.0234L35.4971 28.1194ZM35.6416 27.8685L35.8079 27.9646C35.8514 27.8893 35.8389 27.7942 35.7775 27.7327C35.716 27.6712 35.6209 27.6586 35.5455 27.7021L35.6416 27.8685ZM73.9346 28.1194L74.1009 28.0234L74.1009 28.0234L73.9346 28.1194ZM86.7646 50.3431L86.9313 50.2475L86.931 50.247L86.7646 50.3431ZM86.9092 50.595L86.7426 50.6906C86.7859 50.7661 86.8745 50.803 86.9586 50.7806C87.0427 50.7582 87.1013 50.6821 87.1013 50.595H86.9092ZM86.9092 40.7669L87.1013 40.7669L87.1013 40.7669L86.9092 40.7669ZM86.748 36.9095L86.9351 36.8651L86.9329 36.8573L86.748 36.9095ZM86.6836 36.681L86.8686 36.6288L86.8663 36.6216L86.6836 36.681ZM85.8818 35.2044L86.0312 35.0835L86.0277 35.0794L85.8818 35.2044ZM85.7246 35.0208L85.8706 34.8958L85.8674 34.8923L85.7246 35.0208ZM83.7969 33.6565L83.8952 33.4915L83.8937 33.4906L83.7969 33.6565ZM82.2988 32.7825L82.3956 32.6166L82.3949 32.6162L82.2988 32.7825ZM73.7891 27.8694L73.8851 27.7031C73.8098 27.6596 73.7147 27.6721 73.6532 27.7336C73.5917 27.7952 73.5792 27.8903 73.6228 27.9656L73.7891 27.8694ZM41.8857 27.5042L41.8857 27.3121L41.8857 27.3121L41.8857 27.5042ZM39.9404 27.5521L39.9133 27.3619C39.9084 27.3626 39.9035 27.3635 39.8986 27.3646L39.9404 27.5521ZM39.8135 27.5804L39.7717 27.3929C39.7657 27.3942 39.7598 27.3958 39.754 27.3977L39.8135 27.5804ZM39.3848 27.7981L39.2717 27.6425L39.2636 27.6491L39.3848 27.7981ZM39.2598 27.8997L39.1385 27.7504L39.1311 27.7571L39.2598 27.8997ZM38.1592 29.6565L38.3255 29.7526L38.3255 29.7526L38.1592 29.6565ZM33.9141 37.0081L33.7477 36.912C33.7042 36.9873 33.7168 37.0824 33.7782 37.1439C33.8397 37.2054 33.9348 37.2179 34.0101 37.1745L33.9141 37.0081ZM50.375 27.5042L50.471 27.6706C50.5463 27.6271 50.583 27.5385 50.5605 27.4545C50.538 27.3705 50.4619 27.3121 50.375 27.3121V27.5042ZM75.5166 37.0071L75.4206 37.1735C75.4958 37.217 75.591 37.2044 75.6524 37.143C75.7139 37.0815 75.7264 36.9864 75.683 36.9111L75.5166 37.0071ZM71.2725 29.6565L71.1061 29.7526L71.1061 29.7526L71.2725 29.6565ZM70.2598 27.9954L70.4109 27.8768C70.4078 27.8729 70.4046 27.8691 70.4012 27.8655L70.2598 27.9954ZM70.1719 27.8997L70.3134 27.7698C70.3092 27.7653 70.3049 27.761 70.3004 27.7569L70.1719 27.8997ZM69.7686 27.638L69.8468 27.4623L69.8373 27.4586L69.7686 27.638ZM69.6182 27.5804L69.687 27.4008L69.6774 27.3977L69.6182 27.5804ZM67.5459 27.5042L67.5459 27.6963L67.5459 27.5042ZM59.0576 27.5042V27.3121C58.9707 27.3121 58.8946 27.3705 58.8721 27.4545C58.8496 27.5385 58.8863 27.6271 58.9616 27.6706L59.0576 27.5042ZM55.6738 17.6712L55.7138 17.4833L55.7137 17.4833L55.6738 17.6712ZM53.9941 17.6263L53.9641 17.4365L53.9584 17.4375L53.9941 17.6263ZM53.7568 17.6712L53.7211 17.4824L53.7169 17.4833L53.7568 17.6712ZM50.1055 19.5188L50.2015 19.6852L50.2015 19.6852L50.1055 19.5188ZM41.5947 24.4319L41.4987 24.2656C41.4234 24.3091 41.3867 24.3977 41.4092 24.4817C41.4317 24.5657 41.5079 24.6241 41.5948 24.624L41.5947 24.4319ZM41.8848 24.431L41.8848 24.2389L41.8848 24.2389L41.8848 24.431ZM67.5459 24.4319L67.5459 24.624L67.5459 24.624L67.5459 24.4319ZM67.8359 24.4319L67.8358 24.624C67.9228 24.6241 67.9989 24.5657 68.0215 24.4817C68.044 24.3977 68.0073 24.3091 67.932 24.2656L67.8359 24.4319ZM59.3252 19.5188L59.2292 19.6852L59.2292 19.6852L59.3252 19.5188ZM53.1182 14.6644L53.1581 14.8523C54.1846 14.6341 55.246 14.6342 56.2726 14.8523L56.3125 14.6644L56.3524 14.4765C55.2733 14.2472 54.1574 14.2471 53.0782 14.4765L53.1182 14.6644ZM56.3125 14.6644L56.2726 14.8522C57.4261 15.0974 58.5159 15.7238 60.7663 17.0231L60.8623 16.8567L60.9583 16.6904C58.7304 15.4041 57.5796 14.7373 56.3524 14.4765L56.3125 14.6644ZM60.8623 16.8567L60.7663 17.0231L83.7399 30.2868L83.8359 30.1204L83.932 29.9541L60.9583 16.6904L60.8623 16.8567ZM83.8359 30.1204L83.7399 30.2868C85.9901 31.5859 87.077 32.2164 87.866 33.0927L88.0088 32.9642L88.1515 32.8356C87.3121 31.9034 86.1599 31.2403 83.932 29.9541L83.8359 30.1204ZM88.0088 32.9642L87.866 33.0927C88.5684 33.8728 89.0993 34.7918 89.4238 35.7901L89.6064 35.7308L89.7891 35.6714C89.4481 34.6219 88.8899 33.6557 88.1515 32.8356L88.0088 32.9642ZM89.6064 35.7308L89.4238 35.7901C89.7881 36.9116 89.7903 38.1686 89.7903 40.7669L89.9824 40.7669L90.1745 40.7669C90.1745 38.1945 90.1767 36.8645 89.7891 35.6714L89.6064 35.7308ZM89.9824 40.7669H89.7903V67.2942H89.9824H90.1745V40.7669H89.9824ZM89.9824 67.2942L89.7903 67.2936L89.7845 69.0094L89.9766 69.0101L90.1687 69.0107L90.1745 67.2949L89.9824 67.2942ZM89.9766 69.0101L89.7845 69.0078C89.7669 70.515 89.6958 71.4336 89.4238 72.271L89.6064 72.3304L89.7891 72.3897C90.0809 71.4916 90.151 70.5211 90.1686 69.0123L89.9766 69.0101ZM89.6064 72.3304L89.4254 72.2663L89.2906 72.6472L89.4717 72.7112L89.6528 72.7753L89.7875 72.3944L89.6064 72.3304ZM89.4717 72.7112L89.2924 72.6423C88.9639 73.4974 88.4804 74.287 87.866 74.9694L88.0088 75.0979L88.1515 75.2265C88.7975 74.5091 89.3056 73.679 89.651 72.7801L89.4717 72.7112ZM88.0088 75.0979L87.8685 74.9667L87.7123 75.1337L87.8525 75.2649L87.9928 75.3962L88.1491 75.2292L88.0088 75.0979ZM87.8525 75.2649L87.7152 75.1307C86.936 75.9278 85.8485 76.5579 83.7399 77.7753L83.8359 77.9417L83.932 78.1081C86.0206 76.9022 87.1649 76.2432 87.9899 75.3992L87.8525 75.2649ZM83.8359 77.9417L83.7399 77.7753L60.7663 91.039L60.8623 91.2054L60.9583 91.3717L83.932 78.1081L83.8359 77.9417ZM60.8623 91.2054L60.7668 91.0387L59.2785 91.8912L59.374 92.0579L59.4695 92.2246L60.9578 91.3721L60.8623 91.2054ZM59.374 92.0579L59.2799 91.8904C57.9657 92.6288 57.134 93.0268 56.2726 93.2099L56.3125 93.3978L56.3524 93.5856C57.2762 93.3893 58.1524 92.9646 59.4681 92.2254L59.374 92.0579ZM56.3125 93.3978L56.2776 93.2089L55.8811 93.2821L55.916 93.471L55.9509 93.6599L56.3474 93.5866L56.3125 93.3978ZM55.916 93.471L55.886 93.2813C55.1106 93.4039 54.32 93.4039 53.5447 93.2813L53.5146 93.471L53.4846 93.6607C54.2998 93.7897 55.1309 93.7896 55.946 93.6607L55.916 93.471ZM53.5146 93.471L53.5495 93.2821L53.1531 93.2089L53.1182 93.3978L53.0833 93.5866L53.4798 93.6599L53.5146 93.471ZM53.1182 93.3978L53.1581 93.2099C52.2967 93.0267 51.465 92.6289 50.1507 91.8904L50.0566 92.0579L49.9625 92.2254C51.2783 92.9647 52.1545 93.3892 53.0782 93.5856L53.1182 93.3978ZM50.0566 92.0579L50.1521 91.8912L48.6638 91.0387L48.5684 91.2054L48.4729 91.3721L49.9612 92.2246L50.0566 92.0579ZM48.5684 91.2054L48.6644 91.039L25.6908 77.7753L25.5947 77.9417L25.4987 78.1081L48.4723 91.3717L48.5684 91.2054ZM25.5947 77.9417L25.6908 77.7753C23.5818 76.5577 22.4947 75.928 21.7155 75.1307L21.5781 75.2649L21.4407 75.3992C22.2658 76.2434 23.4098 76.902 25.4987 78.1081L25.5947 77.9417ZM21.5781 75.2649L21.7184 75.1337L21.5621 74.9667L21.4219 75.0979L21.2816 75.2292L21.4379 75.3962L21.5781 75.2649ZM21.4219 75.0979L21.5646 74.9694C20.9501 74.287 20.4668 73.4976 20.1383 72.6424L19.959 72.7112L19.7797 72.7801C20.125 73.6792 20.6331 74.509 21.2791 75.2265L21.4219 75.0979ZM19.959 72.7112L20.1401 72.6472L20.0053 72.2663L19.8242 72.3304L19.6431 72.3944L19.7779 72.7753L19.959 72.7112ZM19.8242 72.3304L20.0069 72.271C19.7348 71.4335 19.6638 70.515 19.6462 69.0078L19.4541 69.0101L19.262 69.0123C19.2797 70.5212 19.3498 71.4916 19.6415 72.3897L19.8242 72.3304ZM19.4541 69.0101L19.6462 69.0094L19.6403 67.2936L19.4482 67.2942L19.2562 67.2949L19.262 69.0107L19.4541 69.0101ZM19.4482 67.2942H19.6403V40.7669H19.4482H19.2562V67.2942H19.4482ZM19.4482 40.7669L19.6403 40.7669C19.6403 38.3322 19.6421 37.0756 19.9428 36.0023L19.7578 35.9505L19.5728 35.8987C19.2545 37.0351 19.2562 38.3554 19.2562 40.7669L19.4482 40.7669ZM19.7578 35.9505L19.9417 36.0061L20.0081 35.7863L19.8242 35.7308L19.6403 35.6752L19.5739 35.8949L19.7578 35.9505ZM19.8242 35.7308L20.0069 35.7901C20.2907 34.9169 20.7331 34.1037 21.3095 33.3917L21.1602 33.2708L21.0109 33.1499C20.405 33.8984 19.9399 34.7532 19.6415 35.6714L19.8242 35.7308ZM21.1602 33.2708L21.3063 33.3955L21.568 33.0889L21.4219 32.9642L21.2758 32.8395L21.014 33.1461L21.1602 33.2708ZM21.4219 32.9642L21.5646 33.0927C22.1539 32.4383 22.9139 31.9168 24.2103 31.1479L24.1123 30.9827L24.0143 30.8175C22.7163 31.5873 21.911 32.1339 21.2791 32.8356L21.4219 32.9642ZM24.1123 30.9827L24.2089 31.1488L25.6913 30.2865L25.5947 30.1204L25.4981 29.9544L24.0157 30.8167L24.1123 30.9827ZM25.5947 30.1204L25.6908 30.2868L48.6644 17.0231L48.5684 16.8567L48.4723 16.6904L25.4987 29.9541L25.5947 30.1204ZM48.5684 16.8567L48.6644 17.0231C50.7737 15.8053 51.8629 15.1784 52.9431 14.9022L52.8955 14.7161L52.8479 14.53C51.7042 14.8224 50.5615 15.4842 48.4723 16.6904L48.5684 16.8567ZM52.8955 14.7161L52.939 14.9032L53.1617 14.8515L53.1182 14.6644L53.0747 14.4773L52.852 14.529L52.8955 14.7161ZM67.5469 83.6302L67.5469 83.4381L41.8857 83.4371L41.8857 83.6292L41.8857 83.8213L67.5469 83.8223L67.5469 83.6302ZM41.8857 83.6292L41.8857 83.4371C41.7776 83.4371 41.697 83.4362 41.5929 83.4361L41.5928 83.6282L41.5927 83.8203C41.6774 83.8204 41.7924 83.8213 41.8857 83.8213L41.8857 83.6292ZM41.5928 83.6282L41.4967 83.7946L50.0094 88.7096L50.1055 88.5433L50.2015 88.3769L41.6888 83.4619L41.5928 83.6282ZM50.1055 88.5433L50.0102 88.71L51.516 89.5704L51.6113 89.4036L51.7066 89.2368L50.2008 88.3765L50.1055 88.5433ZM51.6113 89.4036L51.5175 89.5712C52.7413 90.256 53.2339 90.4761 53.7169 90.5788L53.7568 90.3909L53.7968 90.203C53.3783 90.114 52.933 89.923 51.7051 89.236L51.6113 89.4036ZM53.7568 90.3909L53.7219 90.5798L53.9592 90.6237L53.9941 90.4349L54.0291 90.246L53.7918 90.202L53.7568 90.3909ZM53.9941 90.4349L53.9641 90.6246C54.5442 90.7165 55.1378 90.7011 55.7137 90.5788L55.6738 90.3909L55.6339 90.203C55.1041 90.3156 54.5579 90.3297 54.0242 90.2451L53.9941 90.4349ZM55.6738 90.3909L55.7212 90.5771L55.9516 90.5185L55.9043 90.3323L55.857 90.1462L55.6265 90.2048L55.6738 90.3909ZM55.9043 90.3323L55.9594 90.5163C56.543 90.3416 57.3154 89.9254 59.4212 88.7096L59.3252 88.5433L59.2292 88.3769C57.1039 89.6039 56.3788 89.9898 55.8492 90.1483L55.9043 90.3323ZM59.3252 88.5433L59.4213 88.7096L67.933 83.7946L67.8369 83.6282L67.7409 83.4619L59.2291 88.3769L59.3252 88.5433ZM67.8369 83.6282L67.8356 83.4361L67.5456 83.4381L67.5469 83.6302L67.5482 83.8223L67.8382 83.8203L67.8369 83.6282ZM59.0576 80.5569V80.749H67.5459V80.5569V80.3648H59.0576V80.5569ZM67.5459 80.5569L67.5472 80.749L68.596 80.7422L68.5947 80.5501L68.5935 80.358L67.5446 80.3648L67.5459 80.5569ZM68.5947 80.5501L68.5976 80.7422C69.3898 80.7304 69.5535 80.7036 69.6774 80.6635L69.6182 80.4808L69.5589 80.298C69.5005 80.317 69.3984 80.3461 68.5919 80.358L68.5947 80.5501ZM69.6182 80.4808L69.6869 80.6601L69.8373 80.6025L69.7686 80.4231L69.6998 80.2438L69.5494 80.3014L69.6182 80.4808ZM69.7686 80.4231L69.8467 80.5986C70.0118 80.5251 70.1653 80.4257 70.3004 80.3042L70.1719 80.1614L70.0434 80.0186C69.9385 80.113 69.819 80.1904 69.6904 80.2477L69.7686 80.4231ZM70.1719 80.1614L70.3134 80.2914L70.4012 80.1957L70.2598 80.0657L70.1183 79.9358L70.0304 80.0315L70.1719 80.1614ZM70.2598 80.0657L70.4109 80.1843C70.538 80.0223 70.7824 79.6393 71.4398 78.5006L71.2734 78.4046L71.1071 78.3085C70.4446 79.456 70.2152 79.8114 70.1086 79.9471L70.2598 80.0657ZM71.2734 78.4046L71.4398 78.5006L75.6839 71.1491L75.5176 71.053L75.3512 70.957L71.1071 78.3086L71.2734 78.4046ZM75.5176 71.053L75.4215 70.8867L58.9616 80.3906L59.0576 80.5569L59.1537 80.7233L75.6136 71.2194L75.5176 71.053ZM38.1592 78.4056L37.9928 78.5016C38.4318 79.2619 38.6852 79.683 38.8416 79.9256C38.9978 80.168 39.0645 80.244 39.1311 80.3041L39.2598 80.1614L39.3884 80.0188C39.3601 79.9932 39.3153 79.9515 39.1645 79.7174C39.0137 79.4835 38.7643 79.0695 38.3255 78.3095L38.1592 78.4056ZM39.2598 80.1614L39.1386 80.3105L39.2636 80.4121L39.3848 80.263L39.5059 80.1139L39.3809 80.0123L39.2598 80.1614ZM39.3848 80.263L39.2718 80.4184C39.4187 80.5251 39.5818 80.6074 39.7541 80.6634L39.8135 80.4808L39.8729 80.2981C39.738 80.2542 39.6111 80.19 39.4977 80.1076L39.3848 80.263ZM39.8135 80.4808L39.7706 80.668L39.8985 80.6973L39.9414 80.5101L39.9843 80.3228L39.8564 80.2935L39.8135 80.4808ZM39.9414 80.5101L39.9144 80.7002C40.1186 80.7293 40.5725 80.749 41.8857 80.749L41.8857 80.5569L41.8857 80.3648C40.5622 80.3648 40.1396 80.3442 39.9685 80.3199L39.9414 80.5101ZM41.8857 80.5569V80.749H50.375V80.5569V80.3648H41.8857V80.5569ZM50.375 80.5569L50.471 80.3906L34.0091 70.8857L33.9131 71.0521L33.817 71.2184L50.279 80.7233L50.375 80.5569ZM33.9131 71.0521L33.7467 71.1481L37.9928 78.5016L38.1592 78.4056L38.3255 78.3095L34.0794 70.956L33.9131 71.0521ZM22.5215 67.2942L22.3294 67.2942C22.3294 70.0718 22.3627 70.8198 22.5644 71.4405L22.7471 71.3812L22.9298 71.3218C22.7516 70.7735 22.7136 70.1019 22.7136 67.2942L22.5215 67.2942ZM22.7471 71.3812L22.5661 71.4456L22.6472 71.6732L22.8281 71.6087L23.0091 71.5442L22.928 71.3167L22.7471 71.3812ZM22.8281 71.6087L22.6488 71.6776C22.8594 72.2259 23.1693 72.7322 23.5633 73.1698L23.7061 73.0413L23.8488 72.9128C23.4864 72.5102 23.2012 72.0443 23.0074 71.5398L22.8281 71.6087ZM23.7061 73.0413L23.5687 73.1755L23.7347 73.3455L23.8721 73.2112L24.0095 73.077L23.8435 72.9071L23.7061 73.0413ZM23.8721 73.2112L23.7402 73.351C24.1834 73.769 24.9295 74.2299 27.0358 75.4459L27.1318 75.2796L27.2279 75.1132C25.1023 73.886 24.4061 73.4509 24.0039 73.0715L23.8721 73.2112ZM27.1318 75.2796L27.0358 75.4459L35.5485 80.361L35.6445 80.1946L35.7406 80.0283L27.2279 75.1132L27.1318 75.2796ZM35.6445 80.1946L35.8108 80.0984L35.6643 79.8454L35.498 79.9417L35.3318 80.038L35.4783 80.2909L35.6445 80.1946ZM35.498 79.9417L35.6644 79.8457L22.8333 57.623L22.667 57.719L22.5006 57.8151L35.3317 80.0377L35.498 79.9417ZM22.667 57.719L22.8333 57.623C22.7801 57.5307 22.739 57.4579 22.6879 57.3692L22.5215 57.4651L22.3551 57.5611C22.3981 57.6357 22.4533 57.7331 22.5006 57.8151L22.667 57.719ZM22.5215 57.4651H22.3294V67.2942H22.5215H22.7136V57.4651H22.5215ZM86.7646 57.719L86.5983 57.623L73.7682 79.8457L73.9346 79.9417L74.1009 80.0377L86.931 57.8151L86.7646 57.719ZM73.9346 79.9417L73.7687 79.8449L73.6222 80.0958L73.7881 80.1927L73.954 80.2895L74.1005 80.0385L73.9346 79.9417ZM73.7881 80.1927L73.8841 80.359L82.3949 75.4459L82.2988 75.2796L82.2028 75.1132L73.692 80.0263L73.7881 80.1927ZM82.2988 75.2796L82.3949 75.4459C84.7992 74.0578 85.4306 73.6545 85.8673 73.1699L85.7246 73.0413L85.5819 72.9127C85.1962 73.3408 84.6331 73.7101 82.2028 75.1132L82.2988 75.2796ZM85.7246 73.0413L85.8708 73.1659L86.0281 72.9813L85.8818 72.8567L85.7356 72.7322L85.5784 72.9167L85.7246 73.0413ZM85.8818 72.8567L86.0311 72.9776C86.4004 72.5214 86.6843 72.0003 86.8663 71.4405L86.6836 71.3812L86.5009 71.3218C86.3336 71.8365 86.0724 72.316 85.7325 72.7359L85.8818 72.8567ZM86.6836 71.3812L86.8685 71.4331L86.933 71.2036L86.748 71.1517L86.5631 71.0997L86.4987 71.3292L86.6836 71.3812ZM86.748 71.1517L86.935 71.1959C87.0754 70.6032 87.1013 69.7258 87.1013 67.2942L86.9092 67.2942L86.7171 67.2942C86.7171 69.7482 86.6886 70.5694 86.5611 71.1074L86.748 71.1517ZM86.9092 67.2942H87.1013V57.4671H86.9092H86.7171V67.2942H86.9092ZM86.9092 57.4671L86.7428 57.3712C86.6928 57.4578 86.6505 57.5326 86.5983 57.623L86.7646 57.719L86.931 57.8151C86.9786 57.7326 87.0321 57.6385 87.0756 57.563L86.9092 57.4671ZM25.3281 51.8792L25.1618 51.7832C24.5052 52.9204 24.2962 53.3233 24.2192 53.5146L24.3975 53.5862L24.5757 53.6579C24.6402 53.4974 24.833 53.121 25.4945 51.9752L25.3281 51.8792ZM24.3975 53.5862L24.2145 53.5276L24.1745 53.6526L24.3574 53.7112L24.5404 53.7698L24.5804 53.6448L24.3975 53.5862ZM24.3574 53.7112L24.1695 53.6714C24.1317 53.8496 24.1231 54.0324 24.142 54.2118L24.333 54.1917L24.524 54.1716C24.5093 54.0311 24.5161 53.8888 24.5453 53.7511L24.3574 53.7112ZM24.333 54.1917L24.1433 54.222L24.1687 54.3811L24.3584 54.3509L24.5481 54.3206L24.5227 54.1614L24.333 54.1917ZM24.3584 54.3509L24.1705 54.391C24.1893 54.4786 24.2217 54.5746 24.3535 54.8314C24.4853 55.0882 24.7232 55.5183 25.1618 56.278L25.3281 56.1819L25.4945 56.0859C25.0561 55.3266 24.8224 54.9036 24.6953 54.6559C24.5682 54.4082 24.5542 54.3482 24.5463 54.3108L24.3584 54.3509ZM25.3281 56.1819L25.1618 56.278L29.4069 63.6305L29.5732 63.5345L29.7396 63.4384L25.4945 56.0859L25.3281 56.1819ZM29.5732 63.5345H29.7653V44.5267H29.5732H29.3812V63.5345H29.5732ZM29.5732 44.5267L29.4069 44.4306L25.1618 51.7832L25.3281 51.8792L25.4945 51.9752L29.7396 44.6227L29.5732 44.5267ZM79.8584 63.5345L80.0248 63.6305L84.2699 56.278L84.1035 56.1819L83.9372 56.0859L79.692 63.4384L79.8584 63.5345ZM84.1035 56.1819L84.2705 56.2769L84.789 55.3658L84.6221 55.2708L84.4551 55.1758L83.9366 56.0869L84.1035 56.1819ZM84.6221 55.2708L84.7898 55.3644C85.176 54.6719 85.235 54.5174 85.2621 54.3899L85.0742 54.3499L84.8863 54.3099C84.8736 54.3699 84.8478 54.4716 84.4543 55.1772L84.6221 55.2708ZM85.0742 54.3499L85.2641 54.3792L85.2885 54.221L85.0986 54.1917L84.9088 54.1624L84.8844 54.3206L85.0742 54.3499ZM85.0986 54.1917L85.2897 54.2118C85.3085 54.0324 85.3 53.8488 85.2621 53.6703L85.0742 53.7103L84.8863 53.7502C84.9156 53.8879 84.9224 54.0309 84.9076 54.1716L85.0986 54.1917ZM85.0742 53.7103L85.2574 53.6525L85.2184 53.5285L85.0352 53.5862L84.8519 53.6439L84.891 53.768L85.0742 53.7103ZM85.0352 53.5862L85.2134 53.5146C85.1365 53.3233 84.9268 52.9211 84.2699 51.7832L84.1035 51.8792L83.9372 51.9752C84.5994 53.1222 84.7925 53.4976 84.8569 53.6579L85.0352 53.5862ZM84.1035 51.8792L84.2699 51.7832L80.0248 44.4306L79.8584 44.5267L79.692 44.6227L83.9372 51.9752L84.1035 51.8792ZM79.8584 44.5267H79.6663V63.5345H79.8584H80.0505V44.5267H79.8584ZM27.1318 32.7825L27.0358 32.6162C24.9297 33.8321 24.1833 34.2931 23.7402 34.7112L23.8721 34.8509L24.0039 34.9906C24.406 34.6112 25.1025 34.176 27.2279 32.9489L27.1318 32.7825ZM23.8721 34.8509L23.7347 34.7166L23.5687 34.8866L23.7061 35.0208L23.8435 35.155L24.0095 34.9851L23.8721 34.8509ZM23.7061 35.0208L23.5633 34.8923C23.1697 35.3295 22.8593 35.8355 22.6488 36.3836L22.8281 36.4524L23.0074 36.5213C23.201 36.0173 23.4866 35.5517 23.8488 35.1493L23.7061 35.0208ZM22.8281 36.4524L22.6471 36.3882L22.566 36.6167L22.7471 36.681L22.9281 36.7452L23.0092 36.5167L22.8281 36.4524ZM22.7471 36.681L22.5644 36.6216C22.3629 37.2422 22.3294 37.9902 22.3294 40.7669L22.5215 40.7669L22.7136 40.7669C22.7136 37.9603 22.7518 37.2884 22.9298 36.7403L22.7471 36.681ZM22.5215 40.7669H22.3294V50.597H22.5215H22.7136V40.7669H22.5215ZM22.5215 50.597L22.688 50.6927L22.8345 50.4378L22.668 50.3421L22.5014 50.2464L22.3549 50.5013L22.5215 50.597ZM22.668 50.3421L22.8343 50.4381L35.6634 28.2155L35.4971 28.1194L35.3307 28.0234L22.5016 50.2461L22.668 50.3421ZM35.4971 28.1194L35.6634 28.2155C35.7143 28.1273 35.7606 28.0464 35.8079 27.9646L35.6416 27.8685L35.4753 27.7723C35.4293 27.8519 35.3792 27.9394 35.3307 28.0234L35.4971 28.1194ZM35.6416 27.8685L35.5455 27.7021L27.0358 32.6162L27.1318 32.7825L27.2279 32.9489L35.7377 28.0348L35.6416 27.8685ZM73.9346 28.1194L73.7682 28.2155L86.5983 50.4391L86.7646 50.3431L86.931 50.247L74.1009 28.0234L73.9346 28.1194ZM86.7646 50.3431L86.598 50.4386L86.7426 50.6906L86.9092 50.595L87.0758 50.4994L86.9313 50.2475L86.7646 50.3431ZM86.9092 50.595H87.1013V40.7669H86.9092H86.7171V50.595H86.9092ZM86.9092 40.7669L87.1013 40.7669C87.1013 38.3347 87.0755 37.458 86.935 36.8652L86.748 36.9095L86.5611 36.9538C86.6887 37.4918 86.7171 38.3123 86.7171 40.7669L86.9092 40.7669ZM86.748 36.9095L86.9329 36.8573L86.8685 36.6288L86.6836 36.681L86.4987 36.7331L86.5632 36.9616L86.748 36.9095ZM86.6836 36.681L86.8663 36.6216C86.6843 36.0614 86.4008 35.5401 86.0311 35.0835L85.8818 35.2044L85.7325 35.3253C86.0727 35.7454 86.3335 36.225 86.5009 36.7403L86.6836 36.681ZM85.8818 35.2044L86.0277 35.0794L85.8705 34.8959L85.7246 35.0208L85.5787 35.1457L85.7359 35.3293L85.8818 35.2044ZM85.7246 35.0208L85.8674 34.8923C85.5368 34.5253 85.1003 34.2091 83.8952 33.4915L83.7969 33.6565L83.6986 33.8216C84.9079 34.5417 85.2955 34.8313 85.5819 35.1493L85.7246 35.0208ZM83.7969 33.6565L83.8937 33.4906L82.3956 32.6166L82.2988 32.7825L82.202 32.9484L83.7001 33.8225L83.7969 33.6565ZM82.2988 32.7825L82.3949 32.6162L73.8851 27.7031L73.7891 27.8694L73.693 28.0358L82.2028 32.9489L82.2988 32.7825ZM73.7891 27.8694L73.6228 27.9656C73.6747 28.0554 73.7145 28.1224 73.7682 28.2155L73.9346 28.1194L74.1009 28.0234C74.0552 27.9441 73.9968 27.845 73.9554 27.7733L73.7891 27.8694ZM41.8857 27.5042L41.8857 27.3121C40.5709 27.3121 40.1171 27.3328 39.9133 27.3619L39.9404 27.5521L39.9676 27.7422C40.1384 27.7178 40.5611 27.6963 41.8857 27.6963L41.8857 27.5042ZM39.9404 27.5521L39.8986 27.3646L39.7717 27.3929L39.8135 27.5804L39.8553 27.7679L39.9823 27.7395L39.9404 27.5521ZM39.8135 27.5804L39.754 27.3977C39.5821 27.4537 39.4185 27.5362 39.2719 27.6427L39.3848 27.7981L39.4977 27.9535C39.6109 27.8713 39.7382 27.8069 39.8729 27.763L39.8135 27.5804ZM39.3848 27.7981L39.2636 27.6491L39.1386 27.7506L39.2598 27.8997L39.3809 28.0488L39.5059 27.9472L39.3848 27.7981ZM39.2598 27.8997L39.1311 27.7571C39.0644 27.8172 38.9976 27.8938 38.8414 28.1363C38.6851 28.3791 38.4316 28.8005 37.9928 29.5605L38.1592 29.6565L38.3255 29.7526C38.7642 28.9929 39.0136 28.5786 39.1644 28.3443C39.3154 28.1098 39.3602 28.0678 39.3884 28.0423L39.2598 27.8997ZM38.1592 29.6565L37.9928 29.5605L33.7477 36.912L33.9141 37.0081L34.0804 37.1042L38.3255 29.7526L38.1592 29.6565ZM33.9141 37.0081L34.0101 37.1745L50.471 27.6706L50.375 27.5042L50.279 27.3378L33.818 36.8418L33.9141 37.0081ZM50.375 27.5042V27.3121H41.8857V27.5042V27.6963H50.375V27.5042ZM75.5166 37.0071L75.683 36.9111L71.4388 29.5605L71.2725 29.6565L71.1061 29.7526L75.3502 37.1032L75.5166 37.0071ZM71.2725 29.6565L71.4388 29.5605C70.7817 28.4223 70.5381 28.039 70.4109 27.8768L70.2598 27.9954L70.1086 28.114C70.2151 28.2497 70.4436 28.6052 71.1061 29.7526L71.2725 29.6565ZM70.2598 27.9954L70.4012 27.8655L70.3134 27.7698L70.1719 27.8997L70.0304 28.0296L70.1183 28.1253L70.2598 27.9954ZM70.1719 27.8997L70.3004 27.7569C70.1653 27.6354 70.0118 27.536 69.8467 27.4625L69.7686 27.638L69.6904 27.8135C69.819 27.8707 69.9385 27.9481 70.0434 28.0425L70.1719 27.8997ZM69.7686 27.638L69.8373 27.4586L69.6869 27.401L69.6182 27.5804L69.5494 27.7597L69.6998 27.8174L69.7686 27.638ZM69.6182 27.5804L69.6774 27.3977C69.5923 27.37 69.4932 27.35 69.2046 27.3356C68.9161 27.3213 68.4243 27.3121 67.5459 27.3121L67.5459 27.5042L67.5459 27.6963C68.4238 27.6963 68.9074 27.7055 69.1855 27.7193C69.4636 27.7332 69.5224 27.7513 69.5589 27.7631L69.6182 27.5804ZM67.5459 27.5042V27.3121H59.0576V27.5042V27.6963H67.5459V27.5042ZM59.0576 27.5042L58.9616 27.6706L75.4206 37.1735L75.5166 37.0071L75.6126 36.8408L59.1537 27.3378L59.0576 27.5042ZM55.6738 17.6712L55.7137 17.4833C55.138 17.361 54.5445 17.3446 53.9641 17.4365L53.9941 17.6263L54.0242 17.816C54.5577 17.7315 55.1038 17.7465 55.6339 17.8591L55.6738 17.6712ZM53.9941 17.6263L53.9584 17.4375L53.7211 17.4825L53.7568 17.6712L53.7926 17.8599L54.0299 17.815L53.9941 17.6263ZM53.7568 17.6712L53.7169 17.4833C53.0787 17.6191 52.4142 17.9641 50.0094 19.3525L50.1055 19.5188L50.2015 19.6852C52.6322 18.2818 53.2331 17.979 53.7968 17.8591L53.7568 17.6712ZM50.1055 19.5188L50.0094 19.3525L41.4987 24.2656L41.5947 24.4319L41.6908 24.5983L50.2015 19.6852L50.1055 19.5188ZM41.5947 24.4319L41.5948 24.624C41.6981 24.624 41.7777 24.623 41.8848 24.623L41.8848 24.431L41.8848 24.2389C41.7925 24.2389 41.6784 24.2398 41.5946 24.2398L41.5947 24.4319ZM41.8848 24.431L41.8848 24.623L67.5459 24.624L67.5459 24.4319L67.5459 24.2398L41.8848 24.2389L41.8848 24.431ZM67.5459 24.4319L67.5459 24.624C67.6457 24.624 67.7425 24.624 67.8358 24.624L67.8359 24.4319L67.8361 24.2398C67.7426 24.2398 67.6454 24.2398 67.5459 24.2398L67.5459 24.4319ZM67.8359 24.4319L67.932 24.2656L59.4212 19.3525L59.3252 19.5188L59.2292 19.6852L67.7399 24.5983L67.8359 24.4319ZM59.3252 19.5188L59.4212 19.3525C57.0158 17.9637 56.3522 17.619 55.7138 17.4833L55.6738 17.6712L55.6339 17.8591C56.1977 17.979 56.7977 18.2814 59.2292 19.6852L59.3252 19.5188Z" fill="url(#paint12_linear_245_4538)" mask="url(#path-23-inside-1_245_4538)"/>
</g>
</g>
</g>
<g filter="url(#filter6_d_245_4538)">
<path fill-rule="evenodd" clip-rule="evenodd" d="M66.804 41.8186C63.2949 38.3096 56.4479 39.8761 51.938 44.386C51.1522 45.1717 50.3097 46.166 49.6261 47.1163C47.5457 46.4701 45.6878 46.6354 44.38 47.9432C43.3343 48.989 43.0276 50.4488 43.289 52.0573L43.4481 53.0365C43.497 53.3377 43.7332 53.5738 44.0344 53.6228L45.0135 53.7819C46.5566 54.0326 48.9127 55.4594 51.0379 57.5847C53.1632 59.7099 54.59 62.066 54.8407 63.609L54.9998 64.5882C55.0488 64.8894 55.2849 65.1256 55.5861 65.1745L56.5653 65.3336C58.1738 65.595 59.6336 65.2883 60.6794 64.2426C61.9872 62.9348 62.1525 61.0768 61.5063 58.9965C62.4566 58.3129 63.4508 57.4704 64.2366 56.6846C68.7465 52.1747 70.313 45.3277 66.804 41.8186ZM43.4076 57.0654C44.0213 56.4517 45.0164 56.4517 45.6302 57.0654C46.244 57.6792 46.244 58.6743 45.6302 59.2881L44.1234 60.7949C43.5096 61.4086 42.5145 61.4086 41.9008 60.7949C41.287 60.1811 41.287 59.186 41.9008 58.5722L43.4076 57.0654ZM48.5937 60.0289C47.9799 59.4152 46.9848 59.4152 46.3711 60.0289L42.6266 63.7734C42.0128 64.3872 42.0128 65.3823 42.6266 65.996C43.2404 66.6098 44.2355 66.6098 44.8492 65.996L48.5937 62.2516C49.2075 61.6378 49.2075 60.6427 48.5937 60.0289ZM51.5572 62.9924C50.9435 62.3787 49.9483 62.3787 49.3346 62.9924L47.8278 64.4992C47.214 65.113 47.214 66.1081 47.8278 66.7219C48.4415 67.3356 49.4367 67.3356 50.0504 66.7219L51.5572 65.2151C52.171 64.6013 52.171 63.6062 51.5572 62.9924Z" fill="white"/>
<path d="M49.3936 62.8099C50.0485 62.2759 51.0145 62.3139 51.625 62.9242C52.2357 63.5349 52.2738 64.5016 51.7393 65.1566L51.625 65.2826L50.1182 66.7894C49.4669 67.4407 48.411 67.4407 47.7598 66.7894C47.1087 66.1381 47.1086 65.0822 47.7598 64.431L49.2666 62.9242L49.3936 62.8099ZM46.4297 59.8461C47.0847 59.312 48.0506 59.3509 48.6611 59.9613C49.2716 60.5718 49.3105 61.5377 48.7764 62.1927L48.6611 62.3197L44.917 66.0638C44.2657 66.7151 43.2099 66.7151 42.5586 66.0638C41.9074 65.4126 41.9074 64.3567 42.5586 63.7054L46.3027 59.9613L46.4297 59.8461ZM59.7285 40.0013C62.4626 39.4808 65.0881 39.9664 66.8721 41.7504C68.656 43.5343 69.1425 46.1599 68.6221 48.8939C68.1014 51.6285 66.5719 54.485 64.3047 56.7523C63.5302 57.5268 62.5539 58.3543 61.6162 59.0336C62.2447 61.1062 62.0762 62.9818 60.7471 64.3109C59.7403 65.3175 58.3638 65.6514 56.8535 65.4711L56.5498 65.4281L55.5703 65.2689C55.2712 65.2201 55.0287 65.0091 54.9355 64.7279L54.9053 64.6039L54.7461 63.6244C54.6236 62.8707 54.211 61.908 53.5605 60.8656C52.911 59.8249 52.0275 58.7105 50.9697 57.6527C49.9119 56.5949 48.7976 55.7114 47.7568 55.0619C46.8446 54.4926 45.9935 54.1057 45.29 53.9359L44.998 53.8763L44.0186 53.7172C43.7194 53.6684 43.4769 53.4573 43.3838 53.1761L43.3535 53.0521L43.1943 52.0726C42.9296 50.4437 43.2386 48.9493 44.3125 47.8754C45.6413 46.5467 47.5159 46.3773 49.5879 47.0052C50.2671 46.0677 51.0957 45.0922 51.8701 44.3177C54.1374 42.0505 56.9939 40.522 59.7285 40.0013ZM43.4658 56.8832C44.1209 56.3486 45.0876 56.3868 45.6982 56.9974C46.3087 57.6079 46.3466 58.5739 45.8125 59.2289L45.6982 59.3558L44.1914 60.8627C43.5401 61.5139 42.4843 61.5139 41.833 60.8627C41.1817 60.2114 41.1817 59.1555 41.833 58.5043L43.3398 56.9974L43.4658 56.8832Z" stroke="url(#paint13_linear_245_4538)" stroke-width="0.19209" stroke-linecap="round" style="mix-blend-mode:color-burn"/>
</g>
</g>
<defs>
<filter id="filter0_d_245_4538" x="12.7731" y="74.044" width="45.1334" height="43.2463" filterUnits="userSpaceOnUse" color-interpolation-filters="sRGB">
<feFlood flood-opacity="0" result="BackgroundImageFix"/>
<feColorMatrix in="SourceAlpha" type="matrix" values="0 0 0 0 0 0 0 0 0 0 0 0 0 0 0 0 0 0 127 0" result="hardAlpha"/>
<feOffset dy="3.56377"/>
<feGaussianBlur stdDeviation="1.78189"/>
<feColorMatrix type="matrix" values="0 0 0 0 0 0 0 0 0 0 0 0 0 0 0 0 0 0 0.2 0"/>
<feBlend mode="normal" in2="BackgroundImageFix" result="effect1_dropShadow_245_4538"/>
<feBlend mode="normal" in="SourceGraphic" in2="effect1_dropShadow_245_4538" result="shape"/>
</filter>
<filter id="filter1_d_245_4538" x="12.7731" y="74.044" width="45.1334" height="43.2463" filterUnits="userSpaceOnUse" color-interpolation-filters="sRGB">
<feFlood flood-opacity="0" result="BackgroundImageFix"/>
<feColorMatrix in="SourceAlpha" type="matrix" values="0 0 0 0 0 0 0 0 0 0 0 0 0 0 0 0 0 0 127 0" result="hardAlpha"/>
<feOffset dy="3.56377"/>
<feGaussianBlur stdDeviation="1.78189"/>
<feColorMatrix type="matrix" values="0 0 0 0 0 0 0 0 0 0 0 0 0 0 0 0 0 0 0.2 0"/>
<feBlend mode="normal" in2="BackgroundImageFix" result="effect1_dropShadow_245_4538"/>
<feBlend mode="normal" in="SourceGraphic" in2="effect1_dropShadow_245_4538" result="shape"/>
</filter>
<filter id="filter2_d_245_4538" x="50.3854" y="74.044" width="45.1334" height="43.2463" filterUnits="userSpaceOnUse" color-interpolation-filters="sRGB">
<feFlood flood-opacity="0" result="BackgroundImageFix"/>
<feColorMatrix in="SourceAlpha" type="matrix" values="0 0 0 0 0 0 0 0 0 0 0 0 0 0 0 0 0 0 127 0" result="hardAlpha"/>
<feOffset dy="3.56377"/>
<feGaussianBlur stdDeviation="1.78189"/>
<feColorMatrix type="matrix" values="0 0 0 0 0 0 0 0 0 0 0 0 0 0 0 0 0 0 0.2 0"/>
<feBlend mode="normal" in2="BackgroundImageFix" result="effect1_dropShadow_245_4538"/>
<feBlend mode="normal" in="SourceGraphic" in2="effect1_dropShadow_245_4538" result="shape"/>
</filter>
<filter id="filter3_d_245_4538" x="50.3854" y="74.044" width="45.1334" height="43.2463" filterUnits="userSpaceOnUse" color-interpolation-filters="sRGB">
<feFlood flood-opacity="0" result="BackgroundImageFix"/>
<feColorMatrix in="SourceAlpha" type="matrix" values="0 0 0 0 0 0 0 0 0 0 0 0 0 0 0 0 0 0 127 0" result="hardAlpha"/>
<feOffset dy="3.56377"/>
<feGaussianBlur stdDeviation="1.78189"/>
<feColorMatrix type="matrix" values="0 0 0 0 0 0 0 0 0 0 0 0 0 0 0 0 0 0 0.2 0"/>
<feBlend mode="normal" in2="BackgroundImageFix" result="effect1_dropShadow_245_4538"/>
<feBlend mode="normal" in="SourceGraphic" in2="effect1_dropShadow_245_4538" result="shape"/>
</filter>
<filter id="filter4_dddd_245_4538" x="6.77031" y="12.191" width="95.89" height="125.555" filterUnits="userSpaceOnUse" color-interpolation-filters="sRGB">
<feFlood flood-opacity="0" result="BackgroundImageFix"/>
<feColorMatrix in="SourceAlpha" type="matrix" values="0 0 0 0 0 0 0 0 0 0 0 0 0 0 0 0 0 0 127 0" result="hardAlpha"/>
<feOffset dy="1.9209"/>
<feGaussianBlur stdDeviation="2.11299"/>
<feColorMatrix type="matrix" values="0 0 0 0 0 0 0 0 0 0 0 0 0 0 0 0 0 0 0.24 0"/>
<feBlend mode="normal" in2="BackgroundImageFix" result="effect1_dropShadow_245_4538"/>
<feColorMatrix in="SourceAlpha" type="matrix" values="0 0 0 0 0 0 0 0 0 0 0 0 0 0 0 0 0 0 127 0" result="hardAlpha"/>
<feOffset dy="8.06777"/>
<feGaussianBlur stdDeviation="4.03389"/>
<feColorMatrix type="matrix" values="0 0 0 0 0 0 0 0 0 0 0 0 0 0 0 0 0 0 0.21 0"/>
<feBlend mode="normal" in2="effect1_dropShadow_245_4538" result="effect2_dropShadow_245_4538"/>
<feColorMatrix in="SourceAlpha" type="matrix" values="0 0 0 0 0 0 0 0 0 0 0 0 0 0 0 0 0 0 127 0" result="hardAlpha"/>
<feOffset dy="17.6723"/>
<feGaussianBlur stdDeviation="5.37852"/>
<feColorMatrix type="matrix" values="0 0 0 0 0 0 0 0 0 0 0 0 0 0 0 0 0 0 0.12 0"/>
<feBlend mode="normal" in2="effect2_dropShadow_245_4538" result="effect3_dropShadow_245_4538"/>
<feColorMatrix in="SourceAlpha" type="matrix" values="0 0 0 0 0 0 0 0 0 0 0 0 0 0 0 0 0 0 127 0" result="hardAlpha"/>
<feOffset dy="31.5027"/>
<feGaussianBlur stdDeviation="6.33897"/>
<feColorMatrix type="matrix" values="0 0 0 0 0 0 0 0 0 0 0 0 0 0 0 0 0 0 0.04 0"/>
<feBlend mode="normal" in2="effect3_dropShadow_245_4538" result="effect4_dropShadow_245_4538"/>
<feBlend mode="normal" in="SourceGraphic" in2="effect4_dropShadow_245_4538" result="shape"/>
</filter>
<filter id="filter5_d_245_4538" x="16.3748" y="12.1915" width="76.6811" height="85.2156" filterUnits="userSpaceOnUse" color-interpolation-filters="sRGB">
<feFlood flood-opacity="0" result="BackgroundImageFix"/>
<feColorMatrix in="SourceAlpha" type="matrix" values="0 0 0 0 0 0 0 0 0 0 0 0 0 0 0 0 0 0 127 0" result="hardAlpha"/>
<feOffset dy="0.768359"/>
<feGaussianBlur stdDeviation="1.53672"/>
<feColorMatrix type="matrix" values="0 0 0 0 0 0 0 0 0 0 0 0 0 0 0 0 0 0 0.16 0"/>
<feBlend mode="color-burn" in2="BackgroundImageFix" result="effect1_dropShadow_245_4538"/>
<feBlend mode="normal" in="SourceGraphic" in2="effect1_dropShadow_245_4538" result="shape"/>
</filter>
<filter id="filter6_d_245_4538" x="36.6379" y="35.866" width="36.8873" height="36.8868" filterUnits="userSpaceOnUse" color-interpolation-filters="sRGB">
<feFlood flood-opacity="0" result="BackgroundImageFix"/>
<feColorMatrix in="SourceAlpha" type="matrix" values="0 0 0 0 0 0 0 0 0 0 0 0 0 0 0 0 0 0 127 0" result="hardAlpha"/>
<feOffset dy="0.768359"/>
<feGaussianBlur stdDeviation="2.30508"/>
<feColorMatrix type="matrix" values="0 0 0 0 0 0 0 0 0 0 0 0 0 0 0 0 0 0 0.12 0"/>
<feBlend mode="plus-darker" in2="BackgroundImageFix" result="effect1_dropShadow_245_4538"/>
<feBlend mode="normal" in="SourceGraphic" in2="effect1_dropShadow_245_4538" result="shape"/>
</filter>
<linearGradient id="paint0_linear_245_4538" x1="46.1412" y1="67.2543" x2="28.747" y2="106.322" gradientUnits="userSpaceOnUse">
<stop stop-color="white"/>
<stop offset="1" stop-color="white" stop-opacity="0"/>
</linearGradient>
<radialGradient id="paint1_radial_245_4538" cx="0" cy="0" r="1" gradientUnits="userSpaceOnUse" gradientTransform="translate(40.3431 80.2769) rotate(114) scale(28.5102 28.5102)">
<stop stop-color="white"/>
<stop offset="1" stop-color="white" stop-opacity="0"/>
</radialGradient>
<linearGradient id="paint2_linear_245_4538" x1="46.141" y1="67.2542" x2="28.7468" y2="106.322" gradientUnits="userSpaceOnUse">
<stop stop-color="white"/>
<stop offset="1" stop-color="#999999"/>
</linearGradient>
<linearGradient id="paint3_linear_245_4538" x1="62.1505" y1="67.2542" x2="79.5447" y2="106.322" gradientUnits="userSpaceOnUse">
<stop stop-color="white"/>
<stop offset="1" stop-color="white" stop-opacity="0"/>
</linearGradient>
<radialGradient id="paint4_radial_245_4538" cx="0" cy="0" r="1" gradientUnits="userSpaceOnUse" gradientTransform="translate(67.9486 80.2769) rotate(66) scale(28.5102 28.5102)">
<stop stop-color="white"/>
<stop offset="1" stop-color="white" stop-opacity="0"/>
</radialGradient>
<linearGradient id="paint5_linear_245_4538" x1="62.1507" y1="67.2543" x2="79.5449" y2="106.322" gradientUnits="userSpaceOnUse">
<stop stop-color="white"/>
<stop offset="1" stop-color="#999999"/>
</linearGradient>
<linearGradient id="paint6_linear_245_4538" x1="13.9922" y1="13.3074" x2="13.9922" y2="94.7535" gradientUnits="userSpaceOnUse">
<stop stop-color="#FFEDAF"/>
<stop offset="1" stop-color="#F2BE2F"/>
</linearGradient>
<linearGradient id="paint7_linear_245_4538" x1="54.7149" y1="12.4348" x2="54.7148" y2="95.0685" gradientUnits="userSpaceOnUse">
<stop stop-color="white"/>
<stop offset="1" stop-color="white" stop-opacity="0"/>
</linearGradient>
<radialGradient id="paint8_radial_245_4538" cx="0" cy="0" r="1" gradientUnits="userSpaceOnUse" gradientTransform="translate(54.7148 36.17) rotate(90) scale(54.5031 41.3526)">
<stop stop-color="white"/>
<stop offset="1" stop-color="white" stop-opacity="0"/>
</radialGradient>
<linearGradient id="paint9_linear_245_4538" x1="54.7158" y1="12.4347" x2="54.7158" y2="95.0685" gradientUnits="userSpaceOnUse">
<stop stop-color="white"/>
<stop offset="1" stop-color="white" stop-opacity="0"/>
</linearGradient>
<radialGradient id="paint10_radial_245_4538" cx="0" cy="0" r="1" gradientUnits="userSpaceOnUse" gradientTransform="translate(54.7158 36.1699) rotate(90) scale(54.5031 41.3526)">
<stop stop-color="white"/>
<stop offset="1" stop-color="white" stop-opacity="0"/>
</radialGradient>
<linearGradient id="paint11_linear_245_4538" x1="0.930664" y1="0.245361" x2="0.930664" y2="107.816" gradientUnits="userSpaceOnUse">
<stop offset="0.135095" stop-color="white"/>
<stop offset="0.877908" stop-color="white" stop-opacity="0.01"/>
</linearGradient>
<linearGradient id="paint12_linear_245_4538" x1="54.7153" y1="14.4966" x2="54.7153" y2="93.5653" gradientUnits="userSpaceOnUse">
<stop stop-color="white"/>
<stop offset="1" stop-color="#999999"/>
</linearGradient>
<linearGradient id="paint13_linear_245_4538" x1="55.0816" y1="39.8998" x2="55.0816" y2="67.1822" gradientUnits="userSpaceOnUse">
<stop stop-color="#DFDFDF"/>
<stop offset="1" stop-color="#A9A9A9"/>
</linearGradient>
</defs>
</svg>
