<svg width="111" height="140" viewBox="0 0 111 140" fill="none" xmlns="http://www.w3.org/2000/svg">
<g filter="url(#filter0_dddd_245_4607)">
<path d="M20.0504 38.9997C19.955 36.3803 19.9072 35.0705 20.4081 33.6756C20.8376 32.4791 21.6277 31.3212 22.5851 30.4849C23.7014 29.5099 25.3224 28.9422 28.5645 27.8069C35.4629 25.3912 42.1181 22.1515 48.3928 18.3871C51.2448 16.6761 52.6709 15.8207 53.8982 15.5512C55.1168 15.2836 55.9754 15.2836 57.1939 15.5512C58.4213 15.8207 59.8473 16.6761 62.6993 18.3871C68.9741 22.1515 75.6292 25.3912 82.5276 27.8069C85.7697 28.9423 87.3908 29.5099 88.507 30.4849C89.4645 31.3212 90.2545 32.4791 90.6841 33.6756C91.1849 35.0705 91.1372 36.3803 91.0417 38.9997C90.77 46.4542 89.4245 57.5329 84.5067 67.5323C78.0216 80.7187 67.1904 89.3682 60.772 93.629C59.3629 94.5644 58.6584 95.0321 57.3308 95.3491C56.4104 95.5689 54.6818 95.5689 53.7614 95.3491C52.4337 95.0321 51.7292 94.5644 50.3201 93.629C43.9018 89.3682 33.0705 80.7187 26.5854 67.5323C21.6677 57.5329 20.3221 46.4542 20.0504 38.9997Z" fill="black"/>
</g>
<mask id="mask0_245_4607" style="mask-type:alpha" maskUnits="userSpaceOnUse" x="19" y="15" width="73" height="81">
<path d="M20.0504 38.9997C19.955 36.3803 19.9072 35.0705 20.4081 33.6756C20.8376 32.4791 21.6277 31.3212 22.5851 30.4849C23.7014 29.5099 25.3224 28.9422 28.5645 27.8069C35.4629 25.3912 42.1181 22.1515 48.3928 18.3871C51.2448 16.6761 52.6709 15.8207 53.8982 15.5512C55.1168 15.2836 55.9754 15.2836 57.1939 15.5512C58.4213 15.8207 59.8473 16.6761 62.6993 18.3871C68.9741 22.1515 75.6292 25.3912 82.5276 27.8069C85.7697 28.9423 87.3908 29.5099 88.507 30.4849C89.4645 31.3212 90.2545 32.4791 90.6841 33.6756C91.1849 35.0705 91.1372 36.3803 91.0417 38.9997C90.77 46.4542 89.4245 57.5329 84.5067 67.5323C78.0216 80.7187 67.1904 89.3682 60.772 93.629C59.3629 94.5644 58.6584 95.0321 57.3308 95.3491C56.4104 95.5689 54.6818 95.5689 53.7614 95.3491C52.4337 95.0321 51.7292 94.5644 50.3201 93.629C43.9018 89.3682 33.0705 80.7187 26.5854 67.5323C21.6677 57.5329 20.3221 46.4542 20.0504 38.9997Z" fill="black"/>
</mask>
<g mask="url(#mask0_245_4607)">
<mask id="mask1_245_4607" style="mask-type:alpha" maskUnits="userSpaceOnUse" x="19" y="15" width="73" height="81">
<path d="M20.0504 38.9997C19.955 36.3803 19.9072 35.0705 20.4081 33.6756C20.8376 32.4791 21.6277 31.3212 22.5851 30.4849C23.7014 29.5099 25.3224 28.9422 28.5645 27.8069C35.4629 25.3912 42.1181 22.1515 48.3928 18.3871C51.2448 16.6761 52.6709 15.8207 53.8982 15.5512C55.1168 15.2836 55.9754 15.2836 57.1939 15.5512C58.4213 15.8207 59.8473 16.6761 62.6993 18.3871C68.9741 22.1515 75.6292 25.3912 82.5276 27.8069C85.7697 28.9423 87.3908 29.5099 88.507 30.4849C89.4645 31.3212 90.2545 32.4791 90.6841 33.6756C91.1849 35.0705 91.1372 36.3803 91.0417 38.9997C90.77 46.4542 89.4245 57.5329 84.5067 67.5323C78.0216 80.7187 67.1904 89.3682 60.772 93.629C59.3629 94.5644 58.6584 95.0321 57.3308 95.3491C56.4104 95.5689 54.6818 95.5689 53.7614 95.3491C52.4337 95.0321 51.7292 94.5644 50.3201 93.629C43.9018 89.3682 33.0705 80.7187 26.5854 67.5323C21.6677 57.5329 20.3221 46.4542 20.0504 38.9997Z" fill="black"/>
</mask>
<g mask="url(#mask1_245_4607)">
<rect x="1.71484" y="1.21484" width="107.57" height="107.57" fill="#FFAA29"/>
<rect x="1.71484" y="1.21484" width="107.57" height="107.57" fill="url(#paint0_linear_245_4607)" fill-opacity="0.6" style="mix-blend-mode:overlay"/>
<rect x="1.71484" y="1.21484" width="107.57" height="107.57" fill="url(#paint1_radial_245_4607)" fill-opacity="0.6" style="mix-blend-mode:overlay"/>
<rect x="1.71484" y="1.21484" width="107.57" height="107.57" fill="black" fill-opacity="0.16" style="mix-blend-mode:overlay"/>
<rect x="1.71484" y="1.21484" width="107.57" height="107.57" fill="black" fill-opacity="0.12" style="mix-blend-mode:darken"/>
</g>
<g filter="url(#filter1_d_245_4607)">
<mask id="mask2_245_4607" style="mask-type:alpha" maskUnits="userSpaceOnUse" x="19" y="15" width="73" height="81">
<path fill-rule="evenodd" clip-rule="evenodd" d="M53.8969 15.5509C55.1153 15.2834 55.9743 15.2834 57.1928 15.5509C58.4197 15.8204 59.8452 16.6756 62.6952 18.3854L62.6977 18.3869C68.9723 22.1511 75.6275 25.3911 82.5258 27.8068L82.5279 27.8075C85.7683 28.9422 87.3893 29.5099 88.5053 30.4845C89.4627 31.3208 90.2535 32.4795 90.683 33.6759C91.1837 35.0707 91.1359 36.3809 91.0405 39V39.0001L90.976 40.4386C90.5863 47.8347 89.1157 58.1578 84.5053 67.5324L84.1977 68.1476C77.6824 80.9879 67.089 89.4348 60.7709 93.6291L59.8246 94.2482C58.9701 94.789 58.3249 95.111 57.3295 95.3488L57.1479 95.3878C56.3665 95.5359 55.1659 95.5537 54.2836 95.4412C54.0912 95.4167 53.9139 95.386 53.7595 95.3491C53.0217 95.1729 52.4763 94.9502 51.8955 94.6266C51.6926 94.5136 51.4854 94.3882 51.2641 94.2482L51.258 94.2442C50.9746 94.0647 50.6681 93.8613 50.3182 93.629C43.9017 89.3694 33.0747 80.7236 26.589 67.5435L26.5834 67.5324C25.1781 64.6748 24.0645 61.729 23.1843 58.8049C22.6207 56.9327 22.1528 55.0693 21.7653 53.2436C20.6403 47.9429 20.1929 42.9599 20.0485 38.9997C19.9531 36.3803 19.9053 35.0705 20.4062 33.6756C20.8348 32.4818 21.6223 31.3263 22.5768 30.4905L22.5834 30.4845C22.8527 30.2494 23.1513 30.038 23.4949 29.8367C24.5751 29.2035 26.1002 28.6692 28.5567 27.809L28.5629 27.8068C29.2119 27.5795 29.8588 27.345 30.5033 27.1034C30.6617 27.044 30.8198 26.9843 30.9779 26.9241C36.6157 24.777 42.0772 22.0938 47.2858 19.0424L48.391 18.3869C51.0646 16.783 52.4852 15.9309 53.6635 15.6085L53.6669 15.6077C53.7433 15.5869 53.8186 15.5683 53.8932 15.5518L53.8969 15.5509ZM54.4741 92.3595C54.4073 92.3436 54.3442 92.3277 54.2836 92.3113V18.6341C54.3993 18.5925 54.4871 18.568 54.5561 18.5529L54.8334 18.4962C55.448 18.3832 55.8472 18.4022 56.5336 18.5529L56.7221 18.6056C56.95 18.68 57.3056 18.83 57.891 19.1417C58.6719 19.5576 59.663 20.1506 61.1166 21.0226C67.5436 24.8782 74.3874 28.2139 81.5102 30.7082C83.1699 31.2893 84.2722 31.6764 85.1059 32.0324C85.9132 32.3771 86.269 32.6123 86.4838 32.8L86.6909 32.9943C87.1655 33.471 87.5683 34.0981 87.7895 34.714L87.8764 34.9865C88.0276 35.5409 88.0534 36.2114 88.0014 37.9337L87.9692 38.8878C87.7129 45.9189 86.4732 56.0732 82.1733 65.2873L81.7475 66.1759C75.605 78.6658 65.2799 86.9466 59.0707 91.0685C57.8241 91.8961 57.4427 92.1289 56.8735 92.2921L56.6157 92.3595C56.4872 92.3902 56.0935 92.4406 55.5444 92.4406C55.1322 92.4406 54.8081 92.412 54.6176 92.3849L54.4741 92.3595ZM33.1882 65.1833L34.3844 64.0389L36.0053 64.3755H36.0053C36.7686 64.534 37.1503 64.6133 37.3824 64.4975C37.5845 64.3967 37.7302 64.2102 37.7791 63.9898C37.8353 63.7365 37.6661 63.3854 37.3276 62.6831L36.6088 61.1918L37.4299 59.7542C37.8165 59.0773 38.0098 58.7388 37.9714 58.4822C37.938 58.2589 37.8057 58.0627 37.6112 57.9481C37.3876 57.8164 37.0014 57.8688 36.2289 57.9737L34.5884 58.1964L33.475 56.9714L33.4749 56.9713C32.9506 56.3944 32.6884 56.106 32.4325 56.0632C32.2099 56.026 31.9823 56.0912 31.8132 56.2408C31.6189 56.4127 31.5494 56.7962 31.4104 57.5633L31.1154 59.1923L29.6062 59.8727C28.8955 60.1931 28.5401 60.3533 28.4203 60.5835C28.3161 60.7838 28.3079 61.0203 28.3978 61.2274C28.5013 61.4653 28.8446 61.6499 29.5312 62.0191L30.9893 62.8032L31.17 64.4488C31.2551 65.2237 31.2977 65.6111 31.4795 65.7962C31.6378 65.9572 31.8603 66.0381 32.085 66.0165C32.3432 65.9917 32.6249 65.7222 33.1882 65.1833L33.1882 65.1833ZM72.5611 64.3755L74.182 64.0389L75.3782 65.1833C75.9415 65.7222 76.2231 65.9917 76.4814 66.0165C76.7061 66.0381 76.9286 65.9572 77.0868 65.7962C77.2687 65.6112 77.3113 65.2237 77.3964 64.4488V64.4488L77.5771 62.8032L79.0352 62.0191C79.7218 61.6499 80.0651 61.4653 80.1685 61.2274C80.2585 61.0203 80.2503 60.7838 80.146 60.5835C80.0263 60.3534 79.6709 60.1931 78.9602 59.8727L77.451 59.1923L77.1559 57.5634L77.1559 57.5633C77.017 56.7962 76.9475 56.4127 76.7531 56.2408C76.5841 56.0912 76.3565 56.026 76.1338 56.0632C75.8779 56.106 75.6158 56.3945 75.0914 56.9714L73.9779 58.1964L72.3375 57.9737C71.565 57.8688 71.1788 57.8164 70.9552 57.9481C70.7607 58.0627 70.6283 58.2589 70.5949 58.4822C70.5566 58.7388 70.7499 59.0773 71.1365 59.7542L71.9575 61.1918L71.2388 62.6831C70.9003 63.3854 70.7311 63.7365 70.7873 63.9898C70.8362 64.2102 70.9819 64.3968 71.1839 64.4975C71.4161 64.6133 71.7978 64.534 72.5611 64.3755Z" fill="#D9D9D9"/>
</mask>
<g mask="url(#mask2_245_4607)">
<rect x="1.71387" y="1.21484" width="107.57" height="107.57" fill="#FFAA29"/>
<rect x="1.71387" y="1.21484" width="107.57" height="107.57" fill="url(#paint2_linear_245_4607)" fill-opacity="0.6" style="mix-blend-mode:overlay"/>
<rect x="1.71387" y="1.21484" width="107.57" height="107.57" fill="url(#paint3_radial_245_4607)" fill-opacity="0.6" style="mix-blend-mode:overlay"/>
<g style="mix-blend-mode:soft-light">
<path fill-rule="evenodd" clip-rule="evenodd" d="M1.71387 1.21484H55.499V108.785H1.71387V1.21484Z" fill="url(#paint4_linear_245_4607)" style="mix-blend-mode:lighten"/>
</g>
<g style="mix-blend-mode:soft-light">
<path d="M51.1611 16.7902C53.8333 15.094 57.2565 15.094 59.9287 16.7902C67.9134 21.8586 76.5718 26.1209 85.6055 28.9249C88.6924 29.8832 90.9989 32.5103 91.0029 35.7267C91.0113 42.6614 90.1678 55.1057 84.9395 66.4005L84.4199 67.4904C77.2427 82.0839 64.7305 91.1141 58.7979 94.7794C56.7857 96.0226 54.3042 96.0226 52.292 94.7794C46.4519 91.1712 34.2369 82.3644 27.0107 68.17L26.6709 67.4904C20.978 55.9148 20.0783 42.8852 20.0869 35.7267L20.0947 35.4269C20.2366 32.3476 22.4948 29.8532 25.4854 28.9249C34.5188 26.1209 43.1766 21.8585 51.1611 16.7902Z" stroke="url(#paint5_linear_245_4607)" stroke-width="0.19209" stroke-linecap="round" stroke-linejoin="round"/>
</g>
<g style="mix-blend-mode:soft-light">
<mask id="path-12-inside-1_245_4607" fill="white">
<path fill-rule="evenodd" clip-rule="evenodd" d="M53.8969 15.5509C55.1153 15.2834 55.9743 15.2834 57.1928 15.5509C58.4197 15.8204 59.8452 16.6756 62.6952 18.3854L62.6977 18.3869C68.9723 22.1511 75.6275 25.3911 82.5258 27.8068L82.5279 27.8075C85.7683 28.9422 87.3893 29.5099 88.5053 30.4845C89.4627 31.3208 90.2535 32.4795 90.683 33.6759C91.1837 35.0707 91.1359 36.3809 91.0405 39V39.0001L90.976 40.4386C90.5863 47.8347 89.1157 58.1578 84.5053 67.5324L84.1977 68.1476C77.6824 80.9879 67.089 89.4348 60.7709 93.6291L59.8246 94.2482C58.9701 94.789 58.3249 95.111 57.3295 95.3488L57.1479 95.3878C56.3665 95.5359 55.1659 95.5537 54.2836 95.4412C54.0912 95.4167 53.9139 95.386 53.7595 95.3491C53.0217 95.1729 52.4763 94.9502 51.8955 94.6266C51.6926 94.5136 51.4854 94.3882 51.2641 94.2482L51.258 94.2442C50.9746 94.0647 50.6681 93.8613 50.3182 93.629C43.9017 89.3694 33.0747 80.7236 26.589 67.5435L26.5834 67.5324C25.1781 64.6748 24.0645 61.729 23.1843 58.8049C22.6207 56.9327 22.1528 55.0693 21.7653 53.2436C20.6403 47.9429 20.1929 42.9599 20.0485 38.9997C19.9531 36.3803 19.9053 35.0705 20.4062 33.6756C20.8348 32.4818 21.6223 31.3263 22.5768 30.4905L22.5834 30.4845C22.8527 30.2494 23.1513 30.038 23.4949 29.8367C24.5751 29.2035 26.1002 28.6692 28.5567 27.809L28.5629 27.8068C29.2119 27.5795 29.8588 27.345 30.5033 27.1034C30.6617 27.044 30.8198 26.9843 30.9779 26.9241C36.6157 24.777 42.0772 22.0938 47.2858 19.0424L48.391 18.3869C51.0646 16.783 52.4852 15.9309 53.6635 15.6085L53.6669 15.6077C53.7433 15.5869 53.8186 15.5683 53.8932 15.5518L53.8969 15.5509ZM54.4741 92.3595C54.4073 92.3436 54.3442 92.3277 54.2836 92.3113V18.6341C54.3993 18.5925 54.4871 18.568 54.5561 18.5529L54.8334 18.4962C55.448 18.3832 55.8472 18.4022 56.5336 18.5529L56.7221 18.6056C56.95 18.68 57.3056 18.83 57.891 19.1417C58.6719 19.5576 59.663 20.1506 61.1166 21.0226C67.5436 24.8782 74.3874 28.2139 81.5102 30.7082C83.1699 31.2893 84.2722 31.6764 85.1059 32.0324C85.9132 32.3771 86.269 32.6123 86.4838 32.8L86.6909 32.9943C87.1655 33.471 87.5683 34.0981 87.7895 34.714L87.8764 34.9865C88.0276 35.5409 88.0534 36.2114 88.0014 37.9337L87.9692 38.8878C87.7129 45.9189 86.4732 56.0732 82.1733 65.2873L81.7475 66.1759C75.605 78.6658 65.2799 86.9466 59.0707 91.0685C57.8241 91.8961 57.4427 92.1289 56.8735 92.2921L56.6157 92.3595C56.4872 92.3902 56.0935 92.4406 55.5444 92.4406C55.1322 92.4406 54.8081 92.412 54.6176 92.3849L54.4741 92.3595ZM33.1882 65.1833L34.3844 64.0389L36.0053 64.3755H36.0053C36.7686 64.534 37.1503 64.6133 37.3824 64.4975C37.5845 64.3967 37.7302 64.2102 37.7791 63.9898C37.8353 63.7365 37.6661 63.3854 37.3276 62.6831L36.6088 61.1918L37.4299 59.7542C37.8165 59.0773 38.0098 58.7388 37.9714 58.4822C37.938 58.2589 37.8057 58.0627 37.6112 57.9481C37.3876 57.8164 37.0014 57.8688 36.2289 57.9737L34.5884 58.1964L33.475 56.9714L33.4749 56.9713C32.9506 56.3944 32.6884 56.106 32.4325 56.0632C32.2099 56.026 31.9823 56.0912 31.8132 56.2408C31.6189 56.4127 31.5494 56.7962 31.4104 57.5633L31.1154 59.1923L29.6062 59.8727C28.8955 60.1931 28.5401 60.3533 28.4203 60.5835C28.3161 60.7838 28.3079 61.0203 28.3978 61.2274C28.5013 61.4653 28.8446 61.6499 29.5312 62.0191L30.9893 62.8032L31.17 64.4488C31.2551 65.2237 31.2977 65.6111 31.4795 65.7962C31.6378 65.9572 31.8603 66.0381 32.085 66.0165C32.3432 65.9917 32.6249 65.7222 33.1882 65.1833L33.1882 65.1833ZM72.5611 64.3755L74.182 64.0389L75.3782 65.1833C75.9415 65.7222 76.2231 65.9917 76.4814 66.0165C76.7061 66.0381 76.9286 65.9572 77.0868 65.7962C77.2687 65.6112 77.3113 65.2237 77.3964 64.4488V64.4488L77.5771 62.8032L79.0352 62.0191C79.7218 61.6499 80.0651 61.4653 80.1685 61.2274C80.2585 61.0203 80.2503 60.7838 80.146 60.5835C80.0263 60.3534 79.6709 60.1931 78.9602 59.8727L77.451 59.1923L77.1559 57.5634L77.1559 57.5633C77.017 56.7962 76.9475 56.4127 76.7531 56.2408C76.5841 56.0912 76.3565 56.026 76.1338 56.0632C75.8779 56.106 75.6158 56.3945 75.0914 56.9714L73.9779 58.1964L72.3375 57.9737C71.565 57.8688 71.1788 57.8164 70.9552 57.9481C70.7607 58.0627 70.6283 58.2589 70.5949 58.4822C70.5566 58.7388 70.7499 59.0773 71.1365 59.7542L71.9575 61.1918L71.2388 62.6831C70.9003 63.3854 70.7311 63.7365 70.7873 63.9898C70.8362 64.2102 70.9819 64.3968 71.1839 64.4975C71.4161 64.6133 71.7978 64.534 72.5611 64.3755Z"/>
</mask>
<path d="M57.1928 15.5509L57.234 15.3633L57.234 15.3633L57.1928 15.5509ZM53.8969 15.5509L53.8557 15.3632L53.8509 15.3644L53.8969 15.5509ZM62.6952 18.3854L62.5964 18.5501L62.5965 18.5502L62.6952 18.3854ZM62.6977 18.3869L62.7965 18.2221L62.7964 18.2221L62.6977 18.3869ZM82.5258 27.8068L82.4623 27.9881L82.4624 27.9881L82.5258 27.8068ZM82.5279 27.8075L82.5914 27.6262L82.5914 27.6262L82.5279 27.8075ZM88.5053 30.4845L88.6317 30.3398L88.6317 30.3398L88.5053 30.4845ZM90.683 33.6759L90.8638 33.611L90.8638 33.611L90.683 33.6759ZM91.0405 39L90.8484 38.9929V39H91.0405ZM91.0405 39.0001L91.2325 39.0088V39.0001H91.0405ZM90.976 40.4386L91.1678 40.4487L91.1679 40.4472L90.976 40.4386ZM84.5053 67.5324L84.6771 67.6183L84.6777 67.6171L84.5053 67.5324ZM84.1977 68.1476L84.369 68.2345L84.3695 68.2335L84.1977 68.1476ZM60.7709 93.6291L60.8761 93.7898L60.8772 93.7891L60.7709 93.6291ZM59.8246 94.2482L59.9274 94.4105L59.9298 94.4089L59.8246 94.2482ZM57.3295 95.3488L57.3699 95.5366L57.3741 95.5356L57.3295 95.3488ZM57.1479 95.3878L57.1837 95.5766L57.1883 95.5756L57.1479 95.3878ZM54.2836 95.4412L54.3079 95.2507L54.3079 95.2507L54.2836 95.4412ZM53.7595 95.3491L53.7148 95.536L53.7148 95.536L53.7595 95.3491ZM51.8955 94.6266L51.9891 94.4588L51.989 94.4588L51.8955 94.6266ZM51.2641 94.2482L51.1588 94.4089L51.1614 94.4105L51.2641 94.2482ZM51.258 94.2442L51.3632 94.0835L51.3607 94.0819L51.258 94.2442ZM50.3182 93.629L50.4245 93.469L50.4245 93.469L50.3182 93.629ZM26.589 67.5435L26.7613 67.4587L26.7608 67.4576L26.589 67.5435ZM26.5834 67.5324L26.4111 67.6171L26.4116 67.6183L26.5834 67.5324ZM23.1843 58.8049L23.3682 58.7496L23.3682 58.7496L23.1843 58.8049ZM21.7653 53.2436L21.9532 53.2037L21.9532 53.2037L21.7653 53.2436ZM20.0485 38.9997L19.8566 39.0067L19.8566 39.0067L20.0485 38.9997ZM20.4062 33.6756L20.5869 33.7405L20.5869 33.7405L20.4062 33.6756ZM22.5768 30.4905L22.7034 30.635L22.7058 30.6328L22.5768 30.4905ZM22.5834 30.4845L22.457 30.3398L22.4544 30.3422L22.5834 30.4845ZM23.4949 29.8367L23.592 30.0024L23.5921 30.0024L23.4949 29.8367ZM28.5567 27.809L28.6201 27.9903L28.6209 27.99L28.5567 27.809ZM28.5629 27.8068L28.4994 27.6255L28.4987 27.6258L28.5629 27.8068ZM30.5033 27.1034L30.5707 27.2832L30.5707 27.2832L30.5033 27.1034ZM30.9779 26.9241L31.0463 27.1036L31.0463 27.1036L30.9779 26.9241ZM47.2858 19.0424L47.3829 19.2081L47.3837 19.2076L47.2858 19.0424ZM48.391 18.3869L48.489 18.5521L48.4899 18.5516L48.391 18.3869ZM53.6635 15.6085L53.6175 15.422L53.6128 15.4233L53.6635 15.6085ZM53.6669 15.6077L53.713 15.7942L53.7175 15.793L53.6669 15.6077ZM53.8932 15.5518L53.9345 15.7395L53.9392 15.7383L53.8932 15.5518ZM54.2836 92.3113H54.0915C54.0915 92.3981 54.1497 92.4741 54.2334 92.4967L54.2836 92.3113ZM54.4741 92.3595L54.4293 92.5467L54.4406 92.5487L54.4741 92.3595ZM54.2836 18.6341L54.2186 18.4533C54.1424 18.4808 54.0915 18.5531 54.0915 18.6341H54.2836ZM54.5561 18.5529L54.5176 18.3647L54.5149 18.3653L54.5561 18.5529ZM54.8334 18.4962L54.7987 18.3073L54.795 18.308L54.8334 18.4962ZM56.5336 18.5529L56.5855 18.3676L56.5748 18.3653L56.5336 18.5529ZM56.7221 18.6056L56.7817 18.4228L56.7739 18.4206L56.7221 18.6056ZM57.891 19.1417L57.9813 18.9722L57.9813 18.9722L57.891 19.1417ZM61.1166 21.0226L61.0178 21.1873L61.0178 21.1873L61.1166 21.0226ZM81.5102 30.7082L81.4467 30.8894L81.4467 30.8894L81.5102 30.7082ZM85.1059 32.0324L85.1813 31.8557L85.1813 31.8557L85.1059 32.0324ZM86.4838 32.8L86.6154 32.6598L86.6102 32.6553L86.4838 32.8ZM86.6909 32.9943L86.827 32.8587L86.8223 32.8542L86.6909 32.9943ZM87.7895 34.714L87.9726 34.6556L87.9703 34.6491L87.7895 34.714ZM87.8764 34.9865L88.0619 34.9359L88.0594 34.9281L87.8764 34.9865ZM88.0014 37.9337L88.1934 37.9402L88.1934 37.9395L88.0014 37.9337ZM87.9692 38.8878L88.1611 38.8948L88.1612 38.8943L87.9692 38.8878ZM82.1733 65.2873L82.3465 65.3703L82.3473 65.3685L82.1733 65.2873ZM81.7475 66.1759L81.9199 66.2607L81.9207 66.2589L81.7475 66.1759ZM59.0707 91.0685L59.177 91.2285L59.177 91.2285L59.0707 91.0685ZM56.8735 92.2921L56.9221 92.478L56.9264 92.4768L56.8735 92.2921ZM56.6157 92.3595L56.6603 92.5464L56.6642 92.5454L56.6157 92.3595ZM55.5444 92.4406L55.5444 92.6327H55.5444V92.4406ZM54.6176 92.3849L54.5841 92.5742L54.5906 92.5751L54.6176 92.3849ZM34.3844 64.0389L34.4235 63.8508C34.3616 63.838 34.2973 63.8564 34.2516 63.9001L34.3844 64.0389ZM33.1882 65.1833L33.0554 65.0445L33.0524 65.0475L33.1882 65.1833ZM36.0053 64.3755L35.9663 64.5636C35.9791 64.5663 35.9922 64.5676 36.0053 64.5676V64.3755ZM36.0053 64.3755L36.0444 64.1874C36.0316 64.1848 36.0185 64.1834 36.0053 64.1834V64.3755ZM37.3824 64.4975L37.4682 64.6694L37.4682 64.6694L37.3824 64.4975ZM37.7791 63.9898L37.9666 64.0314L37.9666 64.0314L37.7791 63.9898ZM37.3276 62.6831L37.1545 62.7665L37.1545 62.7665L37.3276 62.6831ZM36.6088 61.1918L36.442 61.0965C36.4107 61.1514 36.4083 61.2182 36.4358 61.2752L36.6088 61.1918ZM37.4299 59.7542L37.5967 59.8495L37.5967 59.8495L37.4299 59.7542ZM37.9714 58.4822L37.7815 58.5106L37.7815 58.5106L37.9714 58.4822ZM37.6112 57.9481L37.5136 58.1136L37.5136 58.1136L37.6112 57.9481ZM36.2289 57.9737L36.203 57.7833L36.203 57.7833L36.2289 57.9737ZM34.5884 58.1964L34.4463 58.3256C34.4888 58.3724 34.5516 58.3953 34.6143 58.3868L34.5884 58.1964ZM33.475 56.9714L33.3304 57.0979L33.3328 57.1006L33.475 56.9714ZM33.4749 56.9713L33.6195 56.8448L33.6171 56.8421L33.4749 56.9713ZM32.4325 56.0632L32.4642 55.8737L32.4642 55.8737L32.4325 56.0632ZM31.8132 56.2408L31.686 56.0969L31.686 56.0969L31.8132 56.2408ZM31.4104 57.5633L31.5995 57.5976L31.5995 57.5976L31.4104 57.5633ZM31.1154 59.1923L31.1943 59.3674C31.2519 59.3415 31.2931 59.2888 31.3044 59.2266L31.1154 59.1923ZM29.6062 59.8727L29.6851 60.0478L29.6851 60.0478L29.6062 59.8727ZM28.4203 60.5835L28.5907 60.6722L28.5907 60.6722L28.4203 60.5835ZM28.3978 61.2274L28.574 61.1508L28.574 61.1508L28.3978 61.2274ZM29.5312 62.0191L29.6222 61.85L29.6222 61.85L29.5312 62.0191ZM30.9893 62.8032L31.1802 62.7822C31.1733 62.7193 31.1359 62.6639 31.0802 62.634L30.9893 62.8032ZM31.17 64.4488L30.9791 64.4697L30.9791 64.4697L31.17 64.4488ZM31.4795 65.7962L31.3426 65.9308L31.3426 65.9308L31.4795 65.7962ZM32.085 66.0165L32.0666 65.8253L32.0666 65.8253L32.085 66.0165ZM33.1882 65.1833L33.321 65.3222L33.324 65.3192L33.1882 65.1833ZM74.182 64.0389L74.3147 63.9001C74.2691 63.8564 74.2048 63.838 74.1429 63.8508L74.182 64.0389ZM72.5611 64.3755L72.6001 64.5636L72.5611 64.3755ZM75.3782 65.1833L75.511 65.0445L75.511 65.0445L75.3782 65.1833ZM76.4814 66.0165L76.4998 65.8253L76.4998 65.8253L76.4814 66.0165ZM77.0868 65.7962L76.9498 65.6615L76.9498 65.6615L77.0868 65.7962ZM77.3964 64.4488L77.5873 64.4698C77.5881 64.4628 77.5885 64.4558 77.5885 64.4488H77.3964ZM77.3964 64.4488L77.2054 64.4278C77.2047 64.4348 77.2043 64.4418 77.2043 64.4488H77.3964ZM77.5771 62.8032L77.4861 62.634C77.4305 62.6639 77.3931 62.7194 77.3862 62.7822L77.5771 62.8032ZM79.0352 62.0191L79.1261 62.1883L79.1261 62.1883L79.0352 62.0191ZM80.1685 61.2274L80.3447 61.304L80.3447 61.304L80.1685 61.2274ZM80.146 60.5835L79.9756 60.6722L79.9756 60.6722L80.146 60.5835ZM78.9602 59.8727L78.8813 60.0479L78.8813 60.0479L78.9602 59.8727ZM77.451 59.1923L77.262 59.2266C77.2733 59.2888 77.3144 59.3415 77.3721 59.3674L77.451 59.1923ZM77.1559 57.5634L77.3454 57.529L77.3423 57.5168L77.1559 57.5634ZM77.1559 57.5633L76.9665 57.5976L76.9696 57.6099L77.1559 57.5633ZM76.7531 56.2408L76.6259 56.3847L76.6259 56.3847L76.7531 56.2408ZM76.1338 56.0632L76.1022 55.8738L76.1022 55.8738L76.1338 56.0632ZM75.0914 56.9714L74.9493 56.8422L74.9493 56.8422L75.0914 56.9714ZM73.9779 58.1964L73.9521 58.3868C74.0147 58.3953 74.0776 58.3724 74.1201 58.3256L73.9779 58.1964ZM72.3375 57.9737L72.3633 57.7834L72.3633 57.7834L72.3375 57.9737ZM70.9552 57.9481L70.8577 57.7826L70.8577 57.7826L70.9552 57.9481ZM70.5949 58.4822L70.7849 58.5106L70.7849 58.5106L70.5949 58.4822ZM71.1365 59.7542L71.3033 59.659L71.3033 59.659L71.1365 59.7542ZM71.9575 61.1918L72.1306 61.2752C72.158 61.2182 72.1557 61.1514 72.1243 61.0965L71.9575 61.1918ZM71.2388 62.6831L71.4118 62.7665L71.4118 62.7665L71.2388 62.6831ZM70.7873 63.9898L70.5997 64.0314L70.5997 64.0314L70.7873 63.9898ZM71.1839 64.4975L71.2697 64.3256L71.2697 64.3256L71.1839 64.4975ZM57.1928 15.5509L57.234 15.3633C55.9884 15.0898 55.1013 15.0898 53.8557 15.3633L53.8969 15.5509L53.9381 15.7385C55.1294 15.477 55.9603 15.477 57.1516 15.7385L57.1928 15.5509ZM62.6952 18.3854L62.794 18.2206C61.3708 17.3668 60.297 16.7226 59.4256 16.2585C58.5543 15.7944 57.873 15.5037 57.234 15.3633L57.1928 15.5509L57.1516 15.7385C57.7395 15.8677 58.3844 16.1393 59.245 16.5976C60.1057 17.056 61.1697 17.6942 62.5964 18.5501L62.6952 18.3854ZM62.6977 18.3869L62.7964 18.2221L62.7939 18.2206L62.6952 18.3854L62.5965 18.5502L62.599 18.5517L62.6977 18.3869ZM82.5258 27.8068L82.5893 27.6255C75.705 25.2147 69.0616 21.9807 62.7965 18.2221L62.6977 18.3869L62.5989 18.5516C68.883 22.3216 75.55 25.5675 82.4623 27.9881L82.5258 27.8068ZM82.5279 27.8075L82.5914 27.6262L82.5893 27.6255L82.5258 27.8068L82.4624 27.9881L82.4645 27.9888L82.5279 27.8075ZM88.5053 30.4845L88.6317 30.3398C88.0522 29.8338 87.3474 29.4388 86.3887 29.0294C85.4316 28.6207 84.2092 28.1927 82.5914 27.6262L82.5279 27.8075L82.4644 27.9888C84.087 28.557 85.2953 28.9802 86.2378 29.3827C87.1787 29.7845 87.8424 30.1606 88.379 30.6292L88.5053 30.4845ZM90.683 33.6759L90.8638 33.611C90.4232 32.3838 89.6137 31.1976 88.6317 30.3398L88.5053 30.4845L88.3789 30.6292C89.3117 31.444 90.0838 32.5752 90.5022 33.7408L90.683 33.6759ZM91.0405 39L91.2324 39.0069C91.3275 36.3992 91.3795 35.0478 90.8638 33.611L90.683 33.6759L90.5022 33.7408C90.9878 35.0936 90.9444 36.3626 90.8485 38.993L91.0405 39ZM91.0405 39.0001H91.2325V39H91.0405H90.8484V39.0001H91.0405ZM90.976 40.4386L91.1679 40.4472L91.2324 39.0087L91.0405 39.0001L90.8486 38.9915L90.7841 40.43L90.976 40.4386ZM84.5053 67.5324L84.6777 67.6171C89.3042 58.2098 90.7775 47.8575 91.1678 40.4487L90.976 40.4386L90.7842 40.4285C90.3952 47.8119 88.9272 58.1059 84.3329 67.4476L84.5053 67.5324ZM84.1977 68.1476L84.3695 68.2335L84.6771 67.6183L84.5053 67.5324L84.3335 67.4465L84.0259 68.0617L84.1977 68.1476ZM60.7709 93.6291L60.8772 93.7891C67.2082 89.5862 77.8324 81.1169 84.369 68.2345L84.1977 68.1476L84.0264 68.0607C77.5325 80.8589 66.9697 89.2834 60.6647 93.469L60.7709 93.6291ZM59.8246 94.2482L59.9298 94.4089L60.8761 93.7898L60.7709 93.6291L60.6658 93.4683L59.7195 94.0875L59.8246 94.2482ZM57.3295 95.3488L57.3741 95.5356C58.3961 95.2915 59.0611 94.9587 59.9274 94.4105L59.8246 94.2482L59.7219 94.0859C58.8791 94.6192 58.2536 94.9306 57.2849 95.1619L57.3295 95.3488ZM57.1479 95.3878L57.1883 95.5756L57.3699 95.5366L57.3295 95.3488L57.2891 95.161L57.1075 95.2L57.1479 95.3878ZM54.2836 95.4412L54.2593 95.6318C55.1582 95.7464 56.3793 95.729 57.1836 95.5766L57.1479 95.3878L57.1121 95.1991C56.3536 95.3429 55.1736 95.361 54.3079 95.2507L54.2836 95.4412ZM53.7595 95.3491L53.7148 95.536C53.8777 95.5749 54.062 95.6066 54.2593 95.6318L54.2836 95.4412L54.3079 95.2507C54.1204 95.2268 53.9502 95.1972 53.8041 95.1623L53.7595 95.3491ZM51.8955 94.6266L51.802 94.7944C52.3976 95.1263 52.9594 95.3555 53.7148 95.536L53.7595 95.3491L53.8041 95.1623C53.084 94.9903 52.555 94.7742 51.9891 94.4588L51.8955 94.6266ZM51.2641 94.2482L51.1614 94.4105C51.3846 94.5518 51.595 94.6791 51.8021 94.7944L51.8955 94.6266L51.989 94.4588C51.7902 94.348 51.5861 94.2247 51.3668 94.0859L51.2641 94.2482ZM51.258 94.2442L51.1527 94.4049L51.1588 94.4089L51.2641 94.2482L51.3694 94.0875L51.3632 94.0835L51.258 94.2442ZM50.3182 93.629L50.212 93.789C50.5614 94.021 50.8697 94.2257 51.1552 94.4065L51.258 94.2442L51.3607 94.0819C51.0795 93.9038 50.7748 93.7015 50.4245 93.469L50.3182 93.629ZM26.589 67.5435L26.4166 67.6283C32.9237 80.8519 43.7823 89.5208 50.212 93.789L50.3182 93.629L50.4245 93.469C44.021 89.2181 33.2256 80.5953 26.7613 67.4587L26.589 67.5435ZM26.5834 67.5324L26.4116 67.6183L26.4172 67.6294L26.589 67.5435L26.7608 67.4576L26.7552 67.4465L26.5834 67.5324ZM23.1843 58.8049L23.0003 58.8603C23.8831 61.793 25.0004 64.7488 26.4111 67.6171L26.5834 67.5324L26.7558 67.4476C25.3557 64.6008 24.2458 61.6651 23.3682 58.7496L23.1843 58.8049ZM21.7653 53.2436L21.5774 53.2835C21.9659 55.1139 22.4351 56.9825 23.0003 58.8603L23.1843 58.8049L23.3682 58.7496C22.8063 56.8829 22.3397 55.0247 21.9532 53.2037L21.7653 53.2436ZM20.0485 38.9997L19.8566 39.0067C20.0012 42.975 20.4495 47.9694 21.5774 53.2835L21.7653 53.2436L21.9532 53.2037C20.831 47.9164 20.3845 42.9448 20.2405 38.9927L20.0485 38.9997ZM20.4062 33.6756L20.2254 33.6107C19.7095 35.0477 19.7615 36.3985 19.8566 39.0067L20.0485 38.9997L20.2405 38.9927C20.1446 36.362 20.1012 35.0934 20.5869 33.7405L20.4062 33.6756ZM22.5768 30.4905L22.4503 30.346C21.4712 31.2033 20.665 32.3861 20.2254 33.6107L20.4062 33.6756L20.5869 33.7405C21.0045 32.5774 21.7733 31.4494 22.7034 30.635L22.5768 30.4905ZM22.5834 30.4845L22.4544 30.3422L22.4478 30.3482L22.5768 30.4905L22.7058 30.6328L22.7125 30.6268L22.5834 30.4845ZM23.4949 29.8367L23.3978 29.6709C23.0453 29.8775 22.7366 30.0957 22.4571 30.3398L22.5834 30.4845L22.7098 30.6292C22.9687 30.4031 23.2573 30.1985 23.592 30.0024L23.4949 29.8367ZM28.5567 27.809L28.4932 27.6277C26.0451 28.485 24.4981 29.026 23.3978 29.671L23.4949 29.8367L23.5921 30.0024C24.6522 29.381 26.1553 28.8534 28.6201 27.9903L28.5567 27.809ZM28.5629 27.8068L28.4987 27.6258L28.4924 27.628L28.5567 27.809L28.6209 27.99L28.6271 27.9878L28.5629 27.8068ZM30.5033 27.1034L30.4359 26.9235C29.7926 27.1646 29.1471 27.3987 28.4994 27.6255L28.5629 27.8068L28.6264 27.9881C29.2767 27.7603 29.9249 27.5253 30.5707 27.2832L30.5033 27.1034ZM30.9779 26.9241L30.9095 26.7446C30.7518 26.8046 30.5939 26.8643 30.4359 26.9235L30.5033 27.1034L30.5707 27.2832C30.7294 27.2238 30.8879 27.1639 31.0463 27.1036L30.9779 26.9241ZM47.2858 19.0424L47.1887 18.8766C41.9882 21.9234 36.5362 24.6017 30.9095 26.7446L30.9779 26.9241L31.0463 27.1036C36.6951 24.9523 42.1663 22.2643 47.3829 19.2081L47.2858 19.0424ZM48.391 18.3869L48.2931 18.2216L47.1878 18.8771L47.2858 19.0424L47.3837 19.2076L48.489 18.5521L48.391 18.3869ZM53.6635 15.6085L53.6128 15.4233C52.4022 15.7545 50.9531 16.6258 48.2922 18.2221L48.391 18.3869L48.4899 18.5516C51.176 16.9401 52.5681 16.1074 53.7142 15.7938L53.6635 15.6085ZM53.6669 15.6077L53.6209 15.4212L53.6175 15.4221L53.6635 15.6085L53.7095 15.795L53.713 15.7942L53.6669 15.6077ZM53.8932 15.5518L53.8519 15.3643C53.7741 15.3814 53.6957 15.4008 53.6164 15.4224L53.6669 15.6077L53.7175 15.793C53.7909 15.773 53.8631 15.7552 53.9345 15.7394L53.8932 15.5518ZM53.8969 15.5509L53.8509 15.3644L53.8471 15.3654L53.8932 15.5518L53.9392 15.7383L53.943 15.7374L53.8969 15.5509ZM54.2836 92.3113L54.2334 92.4967C54.2963 92.5137 54.3613 92.5301 54.4294 92.5464L54.4741 92.3595L54.5187 92.1727C54.4533 92.1571 54.3922 92.1417 54.3338 92.1259L54.2836 92.3113ZM54.2836 18.6341H54.0915V92.3113H54.2836H54.4757V18.6341H54.2836ZM54.5561 18.5529L54.5149 18.3653C54.4367 18.3824 54.3409 18.4094 54.2186 18.4533L54.2836 18.6341L54.3485 18.8149C54.4577 18.7756 54.5376 18.7536 54.5973 18.7405L54.5561 18.5529ZM54.8334 18.4962L54.795 18.308L54.5176 18.3647L54.5561 18.5529L54.5945 18.7411L54.8719 18.6844L54.8334 18.4962ZM56.5336 18.5529L56.5748 18.3653C55.8685 18.2102 55.443 18.1888 54.7987 18.3073L54.8334 18.4962L54.8682 18.6852C55.453 18.5776 55.826 18.5942 56.4924 18.7405L56.5336 18.5529ZM56.7221 18.6056L56.7739 18.4206L56.5854 18.3679L56.5336 18.5529L56.4819 18.7379L56.6703 18.7906L56.7221 18.6056ZM57.891 19.1417L57.9813 18.9722C57.3913 18.6579 57.0246 18.5023 56.7817 18.423L56.7221 18.6056L56.6625 18.7882C56.8754 18.8577 57.2199 19.002 57.8008 19.3113L57.891 19.1417ZM61.1166 21.0226L61.2155 20.8579C59.7636 19.9869 58.7676 19.3909 57.9813 18.9722L57.891 19.1417L57.8007 19.3113C58.5763 19.7243 59.5625 20.3143 61.0178 21.1873L61.1166 21.0226ZM81.5102 30.7082L81.5737 30.5269C74.4649 28.0375 67.6329 24.7078 61.2155 20.8579L61.1166 21.0226L61.0178 21.1873C67.4543 25.0487 74.3099 28.3903 81.4467 30.8894L81.5102 30.7082ZM85.1059 32.0324L85.1813 31.8557C84.3404 31.4966 83.2307 31.1071 81.5737 30.5269L81.5102 30.7082L81.4467 30.8894C83.109 31.4715 84.2041 31.8562 85.0305 32.209L85.1059 32.0324ZM86.4838 32.8L86.6102 32.6553C86.3739 32.4489 85.9975 32.2043 85.1813 31.8557L85.1059 32.0324L85.0305 32.209C85.8289 32.55 86.1641 32.7757 86.3575 32.9446L86.4838 32.8ZM86.6909 32.9943L86.8223 32.8542L86.6153 32.6599L86.4838 32.8L86.3524 32.94L86.5594 33.1343L86.6909 32.9943ZM87.7895 34.714L87.9703 34.6491C87.7391 34.0054 87.3205 33.3545 86.827 32.8588L86.6909 32.9943L86.5547 33.1298C87.0104 33.5875 87.3975 34.1909 87.6087 34.7789L87.7895 34.714ZM87.8764 34.9865L88.0594 34.9281L87.9725 34.6556L87.7895 34.714L87.6065 34.7724L87.6934 35.0449L87.8764 34.9865ZM88.0014 37.9337L88.1934 37.9395C88.2452 36.223 88.2218 35.5229 88.0617 34.9359L87.8764 34.9865L87.6911 35.037C87.8334 35.5589 87.8616 36.1998 87.8094 37.9279L88.0014 37.9337ZM87.9692 38.8878L88.1612 38.8943L88.1934 37.9402L88.0014 37.9337L87.8094 37.9273L87.7772 38.8814L87.9692 38.8878ZM82.1733 65.2873L82.3473 65.3685C86.6627 56.1214 87.9044 45.9381 88.1611 38.8948L87.9692 38.8878L87.7772 38.8808C87.5214 45.8997 86.2837 56.025 81.9992 65.206L82.1733 65.2873ZM81.7475 66.1759L81.9207 66.2589L82.3465 65.3703L82.1733 65.2873L82 65.2043L81.5743 66.0929L81.7475 66.1759ZM59.0707 91.0685L59.177 91.2285C65.3992 87.098 75.7559 78.7941 81.9199 66.2607L81.7475 66.1759L81.5751 66.0912C75.454 78.5374 65.1606 86.7953 58.9645 90.9085L59.0707 91.0685ZM56.8735 92.2921L56.9264 92.4768C57.5295 92.3038 57.9361 92.0523 59.177 91.2285L59.0707 91.0685L58.9645 90.9085C57.712 91.7399 57.3559 91.954 56.8205 92.1075L56.8735 92.2921ZM56.6157 92.3595L56.6642 92.5454L56.922 92.478L56.8735 92.2921L56.8249 92.1063L56.5671 92.1737L56.6157 92.3595ZM55.5444 92.4406V92.6327C56.1006 92.6327 56.511 92.582 56.6603 92.5464L56.6157 92.3595L56.571 92.1727C56.4633 92.1984 56.0865 92.2485 55.5444 92.2485V92.4406ZM54.6176 92.3849L54.5906 92.5751C54.7908 92.6035 55.1241 92.6327 55.5444 92.6327L55.5444 92.4406L55.5444 92.2485C55.1404 92.2485 54.8253 92.2204 54.6446 92.1947L54.6176 92.3849ZM54.4741 92.3595L54.4406 92.5487L54.5842 92.5741L54.6176 92.3849L54.6511 92.1958L54.5075 92.1704L54.4741 92.3595ZM34.3844 64.0389L34.2516 63.9001L33.0554 65.0445L33.1882 65.1833L33.321 65.3221L34.5172 64.1777L34.3844 64.0389ZM36.0053 64.3755L36.0444 64.1874L34.4235 63.8508L34.3844 64.0389L34.3454 64.227L35.9663 64.5636L36.0053 64.3755ZM36.0053 64.3755V64.1834H36.0053V64.3755V64.5676H36.0053V64.3755ZM37.3824 64.4975L37.2967 64.3256C37.233 64.3574 37.1271 64.3728 36.9149 64.3485C36.7058 64.3246 36.4298 64.2675 36.0444 64.1874L36.0053 64.3755L35.9663 64.5636C36.3442 64.6421 36.6406 64.7038 36.8712 64.7302C37.0987 64.7563 37.2998 64.7534 37.4682 64.6694L37.3824 64.4975ZM37.7791 63.9898L37.5916 63.9482C37.5552 64.112 37.4469 64.2507 37.2967 64.3256L37.3824 64.4975L37.4682 64.6694C37.722 64.5428 37.9052 64.3084 37.9666 64.0314L37.7791 63.9898ZM37.3276 62.6831L37.1545 62.7665C37.3254 63.1211 37.4477 63.3751 37.5214 63.5722C37.5963 63.7722 37.607 63.8787 37.5916 63.9482L37.7791 63.9898L37.9666 64.0314C38.0074 63.8477 37.9615 63.6519 37.8812 63.4375C37.7998 63.2201 37.6682 62.9474 37.5006 62.5997L37.3276 62.6831ZM36.6088 61.1918L36.4358 61.2752L37.1545 62.7665L37.3276 62.6831L37.5006 62.5997L36.7819 61.1084L36.6088 61.1918ZM37.4299 59.7542L37.2631 59.659L36.442 61.0965L36.6088 61.1918L36.7756 61.287L37.5967 59.8495L37.4299 59.7542ZM37.9714 58.4822L37.7815 58.5106C37.792 58.5811 37.7739 58.6865 37.6853 58.8808C37.5979 59.0723 37.4583 59.3172 37.2631 59.659L37.4299 59.7542L37.5967 59.8495C37.7881 59.5143 37.9384 59.2515 38.0348 59.0403C38.1298 58.832 38.1892 58.6399 38.1614 58.4538L37.9714 58.4822ZM37.6112 57.9481L37.5136 58.1136C37.6582 58.1988 37.7566 58.3446 37.7815 58.5106L37.9714 58.4822L38.1614 58.4538C38.1194 58.1732 37.9531 57.9266 37.7087 57.7826L37.6112 57.9481ZM36.2289 57.9737L36.2547 58.164C36.6448 58.1111 36.9241 58.0733 37.1343 58.0641C37.3477 58.0546 37.4523 58.0774 37.5136 58.1136L37.6112 57.9481L37.7087 57.7826C37.5465 57.687 37.3462 57.6702 37.1174 57.6803C36.8855 57.6905 36.5855 57.7314 36.203 57.7833L36.2289 57.9737ZM34.5884 58.1964L34.6143 58.3868L36.2547 58.164L36.2289 57.9737L36.203 57.7833L34.5626 58.0061L34.5884 58.1964ZM33.475 56.9714L33.3328 57.1006L34.4463 58.3256L34.5884 58.1964L34.7306 58.0672L33.6171 56.8422L33.475 56.9714ZM33.4749 56.9713L33.3304 57.0978L33.3304 57.0978L33.475 56.9714L33.6195 56.8449L33.6195 56.8448L33.4749 56.9713ZM32.4325 56.0632L32.4009 56.2527C32.4711 56.2644 32.5659 56.3142 32.7232 56.4585C32.8783 56.6008 33.0681 56.8093 33.3328 57.1005L33.4749 56.9713L33.6171 56.8421C33.3575 56.5565 33.154 56.3323 32.9829 56.1754C32.8142 56.0206 32.6499 55.9048 32.4642 55.8737L32.4325 56.0632ZM31.8132 56.2408L31.9405 56.3847C32.0662 56.2735 32.2353 56.225 32.4009 56.2527L32.4325 56.0632L32.4642 55.8737C32.1844 55.827 31.8985 55.909 31.686 56.0969L31.8132 56.2408ZM31.4104 57.5633L31.5995 57.5976C31.6696 57.2103 31.7201 56.9329 31.7762 56.7301C31.8332 56.5243 31.8871 56.4319 31.9405 56.3847L31.8132 56.2408L31.686 56.0969C31.545 56.2216 31.467 56.4069 31.4059 56.6276C31.344 56.8513 31.2902 57.1493 31.2214 57.5291L31.4104 57.5633ZM31.1154 59.1923L31.3044 59.2266L31.5995 57.5976L31.4104 57.5633L31.2214 57.5291L30.9263 59.1581L31.1154 59.1923ZM29.6062 59.8727L29.6851 60.0478L31.1943 59.3674L31.1154 59.1923L31.0364 59.0172L29.5272 59.6976L29.6062 59.8727ZM28.4203 60.5835L28.5907 60.6722C28.6236 60.609 28.7002 60.5343 28.8862 60.4292C29.0694 60.3257 29.3263 60.2096 29.6851 60.0478L29.6062 59.8727L29.5272 59.6976C29.1754 59.8562 28.8992 59.9805 28.6971 60.0947C28.4978 60.2074 28.3368 60.3279 28.2499 60.4948L28.4203 60.5835ZM28.3978 61.2274L28.574 61.1508C28.5071 60.9969 28.5133 60.821 28.5907 60.6722L28.4203 60.5835L28.2499 60.4948C28.119 60.7465 28.1086 61.0438 28.2217 61.3039L28.3978 61.2274ZM29.5312 62.0191L29.6222 61.85C29.2755 61.6635 29.0273 61.5299 28.8518 61.4138C28.6736 61.296 28.6024 61.2161 28.574 61.1508L28.3978 61.2274L28.2217 61.3039C28.2967 61.4766 28.4489 61.608 28.6399 61.7343C28.8335 61.8623 29.1003 62.0055 29.4402 62.1883L29.5312 62.0191ZM30.9893 62.8032L31.0802 62.634L29.6222 61.85L29.5312 62.0191L29.4402 62.1883L30.8983 62.9723L30.9893 62.8032ZM31.17 64.4488L31.3609 64.4278L31.1802 62.7822L30.9893 62.8032L30.7983 62.8241L30.9791 64.4697L31.17 64.4488ZM31.4795 65.7962L31.6165 65.6615C31.5666 65.6107 31.5192 65.5148 31.4767 65.3055C31.4349 65.0992 31.4039 64.8191 31.3609 64.4278L31.17 64.4488L30.9791 64.4697C31.0212 64.8534 31.0541 65.1544 31.1002 65.3819C31.1458 65.6063 31.2106 65.7966 31.3426 65.9308L31.4795 65.7962ZM32.085 66.0165L32.0666 65.8253C31.8995 65.8414 31.7342 65.7812 31.6165 65.6615L31.4795 65.7962L31.3426 65.9308C31.5414 66.1331 31.821 66.2349 32.1033 66.2077L32.085 66.0165ZM33.1882 65.1833L33.0554 65.0445C32.771 65.3166 32.5672 65.5114 32.4025 65.6424C32.2355 65.7755 32.1375 65.8185 32.0666 65.8253L32.085 66.0165L32.1033 66.2077C32.2907 66.1897 32.4627 66.0856 32.6418 65.943C32.8234 65.7984 33.0421 65.5889 33.321 65.3221L33.1882 65.1833ZM33.1882 65.1833L33.0524 65.0475L33.0523 65.0475L33.1882 65.1833L33.324 65.3192L33.324 65.3191L33.1882 65.1833ZM74.182 64.0389L74.1429 63.8508L72.522 64.1875L72.5611 64.3755L72.6001 64.5636L74.221 64.227L74.182 64.0389ZM75.3782 65.1833L75.511 65.0445L74.3147 63.9001L74.182 64.0389L74.0492 64.1777L75.2454 65.3221L75.3782 65.1833ZM76.4814 66.0165L76.4998 65.8253C76.4289 65.8185 76.3309 65.7755 76.1638 65.6424C75.9992 65.5114 75.7954 65.3166 75.511 65.0445L75.3782 65.1833L75.2454 65.3221C75.5243 65.5889 75.7429 65.7984 75.9245 65.943C76.1037 66.0856 76.2757 66.1897 76.463 66.2077L76.4814 66.0165ZM77.0868 65.7962L76.9498 65.6615C76.8322 65.7812 76.6668 65.8414 76.4998 65.8253L76.4814 66.0165L76.463 66.2077C76.7454 66.2349 77.025 66.1332 77.2238 65.9308L77.0868 65.7962ZM77.3964 64.4488L77.2054 64.4278C77.1625 64.8191 77.1315 65.0993 77.0896 65.3055C77.0472 65.5148 76.9998 65.6107 76.9498 65.6615L77.0868 65.7962L77.2238 65.9308C77.3558 65.7966 77.4206 65.6063 77.4661 65.3819C77.5123 65.1544 77.5452 64.8534 77.5873 64.4698L77.3964 64.4488ZM77.3964 64.4488H77.2043V64.4488H77.3964H77.5885V64.4488H77.3964ZM77.5771 62.8032L77.3862 62.7822L77.2054 64.4278L77.3964 64.4488L77.5873 64.4697L77.768 62.8241L77.5771 62.8032ZM79.0352 62.0191L78.9442 61.85L77.4861 62.634L77.5771 62.8032L77.6681 62.9724L79.1261 62.1883L79.0352 62.0191ZM80.1685 61.2274L79.9924 61.1508C79.964 61.2162 79.8927 61.296 79.7146 61.4138C79.5391 61.5299 79.2909 61.6635 78.9442 61.85L79.0352 62.0191L79.1261 62.1883C79.4661 62.0055 79.7329 61.8623 79.9265 61.7343C80.1175 61.608 80.2697 61.4766 80.3447 61.304L80.1685 61.2274ZM80.146 60.5835L79.9756 60.6722C80.0531 60.821 80.0593 60.9969 79.9924 61.1508L80.1685 61.2274L80.3447 61.304C80.4578 61.0438 80.4474 60.7465 80.3164 60.4948L80.146 60.5835ZM78.9602 59.8727L78.8813 60.0479C79.2401 60.2096 79.497 60.3257 79.6802 60.4292C79.8661 60.5343 79.9428 60.609 79.9756 60.6722L80.146 60.5835L80.3164 60.4948C80.2295 60.3279 80.0686 60.2074 79.8692 60.0947C79.6671 59.9805 79.391 59.8563 79.0392 59.6976L78.9602 59.8727ZM77.451 59.1923L77.3721 59.3674L78.8813 60.0479L78.9602 59.8727L79.0392 59.6976L77.53 59.0172L77.451 59.1923ZM77.1559 57.5634L76.9669 57.5976L77.262 59.2266L77.451 59.1923L77.64 59.1581L77.3449 57.5291L77.1559 57.5634ZM77.1559 57.5633L76.9696 57.6099L76.9696 57.6099L77.1559 57.5634L77.3423 57.5168L77.3423 57.5167L77.1559 57.5633ZM76.7531 56.2408L76.6259 56.3847C76.6792 56.4319 76.7332 56.5243 76.7902 56.7301C76.8463 56.9329 76.8967 57.2102 76.9669 57.5975L77.1559 57.5633L77.3449 57.5291C77.2761 57.1493 77.2224 56.8513 77.1604 56.6276C77.0993 56.4069 77.0214 56.2216 76.8804 56.0969L76.7531 56.2408ZM76.1338 56.0632L76.1655 56.2527C76.331 56.225 76.5002 56.2735 76.6259 56.3847L76.7531 56.2408L76.8804 56.0969C76.6679 55.909 76.382 55.827 76.1022 55.8738L76.1338 56.0632ZM75.0914 56.9714L75.2336 57.1006C75.4983 56.8093 75.688 56.6008 75.8431 56.4586C76.0005 56.3142 76.0952 56.2644 76.1655 56.2527L76.1338 56.0632L76.1022 55.8738C75.9165 55.9048 75.7522 56.0206 75.5834 56.1754C75.4124 56.3323 75.2089 56.5565 74.9493 56.8422L75.0914 56.9714ZM73.9779 58.1964L74.1201 58.3256L75.2336 57.1006L75.0914 56.9714L74.9493 56.8422L73.8358 58.0672L73.9779 58.1964ZM72.3375 57.9737L72.3117 58.164L73.9521 58.3868L73.9779 58.1964L74.0038 58.0061L72.3633 57.7834L72.3375 57.9737ZM70.9552 57.9481L71.0527 58.1136C71.1141 58.0774 71.2187 58.0546 71.432 58.0641C71.6423 58.0733 71.9216 58.1111 72.3117 58.164L72.3375 57.9737L72.3633 57.7834C71.9809 57.7314 71.6809 57.6905 71.449 57.6803C71.2202 57.6702 71.0199 57.687 70.8577 57.7826L70.9552 57.9481ZM70.5949 58.4822L70.7849 58.5106C70.8097 58.3447 70.9081 58.1988 71.0527 58.1136L70.9552 57.9481L70.8577 57.7826C70.6133 57.9266 70.4469 58.1732 70.405 58.4538L70.5949 58.4822ZM71.1365 59.7542L71.3033 59.659C71.1081 59.3172 70.9685 59.0723 70.8811 58.8809C70.7924 58.6866 70.7744 58.5811 70.7849 58.5106L70.5949 58.4822L70.405 58.4538C70.3771 58.6399 70.4365 58.832 70.5316 59.0403C70.628 59.2515 70.7783 59.5144 70.9697 59.8495L71.1365 59.7542ZM71.9575 61.1918L72.1243 61.0965L71.3033 59.659L71.1365 59.7542L70.9697 59.8495L71.7907 61.2871L71.9575 61.1918ZM71.2388 62.6831L71.4118 62.7665L72.1306 61.2752L71.9575 61.1918L71.7845 61.1084L71.0657 62.5997L71.2388 62.6831ZM70.7873 63.9898L70.9748 63.9482C70.9594 63.8787 70.97 63.7722 71.0449 63.5722C71.1187 63.3751 71.2409 63.1211 71.4118 62.7665L71.2388 62.6831L71.0657 62.5997C70.8982 62.9474 70.7665 63.2201 70.6851 63.4375C70.6048 63.6519 70.559 63.8477 70.5997 64.0314L70.7873 63.9898ZM71.1839 64.4975L71.2697 64.3256C71.1195 64.2507 71.0111 64.112 70.9748 63.9482L70.7873 63.9898L70.5997 64.0314C70.6612 64.3084 70.8443 64.5428 71.0982 64.6694L71.1839 64.4975ZM72.5611 64.3755L72.522 64.1875C72.1366 64.2675 71.8606 64.3246 71.6515 64.3485C71.4393 64.3728 71.3334 64.3574 71.2697 64.3256L71.1839 64.4975L71.0982 64.6694C71.2666 64.7534 71.4676 64.7563 71.6952 64.7302C71.9258 64.7038 72.2222 64.6421 72.6001 64.5636L72.5611 64.3755Z" fill="url(#paint6_linear_245_4607)" mask="url(#path-12-inside-1_245_4607)"/>
</g>
</g>
</g>
<g filter="url(#filter2_d_245_4607)">
<path d="M56.5142 39.276C57.6886 38.8589 58.5296 37.738 58.5296 36.4205C58.5296 34.7475 57.1733 33.3913 55.5003 33.3913C53.8273 33.3913 52.4711 34.7475 52.4711 36.4205C52.4711 37.7378 53.3119 38.8587 54.486 39.2758L50.8244 49.1647C50.5922 49.7916 49.7668 49.929 49.3441 49.4111L41.6184 39.9445C42.1878 39.3937 42.5419 38.6216 42.5419 37.7668C42.5419 36.0938 41.1856 34.7376 39.5126 34.7376C37.8396 34.7376 36.4834 36.0938 36.4834 37.7668C36.4834 39.4398 37.8396 40.7961 39.5126 40.7961C39.6871 40.7961 39.858 40.7813 40.0244 40.753L44.5658 56.9026C44.8804 58.021 45.9004 58.7938 47.0622 58.7938H63.9436C65.1056 58.7938 66.1258 58.0207 66.4401 56.902L70.9771 40.7532C71.1432 40.7814 71.3138 40.7961 71.4879 40.7961C73.1609 40.7961 74.5171 39.4398 74.5171 37.7668C74.5171 36.0938 73.1609 34.7376 71.4879 34.7376C69.8149 34.7376 68.4587 36.0938 68.4587 37.7668C68.4587 38.622 68.813 39.3944 69.3829 39.9452L61.6621 49.4111C61.2396 49.9291 60.4142 49.7921 60.1818 49.1654L56.5142 39.276Z" fill="white"/>
<path d="M47.4574 60.7561C46.2958 60.7561 45.414 61.802 45.6103 62.9469C45.7645 63.8467 46.5446 64.5044 47.4574 64.5044H63.5536C64.4666 64.5044 65.2467 63.8464 65.4008 62.9465C65.5968 61.8017 64.715 60.7561 63.5536 60.7561H47.4574Z" fill="white"/>
<path d="M63.5537 60.6481C64.7052 60.6482 65.5969 61.6199 65.5332 62.739L65.5068 62.9645C65.3439 63.9163 64.5193 64.6119 63.5537 64.612H47.457C46.552 64.6118 45.7705 64.0008 45.542 63.1403L45.5039 62.9655C45.2963 61.7547 46.2286 60.6484 47.457 60.6481H63.5537ZM55.5 33.2829C57.2327 33.2829 58.6377 34.6879 58.6377 36.4206C58.6377 37.7466 57.8138 38.8774 56.6514 39.3366L60.2832 49.1276L60.3271 49.2253C60.5753 49.6888 61.2315 49.7674 61.5781 49.3425L69.2373 39.9509C68.6892 39.3862 68.3507 38.6165 68.3506 37.7673C68.3506 36.0346 69.7556 34.6296 71.4883 34.6296C73.2208 34.6298 74.625 36.0347 74.625 37.7673C74.6248 39.4996 73.2206 40.9038 71.4883 40.904C71.3416 40.904 71.1971 40.8913 71.0557 40.8718L66.5439 56.9313C66.2165 58.0966 65.1538 58.902 63.9434 58.902H47.0625C45.9279 58.902 44.9224 58.1946 44.5312 57.1462L44.4619 56.9323L39.9453 40.8718C39.8037 40.8913 39.6596 40.904 39.5127 40.904C37.7802 40.904 36.3752 39.4998 36.375 37.7673C36.375 36.0346 37.78 34.6296 39.5127 34.6296C41.2454 34.6296 42.6504 36.0346 42.6504 37.7673C42.6503 38.6166 42.309 39.3842 41.7607 39.9489L49.4277 49.3425L49.501 49.4206C49.8857 49.779 50.5319 49.6416 50.7227 49.1276L54.3477 39.3366C53.1859 38.877 52.3633 37.7461 52.3633 36.4206C52.3633 34.688 53.7675 33.2831 55.5 33.2829Z" stroke="url(#paint7_linear_245_4607)" stroke-width="0.216101" stroke-linecap="round" style="mix-blend-mode:color-burn"/>
</g>
</g>
<g filter="url(#filter3_dd_245_4607)">
<mask id="path-16-inside-2_245_4607" fill="white">
<path d="M24.908 75.7457C26.6292 75.7457 27.4898 75.7457 28.1472 76.0807C28.7254 76.3753 29.1953 76.8454 29.49 77.4235C29.825 78.0808 29.825 78.9418 29.825 80.6627V88.5006C29.825 90.2218 29.825 91.0824 29.49 91.7399C29.1954 92.3181 28.7254 92.788 28.1472 93.0826C27.4898 93.4176 26.6292 93.4176 24.908 93.4176H18.4832C17.2286 93.4176 16.601 93.4181 16.2107 93.1539C15.8698 92.923 15.6359 92.5647 15.5613 92.1598C15.476 91.6963 15.7276 91.1214 16.2312 89.9723L18.5945 84.5817L16.2312 79.191C15.7278 78.0424 15.4762 77.4679 15.5613 77.0045C15.6359 76.5996 15.8699 76.2413 16.2107 76.0104C16.601 75.7462 17.2286 75.7457 18.4832 75.7457H24.908ZM92.4051 75.7457C93.6598 75.7457 94.2873 75.7461 94.6775 76.0104C95.0185 76.2413 95.2524 76.5995 95.3269 77.0045C95.4121 77.4679 95.1605 78.0423 94.657 79.191L92.2947 84.5817L94.657 89.9723C95.1607 91.1214 95.4123 91.6963 95.3269 92.1598C95.2523 92.5648 95.0185 92.9231 94.6775 93.1539C94.2873 93.4181 93.6598 93.4176 92.4051 93.4176H85.9803C84.2592 93.4176 83.3984 93.4176 82.741 93.0826C82.1629 92.788 81.6928 92.318 81.3982 91.7399C81.0632 91.0824 81.0633 90.2218 81.0633 88.5006V80.6627C81.0633 78.9418 81.0633 78.0808 81.3982 77.4235C81.6929 76.8454 82.1629 76.3753 82.741 76.0807C83.3984 75.7457 84.2592 75.7457 85.9803 75.7457H92.4051Z"/>
</mask>
<path d="M24.908 75.7457C26.6292 75.7457 27.4898 75.7457 28.1472 76.0807C28.7254 76.3753 29.1953 76.8454 29.49 77.4235C29.825 78.0808 29.825 78.9418 29.825 80.6627V88.5006C29.825 90.2218 29.825 91.0824 29.49 91.7399C29.1954 92.3181 28.7254 92.788 28.1472 93.0826C27.4898 93.4176 26.6292 93.4176 24.908 93.4176H18.4832C17.2286 93.4176 16.601 93.4181 16.2107 93.1539C15.8698 92.923 15.6359 92.5647 15.5613 92.1598C15.476 91.6963 15.7276 91.1214 16.2312 89.9723L18.5945 84.5817L16.2312 79.191C15.7278 78.0424 15.4762 77.4679 15.5613 77.0045C15.6359 76.5996 15.8699 76.2413 16.2107 76.0104C16.601 75.7462 17.2286 75.7457 18.4832 75.7457H24.908ZM92.4051 75.7457C93.6598 75.7457 94.2873 75.7461 94.6775 76.0104C95.0185 76.2413 95.2524 76.5995 95.3269 77.0045C95.4121 77.4679 95.1605 78.0423 94.657 79.191L92.2947 84.5817L94.657 89.9723C95.1607 91.1214 95.4123 91.6963 95.3269 92.1598C95.2523 92.5648 95.0185 92.9231 94.6775 93.1539C94.2873 93.4181 93.6598 93.4176 92.4051 93.4176H85.9803C84.2592 93.4176 83.3984 93.4176 82.741 93.0826C82.1629 92.788 81.6928 92.318 81.3982 91.7399C81.0632 91.0824 81.0633 90.2218 81.0633 88.5006V80.6627C81.0633 78.9418 81.0633 78.0808 81.3982 77.4235C81.6929 76.8454 82.1629 76.3753 82.741 76.0807C83.3984 75.7457 84.2592 75.7457 85.9803 75.7457H92.4051Z" fill="#FFA00F"/>
<path d="M24.908 75.7457V75.5536V75.7457ZM28.1472 76.0807L28.2345 75.9095L28.2344 75.9095L28.1472 76.0807ZM29.49 77.4235L29.6612 77.3363L29.6612 77.3362L29.49 77.4235ZM29.825 80.6627L30.0171 80.6627L29.825 80.6627ZM29.825 88.5006H30.0171H29.825ZM29.49 91.7399L29.6612 91.8271L29.6612 91.8271L29.49 91.7399ZM28.1472 93.0826L28.2345 93.2538L28.2345 93.2538L28.1472 93.0826ZM24.908 93.4176L24.908 93.6097L24.908 93.4176ZM18.4832 93.4176V93.6097V93.4176ZM16.2107 93.1539L16.103 93.313L16.103 93.313L16.2107 93.1539ZM15.5613 92.1598L15.3724 92.1946L15.3724 92.1946L15.5613 92.1598ZM16.2312 89.9723L16.0553 89.8952L16.0553 89.8952L16.2312 89.9723ZM18.5945 84.5817L18.7704 84.6588L18.8043 84.5817L18.7704 84.5045L18.5945 84.5817ZM16.2312 79.191L16.0553 79.2682L16.0553 79.2682L16.2312 79.191ZM15.5613 77.0045L15.3724 76.9697L15.3724 76.9698L15.5613 77.0045ZM16.2107 76.0104L16.103 75.8513L16.103 75.8513L16.2107 76.0104ZM18.4832 75.7457L18.4832 75.5536L18.4832 75.7457ZM94.6775 76.0104L94.7852 75.8513L94.7852 75.8513L94.6775 76.0104ZM95.3269 77.0045L95.5159 76.9698L95.5158 76.9697L95.3269 77.0045ZM94.657 79.191L94.4811 79.1139L94.4811 79.1139L94.657 79.191ZM92.2947 84.5817L92.1188 84.5046L92.085 84.5817L92.1188 84.6588L92.2947 84.5817ZM94.657 89.9723L94.4811 90.0494L94.4811 90.0494L94.657 89.9723ZM95.3269 92.1598L95.5158 92.1946L95.5158 92.1946L95.3269 92.1598ZM94.6775 93.1539L94.7852 93.313L94.7852 93.313L94.6775 93.1539ZM85.9803 93.4176V93.6097V93.4176ZM82.741 93.0826L82.6538 93.2538L82.6538 93.2538L82.741 93.0826ZM81.3982 91.7399L81.2271 91.8271L81.2271 91.8271L81.3982 91.7399ZM81.0633 88.5006L80.8712 88.5006L81.0633 88.5006ZM81.0633 80.6627H80.8712H81.0633ZM81.3982 77.4235L81.2271 77.3362L81.2271 77.3363L81.3982 77.4235ZM82.741 76.0807L82.6538 75.9095L82.6538 75.9095L82.741 76.0807ZM85.9803 75.7457L85.9803 75.5536L85.9803 75.7457ZM24.908 75.7457L24.908 75.9378C25.7718 75.9378 26.408 75.938 26.9109 75.979C27.4115 76.0199 27.7629 76.1005 28.06 76.2518L28.1472 76.0807L28.2344 75.9095C27.8741 75.726 27.4665 75.639 26.9422 75.5961C26.4201 75.5535 25.7654 75.5536 24.908 75.5536L24.908 75.7457ZM28.1472 76.0807L28.06 76.2518C28.602 76.528 29.0426 76.9687 29.3189 77.5107L29.49 77.4235L29.6612 77.3362C29.3481 76.722 28.8488 76.2225 28.2345 75.9095L28.1472 76.0807ZM29.49 77.4235L29.3189 77.5107C29.4702 77.8078 29.5508 78.1592 29.5917 78.6599C29.6327 79.1628 29.6329 79.7991 29.6329 80.6627L29.825 80.6627L30.0171 80.6627C30.0171 79.8054 30.0172 79.1508 29.9746 78.6286C29.9317 78.1042 29.8447 77.6965 29.6612 77.3363L29.49 77.4235ZM29.825 80.6627H29.6329V88.5006H29.825H30.0171V80.6627H29.825ZM29.825 88.5006L29.6329 88.5006C29.6329 89.3644 29.6327 90.0007 29.5917 90.5035C29.5508 91.0041 29.4703 91.3555 29.3189 91.6527L29.49 91.7399L29.6612 91.8271C29.8448 91.4668 29.9317 91.0592 29.9746 90.5348C30.0172 90.0127 30.0171 89.358 30.0171 88.5006L29.825 88.5006ZM29.49 91.7399L29.3189 91.6526C29.0426 92.1947 28.6021 92.6353 28.06 92.9115L28.1472 93.0826L28.2345 93.2538C28.8488 92.9407 29.3481 92.4414 29.6612 91.8271L29.49 91.7399ZM28.1472 93.0826L28.06 92.9115C27.7629 93.0629 27.4115 93.1434 26.9109 93.1843C26.4081 93.2254 25.7718 93.2255 24.908 93.2255L24.908 93.4176L24.908 93.6097C25.7654 93.6097 26.4201 93.6098 26.9422 93.5672C27.4665 93.5244 27.8741 93.4374 28.2345 93.2538L28.1472 93.0826ZM24.908 93.4176V93.2255H18.4832V93.4176V93.6097H24.908V93.4176ZM18.4832 93.4176L18.4832 93.2255C17.8521 93.2255 17.3919 93.2255 17.0402 93.1935C16.6886 93.1616 16.4732 93.0997 16.3184 92.9949L16.2107 93.1539L16.103 93.313C16.3385 93.4724 16.632 93.5423 17.0055 93.5762C17.3787 93.61 17.8596 93.6097 18.4832 93.6097L18.4832 93.4176ZM16.2107 93.1539L16.3184 92.9949C16.0202 92.7929 15.8155 92.4794 15.7502 92.125L15.5613 92.1598L15.3724 92.1946C15.4563 92.6501 15.7194 93.0532 16.103 93.313L16.2107 93.1539ZM15.5613 92.1598L15.7502 92.125C15.7164 91.9411 15.7459 91.7187 15.8576 91.3839C15.9694 91.0489 16.1539 90.6273 16.4072 90.0494L16.2312 89.9723L16.0553 89.8952C15.8049 90.4664 15.6118 90.9068 15.4932 91.2624C15.3745 91.6182 15.3209 91.915 15.3724 92.1946L15.5613 92.1598ZM16.2312 89.9723L16.4072 90.0494L18.7704 84.6588L18.5945 84.5817L18.4186 84.5045L16.0553 89.8952L16.2312 89.9723ZM18.5945 84.5817L18.7704 84.5045L16.4072 79.1139L16.2312 79.191L16.0553 79.2682L18.4186 84.6588L18.5945 84.5817ZM16.2312 79.191L16.4072 79.1139C16.154 78.5362 15.9695 78.1149 15.8578 77.78C15.7461 77.4454 15.7164 77.2231 15.7502 77.0392L15.5613 77.0045L15.3724 76.9698C15.321 77.2493 15.3746 77.546 15.4933 77.9016C15.612 78.257 15.8051 78.6972 16.0553 79.2682L16.2312 79.191ZM15.5613 77.0045L15.7502 77.0393C15.8155 76.685 16.0202 76.3715 16.3185 76.1694L16.2107 76.0104L16.103 75.8513C15.7195 76.1112 15.4563 76.5142 15.3724 76.9697L15.5613 77.0045ZM16.2107 76.0104L16.3184 76.1694C16.4733 76.0646 16.6888 76.0024 17.0403 75.9703C17.392 75.9381 17.8522 75.9378 18.4832 75.9378L18.4832 75.7457L18.4832 75.5536C17.8596 75.5536 17.3786 75.5536 17.0053 75.5877C16.6318 75.6218 16.3384 75.6919 16.103 75.8513L16.2107 76.0104ZM18.4832 75.7457V75.9378H24.908V75.7457V75.5536H18.4832V75.7457ZM92.4051 75.7457V75.9378C93.0361 75.9378 93.4963 75.9381 93.848 75.9703C94.1994 76.0024 94.415 76.0646 94.5698 76.1694L94.6775 76.0104L94.7852 75.8513C94.5498 75.6919 94.2565 75.6218 93.883 75.5877C93.5097 75.5536 93.0288 75.5536 92.4051 75.5536V75.7457ZM94.6775 76.0104L94.5698 76.1694C94.8681 76.3715 95.0728 76.6849 95.138 77.0393L95.3269 77.0045L95.5158 76.9697C95.432 76.5142 95.1688 76.1112 94.7852 75.8513L94.6775 76.0104ZM95.3269 77.0045L95.138 77.0392C95.1718 77.2231 95.1422 77.4453 95.0305 77.78C94.9187 78.1148 94.7343 78.5362 94.4811 79.1139L94.657 79.191L94.8329 79.2682C95.0832 78.6972 95.2763 78.257 95.3949 77.9016C95.5136 77.546 95.5672 77.2493 95.5159 76.9698L95.3269 77.0045ZM94.657 79.191L94.4811 79.1139L92.1188 84.5046L92.2947 84.5817L92.4706 84.6588L94.8329 79.2681L94.657 79.191ZM92.2947 84.5817L92.1188 84.6588L94.4811 90.0494L94.657 89.9723L94.8329 89.8952L92.4706 84.5046L92.2947 84.5817ZM94.657 89.9723L94.4811 90.0494C94.7344 90.6273 94.9189 91.0489 95.0306 91.384C95.1423 91.7187 95.1719 91.9411 95.138 92.125L95.3269 92.1598L95.5158 92.1946C95.5673 91.915 95.5138 91.6182 95.3951 91.2624C95.2765 90.9068 95.0833 90.4664 94.8329 89.8952L94.657 89.9723ZM95.3269 92.1598L95.138 92.125C95.0727 92.4794 94.8681 92.7929 94.5698 92.9949L94.6775 93.1539L94.7852 93.313C95.1689 93.0532 95.4319 92.6501 95.5158 92.1946L95.3269 92.1598ZM94.6775 93.1539L94.5698 92.9949C94.4151 93.0996 94.1996 93.1616 93.8481 93.1935C93.4963 93.2255 93.0362 93.2255 92.4051 93.2255V93.4176V93.6097C93.0287 93.6097 93.5096 93.61 93.8828 93.5761C94.2563 93.5423 94.5497 93.4724 94.7852 93.313L94.6775 93.1539ZM92.4051 93.4176V93.2255H85.9803V93.4176V93.6097H92.4051V93.4176ZM85.9803 93.4176L85.9803 93.2255C85.1165 93.2255 84.4803 93.2254 83.9774 93.1843C83.4768 93.1434 83.1253 93.0629 82.8282 92.9115L82.741 93.0826L82.6538 93.2538C83.0141 93.4374 83.4217 93.5243 83.9461 93.5672C84.4682 93.6098 85.1229 93.6097 85.9803 93.6097L85.9803 93.4176ZM82.741 93.0826L82.8282 92.9115C82.2862 92.6353 81.8456 92.1947 81.5694 91.6527L81.3982 91.7399L81.2271 91.8271C81.5401 92.4414 82.0395 92.9407 82.6538 93.2538L82.741 93.0826ZM81.3982 91.7399L81.5694 91.6527C81.418 91.3555 81.3375 91.0041 81.2966 90.5035C81.2555 90.0007 81.2554 89.3644 81.2554 88.5006L81.0633 88.5006L80.8712 88.5006C80.8712 89.358 80.871 90.0127 80.9137 90.5348C80.9565 91.0592 81.0435 91.4668 81.2271 91.8271L81.3982 91.7399ZM81.0633 88.5006H81.2554V80.6627H81.0633H80.8712V88.5006H81.0633ZM81.0633 80.6627L81.2554 80.6627C81.2554 79.7991 81.2555 79.1628 81.2966 78.6599C81.3375 78.1592 81.418 77.8078 81.5694 77.5107L81.3982 77.4235L81.2271 77.3363C81.0435 77.6965 80.9565 78.1042 80.9137 78.6286C80.871 79.1508 80.8712 79.8054 80.8712 80.6627L81.0633 80.6627ZM81.3982 77.4235L81.5694 77.5107C81.8456 76.9687 82.2862 76.528 82.8282 76.2518L82.741 76.0807L82.6538 75.9095C82.0395 76.2226 81.5401 76.722 81.2271 77.3362L81.3982 77.4235ZM82.741 76.0807L82.8282 76.2518C83.1253 76.1005 83.4768 76.0199 83.9774 75.979C84.4803 75.938 85.1165 75.9378 85.9803 75.9378L85.9803 75.7457L85.9803 75.5536C85.1229 75.5536 84.4682 75.5535 83.9461 75.5961C83.4217 75.639 83.0141 75.726 82.6538 75.9095L82.741 76.0807ZM85.9803 75.7457V75.9378H92.4051V75.7457V75.5536H85.9803V75.7457Z" fill="url(#paint8_linear_245_4607)" style="mix-blend-mode:darken" mask="url(#path-16-inside-2_245_4607)"/>
</g>
<path d="M24.908 75.7457C26.6292 75.7457 27.4898 75.7457 28.1472 76.0807C28.7254 76.3753 29.1953 76.8454 29.49 77.4235C29.825 78.0808 29.825 78.9418 29.825 80.6627V88.5006C29.825 90.2218 29.825 91.0824 29.49 91.7399C29.1954 92.3181 28.7254 92.788 28.1472 93.0826C27.4898 93.4176 26.6292 93.4176 24.908 93.4176H18.4832C17.2286 93.4176 16.601 93.4181 16.2107 93.1539C15.8698 92.923 15.6359 92.5647 15.5613 92.1598C15.476 91.6963 15.7276 91.1214 16.2312 89.9723L18.5945 84.5817L16.2312 79.191C15.7278 78.0424 15.4762 77.4679 15.5613 77.0045C15.6359 76.5996 15.8699 76.2413 16.2107 76.0104C16.601 75.7462 17.2286 75.7457 18.4832 75.7457H24.908ZM92.4051 75.7457C93.6598 75.7457 94.2873 75.7461 94.6775 76.0104C95.0185 76.2413 95.2524 76.5995 95.3269 77.0045C95.4121 77.4679 95.1605 78.0423 94.657 79.191L92.2947 84.5817L94.657 89.9723C95.1607 91.1214 95.4123 91.6963 95.3269 92.1598C95.2523 92.5648 95.0185 92.9231 94.6775 93.1539C94.2873 93.4181 93.6598 93.4176 92.4051 93.4176H85.9803C84.2592 93.4176 83.3984 93.4176 82.741 93.0826C82.1629 92.788 81.6928 92.318 81.3982 91.7399C81.0632 91.0824 81.0633 90.2218 81.0633 88.5006V80.6627C81.0633 78.9418 81.0633 78.0808 81.3982 77.4235C81.6929 76.8454 82.1629 76.3753 82.741 76.0807C83.3984 75.7457 84.2592 75.7457 85.9803 75.7457H92.4051Z" fill="url(#paint9_linear_245_4607)" fill-opacity="0.3" style="mix-blend-mode:overlay"/>
<path d="M24.908 75.7457C26.6292 75.7457 27.4898 75.7457 28.1472 76.0807C28.7254 76.3753 29.1953 76.8454 29.49 77.4235C29.825 78.0808 29.825 78.9418 29.825 80.6627V88.5006C29.825 90.2218 29.825 91.0824 29.49 91.7399C29.1954 92.3181 28.7254 92.788 28.1472 93.0826C27.4898 93.4176 26.6292 93.4176 24.908 93.4176H18.4832C17.2286 93.4176 16.601 93.4181 16.2107 93.1539C15.8698 92.923 15.6359 92.5647 15.5613 92.1598C15.476 91.6963 15.7276 91.1214 16.2312 89.9723L18.5945 84.5817L16.2312 79.191C15.7278 78.0424 15.4762 77.4679 15.5613 77.0045C15.6359 76.5996 15.8699 76.2413 16.2107 76.0104C16.601 75.7462 17.2286 75.7457 18.4832 75.7457H24.908ZM92.4051 75.7457C93.6598 75.7457 94.2873 75.7461 94.6775 76.0104C95.0185 76.2413 95.2524 76.5995 95.3269 77.0045C95.4121 77.4679 95.1605 78.0423 94.657 79.191L92.2947 84.5817L94.657 89.9723C95.1607 91.1214 95.4123 91.6963 95.3269 92.1598C95.2523 92.5648 95.0185 92.9231 94.6775 93.1539C94.2873 93.4181 93.6598 93.4176 92.4051 93.4176H85.9803C84.2592 93.4176 83.3984 93.4176 82.741 93.0826C82.1629 92.788 81.6928 92.318 81.3982 91.7399C81.0632 91.0824 81.0633 90.2218 81.0633 88.5006V80.6627C81.0633 78.9418 81.0633 78.0808 81.3982 77.4235C81.6929 76.8454 82.1629 76.3753 82.741 76.0807C83.3984 75.7457 84.2592 75.7457 85.9803 75.7457H92.4051Z" fill="url(#paint10_radial_245_4607)" fill-opacity="0.6" style="mix-blend-mode:overlay"/>
<path d="M24.908 75.7457C26.6292 75.7457 27.4898 75.7457 28.1472 76.0807C28.7254 76.3753 29.1953 76.8454 29.49 77.4235C29.825 78.0808 29.825 78.9418 29.825 80.6627V88.5006C29.825 90.2218 29.825 91.0824 29.49 91.7399C29.1954 92.3181 28.7254 92.788 28.1472 93.0826C27.4898 93.4176 26.6292 93.4176 24.908 93.4176H18.4832C17.2286 93.4176 16.601 93.4181 16.2107 93.1539C15.8698 92.923 15.6359 92.5647 15.5613 92.1598C15.476 91.6963 15.7276 91.1214 16.2312 89.9723L18.5945 84.5817L16.2312 79.191C15.7278 78.0424 15.4762 77.4679 15.5613 77.0045C15.6359 76.5996 15.8699 76.2413 16.2107 76.0104C16.601 75.7462 17.2286 75.7457 18.4832 75.7457H24.908ZM92.4051 75.7457C93.6598 75.7457 94.2873 75.7461 94.6775 76.0104C95.0185 76.2413 95.2524 76.5995 95.3269 77.0045C95.4121 77.4679 95.1605 78.0423 94.657 79.191L92.2947 84.5817L94.657 89.9723C95.1607 91.1214 95.4123 91.6963 95.3269 92.1598C95.2523 92.5648 95.0185 92.9231 94.6775 93.1539C94.2873 93.4181 93.6598 93.4176 92.4051 93.4176H85.9803C84.2592 93.4176 83.3984 93.4176 82.741 93.0826C82.1629 92.788 81.6928 92.318 81.3982 91.7399C81.0632 91.0824 81.0633 90.2218 81.0633 88.5006V80.6627C81.0633 78.9418 81.0633 78.0808 81.3982 77.4235C81.6929 76.8454 82.1629 76.3753 82.741 76.0807C83.3984 75.7457 84.2592 75.7457 85.9803 75.7457H92.4051Z" fill="black" fill-opacity="0.24" style="mix-blend-mode:overlay"/>
<path d="M24.908 75.7457C26.6292 75.7457 27.4898 75.7457 28.1472 76.0807C28.7254 76.3753 29.1953 76.8454 29.49 77.4235C29.825 78.0808 29.825 78.9418 29.825 80.6627V88.5006C29.825 90.2218 29.825 91.0824 29.49 91.7399C29.1954 92.3181 28.7254 92.788 28.1472 93.0826C27.4898 93.4176 26.6292 93.4176 24.908 93.4176H18.4832C17.2286 93.4176 16.601 93.4181 16.2107 93.1539C15.8698 92.923 15.6359 92.5647 15.5613 92.1598C15.476 91.6963 15.7276 91.1214 16.2312 89.9723L18.5945 84.5817L16.2312 79.191C15.7278 78.0424 15.4762 77.4679 15.5613 77.0045C15.6359 76.5996 15.8699 76.2413 16.2107 76.0104C16.601 75.7462 17.2286 75.7457 18.4832 75.7457H24.908ZM92.4051 75.7457C93.6598 75.7457 94.2873 75.7461 94.6775 76.0104C95.0185 76.2413 95.2524 76.5995 95.3269 77.0045C95.4121 77.4679 95.1605 78.0423 94.657 79.191L92.2947 84.5817L94.657 89.9723C95.1607 91.1214 95.4123 91.6963 95.3269 92.1598C95.2523 92.5648 95.0185 92.9231 94.6775 93.1539C94.2873 93.4181 93.6598 93.4176 92.4051 93.4176H85.9803C84.2592 93.4176 83.3984 93.4176 82.741 93.0826C82.1629 92.788 81.6928 92.318 81.3982 91.7399C81.0632 91.0824 81.0633 90.2218 81.0633 88.5006V80.6627C81.0633 78.9418 81.0633 78.0808 81.3982 77.4235C81.6929 76.8454 82.1629 76.3753 82.741 76.0807C83.3984 75.7457 84.2592 75.7457 85.9803 75.7457H92.4051Z" fill="black" fill-opacity="0.12" style="mix-blend-mode:darken"/>
<g filter="url(#filter4_dd_245_4607)">
<rect x="21.6367" y="71.1356" width="67.6156" height="17.6723" rx="3.07344" fill="#FFA00F"/>
<rect x="21.7328" y="71.2316" width="67.4235" height="17.4802" rx="2.97739" stroke="url(#paint11_linear_245_4607)" stroke-width="0.19209" stroke-linecap="round" style="mix-blend-mode:darken"/>
</g>
<rect x="21.6367" y="71.1356" width="67.6156" height="17.6723" rx="3.07344" fill="url(#paint12_linear_245_4607)" fill-opacity="0.3" style="mix-blend-mode:overlay"/>
<rect x="21.6367" y="71.1356" width="67.6156" height="17.6723" rx="3.07344" fill="url(#paint13_radial_245_4607)" fill-opacity="0.6" style="mix-blend-mode:overlay"/>
<g filter="url(#filter5_i_245_4607)">
<circle cx="25.8625" cy="79.9717" r="1.15254" fill="black" fill-opacity="0.24" style="mix-blend-mode:color-burn"/>
<circle cx="25.8625" cy="79.9717" r="1.15254" fill="black" fill-opacity="0.32" style="mix-blend-mode:darken"/>
</g>
<g filter="url(#filter6_i_245_4607)">
<circle cx="85.0266" cy="79.9717" r="1.15254" fill="black" fill-opacity="0.24" style="mix-blend-mode:color-burn"/>
<circle cx="85.0266" cy="79.9717" r="1.15254" fill="black" fill-opacity="0.32" style="mix-blend-mode:darken"/>
</g>
<g filter="url(#filter7_i_245_4607)">
<path d="M36.2087 79.5678C36.2087 79.1559 36.138 78.8178 35.9966 78.5535C35.8614 78.2892 35.6708 78.0925 35.425 77.9634C35.1852 77.8282 34.9056 77.7606 34.5859 77.7606C34.4753 77.7606 34.3677 77.7667 34.2632 77.779C34.1649 77.7852 34.0634 77.7944 33.9589 77.8067V81.3012C34.0511 81.3196 34.1556 81.335 34.2724 81.3473C34.3892 81.3534 34.4999 81.3565 34.6044 81.3565C35.09 81.3565 35.4772 81.2059 35.7661 80.9047C36.0612 80.6035 36.2087 80.1579 36.2087 79.5678ZM37.6563 79.5401C37.6563 80.204 37.5272 80.7541 37.269 81.1905C37.017 81.627 36.6605 81.9558 36.1995 82.1771C35.7446 82.3922 35.2098 82.4998 34.5951 82.4998C34.3923 82.4998 34.1433 82.4844 33.8483 82.4537C33.5532 82.4291 33.2859 82.3738 33.0461 82.2877C32.7265 82.171 32.5667 81.965 32.5667 81.67V77.2627C32.5667 77.1397 32.6005 77.0475 32.6681 76.9861C32.7357 76.9185 32.8248 76.8631 32.9355 76.8201C33.1814 76.7402 33.4457 76.6879 33.7284 76.6634C34.0112 76.6388 34.2694 76.6265 34.5029 76.6265C35.1361 76.6265 35.6862 76.734 36.1534 76.9492C36.6267 77.1582 36.9955 77.4778 37.2598 77.9081C37.5241 78.3384 37.6563 78.8824 37.6563 79.5401ZM44.1113 79.5585C44.1113 80.1978 43.9853 80.7387 43.7333 81.1813C43.4874 81.6177 43.1462 81.9497 42.7098 82.1771C42.2795 82.4045 41.7908 82.5183 41.2438 82.5183C40.6967 82.5183 40.208 82.4045 39.7777 82.1771C39.3475 81.9497 39.0094 81.6177 38.7635 81.1813C38.5176 80.7387 38.3947 80.1978 38.3947 79.5585C38.3947 78.9193 38.5207 78.3814 38.7727 77.945C39.0248 77.5024 39.3659 77.1705 39.7962 76.9492C40.2265 76.7218 40.709 76.608 41.2438 76.608C41.7847 76.608 42.2703 76.7218 42.7006 76.9492C43.137 77.1705 43.4812 77.5024 43.7333 77.945C43.9853 78.3814 44.1113 78.9193 44.1113 79.5585ZM42.6637 79.5585C42.6637 78.9684 42.5346 78.5197 42.2765 78.2124C42.0244 77.905 41.6802 77.7514 41.2438 77.7514C40.8258 77.7514 40.4877 77.905 40.2295 78.2124C39.9714 78.5136 39.8423 78.9623 39.8423 79.5585C39.8423 80.1609 39.9683 80.6158 40.2203 80.9231C40.4785 81.2243 40.8227 81.3749 41.253 81.3749C41.6833 81.3749 42.0244 81.2243 42.2765 80.9231C42.5346 80.6158 42.6637 80.1609 42.6637 79.5585ZM48.8069 80.9692C48.7393 81.0246 48.6471 81.0707 48.5303 81.1075C48.4196 81.1444 48.2905 81.1629 48.143 81.1629C47.9525 81.1629 47.7926 81.1383 47.6636 81.0891C47.5345 81.0399 47.4515 80.957 47.4146 80.8402C47.2056 80.2562 47.0274 79.7706 46.8798 79.3833C46.7385 78.9961 46.6278 78.6611 46.5479 78.3783H46.5018C46.4834 78.7656 46.468 79.119 46.4557 79.4387C46.4434 79.7583 46.4342 80.0718 46.428 80.3791C46.4219 80.6803 46.4127 80.9877 46.4004 81.3012C46.3881 81.6147 46.3696 81.9589 46.3451 82.3339C46.2774 82.3523 46.1852 82.3738 46.0684 82.3984C45.9578 82.423 45.8472 82.4353 45.7365 82.4353C45.5029 82.4353 45.3185 82.3953 45.1833 82.3154C45.0542 82.2355 44.9897 82.0972 44.9897 81.9005C44.9897 81.7653 44.9958 81.5655 45.0081 81.3012C45.0266 81.0307 45.045 80.7234 45.0634 80.3791C45.088 80.0288 45.1095 79.66 45.128 79.2727C45.1526 78.8855 45.1772 78.5043 45.2017 78.1294C45.2325 77.7483 45.2601 77.3979 45.2847 77.0783C45.3339 77.0045 45.4322 76.9307 45.5798 76.857C45.7273 76.7771 45.9301 76.7371 46.1883 76.7371C46.4649 76.7371 46.6862 76.7832 46.8522 76.8754C47.0243 76.9615 47.1472 77.1059 47.221 77.3088C47.3132 77.5301 47.4115 77.7882 47.516 78.0833C47.6205 78.3722 47.722 78.6672 47.8203 78.9684C47.9248 79.2635 48.0201 79.5309 48.1061 79.7706H48.1522C48.3244 79.2297 48.4995 78.701 48.6778 78.1847C48.8622 77.6684 49.0189 77.2381 49.148 76.8939C49.2341 76.8447 49.3417 76.8078 49.4707 76.7832C49.606 76.7525 49.7474 76.7371 49.8949 76.7371C50.1592 76.7371 50.3713 76.7771 50.5311 76.857C50.697 76.9307 50.7954 77.0445 50.8261 77.1981C50.8507 77.3149 50.8753 77.4993 50.8999 77.7514C50.9306 78.0034 50.9614 78.2954 50.9921 78.6273C51.0228 78.9531 51.0536 79.2973 51.0843 79.66C51.115 80.0165 51.1427 80.3669 51.1673 80.7111C51.198 81.0492 51.2226 81.3534 51.241 81.6239C51.2595 81.8943 51.2718 82.1095 51.2779 82.2693C51.1857 82.3246 51.0874 82.3646 50.9829 82.3892C50.8845 82.4199 50.7585 82.4353 50.6048 82.4353C50.4081 82.4353 50.2391 82.3984 50.0977 82.3246C49.9625 82.2509 49.8887 82.1095 49.8764 81.9005C49.8457 81.421 49.8211 80.9662 49.8027 80.5359C49.7842 80.0995 49.7689 79.703 49.7566 79.3465C49.7504 78.9838 49.7412 78.6734 49.7289 78.4152H49.6828C49.6029 78.6795 49.4892 79.0145 49.3417 79.4202C49.2003 79.8198 49.022 80.3361 48.8069 80.9692ZM52.421 78.4613H53.8224V82.3523C53.7671 82.3707 53.678 82.3861 53.5551 82.3984C53.4321 82.4168 53.3061 82.4261 53.177 82.4261C52.9004 82.4261 52.7037 82.3769 52.5869 82.2785C52.4763 82.1802 52.421 82.0081 52.421 81.7622V78.4613ZM53.8224 80.2316H52.421V76.7556C52.4824 76.7433 52.5746 76.7279 52.6976 76.7095C52.8266 76.691 52.9527 76.6818 53.0756 76.6818C53.3399 76.6818 53.5305 76.7279 53.6473 76.8201C53.764 76.9123 53.8224 77.0875 53.8224 77.3457V80.2316ZM55.1402 78.3691L56.4126 78.3507C56.4372 78.615 56.4557 78.8762 56.468 79.1344C56.4802 79.3926 56.4864 79.6415 56.4864 79.8812C56.4925 80.121 56.4956 80.3546 56.4956 80.582V82.3615C56.4403 82.3738 56.3512 82.3861 56.2282 82.3984C56.1114 82.4168 55.9916 82.4261 55.8686 82.4261C55.5982 82.4261 55.4076 82.38 55.297 82.2877C55.1925 82.1955 55.1402 82.0296 55.1402 81.7899V78.3691ZM60.0547 80.7387L58.773 80.748C58.73 80.2992 58.7054 79.872 58.6993 79.4663C58.6931 79.0606 58.69 78.6734 58.69 78.3046V76.7556C58.7515 76.7433 58.8406 76.7279 58.9574 76.7095C59.0742 76.691 59.1972 76.6818 59.3262 76.6818C59.5906 76.6818 59.778 76.731 59.8887 76.8293C59.9993 76.9215 60.0547 77.0844 60.0547 77.318V80.7387ZM60.0547 80.2962V82.1863C59.9747 82.2601 59.861 82.3185 59.7135 82.3615C59.5721 82.4107 59.4031 82.4353 59.2064 82.4353C58.9974 82.4353 58.8007 82.4015 58.6163 82.3339C58.438 82.2662 58.2905 82.1156 58.1737 81.8821L57.0581 79.7614C56.9904 79.6262 56.9228 79.4909 56.8552 79.3557C56.7937 79.2205 56.7323 79.0852 56.6708 78.95C56.6093 78.8086 56.5479 78.6672 56.4864 78.5259L55.1402 78.8301V77.0137C55.214 76.9092 55.3277 76.8293 55.4814 76.774C55.6412 76.7187 55.8133 76.691 55.9977 76.691C56.2006 76.691 56.3911 76.7248 56.5694 76.7924C56.7538 76.8601 56.9044 77.0076 57.0212 77.235L58.146 79.3649C58.2137 79.494 58.2813 79.6292 58.3489 79.7706C58.4165 79.9058 58.4811 80.0411 58.5425 80.1763C58.604 80.3115 58.6624 80.4498 58.7177 80.5912L60.0547 80.2962ZM63.6029 77.9358H63.5476C63.4861 78.1325 63.4123 78.3507 63.3263 78.5904C63.2464 78.8301 63.1634 79.0822 63.0773 79.3465C62.9913 79.6046 62.9083 79.8628 62.8284 80.121L62.6624 80.9508C62.6255 81.0676 62.5887 81.1905 62.5518 81.3196C62.521 81.4487 62.4872 81.5747 62.4504 81.6976C62.4135 81.8206 62.3797 81.9374 62.3489 82.048C62.3182 82.1587 62.2875 82.2632 62.2567 82.3615C62.1891 82.38 62.1123 82.3984 62.0262 82.4168C61.9402 82.4414 61.8387 82.4537 61.7219 82.4537C61.4638 82.4537 61.2671 82.4076 61.1318 82.3154C60.9966 82.2232 60.929 82.088 60.929 81.9097C60.929 81.836 60.9382 81.7591 60.9567 81.6792C60.9813 81.5993 61.0089 81.5071 61.0396 81.4026C61.095 81.1998 61.1718 80.9447 61.2702 80.6373C61.3747 80.33 61.4853 79.998 61.6021 79.6415C61.725 79.2789 61.848 78.9223 61.9709 78.572C62.1 78.2216 62.2168 77.8989 62.3213 77.6038C62.4319 77.3088 62.521 77.0783 62.5887 76.9123C62.6747 76.857 62.8099 76.8078 62.9944 76.7648C63.1849 76.7156 63.3724 76.691 63.5568 76.691C63.8211 76.691 64.0578 76.731 64.2668 76.8109C64.4757 76.8846 64.6079 77.0045 64.6632 77.1705C64.78 77.4963 64.906 77.8743 65.0413 78.3046C65.1826 78.7287 65.324 79.1744 65.4654 79.6415C65.6068 80.1087 65.742 80.5636 65.8711 81.0061C66.0063 81.4426 66.1231 81.836 66.2215 82.1863C66.1538 82.2601 66.0555 82.3216 65.9264 82.3707C65.7973 82.4261 65.6437 82.4537 65.4654 82.4537C65.2134 82.4537 65.0351 82.4076 64.9306 82.3154C64.8261 82.2232 64.7462 82.0849 64.6909 81.9005L64.3958 80.8678L64.2391 80.0841C64.1653 79.8075 64.0885 79.5401 64.0086 79.2819C63.9287 79.0238 63.8549 78.781 63.7873 78.5535C63.7197 78.3199 63.6582 78.114 63.6029 77.9358ZM62.0447 81.1168L62.5887 80.0288H64.7462L64.9306 81.1168H62.0447ZM70.7038 79.5678C70.7038 79.1559 70.6331 78.8178 70.4918 78.5535C70.3565 78.2892 70.166 78.0925 69.9201 77.9634C69.6804 77.8282 69.4007 77.7606 69.0811 77.7606C68.9704 77.7606 68.8628 77.7667 68.7583 77.779C68.66 77.7852 68.5586 77.7944 68.4541 77.8067V81.3012C68.5463 81.3196 68.6508 81.335 68.7676 81.3473C68.8844 81.3534 68.995 81.3565 69.0995 81.3565C69.5851 81.3565 69.9723 81.2059 70.2613 80.9047C70.5563 80.6035 70.7038 80.1579 70.7038 79.5678ZM72.1514 79.5401C72.1514 80.204 72.0223 80.7541 71.7642 81.1905C71.5121 81.627 71.1556 81.9558 70.6946 82.1771C70.2397 82.3922 69.705 82.4998 69.0903 82.4998C68.8874 82.4998 68.6385 82.4844 68.3434 82.4537C68.0484 82.4291 67.781 82.3738 67.5413 82.2877C67.2216 82.171 67.0618 81.965 67.0618 81.67V77.2627C67.0618 77.1397 67.0956 77.0475 67.1632 76.9861C67.2308 76.9185 67.32 76.8631 67.4306 76.8201C67.6765 76.7402 67.9408 76.6879 68.2236 76.6634C68.5063 76.6388 68.7645 76.6265 68.9981 76.6265C69.6312 76.6265 70.1813 76.734 70.6485 76.9492C71.1218 77.1582 71.4906 77.4778 71.7549 77.9081C72.0193 78.3384 72.1514 78.8824 72.1514 79.5401ZM78.6064 79.5585C78.6064 80.1978 78.4804 80.7387 78.2284 81.1813C77.9825 81.6177 77.6414 81.9497 77.2049 82.1771C76.7747 82.4045 76.286 82.5183 75.7389 82.5183C75.1918 82.5183 74.7032 82.4045 74.2729 82.1771C73.8426 81.9497 73.5045 81.6177 73.2586 81.1813C73.0128 80.7387 72.8898 80.1978 72.8898 79.5585C72.8898 78.9193 73.0158 78.3814 73.2679 77.945C73.5199 77.5024 73.861 77.1705 74.2913 76.9492C74.7216 76.7218 75.2041 76.608 75.7389 76.608C76.2798 76.608 76.7654 76.7218 77.1957 76.9492C77.6321 77.1705 77.9764 77.5024 78.2284 77.945C78.4804 78.3814 78.6064 78.9193 78.6064 79.5585ZM77.1588 79.5585C77.1588 78.9684 77.0298 78.5197 76.7716 78.2124C76.5196 77.905 76.1753 77.7514 75.7389 77.7514C75.3209 77.7514 74.9828 77.905 74.7247 78.2124C74.4665 78.5136 74.3374 78.9623 74.3374 79.5585C74.3374 80.1609 74.4634 80.6158 74.7155 80.9231C74.9736 81.2243 75.3179 81.3749 75.7481 81.3749C76.1784 81.3749 76.5196 81.2243 76.7716 80.9231C77.0298 80.6158 77.1588 80.1609 77.1588 79.5585Z" fill="black" fill-opacity="0.24" style="mix-blend-mode:color-burn"/>
<path d="M36.2087 79.5678C36.2087 79.1559 36.138 78.8178 35.9966 78.5535C35.8614 78.2892 35.6708 78.0925 35.425 77.9634C35.1852 77.8282 34.9056 77.7606 34.5859 77.7606C34.4753 77.7606 34.3677 77.7667 34.2632 77.779C34.1649 77.7852 34.0634 77.7944 33.9589 77.8067V81.3012C34.0511 81.3196 34.1556 81.335 34.2724 81.3473C34.3892 81.3534 34.4999 81.3565 34.6044 81.3565C35.09 81.3565 35.4772 81.2059 35.7661 80.9047C36.0612 80.6035 36.2087 80.1579 36.2087 79.5678ZM37.6563 79.5401C37.6563 80.204 37.5272 80.7541 37.269 81.1905C37.017 81.627 36.6605 81.9558 36.1995 82.1771C35.7446 82.3922 35.2098 82.4998 34.5951 82.4998C34.3923 82.4998 34.1433 82.4844 33.8483 82.4537C33.5532 82.4291 33.2859 82.3738 33.0461 82.2877C32.7265 82.171 32.5667 81.965 32.5667 81.67V77.2627C32.5667 77.1397 32.6005 77.0475 32.6681 76.9861C32.7357 76.9185 32.8248 76.8631 32.9355 76.8201C33.1814 76.7402 33.4457 76.6879 33.7284 76.6634C34.0112 76.6388 34.2694 76.6265 34.5029 76.6265C35.1361 76.6265 35.6862 76.734 36.1534 76.9492C36.6267 77.1582 36.9955 77.4778 37.2598 77.9081C37.5241 78.3384 37.6563 78.8824 37.6563 79.5401ZM44.1113 79.5585C44.1113 80.1978 43.9853 80.7387 43.7333 81.1813C43.4874 81.6177 43.1462 81.9497 42.7098 82.1771C42.2795 82.4045 41.7908 82.5183 41.2438 82.5183C40.6967 82.5183 40.208 82.4045 39.7777 82.1771C39.3475 81.9497 39.0094 81.6177 38.7635 81.1813C38.5176 80.7387 38.3947 80.1978 38.3947 79.5585C38.3947 78.9193 38.5207 78.3814 38.7727 77.945C39.0248 77.5024 39.3659 77.1705 39.7962 76.9492C40.2265 76.7218 40.709 76.608 41.2438 76.608C41.7847 76.608 42.2703 76.7218 42.7006 76.9492C43.137 77.1705 43.4812 77.5024 43.7333 77.945C43.9853 78.3814 44.1113 78.9193 44.1113 79.5585ZM42.6637 79.5585C42.6637 78.9684 42.5346 78.5197 42.2765 78.2124C42.0244 77.905 41.6802 77.7514 41.2438 77.7514C40.8258 77.7514 40.4877 77.905 40.2295 78.2124C39.9714 78.5136 39.8423 78.9623 39.8423 79.5585C39.8423 80.1609 39.9683 80.6158 40.2203 80.9231C40.4785 81.2243 40.8227 81.3749 41.253 81.3749C41.6833 81.3749 42.0244 81.2243 42.2765 80.9231C42.5346 80.6158 42.6637 80.1609 42.6637 79.5585ZM48.8069 80.9692C48.7393 81.0246 48.6471 81.0707 48.5303 81.1075C48.4196 81.1444 48.2905 81.1629 48.143 81.1629C47.9525 81.1629 47.7926 81.1383 47.6636 81.0891C47.5345 81.0399 47.4515 80.957 47.4146 80.8402C47.2056 80.2562 47.0274 79.7706 46.8798 79.3833C46.7385 78.9961 46.6278 78.6611 46.5479 78.3783H46.5018C46.4834 78.7656 46.468 79.119 46.4557 79.4387C46.4434 79.7583 46.4342 80.0718 46.428 80.3791C46.4219 80.6803 46.4127 80.9877 46.4004 81.3012C46.3881 81.6147 46.3696 81.9589 46.3451 82.3339C46.2774 82.3523 46.1852 82.3738 46.0684 82.3984C45.9578 82.423 45.8472 82.4353 45.7365 82.4353C45.5029 82.4353 45.3185 82.3953 45.1833 82.3154C45.0542 82.2355 44.9897 82.0972 44.9897 81.9005C44.9897 81.7653 44.9958 81.5655 45.0081 81.3012C45.0266 81.0307 45.045 80.7234 45.0634 80.3791C45.088 80.0288 45.1095 79.66 45.128 79.2727C45.1526 78.8855 45.1772 78.5043 45.2017 78.1294C45.2325 77.7483 45.2601 77.3979 45.2847 77.0783C45.3339 77.0045 45.4322 76.9307 45.5798 76.857C45.7273 76.7771 45.9301 76.7371 46.1883 76.7371C46.4649 76.7371 46.6862 76.7832 46.8522 76.8754C47.0243 76.9615 47.1472 77.1059 47.221 77.3088C47.3132 77.5301 47.4115 77.7882 47.516 78.0833C47.6205 78.3722 47.722 78.6672 47.8203 78.9684C47.9248 79.2635 48.0201 79.5309 48.1061 79.7706H48.1522C48.3244 79.2297 48.4995 78.701 48.6778 78.1847C48.8622 77.6684 49.0189 77.2381 49.148 76.8939C49.2341 76.8447 49.3417 76.8078 49.4707 76.7832C49.606 76.7525 49.7474 76.7371 49.8949 76.7371C50.1592 76.7371 50.3713 76.7771 50.5311 76.857C50.697 76.9307 50.7954 77.0445 50.8261 77.1981C50.8507 77.3149 50.8753 77.4993 50.8999 77.7514C50.9306 78.0034 50.9614 78.2954 50.9921 78.6273C51.0228 78.9531 51.0536 79.2973 51.0843 79.66C51.115 80.0165 51.1427 80.3669 51.1673 80.7111C51.198 81.0492 51.2226 81.3534 51.241 81.6239C51.2595 81.8943 51.2718 82.1095 51.2779 82.2693C51.1857 82.3246 51.0874 82.3646 50.9829 82.3892C50.8845 82.4199 50.7585 82.4353 50.6048 82.4353C50.4081 82.4353 50.2391 82.3984 50.0977 82.3246C49.9625 82.2509 49.8887 82.1095 49.8764 81.9005C49.8457 81.421 49.8211 80.9662 49.8027 80.5359C49.7842 80.0995 49.7689 79.703 49.7566 79.3465C49.7504 78.9838 49.7412 78.6734 49.7289 78.4152H49.6828C49.6029 78.6795 49.4892 79.0145 49.3417 79.4202C49.2003 79.8198 49.022 80.3361 48.8069 80.9692ZM52.421 78.4613H53.8224V82.3523C53.7671 82.3707 53.678 82.3861 53.5551 82.3984C53.4321 82.4168 53.3061 82.4261 53.177 82.4261C52.9004 82.4261 52.7037 82.3769 52.5869 82.2785C52.4763 82.1802 52.421 82.0081 52.421 81.7622V78.4613ZM53.8224 80.2316H52.421V76.7556C52.4824 76.7433 52.5746 76.7279 52.6976 76.7095C52.8266 76.691 52.9527 76.6818 53.0756 76.6818C53.3399 76.6818 53.5305 76.7279 53.6473 76.8201C53.764 76.9123 53.8224 77.0875 53.8224 77.3457V80.2316ZM55.1402 78.3691L56.4126 78.3507C56.4372 78.615 56.4557 78.8762 56.468 79.1344C56.4802 79.3926 56.4864 79.6415 56.4864 79.8812C56.4925 80.121 56.4956 80.3546 56.4956 80.582V82.3615C56.4403 82.3738 56.3512 82.3861 56.2282 82.3984C56.1114 82.4168 55.9916 82.4261 55.8686 82.4261C55.5982 82.4261 55.4076 82.38 55.297 82.2877C55.1925 82.1955 55.1402 82.0296 55.1402 81.7899V78.3691ZM60.0547 80.7387L58.773 80.748C58.73 80.2992 58.7054 79.872 58.6993 79.4663C58.6931 79.0606 58.69 78.6734 58.69 78.3046V76.7556C58.7515 76.7433 58.8406 76.7279 58.9574 76.7095C59.0742 76.691 59.1972 76.6818 59.3262 76.6818C59.5906 76.6818 59.778 76.731 59.8887 76.8293C59.9993 76.9215 60.0547 77.0844 60.0547 77.318V80.7387ZM60.0547 80.2962V82.1863C59.9747 82.2601 59.861 82.3185 59.7135 82.3615C59.5721 82.4107 59.4031 82.4353 59.2064 82.4353C58.9974 82.4353 58.8007 82.4015 58.6163 82.3339C58.438 82.2662 58.2905 82.1156 58.1737 81.8821L57.0581 79.7614C56.9904 79.6262 56.9228 79.4909 56.8552 79.3557C56.7937 79.2205 56.7323 79.0852 56.6708 78.95C56.6093 78.8086 56.5479 78.6672 56.4864 78.5259L55.1402 78.8301V77.0137C55.214 76.9092 55.3277 76.8293 55.4814 76.774C55.6412 76.7187 55.8133 76.691 55.9977 76.691C56.2006 76.691 56.3911 76.7248 56.5694 76.7924C56.7538 76.8601 56.9044 77.0076 57.0212 77.235L58.146 79.3649C58.2137 79.494 58.2813 79.6292 58.3489 79.7706C58.4165 79.9058 58.4811 80.0411 58.5425 80.1763C58.604 80.3115 58.6624 80.4498 58.7177 80.5912L60.0547 80.2962ZM63.6029 77.9358H63.5476C63.4861 78.1325 63.4123 78.3507 63.3263 78.5904C63.2464 78.8301 63.1634 79.0822 63.0773 79.3465C62.9913 79.6046 62.9083 79.8628 62.8284 80.121L62.6624 80.9508C62.6255 81.0676 62.5887 81.1905 62.5518 81.3196C62.521 81.4487 62.4872 81.5747 62.4504 81.6976C62.4135 81.8206 62.3797 81.9374 62.3489 82.048C62.3182 82.1587 62.2875 82.2632 62.2567 82.3615C62.1891 82.38 62.1123 82.3984 62.0262 82.4168C61.9402 82.4414 61.8387 82.4537 61.7219 82.4537C61.4638 82.4537 61.2671 82.4076 61.1318 82.3154C60.9966 82.2232 60.929 82.088 60.929 81.9097C60.929 81.836 60.9382 81.7591 60.9567 81.6792C60.9813 81.5993 61.0089 81.5071 61.0396 81.4026C61.095 81.1998 61.1718 80.9447 61.2702 80.6373C61.3747 80.33 61.4853 79.998 61.6021 79.6415C61.725 79.2789 61.848 78.9223 61.9709 78.572C62.1 78.2216 62.2168 77.8989 62.3213 77.6038C62.4319 77.3088 62.521 77.0783 62.5887 76.9123C62.6747 76.857 62.8099 76.8078 62.9944 76.7648C63.1849 76.7156 63.3724 76.691 63.5568 76.691C63.8211 76.691 64.0578 76.731 64.2668 76.8109C64.4757 76.8846 64.6079 77.0045 64.6632 77.1705C64.78 77.4963 64.906 77.8743 65.0413 78.3046C65.1826 78.7287 65.324 79.1744 65.4654 79.6415C65.6068 80.1087 65.742 80.5636 65.8711 81.0061C66.0063 81.4426 66.1231 81.836 66.2215 82.1863C66.1538 82.2601 66.0555 82.3216 65.9264 82.3707C65.7973 82.4261 65.6437 82.4537 65.4654 82.4537C65.2134 82.4537 65.0351 82.4076 64.9306 82.3154C64.8261 82.2232 64.7462 82.0849 64.6909 81.9005L64.3958 80.8678L64.2391 80.0841C64.1653 79.8075 64.0885 79.5401 64.0086 79.2819C63.9287 79.0238 63.8549 78.781 63.7873 78.5535C63.7197 78.3199 63.6582 78.114 63.6029 77.9358ZM62.0447 81.1168L62.5887 80.0288H64.7462L64.9306 81.1168H62.0447ZM70.7038 79.5678C70.7038 79.1559 70.6331 78.8178 70.4918 78.5535C70.3565 78.2892 70.166 78.0925 69.9201 77.9634C69.6804 77.8282 69.4007 77.7606 69.0811 77.7606C68.9704 77.7606 68.8628 77.7667 68.7583 77.779C68.66 77.7852 68.5586 77.7944 68.4541 77.8067V81.3012C68.5463 81.3196 68.6508 81.335 68.7676 81.3473C68.8844 81.3534 68.995 81.3565 69.0995 81.3565C69.5851 81.3565 69.9723 81.2059 70.2613 80.9047C70.5563 80.6035 70.7038 80.1579 70.7038 79.5678ZM72.1514 79.5401C72.1514 80.204 72.0223 80.7541 71.7642 81.1905C71.5121 81.627 71.1556 81.9558 70.6946 82.1771C70.2397 82.3922 69.705 82.4998 69.0903 82.4998C68.8874 82.4998 68.6385 82.4844 68.3434 82.4537C68.0484 82.4291 67.781 82.3738 67.5413 82.2877C67.2216 82.171 67.0618 81.965 67.0618 81.67V77.2627C67.0618 77.1397 67.0956 77.0475 67.1632 76.9861C67.2308 76.9185 67.32 76.8631 67.4306 76.8201C67.6765 76.7402 67.9408 76.6879 68.2236 76.6634C68.5063 76.6388 68.7645 76.6265 68.9981 76.6265C69.6312 76.6265 70.1813 76.734 70.6485 76.9492C71.1218 77.1582 71.4906 77.4778 71.7549 77.9081C72.0193 78.3384 72.1514 78.8824 72.1514 79.5401ZM78.6064 79.5585C78.6064 80.1978 78.4804 80.7387 78.2284 81.1813C77.9825 81.6177 77.6414 81.9497 77.2049 82.1771C76.7747 82.4045 76.286 82.5183 75.7389 82.5183C75.1918 82.5183 74.7032 82.4045 74.2729 82.1771C73.8426 81.9497 73.5045 81.6177 73.2586 81.1813C73.0128 80.7387 72.8898 80.1978 72.8898 79.5585C72.8898 78.9193 73.0158 78.3814 73.2679 77.945C73.5199 77.5024 73.861 77.1705 74.2913 76.9492C74.7216 76.7218 75.2041 76.608 75.7389 76.608C76.2798 76.608 76.7654 76.7218 77.1957 76.9492C77.6321 77.1705 77.9764 77.5024 78.2284 77.945C78.4804 78.3814 78.6064 78.9193 78.6064 79.5585ZM77.1588 79.5585C77.1588 78.9684 77.0298 78.5197 76.7716 78.2124C76.5196 77.905 76.1753 77.7514 75.7389 77.7514C75.3209 77.7514 74.9828 77.905 74.7247 78.2124C74.4665 78.5136 74.3374 78.9623 74.3374 79.5585C74.3374 80.1609 74.4634 80.6158 74.7155 80.9231C74.9736 81.2243 75.3179 81.3749 75.7481 81.3749C76.1784 81.3749 76.5196 81.2243 76.7716 80.9231C77.0298 80.6158 77.1588 80.1609 77.1588 79.5585Z" fill="black" fill-opacity="0.32" style="mix-blend-mode:darken"/>
</g>
<defs>
<filter id="filter0_dddd_245_4607" x="7.31133" y="13.0454" width="96.4691" height="126.649" filterUnits="userSpaceOnUse" color-interpolation-filters="sRGB">
<feFlood flood-opacity="0" result="BackgroundImageFix"/>
<feColorMatrix in="SourceAlpha" type="matrix" values="0 0 0 0 0 0 0 0 0 0 0 0 0 0 0 0 0 0 127 0" result="hardAlpha"/>
<feOffset dy="1.9209"/>
<feGaussianBlur stdDeviation="2.11299"/>
<feColorMatrix type="matrix" values="0 0 0 0 0 0 0 0 0 0 0 0 0 0 0 0 0 0 0.24 0"/>
<feBlend mode="normal" in2="BackgroundImageFix" result="effect1_dropShadow_245_4607"/>
<feColorMatrix in="SourceAlpha" type="matrix" values="0 0 0 0 0 0 0 0 0 0 0 0 0 0 0 0 0 0 127 0" result="hardAlpha"/>
<feOffset dy="8.06777"/>
<feGaussianBlur stdDeviation="4.03389"/>
<feColorMatrix type="matrix" values="0 0 0 0 0 0 0 0 0 0 0 0 0 0 0 0 0 0 0.21 0"/>
<feBlend mode="normal" in2="effect1_dropShadow_245_4607" result="effect2_dropShadow_245_4607"/>
<feColorMatrix in="SourceAlpha" type="matrix" values="0 0 0 0 0 0 0 0 0 0 0 0 0 0 0 0 0 0 127 0" result="hardAlpha"/>
<feOffset dy="17.6723"/>
<feGaussianBlur stdDeviation="5.37852"/>
<feColorMatrix type="matrix" values="0 0 0 0 0 0 0 0 0 0 0 0 0 0 0 0 0 0 0.12 0"/>
<feBlend mode="normal" in2="effect2_dropShadow_245_4607" result="effect3_dropShadow_245_4607"/>
<feColorMatrix in="SourceAlpha" type="matrix" values="0 0 0 0 0 0 0 0 0 0 0 0 0 0 0 0 0 0 127 0" result="hardAlpha"/>
<feOffset dy="31.5027"/>
<feGaussianBlur stdDeviation="6.33897"/>
<feColorMatrix type="matrix" values="0 0 0 0 0 0 0 0 0 0 0 0 0 0 0 0 0 0 0.04 0"/>
<feBlend mode="normal" in2="effect3_dropShadow_245_4607" result="effect4_dropShadow_245_4607"/>
<feBlend mode="normal" in="SourceGraphic" in2="effect4_dropShadow_245_4607" result="shape"/>
</filter>
<filter id="filter1_d_245_4607" x="16.9139" y="13.0452" width="77.2611" height="86.3106" filterUnits="userSpaceOnUse" color-interpolation-filters="sRGB">
<feFlood flood-opacity="0" result="BackgroundImageFix"/>
<feColorMatrix in="SourceAlpha" type="matrix" values="0 0 0 0 0 0 0 0 0 0 0 0 0 0 0 0 0 0 127 0" result="hardAlpha"/>
<feOffset dy="0.768359"/>
<feGaussianBlur stdDeviation="1.53672"/>
<feColorMatrix type="matrix" values="0 0 0 0 0 0 0 0 0 0 0 0 0 0 0 0 0 0 0.16 0"/>
<feBlend mode="color-burn" in2="BackgroundImageFix" result="effect1_dropShadow_245_4607"/>
<feBlend mode="normal" in="SourceGraphic" in2="effect1_dropShadow_245_4607" result="shape"/>
</filter>
<filter id="filter2_d_245_4607" x="31.0812" y="28.8531" width="48.8387" height="41.9181" filterUnits="userSpaceOnUse" color-interpolation-filters="sRGB">
<feFlood flood-opacity="0" result="BackgroundImageFix"/>
<feColorMatrix in="SourceAlpha" type="matrix" values="0 0 0 0 0 0 0 0 0 0 0 0 0 0 0 0 0 0 127 0" result="hardAlpha"/>
<feOffset dy="0.864404"/>
<feGaussianBlur stdDeviation="2.59321"/>
<feColorMatrix type="matrix" values="0 0 0 0 0 0 0 0 0 0 0 0 0 0 0 0 0 0 0.12 0"/>
<feBlend mode="plus-darker" in2="BackgroundImageFix" result="effect1_dropShadow_245_4607"/>
<feBlend mode="normal" in="SourceGraphic" in2="effect1_dropShadow_245_4607" result="shape"/>
</filter>
<filter id="filter3_dd_245_4607" x="10.9348" y="72.6723" width="89.0191" height="26.8922" filterUnits="userSpaceOnUse" color-interpolation-filters="sRGB">
<feFlood flood-opacity="0" result="BackgroundImageFix"/>
<feColorMatrix in="SourceAlpha" type="matrix" values="0 0 0 0 0 0 0 0 0 0 0 0 0 0 0 0 0 0 127 0" result="hardAlpha"/>
<feOffset dy="1.53672"/>
<feGaussianBlur stdDeviation="2.30508"/>
<feColorMatrix type="matrix" values="0 0 0 0 0 0 0 0 0 0 0 0 0 0 0 0 0 0 0.16 0"/>
<feBlend mode="normal" in2="BackgroundImageFix" result="effect1_dropShadow_245_4607"/>
<feColorMatrix in="SourceAlpha" type="matrix" values="0 0 0 0 0 0 0 0 0 0 0 0 0 0 0 0 0 0 127 0" result="hardAlpha"/>
<feOffset dy="0.768359"/>
<feGaussianBlur stdDeviation="0.768359"/>
<feColorMatrix type="matrix" values="0 0 0 0 0 0 0 0 0 0 0 0 0 0 0 0 0 0 0.24 0"/>
<feBlend mode="normal" in2="effect1_dropShadow_245_4607" result="effect2_dropShadow_245_4607"/>
<feBlend mode="normal" in="SourceGraphic" in2="effect2_dropShadow_245_4607" result="shape"/>
</filter>
<filter id="filter4_dd_245_4607" x="17.0266" y="68.0621" width="76.8355" height="26.8926" filterUnits="userSpaceOnUse" color-interpolation-filters="sRGB">
<feFlood flood-opacity="0" result="BackgroundImageFix"/>
<feColorMatrix in="SourceAlpha" type="matrix" values="0 0 0 0 0 0 0 0 0 0 0 0 0 0 0 0 0 0 127 0" result="hardAlpha"/>
<feOffset dy="1.53672"/>
<feGaussianBlur stdDeviation="2.30508"/>
<feColorMatrix type="matrix" values="0 0 0 0 0 0 0 0 0 0 0 0 0 0 0 0 0 0 0.16 0"/>
<feBlend mode="normal" in2="BackgroundImageFix" result="effect1_dropShadow_245_4607"/>
<feColorMatrix in="SourceAlpha" type="matrix" values="0 0 0 0 0 0 0 0 0 0 0 0 0 0 0 0 0 0 127 0" result="hardAlpha"/>
<feOffset dy="0.768359"/>
<feGaussianBlur stdDeviation="0.768359"/>
<feColorMatrix type="matrix" values="0 0 0 0 0 0 0 0 0 0 0 0 0 0 0 0 0 0 0.24 0"/>
<feBlend mode="normal" in2="effect1_dropShadow_245_4607" result="effect2_dropShadow_245_4607"/>
<feBlend mode="normal" in="SourceGraphic" in2="effect2_dropShadow_245_4607" result="shape"/>
</filter>
<filter id="filter5_i_245_4607" x="24.71" y="78.8192" width="2.30469" height="2.68923" filterUnits="userSpaceOnUse" color-interpolation-filters="sRGB">
<feFlood flood-opacity="0" result="BackgroundImageFix"/>
<feBlend mode="normal" in="SourceGraphic" in2="BackgroundImageFix" result="shape"/>
<feColorMatrix in="SourceAlpha" type="matrix" values="0 0 0 0 0 0 0 0 0 0 0 0 0 0 0 0 0 0 127 0" result="hardAlpha"/>
<feOffset dy="0.38418"/>
<feGaussianBlur stdDeviation="0.38418"/>
<feComposite in2="hardAlpha" operator="arithmetic" k2="-1" k3="1"/>
<feColorMatrix type="matrix" values="0 0 0 0 0 0 0 0 0 0 0 0 0 0 0 0 0 0 0.24 0"/>
<feBlend mode="darken" in2="shape" result="effect1_innerShadow_245_4607"/>
</filter>
<filter id="filter6_i_245_4607" x="83.874" y="78.8192" width="2.30469" height="2.68923" filterUnits="userSpaceOnUse" color-interpolation-filters="sRGB">
<feFlood flood-opacity="0" result="BackgroundImageFix"/>
<feBlend mode="normal" in="SourceGraphic" in2="BackgroundImageFix" result="shape"/>
<feColorMatrix in="SourceAlpha" type="matrix" values="0 0 0 0 0 0 0 0 0 0 0 0 0 0 0 0 0 0 127 0" result="hardAlpha"/>
<feOffset dy="0.38418"/>
<feGaussianBlur stdDeviation="0.38418"/>
<feComposite in2="hardAlpha" operator="arithmetic" k2="-1" k3="1"/>
<feColorMatrix type="matrix" values="0 0 0 0 0 0 0 0 0 0 0 0 0 0 0 0 0 0 0.24 0"/>
<feBlend mode="darken" in2="shape" result="effect1_innerShadow_245_4607"/>
</filter>
<filter id="filter7_i_245_4607" x="32.5664" y="76.608" width="46.04" height="6.2944" filterUnits="userSpaceOnUse" color-interpolation-filters="sRGB">
<feFlood flood-opacity="0" result="BackgroundImageFix"/>
<feBlend mode="normal" in="SourceGraphic" in2="BackgroundImageFix" result="shape"/>
<feColorMatrix in="SourceAlpha" type="matrix" values="0 0 0 0 0 0 0 0 0 0 0 0 0 0 0 0 0 0 127 0" result="hardAlpha"/>
<feOffset dy="0.38418"/>
<feGaussianBlur stdDeviation="0.38418"/>
<feComposite in2="hardAlpha" operator="arithmetic" k2="-1" k3="1"/>
<feColorMatrix type="matrix" values="0 0 0 0 0 0 0 0 0 0 0 0 0 0 0 0 0 0 0.24 0"/>
<feBlend mode="darken" in2="shape" result="effect1_innerShadow_245_4607"/>
</filter>
<linearGradient id="paint0_linear_245_4607" x1="55.5" y1="13.4043" x2="55.5" y2="96.0381" gradientUnits="userSpaceOnUse">
<stop stop-color="white"/>
<stop offset="1" stop-color="white" stop-opacity="0"/>
</linearGradient>
<radialGradient id="paint1_radial_245_4607" cx="0" cy="0" r="1" gradientUnits="userSpaceOnUse" gradientTransform="translate(55.5 37.1395) rotate(90) scale(54.5031 41.3526)">
<stop stop-color="white"/>
<stop offset="1" stop-color="white" stop-opacity="0"/>
</radialGradient>
<linearGradient id="paint2_linear_245_4607" x1="55.499" y1="13.4043" x2="55.499" y2="96.0381" gradientUnits="userSpaceOnUse">
<stop stop-color="white"/>
<stop offset="1" stop-color="white" stop-opacity="0"/>
</linearGradient>
<radialGradient id="paint3_radial_245_4607" cx="0" cy="0" r="1" gradientUnits="userSpaceOnUse" gradientTransform="translate(55.499 37.1395) rotate(90) scale(54.5031 41.3526)">
<stop stop-color="white"/>
<stop offset="1" stop-color="white" stop-opacity="0"/>
</radialGradient>
<linearGradient id="paint4_linear_245_4607" x1="1.71387" y1="1.21484" x2="1.71387" y2="108.785" gradientUnits="userSpaceOnUse">
<stop stop-color="white"/>
<stop offset="1" stop-color="white" stop-opacity="0.01"/>
</linearGradient>
<linearGradient id="paint5_linear_245_4607" x1="55.5451" y1="13.7657" x2="55.5451" y2="96.7486" gradientUnits="userSpaceOnUse">
<stop stop-color="white"/>
<stop offset="1" stop-color="#999999"/>
</linearGradient>
<linearGradient id="paint6_linear_245_4607" x1="55.5445" y1="15.3503" x2="55.5445" y2="95.5141" gradientUnits="userSpaceOnUse">
<stop stop-color="white"/>
<stop offset="1" stop-color="#999999"/>
</linearGradient>
<linearGradient id="paint7_linear_245_4607" x1="55.5003" y1="33.3913" x2="55.5003" y2="64.5044" gradientUnits="userSpaceOnUse">
<stop stop-color="#DFDFDF"/>
<stop offset="1" stop-color="#A9A9A9"/>
</linearGradient>
<linearGradient id="paint8_linear_245_4607" x1="55.4441" y1="75.7457" x2="55.4441" y2="93.4176" gradientUnits="userSpaceOnUse">
<stop stop-opacity="0"/>
<stop offset="1" stop-opacity="0.16"/>
</linearGradient>
<linearGradient id="paint9_linear_245_4607" x1="55.4442" y1="66.9098" x2="55.4442" y2="93.4176" gradientUnits="userSpaceOnUse">
<stop stop-color="white"/>
<stop offset="1" stop-color="white" stop-opacity="0"/>
</linearGradient>
<radialGradient id="paint10_radial_245_4607" cx="0" cy="0" r="1" gradientUnits="userSpaceOnUse" gradientTransform="translate(55.4442 75.7457) rotate(90) scale(17.6719 74.2311)">
<stop stop-color="white"/>
<stop offset="1" stop-color="white" stop-opacity="0"/>
</radialGradient>
<linearGradient id="paint11_linear_245_4607" x1="55.4445" y1="71.1356" x2="55.4445" y2="88.8078" gradientUnits="userSpaceOnUse">
<stop stop-opacity="0"/>
<stop offset="1" stop-opacity="0.16"/>
</linearGradient>
<linearGradient id="paint12_linear_245_4607" x1="55.4445" y1="71.1356" x2="55.4445" y2="88.8078" gradientUnits="userSpaceOnUse">
<stop stop-color="white"/>
<stop offset="1" stop-color="white" stop-opacity="0"/>
</linearGradient>
<radialGradient id="paint13_radial_245_4607" cx="0" cy="0" r="1" gradientUnits="userSpaceOnUse" gradientTransform="translate(55.4445 74.2194) rotate(90) scale(14.5884 33.8078)">
<stop stop-color="white"/>
<stop offset="1" stop-color="white" stop-opacity="0"/>
</radialGradient>
</defs>
</svg>
