<svg width="114" height="99" viewBox="0 0 114 99" fill="none" xmlns="http://www.w3.org/2000/svg">
<g filter="url(#filter0_d_245_4338)">
<path d="M59.3459 25.8411C62.0632 24.8762 64.0089 22.2826 64.0089 19.2344C64.0089 15.3636 60.871 12.2256 57.0001 12.2256C53.1292 12.2256 49.9912 15.3636 49.9912 19.2344C49.9912 22.2822 51.9365 24.8756 54.6532 25.8407L46.1812 48.721C45.6441 50.1716 43.7341 50.4895 42.7561 49.2911L24.881 27.3879C26.1986 26.1136 27.0177 24.3272 27.0177 22.3494C27.0177 18.4785 23.8797 15.3406 20.0089 15.3406C16.138 15.3406 13 18.4785 13 22.3494C13 26.2203 16.138 29.3583 20.0089 29.3583C20.4124 29.3583 20.808 29.3242 21.1928 29.2587L31.7006 66.6244C32.4283 69.2122 34.7884 71.0001 37.4765 71.0001H76.5355C79.2242 71.0001 81.5846 69.2115 82.3118 66.623L92.8092 29.2591C93.1934 29.3243 93.5882 29.3583 93.991 29.3583C97.8619 29.3583 101 26.2203 101 22.3494C101 18.4785 97.8619 15.3406 93.991 15.3406C90.1202 15.3406 86.9822 18.4785 86.9822 22.3494C86.9822 24.3281 87.8021 26.1152 89.1207 27.3897L71.2567 49.2912C70.2792 50.4897 68.3694 50.1726 67.8317 48.7225L59.3459 25.8411Z" fill="white"/>
<path d="M38.391 75.5404C35.7033 75.5404 33.6629 77.9604 34.1171 80.6094C34.474 82.6911 36.2789 84.2129 38.391 84.2129H75.6331C77.7456 84.2129 79.5506 82.6906 79.9071 80.6084C80.3606 77.9597 78.3204 75.5404 75.6331 75.5404H38.391Z" fill="white"/>
<path d="M75.6328 75.29C78.3862 75.29 80.4972 77.6916 80.1904 80.3887L80.1533 80.6504C79.7763 82.8526 77.8671 84.4629 75.6328 84.4629H38.3906C36.2267 84.4627 34.3674 82.9524 33.9102 80.8564L33.8711 80.6514C33.3909 77.8498 35.5482 75.2903 38.3906 75.29H75.6328ZM57 11.9756C61.0089 11.9756 64.2587 15.2254 64.2588 19.2344C64.2588 22.3024 62.3555 24.9247 59.666 25.9873L68.0664 48.6357L68.1133 48.752C68.64 49.9207 70.2339 50.1487 71.0625 49.1328L88.7852 27.4043C87.516 26.0974 86.7325 24.3155 86.7324 22.3496C86.7324 18.3407 89.9823 15.0908 93.9912 15.0908C98.0001 15.0909 101.25 18.3407 101.25 22.3496C101.25 26.3584 98 29.6083 93.9912 29.6084C93.6517 29.6084 93.3176 29.5833 92.9902 29.5381L82.5527 66.6904C81.7952 69.3868 79.3359 71.25 76.5352 71.25H37.4766C34.7639 71.25 32.3722 69.5023 31.5361 66.9424L31.46 66.6924L21.0117 29.5381C20.6837 29.5834 20.349 29.6084 20.0088 29.6084C15.9999 29.6084 12.7501 26.3585 12.75 22.3496C12.75 18.3407 15.9999 15.0909 20.0088 15.0908C24.0177 15.0908 27.2676 18.3407 27.2676 22.3496C27.2675 24.315 26.4844 26.0966 25.2158 27.4033L42.9502 49.1328L43.0322 49.2275C43.9087 50.1634 45.491 49.8634 45.9463 48.6338L54.332 25.9863C51.6437 24.9231 49.7412 22.3015 49.7412 19.2344C49.7413 15.2255 52.9911 11.9756 57 11.9756Z" stroke="url(#paint0_linear_245_4338)" stroke-width="0.5" stroke-linecap="round" style="mix-blend-mode:color-burn"/>
</g>
<defs>
<filter id="filter0_d_245_4338" x="0.5" y="1.72559" width="113" height="96.9873" filterUnits="userSpaceOnUse" color-interpolation-filters="sRGB">
<feFlood flood-opacity="0" result="BackgroundImageFix"/>
<feColorMatrix in="SourceAlpha" type="matrix" values="0 0 0 0 0 0 0 0 0 0 0 0 0 0 0 0 0 0 127 0" result="hardAlpha"/>
<feOffset dy="2"/>
<feGaussianBlur stdDeviation="6"/>
<feColorMatrix type="matrix" values="0 0 0 0 0 0 0 0 0 0 0 0 0 0 0 0 0 0 0.12 0"/>
<feBlend mode="plus-darker" in2="BackgroundImageFix" result="effect1_dropShadow_245_4338"/>
<feBlend mode="normal" in="SourceGraphic" in2="effect1_dropShadow_245_4338" result="shape"/>
</filter>
<linearGradient id="paint0_linear_245_4338" x1="57" y1="12.2256" x2="57" y2="84.2129" gradientUnits="userSpaceOnUse">
<stop stop-color="#DFDFDF"/>
<stop offset="1" stop-color="#A9A9A9"/>
</linearGradient>
</defs>
</svg>
