<svg width="97" height="97" viewBox="0 0 97 97" fill="none" xmlns="http://www.w3.org/2000/svg">
<g filter="url(#filter0_d_245_4340)">
<path fill-rule="evenodd" clip-rule="evenodd" d="M79.4662 16.2132C70.3324 7.07935 52.5098 11.1569 40.7709 22.8959C38.7256 24.9412 36.5324 27.5291 34.7532 30.0028C29.3381 28.3206 24.502 28.751 21.0979 32.1551C18.3758 34.8772 17.5776 38.6771 18.2579 42.8639L18.6721 45.4126C18.7995 46.1966 19.4142 46.8113 20.1982 46.9387L22.7469 47.3529C26.7634 48.0056 32.8962 51.7195 38.4281 57.2514C43.9599 62.7833 47.6738 68.916 48.3265 72.9325L48.7407 75.4812C48.8681 76.2652 49.4828 76.8799 50.2668 77.0073L52.8155 77.4215C57.0023 78.1019 60.8022 77.3036 63.5243 74.5816C66.9284 71.1774 67.3588 66.3413 65.6767 60.9263C68.1503 59.147 70.7383 56.9538 72.7835 54.9085C84.5225 43.1696 88.6001 25.347 79.4662 16.2132ZM18.5666 55.8998C20.1642 54.3022 22.7544 54.3022 24.352 55.8998C25.9496 57.4974 25.9496 60.0876 24.352 61.6852L20.4299 65.6073C18.8323 67.2049 16.2421 67.2049 14.6445 65.6073C13.0469 64.0097 13.0469 61.4195 14.6445 59.8219L18.5666 55.8998ZM32.0659 63.6136C30.4683 62.016 27.8781 62.016 26.2805 63.6136L16.5338 73.3603C14.9362 74.9579 14.9362 77.5481 16.5338 79.1457C18.1314 80.7433 20.7216 80.7433 22.3192 79.1457L32.0659 69.3991C33.6635 67.8015 33.6635 65.2113 32.0659 63.6136ZM39.7798 71.3275C38.1822 69.7299 35.5919 69.7299 33.9944 71.3275L30.0722 75.2496C28.4746 76.8472 28.4746 79.4375 30.0722 81.0351C31.6698 82.6327 34.26 82.6327 35.8576 81.0351L39.7798 77.1129C41.3774 75.5153 41.3774 72.9251 39.7798 71.3275Z" fill="white"/>
<path d="M33.9795 70.9968C35.6835 69.4572 38.3148 69.5089 39.957 71.1511L40.1104 71.3123C41.6006 72.9613 41.6004 75.4785 40.1104 77.1277L39.957 77.2898L36.0342 81.2117C34.392 82.8538 31.7616 82.9054 30.0576 81.366L29.8955 81.2117C28.2003 79.5165 28.2003 76.7682 29.8955 75.073L33.8174 71.1511L33.9795 70.9968ZM26.2656 63.283C27.9697 61.7433 30.6009 61.795 32.2432 63.4373L32.3965 63.5984C33.8867 65.2475 33.8866 67.7646 32.3965 69.4138L32.2422 69.5759L22.4961 79.322C20.8537 80.9644 18.2226 81.0162 16.5186 79.4763L16.3574 79.322C14.6622 77.6268 14.6622 74.8786 16.3574 73.1833L26.1035 63.4373L26.2656 63.283ZM61.0488 11.4812C68.1657 10.1263 74.9989 11.3932 79.6426 16.0369L80.0684 16.4783C84.3631 21.1076 85.5108 27.7362 84.1982 34.6306C82.8854 41.5264 79.108 48.7188 73.5078 54.5271L72.96 55.0857C70.9446 57.101 68.4058 59.2555 65.9658 61.0232C67.5497 66.2474 67.1862 70.9903 64.0195 74.4265L63.7012 74.7585C60.9932 77.4665 57.2575 78.3049 53.1719 77.7283L52.7754 77.6687L50.2266 77.2537C49.3922 77.118 48.7266 76.4968 48.5273 75.6863L48.4941 75.5212L48.0801 72.9724C47.7613 71.0107 46.6882 68.506 44.9951 65.7927C43.3044 63.0834 41.0046 60.1821 38.251 57.4285C35.4973 54.6748 32.596 52.375 29.8867 50.6843C27.3431 49.0971 24.9826 48.0555 23.0811 47.6687L22.707 47.5994L20.1582 47.1853C19.3235 47.0497 18.658 46.4278 18.459 45.6169L18.4258 45.4529L18.0107 42.9041C17.3217 38.6641 18.1256 34.7736 20.9209 31.9783L21.2529 31.6599C24.6889 28.4935 29.4315 28.1292 34.6553 29.7126C36.4229 27.2728 38.5785 24.7348 40.5938 22.7195L41.1514 22.1716C46.9598 16.5711 54.1529 12.7941 61.0488 11.4812ZM18.5518 55.5691C20.2558 54.0294 22.887 54.0811 24.5293 55.7234L24.6826 55.8845C26.1729 57.5336 26.1727 60.0508 24.6826 61.7L24.5293 61.8621L20.6064 65.7839C18.9643 67.4261 16.3339 67.4776 14.6299 65.9382L14.4678 65.7839C12.7726 64.0887 12.7726 61.3405 14.4678 59.6453L18.3896 55.7234L18.5518 55.5691Z" stroke="url(#paint0_linear_245_4340)" stroke-width="0.5" stroke-linecap="round" style="mix-blend-mode:color-burn"/>
</g>
<defs>
<filter id="filter0_d_245_4340" x="0.946289" y="0.71875" width="96.0146" height="96.0144" filterUnits="userSpaceOnUse" color-interpolation-filters="sRGB">
<feFlood flood-opacity="0" result="BackgroundImageFix"/>
<feColorMatrix in="SourceAlpha" type="matrix" values="0 0 0 0 0 0 0 0 0 0 0 0 0 0 0 0 0 0 127 0" result="hardAlpha"/>
<feOffset dy="2"/>
<feGaussianBlur stdDeviation="6"/>
<feColorMatrix type="matrix" values="0 0 0 0 0 0 0 0 0 0 0 0 0 0 0 0 0 0 0.12 0"/>
<feBlend mode="plus-darker" in2="BackgroundImageFix" result="effect1_dropShadow_245_4340"/>
<feBlend mode="normal" in="SourceGraphic" in2="effect1_dropShadow_245_4340" result="shape"/>
</filter>
<linearGradient id="paint0_linear_245_4340" x1="48.9536" y1="11.2185" x2="48.9536" y2="82.2333" gradientUnits="userSpaceOnUse">
<stop stop-color="#DFDFDF"/>
<stop offset="1" stop-color="#A9A9A9"/>
</linearGradient>
</defs>
</svg>
