<svg width="97" height="101" viewBox="0 0 97 101" fill="none" xmlns="http://www.w3.org/2000/svg">
<g filter="url(#filter0_d_245_4342)">
<path d="M29.1773 11.2979C19.9672 11.2979 12.501 18.7641 12.501 27.9742C12.501 37.1842 19.9672 44.6505 29.1773 44.6505C38.3874 44.6505 45.8536 37.1842 45.8536 27.9742C45.8536 18.7641 38.3874 11.2979 29.1773 11.2979Z" fill="white"/>
<path d="M63.8459 19.5257C56.9077 19.5257 51.2833 25.1501 51.2833 32.0882C51.2833 39.0263 56.9077 44.6508 63.8459 44.6508C70.784 44.6508 76.4084 39.0263 76.4084 32.0882C76.4084 25.1501 70.784 19.5257 63.8459 19.5257Z" fill="white"/>
<path d="M82.1873 52.1616C81.2425 51.5453 80.0504 51.4479 79.0181 51.9025L77.846 52.4192C77.1104 52.7437 76.075 53.2007 74.8754 53.7312C73.6567 54.2701 72.2677 54.8851 70.8512 55.5139C70.2161 51.3978 66.831 48.2134 62.6677 47.8529C62.2222 47.8143 61.7747 47.7752 61.3237 47.7357L61.256 47.7298C56.8382 47.343 52.1017 46.9283 47.2285 46.9283C42.3554 46.9283 37.6191 47.343 33.2012 47.7298L33.1349 47.7356C32.6834 47.7751 32.2354 47.8143 31.7893 47.8529C27.609 48.2149 24.2133 51.4238 23.5982 55.5643C23.1068 58.8726 22.57 62.5529 22.57 66.3654C22.57 70.1779 23.1068 73.8582 23.5982 77.1665C24.2133 81.307 27.609 84.5159 31.7893 84.8779C32.2367 84.9166 32.686 84.9559 33.1388 84.9956L33.201 85.001C37.6189 85.3878 42.3553 85.8025 47.2285 85.8025C52.1017 85.8025 56.838 85.3878 61.2559 85.001L61.3222 84.9952C61.7736 84.9557 62.2218 84.9165 62.6677 84.8779C66.8309 84.5174 70.2159 81.3332 70.8511 77.2173C72.2677 77.8462 73.6566 78.4611 74.8753 79C76.0749 79.5305 77.1104 79.9876 77.846 80.3121L79.0168 80.8282L79.0181 80.8288C80.0504 81.2834 81.2425 81.1859 82.1873 80.5696C83.132 79.9534 83.7017 78.9017 83.7017 77.7737V54.9576C83.7017 53.8296 83.132 52.7779 82.1873 52.1616Z" fill="white"/>
<path d="M47.2285 46.6787C52.1143 46.6787 56.8619 47.0938 61.2783 47.4805L61.3457 47.4863L62.6895 47.6035L63.0879 47.6475C67.0749 48.1662 70.2922 51.2126 71.042 55.1553C72.3569 54.5718 73.6396 54.0047 74.7744 53.5029L77.7451 52.1904L78.917 51.6738L79.127 51.5889C80.1858 51.2 81.3721 51.3311 82.3242 51.9521L82.5098 52.082C83.4136 52.7565 83.9521 53.8214 83.9521 54.958V77.7734C83.9521 78.9101 83.4137 79.975 82.5098 80.6494L82.3242 80.7793C81.3087 81.4417 80.0266 81.5463 78.917 81.0576V81.0566H78.916L77.7451 80.541L74.7744 79.2285C73.6393 78.7266 72.3563 78.1589 71.041 77.5752C70.2912 81.518 67.075 84.5653 63.0879 85.084L62.6895 85.127L61.3438 85.2441L61.2773 85.25C56.861 85.6366 52.1142 86.0527 47.2285 86.0527C43.5642 86.0527 39.978 85.8191 36.5508 85.5391L33.1787 85.25L33.1172 85.2451L31.7676 85.127C27.606 84.7666 24.2024 81.6611 23.4189 77.5996L23.3506 77.2031C22.8594 73.8965 22.3203 70.1987 22.3203 66.3652C22.3203 62.5317 22.8594 58.834 23.3506 55.5273L23.4189 55.1318C24.2022 51.07 27.6058 47.9639 31.7676 47.6035L33.1133 47.4863L33.1797 47.4805L36.5508 47.1924C39.978 46.9123 43.5642 46.6787 47.2285 46.6787ZM29.1777 11.0479C38.5257 11.0481 46.1035 18.6266 46.1035 27.9746C46.1033 37.3224 38.5255 44.9002 29.1777 44.9004C19.8297 44.9004 12.2512 37.3226 12.251 27.9746C12.251 18.6265 19.8296 11.0479 29.1777 11.0479ZM63.8457 19.2754C70.9218 19.2754 76.658 25.0119 76.6582 32.0879C76.6582 39.1641 70.9219 44.9004 63.8457 44.9004C56.7696 44.9003 51.0332 39.164 51.0332 32.0879C51.0334 25.0119 56.7697 19.2755 63.8457 19.2754Z" stroke="url(#paint0_linear_245_4342)" stroke-width="0.5" stroke-linecap="round" style="mix-blend-mode:color-burn"/>
</g>
<defs>
<filter id="filter0_d_245_4342" x="0.000976562" y="0.797852" width="96.2012" height="99.5046" filterUnits="userSpaceOnUse" color-interpolation-filters="sRGB">
<feFlood flood-opacity="0" result="BackgroundImageFix"/>
<feColorMatrix in="SourceAlpha" type="matrix" values="0 0 0 0 0 0 0 0 0 0 0 0 0 0 0 0 0 0 127 0" result="hardAlpha"/>
<feOffset dy="2"/>
<feGaussianBlur stdDeviation="6"/>
<feColorMatrix type="matrix" values="0 0 0 0 0 0 0 0 0 0 0 0 0 0 0 0 0 0 0.12 0"/>
<feBlend mode="plus-darker" in2="BackgroundImageFix" result="effect1_dropShadow_245_4342"/>
<feBlend mode="normal" in="SourceGraphic" in2="effect1_dropShadow_245_4342" result="shape"/>
</filter>
<linearGradient id="paint0_linear_245_4342" x1="48.1013" y1="11.2979" x2="48.1013" y2="85.8025" gradientUnits="userSpaceOnUse">
<stop stop-color="#DFDFDF"/>
<stop offset="1" stop-color="#A9A9A9"/>
</linearGradient>
</defs>
</svg>
