<svg width="104" height="100" viewBox="0 0 104 100" fill="none" xmlns="http://www.w3.org/2000/svg">
<g filter="url(#filter0_d_245_4344)">
<path d="M88.9861 37.1788L53.59 56.4984C52.5143 57.0855 51.2142 57.0855 50.1385 56.4984L20.3791 40.2553V55.6507C20.3791 57.6424 18.8121 59.257 16.8791 59.257C14.9461 59.257 13.3791 57.6424 13.3791 55.6507V35.8824C12.3803 34.2242 12.8348 31.8881 14.7425 30.8468L50.1385 11.5273C51.2142 10.9401 52.5143 10.9401 53.59 11.5273L88.9861 30.8468C91.4903 32.2137 91.4903 35.8119 88.9861 37.1788Z" fill="white"/>
<path d="M77.993 69.5421C77.993 71.404 76.8704 73.2353 75.1991 74.0715L54.2777 84.5391C52.8198 85.2685 50.9129 85.2706 49.4509 84.5391L28.5294 74.0715C26.8632 73.2379 25.7355 71.4069 25.7355 69.5421V53.315C25.7355 51.7984 27.3575 50.8336 28.6902 51.5576L48.0447 62.0711C50.0333 63.1514 53.6941 63.152 55.6839 62.0711L75.0383 51.5576C76.371 50.8336 77.993 51.7984 77.993 53.315V69.5421Z" fill="white"/>
<path d="M75.0605 51.2666C76.5306 50.5917 78.2432 51.6627 78.2432 53.3154V69.542C78.2432 71.3755 77.21 73.1761 75.6338 74.1182L75.3105 74.2949L54.3896 84.7627C52.9571 85.4794 51.1188 85.5261 49.6318 84.8975L49.3389 84.7627L28.418 74.2949C26.6667 73.4187 25.4854 71.5011 25.4854 69.542V53.3154C25.4854 51.6093 27.3103 50.5235 28.8096 51.3379L48.1641 61.8516L48.3457 61.9453C49.2798 62.3977 50.5632 62.6318 51.8643 62.6318C53.2518 62.6319 54.6187 62.3653 55.5645 61.8516L74.9189 51.3379L75.0605 51.2666ZM50.2373 11.1973C51.3421 10.6823 52.6316 10.719 53.71 11.3076L89.1055 30.627L89.3486 30.7715C91.7025 32.2771 91.7024 35.7482 89.3486 37.2539L89.1055 37.3984L53.71 56.7178C52.6316 57.3064 51.3421 57.3431 50.2373 56.8281L50.0186 56.7178L20.6289 40.6758V55.6504C20.6289 57.7731 18.957 59.5068 16.8789 59.5068C14.8009 59.5067 13.1289 57.773 13.1289 55.6504V35.9482C12.1109 34.1819 12.605 31.7285 14.623 30.627L50.0186 11.3076L50.2373 11.1973Z" stroke="url(#paint0_linear_245_4344)" stroke-width="0.5" stroke-linecap="round" style="mix-blend-mode:color-burn"/>
</g>
<defs>
<filter id="filter0_d_245_4344" x="0.365234" y="0.586914" width="102.999" height="99" filterUnits="userSpaceOnUse" color-interpolation-filters="sRGB">
<feFlood flood-opacity="0" result="BackgroundImageFix"/>
<feColorMatrix in="SourceAlpha" type="matrix" values="0 0 0 0 0 0 0 0 0 0 0 0 0 0 0 0 0 0 127 0" result="hardAlpha"/>
<feOffset dy="2"/>
<feGaussianBlur stdDeviation="6"/>
<feColorMatrix type="matrix" values="0 0 0 0 0 0 0 0 0 0 0 0 0 0 0 0 0 0 0.12 0"/>
<feBlend mode="plus-darker" in2="BackgroundImageFix" result="effect1_dropShadow_245_4344"/>
<feBlend mode="normal" in="SourceGraphic" in2="effect1_dropShadow_245_4344" result="shape"/>
</filter>
<linearGradient id="paint0_linear_245_4344" x1="51.8643" y1="11.0869" x2="51.8643" y2="85.0869" gradientUnits="userSpaceOnUse">
<stop stop-color="#DFDFDF"/>
<stop offset="1" stop-color="#A9A9A9"/>
</linearGradient>
</defs>
</svg>
