<svg width="96" height="106" viewBox="0 0 96 106" fill="none" xmlns="http://www.w3.org/2000/svg">
<g filter="url(#filter0_d_245_4346)">
<path fill-rule="evenodd" clip-rule="evenodd" d="M31.9998 15C31.9998 12.7909 33.7906 11 35.9998 11H59.9998C62.2089 11 63.9998 12.7909 63.9998 15C63.9998 17.2091 62.2089 19 59.9998 19H56.6661V22.6957C71.6182 26.5476 82.6664 40.1331 82.6664 56.3014C82.6664 75.465 67.1456 91.0002 47.9997 91.0002C28.8538 91.0002 13.333 75.465 13.333 56.3014C13.333 40.1332 24.3809 26.5478 39.3328 22.6958V19H35.9998C33.7906 19 31.9998 17.2091 31.9998 15ZM43.0849 44.5461C39.8603 45.622 37.3304 48.1533 36.2563 51.3785L29.6322 71.2695C28.9292 73.3804 30.9378 75.3879 33.0484 74.6838L52.9133 68.056C56.1379 66.9801 58.6678 64.4488 59.7419 61.2236L66.3661 41.3327C67.0691 39.2217 65.0604 37.2142 62.9499 37.9184L43.0849 44.5461Z" fill="white"/>
<path d="M60 10.75C62.3471 10.7501 64.25 12.6529 64.25 15C64.25 17.3471 62.3471 19.2499 60 19.25H56.916V22.5039C71.8806 26.4486 82.916 40.0846 82.916 56.3018C82.9158 75.603 67.2839 91.2498 48 91.25C28.7159 91.25 13.0832 75.6031 13.083 56.3018C13.083 40.0847 24.1186 26.4487 39.083 22.5039V19.25H36C33.6528 19.25 31.75 17.3472 31.75 15C31.75 12.6528 33.6528 10.75 36 10.75H60ZM66.1816 41.0742C66.6375 39.2862 64.9958 37.6454 63.208 38.1025L63.0293 38.1553L43.1641 44.7832C40.1125 45.8013 37.6975 48.1537 36.5957 51.1641L36.4932 51.458L29.8691 71.3486C29.2315 73.264 31.0547 75.0852 32.9697 74.4463L52.834 67.8184L53.1279 67.7158C56.1374 66.6122 58.4885 64.1965 59.5049 61.1445L66.1289 41.2539L66.1816 41.0742Z" stroke="url(#paint0_linear_245_4346)" stroke-width="0.5" stroke-linecap="round" style="mix-blend-mode:color-burn"/>
</g>
<defs>
<filter id="filter0_d_245_4346" x="0.833008" y="0.5" width="94.333" height="105" filterUnits="userSpaceOnUse" color-interpolation-filters="sRGB">
<feFlood flood-opacity="0" result="BackgroundImageFix"/>
<feColorMatrix in="SourceAlpha" type="matrix" values="0 0 0 0 0 0 0 0 0 0 0 0 0 0 0 0 0 0 127 0" result="hardAlpha"/>
<feOffset dy="2"/>
<feGaussianBlur stdDeviation="6"/>
<feColorMatrix type="matrix" values="0 0 0 0 0 0 0 0 0 0 0 0 0 0 0 0 0 0 0.12 0"/>
<feBlend mode="plus-darker" in2="BackgroundImageFix" result="effect1_dropShadow_245_4346"/>
<feBlend mode="normal" in="SourceGraphic" in2="effect1_dropShadow_245_4346" result="shape"/>
</filter>
<linearGradient id="paint0_linear_245_4346" x1="47.9997" y1="11" x2="47.9997" y2="91.0002" gradientUnits="userSpaceOnUse">
<stop stop-color="#DFDFDF"/>
<stop offset="1" stop-color="#A9A9A9"/>
</linearGradient>
</defs>
</svg>
