<svg width="100" height="100" viewBox="0 0 100 100" fill="none" xmlns="http://www.w3.org/2000/svg">
<g filter="url(#filter0_d_245_4348)">
<path fill-rule="evenodd" clip-rule="evenodd" d="M50 85C70.4345 85 87 68.4345 87 48C87 27.5655 70.4345 11 50 11C29.5655 11 13 27.5655 13 48C13 68.4345 29.5655 85 50 85ZM53.619 69.7143V66.0952H57.2381C63.2343 66.0952 68.0952 61.2343 68.0952 55.2381C68.0952 49.2419 63.2343 44.381 57.2381 44.381H42.7619C40.7632 44.381 39.1429 42.7606 39.1429 40.7619C39.1429 38.7632 40.7632 37.1429 42.7619 37.1429H60.8571C62.8559 37.1429 64.4762 35.5226 64.4762 33.5238C64.4762 31.5251 62.8559 29.9048 60.8571 29.9048H53.619V26.2857C53.619 24.287 51.9987 22.6667 50 22.6667C48.0013 22.6667 46.381 24.287 46.381 26.2857V29.9048H42.7619C36.7657 29.9048 31.9048 34.7657 31.9048 40.7619C31.9048 46.7581 36.7657 51.619 42.7619 51.619H57.2381C59.2368 51.619 60.8571 53.2394 60.8571 55.2381C60.8571 57.2368 59.2368 58.8571 57.2381 58.8571H39.1429C37.1441 58.8571 35.5238 60.4774 35.5238 62.4762C35.5238 64.4749 37.1441 66.0952 39.1429 66.0952H46.381V69.7143C46.381 71.713 48.0013 73.3333 50 73.3333C51.9987 73.3333 53.619 71.713 53.619 69.7143Z" fill="white"/>
<path d="M50 10.75C70.5726 10.75 87.25 27.4274 87.25 48C87.25 68.5726 70.5726 85.25 50 85.25C29.4274 85.25 12.75 68.5726 12.75 48C12.75 27.4274 29.4274 10.75 50 10.75ZM50 22.917C48.1393 22.917 46.6309 24.4255 46.6309 26.2861V30.1543H42.7617C36.9037 30.1544 32.1544 34.9037 32.1543 40.7617C32.1543 46.6198 36.9036 51.369 42.7617 51.3691H57.2383C59.375 51.3692 61.1074 53.1015 61.1074 55.2383C61.1073 57.375 59.3749 59.1073 57.2383 59.1074H39.1426C37.282 59.1076 35.7734 60.616 35.7734 62.4766C35.7736 64.337 37.2822 65.8456 39.1426 65.8457H46.6309V69.7139C46.6309 71.5745 48.1393 73.083 50 73.083C51.8607 73.083 53.3691 71.5745 53.3691 69.7139V65.8457H57.2383C63.0963 65.8456 67.8456 61.0963 67.8457 55.2383C67.8457 49.3802 63.0964 44.631 57.2383 44.6309H42.7617C40.625 44.6308 38.8926 42.8985 38.8926 40.7617C38.8927 38.6251 40.6251 36.8927 42.7617 36.8926H60.8574C62.718 36.8924 64.2266 35.384 64.2266 33.5234C64.2264 31.663 62.7178 30.1544 60.8574 30.1543H53.3691V26.2861C53.3691 24.4255 51.8607 22.917 50 22.917Z" stroke="url(#paint0_linear_245_4348)" stroke-width="0.5" stroke-linecap="round" style="mix-blend-mode:color-burn"/>
</g>
<defs>
<filter id="filter0_d_245_4348" x="0.5" y="0.5" width="99" height="99" filterUnits="userSpaceOnUse" color-interpolation-filters="sRGB">
<feFlood flood-opacity="0" result="BackgroundImageFix"/>
<feColorMatrix in="SourceAlpha" type="matrix" values="0 0 0 0 0 0 0 0 0 0 0 0 0 0 0 0 0 0 127 0" result="hardAlpha"/>
<feOffset dy="2"/>
<feGaussianBlur stdDeviation="6"/>
<feColorMatrix type="matrix" values="0 0 0 0 0 0 0 0 0 0 0 0 0 0 0 0 0 0 0.12 0"/>
<feBlend mode="plus-darker" in2="BackgroundImageFix" result="effect1_dropShadow_245_4348"/>
<feBlend mode="normal" in="SourceGraphic" in2="effect1_dropShadow_245_4348" result="shape"/>
</filter>
<linearGradient id="paint0_linear_245_4348" x1="50" y1="11" x2="50" y2="85" gradientUnits="userSpaceOnUse">
<stop stop-color="#DFDFDF"/>
<stop offset="1" stop-color="#A9A9A9"/>
</linearGradient>
</defs>
</svg>
