<svg width="106" height="106" viewBox="0 0 106 106" fill="none" xmlns="http://www.w3.org/2000/svg">
<g filter="url(#filter0_d_245_4350)">
<path d="M21.5573 19.5573L15.0254 21.9325C12.3249 22.9145 12.3249 26.7338 15.0254 27.7159L21.5573 30.0911L23.9325 36.6229C24.9145 39.3235 28.7338 39.3235 29.7159 36.6229L32.0911 30.0911L38.6229 27.7159C41.3235 26.7338 41.3235 22.9145 38.6229 21.9325L32.0911 19.5573L29.7159 13.0254C28.7338 10.3249 24.9145 10.3249 23.9325 13.0254L21.5573 19.5573Z" fill="white"/>
<path d="M46.8109 40.9474L60.8837 35.83L66.0011 21.7572C66.9831 19.0566 70.8025 19.0567 71.7847 21.7572L76.9016 35.83L90.9744 40.9474C93.6753 41.9294 93.6753 45.7488 90.9744 46.7308L76.9016 51.8481L71.7847 65.9209C70.8025 68.6215 66.9831 68.6215 66.0011 65.9209L60.8837 51.8481L46.8109 46.7308C44.1103 45.7488 44.1103 41.9294 46.8109 40.9474Z" fill="white"/>
<path d="M15.0255 69.0099L25.4259 65.2279L29.2079 54.8274C30.19 52.1269 34.0092 52.1269 34.9913 54.8274L38.7733 65.2279L49.1737 69.0099C51.8743 69.9917 51.8743 73.8114 49.1737 74.793L38.7733 78.5752L34.9913 88.9758C34.0092 91.6762 30.19 91.6762 29.2079 88.9758L25.4259 78.5752L15.0255 74.793C12.3249 73.8114 12.3249 69.9917 15.0255 69.0099Z" fill="white"/>
<path d="M29.0811 54.4766C30.2897 51.8247 34.1979 51.9135 35.2266 54.7422L38.9678 65.0322L49.2588 68.7754L49.5244 68.8828C52.0909 70.0522 52.0909 73.7507 49.5244 74.9199L49.2588 75.0283L38.9668 78.7705L35.2266 89.0615C34.1978 91.89 30.2895 91.9782 29.0811 89.3262L28.9727 89.0615L25.2314 78.7705L14.9404 75.0283C12.0204 73.967 12.0205 69.837 14.9404 68.7754L25.2305 65.0322L28.9727 54.7422L29.0811 54.4766ZM65.874 21.4062C67.0827 18.7544 70.9907 18.8433 72.0195 21.6719L77.0967 35.6338L91.0596 40.7129L91.3252 40.8203C93.8919 41.9899 93.8918 45.6878 91.3252 46.8574L91.0596 46.9658L77.0967 52.043L72.0195 66.0068C70.9904 68.8352 67.0824 68.9235 65.874 66.2715L65.7666 66.0068L60.6875 52.043L46.7256 46.9658C43.8056 45.904 43.8056 41.7747 46.7256 40.7129L60.6875 35.6338L65.7666 21.6719L65.874 21.4062ZM23.8057 12.6748C25.0142 10.0228 28.9225 10.1117 29.9512 12.9404L32.2861 19.3613L38.708 21.6973L38.9736 21.8057C41.5401 22.9753 41.5401 26.6732 38.9736 27.8428L38.708 27.9512L32.2861 30.2861L29.9512 36.708C28.9225 39.5368 25.0142 39.6256 23.8057 36.9736L23.6973 36.708L21.3613 30.2861L14.9404 27.9512C12.0205 26.8893 12.0205 22.7591 14.9404 21.6973L21.3613 19.3613L23.6973 12.9404L23.8057 12.6748Z" stroke="url(#paint0_linear_245_4350)" stroke-width="0.5" stroke-linecap="round" style="mix-blend-mode:color-burn"/>
</g>
<defs>
<filter id="filter0_d_245_4350" x="0.5" y="0.5" width="105" height="105.001" filterUnits="userSpaceOnUse" color-interpolation-filters="sRGB">
<feFlood flood-opacity="0" result="BackgroundImageFix"/>
<feColorMatrix in="SourceAlpha" type="matrix" values="0 0 0 0 0 0 0 0 0 0 0 0 0 0 0 0 0 0 127 0" result="hardAlpha"/>
<feOffset dy="2"/>
<feGaussianBlur stdDeviation="6"/>
<feColorMatrix type="matrix" values="0 0 0 0 0 0 0 0 0 0 0 0 0 0 0 0 0 0 0.12 0"/>
<feBlend mode="plus-darker" in2="BackgroundImageFix" result="effect1_dropShadow_245_4350"/>
<feBlend mode="normal" in="SourceGraphic" in2="effect1_dropShadow_245_4350" result="shape"/>
</filter>
<linearGradient id="paint0_linear_245_4350" x1="53" y1="11" x2="53" y2="91.0011" gradientUnits="userSpaceOnUse">
<stop stop-color="#DFDFDF"/>
<stop offset="1" stop-color="#A9A9A9"/>
</linearGradient>
</defs>
</svg>
