<svg width="102" height="96" viewBox="0 0 102 96" fill="none" xmlns="http://www.w3.org/2000/svg">
<g filter="url(#filter0_d_245_4352)">
<path fill-rule="evenodd" clip-rule="evenodd" d="M45.5367 76.9834C26.1333 59.7519 13.3232 48.3872 13.3232 34.4396C13.3232 23.0749 22.441 14.1455 34.0453 14.1455C40.601 14.1455 46.893 17.1343 50.9997 21.8573C55.1065 17.1343 61.3985 14.1455 67.9542 14.1455C79.5585 14.1455 88.6762 23.0749 88.6762 34.4396C88.6762 48.3872 75.8662 59.7519 56.4628 77.0203C53.3466 79.7775 48.6425 79.7524 45.5367 76.9834Z" fill="white"/>
<path d="M67.9541 13.8955C79.6915 13.8955 88.9257 22.9319 88.9258 34.4395C88.9258 41.497 85.6831 47.8808 80.0381 54.6445C74.3956 61.4052 66.3254 68.5774 56.6289 77.207V77.208C53.4171 80.0498 48.5698 80.0226 45.3701 77.1699V77.1689C35.6741 68.5582 27.6043 61.3964 21.9619 54.6406C16.3167 47.8813 13.0732 41.4971 13.0732 34.4395C13.0733 22.932 22.3077 13.8957 34.0449 13.8955C40.5757 13.8955 46.8442 16.8287 51 21.4824C55.1558 16.8289 61.4234 13.8955 67.9541 13.8955Z" stroke="url(#paint0_linear_245_4352)" stroke-width="0.5" stroke-linecap="round" style="mix-blend-mode:color-burn"/>
</g>
<defs>
<filter id="filter0_d_245_4352" x="0.823242" y="3.64551" width="100.353" height="89.9287" filterUnits="userSpaceOnUse" color-interpolation-filters="sRGB">
<feFlood flood-opacity="0" result="BackgroundImageFix"/>
<feColorMatrix in="SourceAlpha" type="matrix" values="0 0 0 0 0 0 0 0 0 0 0 0 0 0 0 0 0 0 127 0" result="hardAlpha"/>
<feOffset dy="2"/>
<feGaussianBlur stdDeviation="6"/>
<feColorMatrix type="matrix" values="0 0 0 0 0 0 0 0 0 0 0 0 0 0 0 0 0 0 0.12 0"/>
<feBlend mode="plus-darker" in2="BackgroundImageFix" result="effect1_dropShadow_245_4352"/>
<feBlend mode="normal" in="SourceGraphic" in2="effect1_dropShadow_245_4352" result="shape"/>
</filter>
<linearGradient id="paint0_linear_245_4352" x1="50.9997" y1="14.1455" x2="50.9997" y2="79.0742" gradientUnits="userSpaceOnUse">
<stop stop-color="#DFDFDF"/>
<stop offset="1" stop-color="#A9A9A9"/>
</linearGradient>
</defs>
</svg>
