<svg width="98" height="97" viewBox="0 0 98 97" fill="none" xmlns="http://www.w3.org/2000/svg">
<g filter="url(#filter0_d_245_4354)">
<path d="M32.12 13.9547C34.2868 9.96031 39.8792 9.85992 42.1914 13.7719C45.6672 19.6524 50.0586 27.3525 52.6337 32.8938C48.5608 40.4356 40.7588 55.0803 40.7588 63.2259C40.7588 69.4975 43.0426 75.3416 46.939 79.8466C43.9083 81.2288 40.5398 81.9997 36.991 81.9997C23.7411 81.9997 13 71.264 13 58.0208C13 50.3173 25.1079 26.8813 32.12 13.9547Z" fill="white"/>
<path d="M68.7595 28.7779C70.6102 29.6438 71.8116 31.97 74.2142 36.6225C79.3254 46.5199 85.0001 58.5592 85 63.2258C85 73.5943 76.5904 81.9996 66.2167 81.9996C55.8428 81.9996 47.4332 73.5943 47.4332 63.2258C47.4332 58.5594 53.108 46.52 58.2192 36.6226C60.6219 31.9701 61.8232 29.6438 63.6739 28.7779C65.2213 28.0538 67.2121 28.0538 68.7595 28.7779Z" fill="white"/>
<path d="M32.1221 13.457C34.5207 9.6677 40.0704 9.69318 42.4062 13.6445L43.748 15.9277C46.9534 21.4186 50.602 27.9286 52.8604 32.7881L52.9131 32.9023L52.8535 33.0127C50.8171 36.7836 47.8525 42.3221 45.3975 47.9336C42.9375 53.5566 41.0089 59.2107 41.0088 63.2256C41.0088 69.4357 43.2701 75.222 47.1279 79.6826L47.3467 79.9355L47.043 80.0742C43.9804 81.4709 40.5765 82.25 36.9912 82.25C23.6034 82.25 12.75 71.4019 12.75 58.0205C12.7501 56.0472 13.5208 53.1019 14.7656 49.6191C16.0138 46.1269 17.7499 42.0638 19.7031 37.8418C23.6098 29.3971 28.3934 20.301 31.9004 13.8359L32.1221 13.457ZM63.876 28.4189C65.4394 27.7993 67.3516 27.8436 68.8652 28.5518L69.0488 28.6426C69.9527 29.1207 70.7003 29.9379 71.4893 31.1436C72.3299 32.4282 73.2378 34.1866 74.4365 36.5078L75.4004 38.3877C77.6581 42.8214 79.9505 47.5544 81.7539 51.7881C82.7843 54.2071 83.6563 56.4669 84.2715 58.417C84.8848 60.3612 85.25 62.0189 85.25 63.2256L85.2441 63.7168C84.9836 73.9965 76.5641 82.2499 66.2168 82.25C55.705 82.25 47.1836 73.7322 47.1836 63.2256C47.1836 62.0189 47.5478 60.3612 48.1611 58.417C48.7763 56.4668 49.6492 54.2072 50.6797 51.7881C52.7408 46.9495 55.4403 41.4588 57.9971 36.5078L58.8447 34.8711C59.6452 33.3369 60.3138 32.1071 60.9443 31.1436C61.786 29.8574 62.5809 29.0138 63.5684 28.5518L63.876 28.4189Z" stroke="url(#paint0_linear_245_4354)" stroke-width="0.5" stroke-linecap="round" style="mix-blend-mode:color-burn"/>
</g>
<defs>
<filter id="filter0_d_245_4354" x="0.5" y="0.397461" width="97" height="96.1023" filterUnits="userSpaceOnUse" color-interpolation-filters="sRGB">
<feFlood flood-opacity="0" result="BackgroundImageFix"/>
<feColorMatrix in="SourceAlpha" type="matrix" values="0 0 0 0 0 0 0 0 0 0 0 0 0 0 0 0 0 0 127 0" result="hardAlpha"/>
<feOffset dy="2"/>
<feGaussianBlur stdDeviation="6"/>
<feColorMatrix type="matrix" values="0 0 0 0 0 0 0 0 0 0 0 0 0 0 0 0 0 0 0.12 0"/>
<feBlend mode="plus-darker" in2="BackgroundImageFix" result="effect1_dropShadow_245_4354"/>
<feBlend mode="normal" in="SourceGraphic" in2="effect1_dropShadow_245_4354" result="shape"/>
</filter>
<linearGradient id="paint0_linear_245_4354" x1="49" y1="10.8975" x2="49" y2="81.9997" gradientUnits="userSpaceOnUse">
<stop stop-color="#DFDFDF"/>
<stop offset="1" stop-color="#A9A9A9"/>
</linearGradient>
</defs>
</svg>
