<svg width="96" height="114" viewBox="0 0 96 114" fill="none" xmlns="http://www.w3.org/2000/svg">
<g filter="url(#filter0_d_245_4356)">
<path d="M18.2853 52.4062C13.7614 57.3329 16.9215 65.3059 23.5922 65.7956L38.2041 66.8682L34.3711 94.0108C33.8219 97.8999 38.6216 100.169 41.2781 97.2756L77.715 57.5944C82.2389 52.6677 79.0788 44.6948 72.4081 44.2051L57.7962 43.1325L61.6292 15.9899C62.1785 12.1007 57.3788 9.83205 54.7222 12.7251L18.2853 52.4062Z" fill="white"/>
<path d="M54.6719 12.416C57.4732 9.60324 62.2952 11.8822 61.9004 15.832L61.877 16.0244L58.0811 42.9023L72.4268 43.9561L72.7461 43.9854C79.2998 44.7056 82.393 52.509 78.1123 57.5234L77.8994 57.7637L41.4619 97.4443C38.6394 100.518 33.5405 98.1078 34.124 93.9756L37.9189 67.0977L23.5742 66.0449C16.695 65.5399 13.4363 57.318 18.1016 52.2373L54.5381 12.5557L54.6719 12.416Z" stroke="url(#paint0_linear_245_4356)" stroke-width="0.5" stroke-linecap="round" style="mix-blend-mode:color-burn"/>
</g>
<defs>
<filter id="filter0_d_245_4356" x="3.66504" y="0.915283" width="88.6699" height="112.17" filterUnits="userSpaceOnUse" color-interpolation-filters="sRGB">
<feFlood flood-opacity="0" result="BackgroundImageFix"/>
<feColorMatrix in="SourceAlpha" type="matrix" values="0 0 0 0 0 0 0 0 0 0 0 0 0 0 0 0 0 0 127 0" result="hardAlpha"/>
<feOffset dy="2"/>
<feGaussianBlur stdDeviation="6"/>
<feColorMatrix type="matrix" values="0 0 0 0 0 0 0 0 0 0 0 0 0 0 0 0 0 0 0.12 0"/>
<feBlend mode="plus-darker" in2="BackgroundImageFix" result="effect1_dropShadow_245_4356"/>
<feBlend mode="normal" in="SourceGraphic" in2="effect1_dropShadow_245_4356" result="shape"/>
</filter>
<linearGradient id="paint0_linear_245_4356" x1="48.0002" y1="11.417" x2="48.0002" y2="98.5837" gradientUnits="userSpaceOnUse">
<stop stop-color="#DFDFDF"/>
<stop offset="1" stop-color="#A9A9A9"/>
</linearGradient>
</defs>
</svg>
