<svg width="100" height="100" viewBox="0 0 100 100" fill="none" xmlns="http://www.w3.org/2000/svg">
<g filter="url(#filter0_d_245_4358)">
<path fill-rule="evenodd" clip-rule="evenodd" d="M50 85C29.5655 85 13 68.4345 13 48C13 27.5655 29.5655 11 50 11C70.4345 11 87 27.5655 87 48C87 68.4345 70.4345 85 50 85ZM35.5042 56.3831C36.0112 57.9878 36.7814 59.4922 37.7789 60.8391C40.6252 64.6827 45.123 67 50 67C54.877 67 59.3748 64.6827 62.2211 60.8391C63.2186 59.4922 63.9888 57.9878 64.4958 56.3831C65.1281 54.3819 64.0183 52.2471 62.0172 51.6148C60.016 50.9826 57.8812 52.0923 57.2489 54.0935C56.9965 54.8922 56.6124 55.6425 56.1135 56.3162C54.6856 58.2444 52.4426 59.4 50 59.4C47.5574 59.4 45.3144 58.2444 43.8865 56.3162C43.3876 55.6425 43.0035 54.8922 42.7511 54.0935C42.1188 52.0923 39.984 50.9826 37.9828 51.6148C35.9817 52.2471 34.8719 54.3819 35.5042 56.3831ZM61.4 33.75C59.3013 33.75 57.6 35.4513 57.6 37.55V41.35C57.6 43.4487 59.3013 45.15 61.4 45.15C63.4987 45.15 65.2 43.4487 65.2 41.35V37.55C65.2 35.4513 63.4987 33.75 61.4 33.75ZM38.6 33.75C36.5013 33.75 34.8 35.4513 34.8 37.55V41.35C34.8 43.4487 36.5013 45.15 38.6 45.15C40.6987 45.15 42.4 43.4487 42.4 41.35V37.55C42.4 35.4513 40.6987 33.75 38.6 33.75Z" fill="white"/>
<path d="M50 10.75C70.5726 10.75 87.25 27.4274 87.25 48C87.25 68.5726 70.5726 85.25 50 85.25C29.4274 85.25 12.75 68.5726 12.75 48C12.75 27.4274 29.4274 10.75 50 10.75ZM61.9414 51.8535C60.1304 51.2815 58.2026 52.2363 57.5469 53.9961L57.4873 54.1689C57.2591 54.8911 56.9266 55.5746 56.502 56.2002L56.3145 56.4648C54.84 58.4559 52.5228 59.6504 50 59.6504C47.6349 59.6504 45.4504 58.6007 43.9717 56.8291L43.6855 56.4648C43.2347 55.8561 42.8749 55.1864 42.6172 54.4756L42.5127 54.1689C41.9221 52.2995 39.928 51.2631 38.0586 51.8535C36.1892 52.4442 35.1517 54.4382 35.7422 56.3076L35.9414 56.8945C36.4338 58.2532 37.121 59.5311 37.9795 60.6904L38.2471 61.04C41.0565 64.611 45.3531 66.75 50 66.75C54.7968 66.75 59.2208 64.4711 62.0205 60.6904L62.3779 60.1865C63.187 58.9942 63.8215 57.6884 64.2578 56.3076L64.3076 56.1318C64.7819 54.3147 63.7524 52.4257 61.9414 51.8535ZM38.5996 34C36.6392 34.0002 35.0499 35.5894 35.0498 37.5498V41.3496C35.0498 43.3101 36.6392 44.9002 38.5996 44.9004C40.5602 44.9004 42.1504 43.3102 42.1504 41.3496V37.5498C42.1503 35.5893 40.5602 34 38.5996 34ZM61.4004 34C59.4398 34 57.8497 35.5893 57.8496 37.5498V41.3496C57.8496 43.3102 59.4398 44.9004 61.4004 44.9004C63.3608 44.9002 64.9502 43.3101 64.9502 41.3496V37.5498C64.9501 35.5894 63.3608 34.0002 61.4004 34Z" stroke="url(#paint0_linear_245_4358)" stroke-width="0.5" stroke-linecap="round" style="mix-blend-mode:color-burn"/>
</g>
<defs>
<filter id="filter0_d_245_4358" x="0.5" y="0.5" width="99" height="99" filterUnits="userSpaceOnUse" color-interpolation-filters="sRGB">
<feFlood flood-opacity="0" result="BackgroundImageFix"/>
<feColorMatrix in="SourceAlpha" type="matrix" values="0 0 0 0 0 0 0 0 0 0 0 0 0 0 0 0 0 0 127 0" result="hardAlpha"/>
<feOffset dy="2"/>
<feGaussianBlur stdDeviation="6"/>
<feColorMatrix type="matrix" values="0 0 0 0 0 0 0 0 0 0 0 0 0 0 0 0 0 0 0.12 0"/>
<feBlend mode="plus-darker" in2="BackgroundImageFix" result="effect1_dropShadow_245_4358"/>
<feBlend mode="normal" in="SourceGraphic" in2="effect1_dropShadow_245_4358" result="shape"/>
</filter>
<linearGradient id="paint0_linear_245_4358" x1="50" y1="11" x2="50" y2="85" gradientUnits="userSpaceOnUse">
<stop stop-color="#DFDFDF"/>
<stop offset="1" stop-color="#A9A9A9"/>
</linearGradient>
</defs>
</svg>
