<svg width="98" height="97" viewBox="0 0 98 97" fill="none" xmlns="http://www.w3.org/2000/svg">
<g filter="url(#filter0_d_245_4360)">
<path fill-rule="evenodd" clip-rule="evenodd" d="M49.0001 73L43.7429 75.7639C36.3672 79.6415 32.6794 81.5803 29.9526 81.0746C27.5801 80.6345 25.533 79.1472 24.3814 77.0268C23.0578 74.5897 23.7621 70.4833 25.1707 62.2704L26.1747 56.4164L21.9215 52.2706C15.9545 46.4542 12.971 43.546 12.6094 40.7963C12.2947 38.404 13.0767 35.9975 14.7374 34.247C16.6462 32.2351 20.7693 31.6359 29.0155 30.4377L34.8933 29.5836L37.5219 24.2574C41.2097 16.7851 43.0536 13.0489 45.5569 11.8553C47.7349 10.8168 50.2653 10.8168 52.4433 11.8553C54.9466 13.0489 56.7905 16.7851 60.4783 24.2574L63.1069 29.5836L68.9847 30.4377C77.2309 31.6359 81.354 32.2351 83.2628 34.247C84.9235 35.9975 85.7055 38.404 85.3908 40.7963C85.0292 43.546 82.0457 46.4542 76.0787 52.2706L71.8255 56.4164L72.8295 62.2704C74.2381 70.4833 74.9424 74.5897 73.6188 77.0268C72.4672 79.1472 70.4201 80.6345 68.0476 81.0746C65.3208 81.5803 61.633 79.6415 54.2573 75.7639L49.0001 73Z" fill="white"/>
<path d="M45.875 11.4417C48.0205 10.5633 50.4452 10.6261 52.5508 11.6301L52.7959 11.7551C54.0114 12.4226 55.0668 13.6721 56.2295 15.5715C57.4717 17.6008 58.8605 20.4151 60.7021 24.1467L63.2725 29.3547L69.0205 30.1907L71.9229 30.6155C74.6422 31.0208 76.8232 31.3784 78.5586 31.7942C80.8683 32.3476 82.4376 33.0134 83.4443 34.0745L83.7549 34.4211C85.1535 36.0723 85.8475 38.2085 85.6865 40.3665L85.6387 40.8293C85.4478 42.2795 84.5697 43.7409 83.0264 45.5461C81.8668 46.9024 80.313 48.4736 78.3516 50.3997L76.2529 52.4495L72.0938 56.5022L73.0762 62.2278L73.5684 65.1194C74.0233 67.831 74.3572 70.0161 74.498 71.7952C74.6738 74.0151 74.5539 75.6463 73.9629 76.9006L73.8389 77.1458C72.7255 79.1957 70.8001 80.6725 68.5479 81.2229L68.0928 81.3206C66.6546 81.5871 64.9936 81.2041 62.7998 80.2942C61.1515 79.6105 59.1773 78.6173 56.7393 77.3469L54.1406 75.9856L49 73.2815L43.8594 75.9856C40.176 77.9221 37.398 79.3826 35.2002 80.2942C33.1435 81.1472 31.5552 81.5368 30.1797 81.3625L29.9072 81.3206C27.6135 80.8951 25.615 79.52 24.3955 77.5481L24.1621 77.1458C23.4641 75.8604 23.3145 74.1628 23.502 71.7952C23.6898 69.4232 24.2204 66.3293 24.9238 62.2278L25.9062 56.5032L21.7471 52.4495C18.7673 49.5449 16.5197 47.3546 14.9736 45.5461C13.5265 43.8534 12.6645 42.4631 12.4053 41.1008L12.3613 40.8293C12.0368 38.3623 12.843 35.8796 14.5557 34.0745L14.751 33.8801C15.7613 32.9305 17.276 32.313 19.4414 31.7942C21.7553 31.2399 24.8614 30.7891 28.9795 30.1907L34.7266 29.3547L37.2979 24.1467L38.5986 21.5178C39.8244 19.0569 40.8388 17.0935 41.7705 15.5715C43.0105 13.5458 44.129 12.2598 45.4492 11.6301L45.875 11.4417Z" stroke="url(#paint0_linear_245_4360)" stroke-width="0.5" stroke-linecap="round" style="mix-blend-mode:color-burn"/>
</g>
<defs>
<filter id="filter0_d_245_4360" x="0.0410156" y="0.576416" width="97.918" height="95.0771" filterUnits="userSpaceOnUse" color-interpolation-filters="sRGB">
<feFlood flood-opacity="0" result="BackgroundImageFix"/>
<feColorMatrix in="SourceAlpha" type="matrix" values="0 0 0 0 0 0 0 0 0 0 0 0 0 0 0 0 0 0 127 0" result="hardAlpha"/>
<feOffset dy="2"/>
<feGaussianBlur stdDeviation="6"/>
<feColorMatrix type="matrix" values="0 0 0 0 0 0 0 0 0 0 0 0 0 0 0 0 0 0 0.12 0"/>
<feBlend mode="plus-darker" in2="BackgroundImageFix" result="effect1_dropShadow_245_4360"/>
<feBlend mode="normal" in="SourceGraphic" in2="effect1_dropShadow_245_4360" result="shape"/>
</filter>
<linearGradient id="paint0_linear_245_4360" x1="49.0001" y1="11.0764" x2="49.0001" y2="81.1536" gradientUnits="userSpaceOnUse">
<stop stop-color="#DFDFDF"/>
<stop offset="1" stop-color="#A9A9A9"/>
</linearGradient>
</defs>
</svg>
