<svg width="102" height="100" viewBox="0 0 102 100" fill="none" xmlns="http://www.w3.org/2000/svg">
<g filter="url(#filter0_d_245_4362)">
<path fill-rule="evenodd" clip-rule="evenodd" d="M50.9998 10.583C42.0309 10.583 34.6289 17.2918 33.5383 25.9649C32.4731 25.7636 31.3741 25.6583 30.2504 25.6583C20.5302 25.6583 12.6504 33.5381 12.6504 43.2583C12.6504 50.2935 16.7781 56.3646 22.7439 59.1818C21.362 61.6944 20.5759 64.5809 20.5759 67.651C20.5759 77.3712 28.4557 85.251 38.1759 85.251C43.2318 85.251 47.7897 83.1192 50.9999 79.7054C54.2101 83.1192 58.768 85.251 63.8239 85.251C73.5441 85.251 81.4239 77.3712 81.4239 67.651C81.4239 64.5809 80.6378 61.6944 79.2559 59.1818C85.2215 56.3645 89.3492 50.2935 89.3492 43.2584C89.3492 33.5382 81.4694 25.6584 71.7492 25.6584C70.6255 25.6584 69.5265 25.7637 68.4614 25.965C67.3708 17.2918 59.9688 10.583 50.9998 10.583ZM50.9998 39.9438C56.5539 39.9438 61.0564 44.4463 61.0564 50.0004C61.0564 55.5546 56.5539 60.0571 50.9998 60.0571C45.4456 60.0571 40.9431 55.5546 40.9431 50.0004C40.9431 44.4463 45.4456 39.9438 50.9998 39.9438Z" fill="white"/>
<path d="M51 10.333C60.0062 10.3331 67.4524 17.0032 68.6729 25.6729C69.6724 25.4992 70.7002 25.4082 71.749 25.4082C81.6073 25.4082 89.5996 33.4005 89.5996 43.2588C89.5995 50.3012 85.5193 56.3878 79.5967 59.292C80.9213 61.7863 81.6738 64.6311 81.6738 67.6514C81.6736 77.5094 73.6822 85.5008 63.8242 85.501C58.7907 85.501 54.2437 83.4167 50.999 80.0654C47.7544 83.4162 43.2089 85.501 38.1758 85.501C28.3177 85.5009 20.3264 77.5094 20.3262 67.6514C20.3262 64.6312 21.0779 61.7862 22.4023 59.292C16.4799 56.3877 12.4006 50.3009 12.4004 43.2588C12.4004 33.4006 20.3919 25.4084 30.25 25.4082C31.2984 25.4082 32.3261 25.4994 33.3252 25.6729C34.5455 17.003 41.9936 10.333 51 10.333ZM51 40.1934C45.5841 40.1934 41.1936 44.5841 41.1934 50C41.1934 55.4161 45.5839 59.8066 51 59.8066C56.416 59.8065 60.8066 55.416 60.8066 50C60.8064 44.5842 56.4158 40.1935 51 40.1934Z" stroke="url(#paint0_linear_245_4362)" stroke-width="0.5" stroke-linecap="round" style="mix-blend-mode:color-burn"/>
</g>
<defs>
<filter id="filter0_d_245_4362" x="0.150391" y="0.0830078" width="101.699" height="99.668" filterUnits="userSpaceOnUse" color-interpolation-filters="sRGB">
<feFlood flood-opacity="0" result="BackgroundImageFix"/>
<feColorMatrix in="SourceAlpha" type="matrix" values="0 0 0 0 0 0 0 0 0 0 0 0 0 0 0 0 0 0 127 0" result="hardAlpha"/>
<feOffset dy="2"/>
<feGaussianBlur stdDeviation="6"/>
<feColorMatrix type="matrix" values="0 0 0 0 0 0 0 0 0 0 0 0 0 0 0 0 0 0 0.12 0"/>
<feBlend mode="plus-darker" in2="BackgroundImageFix" result="effect1_dropShadow_245_4362"/>
<feBlend mode="normal" in="SourceGraphic" in2="effect1_dropShadow_245_4362" result="shape"/>
</filter>
<linearGradient id="paint0_linear_245_4362" x1="50.9998" y1="10.583" x2="50.9998" y2="85.251" gradientUnits="userSpaceOnUse">
<stop stop-color="#DFDFDF"/>
<stop offset="1" stop-color="#A9A9A9"/>
</linearGradient>
</defs>
</svg>
