<svg width="110" height="106" viewBox="0 0 110 106" fill="none" xmlns="http://www.w3.org/2000/svg">
<g filter="url(#filter0_d_245_4364)">
<path fill-rule="evenodd" clip-rule="evenodd" d="M38.4737 11.0526C38.4049 11.0526 38.3313 11.0522 38.2534 11.0518C37.5078 11.0477 36.3717 11.0414 35.3262 11.3693C33.4667 11.9526 31.9352 13.3191 31.1229 15.0664L21.5833 15.0664C20.8799 15.0662 20.1101 15.066 19.4382 15.1276C18.656 15.1993 17.6946 15.3743 16.7114 15.911C15.3853 16.6348 14.2668 17.8645 13.6715 19.2531C12.9551 20.9244 13.1377 22.6865 13.2522 23.791C13.2633 23.8986 13.2739 23.9999 13.2828 24.0943C15.0194 42.3853 26.3108 57.2383 43.6479 61.7705C45.2953 63.5991 47.0574 65.1653 48.9085 66.4837C49.8241 67.1358 50.8066 67.5929 51.8034 67.8914C51.7797 68.1284 51.7533 68.3702 51.7239 68.6154C51.4329 71.0439 50.8966 73.34 50.0973 74.8961C48.4606 75.003 46.7774 75.2103 45.1841 75.6121C41.8106 76.4629 38.3624 78.3127 36.64 82.3158L36.6059 82.3947C36.4474 82.7613 36.203 83.3267 36.0663 83.9375C35.8908 84.7217 35.9033 85.4666 36.0497 86.2412C36.2108 87.0934 36.6241 87.8574 36.9597 88.3671C37.2953 88.8769 37.8338 89.5585 38.5529 90.0433C40.077 91.0708 41.724 91.0609 42.9362 91.0537H42.9378C43.0353 91.0531 43.1299 91.0526 43.2214 91.0526H66.7783C66.8703 91.0526 66.9655 91.0531 67.0635 91.0537C68.2756 91.0609 69.9226 91.0708 71.4468 90.0433C72.1659 89.5585 72.7043 88.8769 73.0399 88.3671C73.3755 87.8574 73.7889 87.0934 73.9499 86.2412C74.0963 85.4666 74.1088 84.7217 73.9333 83.9375C73.7967 83.3266 73.5522 82.7613 73.3937 82.3946L73.3596 82.3158C71.6372 78.3127 68.189 76.4629 64.8155 75.6121C63.2223 75.2103 61.539 75.003 59.9023 74.8961C59.103 73.34 58.5668 71.0439 58.2757 68.6154C58.2463 68.3702 58.22 68.1285 58.1963 67.8915C59.1931 67.5929 60.1756 67.1358 61.0912 66.4837C62.9528 65.1579 64.7244 63.5814 66.3798 61.7395C83.6917 57.1821 94.983 42.4067 96.7176 24.0935C96.7265 23.9991 96.737 23.8978 96.7481 23.7902C96.8624 22.6854 97.0447 20.9231 96.3281 19.2522C95.7326 17.8638 94.6143 16.6345 93.2882 15.9108C92.305 15.3742 91.3436 15.1992 90.5615 15.1276C89.8897 15.066 89.1199 15.0662 88.4165 15.0664L78.8769 15.0664C78.0646 13.3191 76.5331 11.9526 74.6735 11.3693C73.6281 11.0414 72.492 11.0477 71.7463 11.0518C71.6685 11.0522 71.5949 11.0526 71.5261 11.0526H38.4737ZM21.7008 23.0664H30.6851C31.3232 33.9954 33.2897 42.8454 36.2677 49.8746C27.8221 44.3406 22.3413 34.8645 21.247 23.3382L21.2213 23.0669C21.366 23.0665 21.5244 23.0664 21.7008 23.0664ZM73.7463 49.8408C76.7164 42.817 78.6775 33.978 79.3146 23.0664H88.2989C88.4756 23.0664 88.6342 23.0665 88.7789 23.0669L88.7532 23.3392C87.6613 34.8675 82.1881 44.312 73.7463 49.8408Z" fill="white"/>
<path d="M72.374 10.8037C73.0679 10.8157 73.9321 10.875 74.748 11.1309L75.1055 11.2539C76.8206 11.8953 78.2298 13.188 79.0322 14.8164H88.416L89.5059 14.8242C89.8745 14.8319 90.2413 14.8475 90.584 14.8789L90.8936 14.9121C91.6351 15.0034 92.512 15.2023 93.4082 15.6914L93.6631 15.8379C94.9256 16.6012 95.9787 17.8035 96.5576 19.1533L96.6865 19.4805C97.2001 20.8989 97.1366 22.3406 97.041 23.3711L96.9971 23.8154L96.9668 24.1172C95.2259 42.4963 83.8997 57.3531 66.5137 61.9619C65.0696 63.5617 63.5386 64.9631 61.9355 66.1738L61.2363 66.6875C60.3579 67.3131 59.4192 67.7606 58.4668 68.0664C58.4848 68.2374 58.5034 68.411 58.5244 68.5859L58.6436 69.4844C58.9407 71.4936 59.4143 73.3364 60.0635 74.6562C61.6638 74.7664 63.3112 74.9752 64.877 75.3701L65.5176 75.5439C68.7262 76.4757 71.9344 78.3719 73.5889 82.2168L73.623 82.2959L73.7559 82.6084C73.9005 82.957 74.0709 83.4053 74.1777 83.8828L74.2373 84.1895C74.3389 84.7989 74.3333 85.3889 74.2461 85.9873L74.1953 86.2881C74.0255 87.1859 73.5934 87.9818 73.249 88.5049C72.9476 88.9627 72.481 89.5651 71.8613 90.0508L71.5869 90.251C70.1911 91.1919 68.6986 91.2977 67.5381 91.3047L67.0615 91.3037C66.9636 91.3031 66.8693 91.3027 66.7783 91.3027H43.2217C43.1311 91.3027 43.037 91.3031 42.9395 91.3037H42.9375L42.4619 91.3047C41.3843 91.2982 40.0208 91.2059 38.7139 90.4395L38.4131 90.251C37.7502 89.8041 37.2389 89.2027 36.8906 88.709L36.751 88.5049C36.4495 88.047 36.0801 87.3803 35.8789 86.6191L35.8037 86.2881C35.652 85.4853 35.6383 84.7052 35.8223 83.8828L35.8809 83.6465C36.0269 83.1033 36.2378 82.6155 36.376 82.2959L36.4102 82.2168L36.5811 81.8389C38.3959 77.9989 41.8146 76.2045 45.123 75.3701L45.7314 75.2266C47.1118 74.9231 48.5414 74.7522 49.9355 74.6562C50.6805 73.1418 51.1936 70.9386 51.4756 68.5859L51.5322 68.0664C50.7074 67.8015 49.8929 67.4304 49.1191 66.9287L48.7637 66.6875C46.9162 65.3717 45.1576 63.8111 43.5127 61.9932C26.3739 57.4805 15.1327 42.9384 13.123 24.9766L13.0342 24.1182L13.0039 23.8164C12.8899 22.7167 12.6963 20.8925 13.4414 19.1543L13.5635 18.8867C14.2043 17.5575 15.3024 16.3952 16.5918 15.6914L16.9746 15.499C17.8626 15.0892 18.7145 14.9431 19.415 14.8789L19.9443 14.8428C20.4863 14.8164 21.0575 14.8163 21.583 14.8164H30.9678C31.8252 13.0764 33.3753 11.7194 35.251 11.1309L35.4561 11.0703C36.4843 10.79 37.5599 10.7979 38.2549 10.8018L38.4736 10.8027H71.5264C71.5943 10.8027 71.6672 10.8022 71.7451 10.8018L72.374 10.8037ZM21.4961 23.3164C22.5545 34.459 27.7338 43.6557 35.7178 49.2002C32.9263 42.3183 31.0801 33.7642 30.4502 23.3164H21.4961ZM79.5498 23.3164C78.9208 33.7481 77.0782 42.2915 74.2939 49.168C82.2754 43.6298 87.448 34.4621 88.5039 23.3164H79.5498Z" stroke="url(#paint0_linear_245_4364)" stroke-width="0.5" stroke-linecap="round" style="mix-blend-mode:color-burn"/>
</g>
<defs>
<filter id="filter0_d_245_4364" x="0.643555" y="0.550781" width="108.713" height="105.004" filterUnits="userSpaceOnUse" color-interpolation-filters="sRGB">
<feFlood flood-opacity="0" result="BackgroundImageFix"/>
<feColorMatrix in="SourceAlpha" type="matrix" values="0 0 0 0 0 0 0 0 0 0 0 0 0 0 0 0 0 0 127 0" result="hardAlpha"/>
<feOffset dy="2"/>
<feGaussianBlur stdDeviation="6"/>
<feColorMatrix type="matrix" values="0 0 0 0 0 0 0 0 0 0 0 0 0 0 0 0 0 0 0.12 0"/>
<feBlend mode="plus-darker" in2="BackgroundImageFix" result="effect1_dropShadow_245_4364"/>
<feBlend mode="normal" in="SourceGraphic" in2="effect1_dropShadow_245_4364" result="shape"/>
</filter>
<linearGradient id="paint0_linear_245_4364" x1="55" y1="11.0508" x2="55" y2="91.055" gradientUnits="userSpaceOnUse">
<stop stop-color="#DFDFDF"/>
<stop offset="1" stop-color="#A9A9A9"/>
</linearGradient>
</defs>
</svg>
