<svg width="24" height="24" viewBox="0 0 24 24" fill="none" xmlns="http://www.w3.org/2000/svg">
<path d="M2.625 17.25C2.32663 17.25 2.04048 17.1315 1.8295 16.9205C1.61853 16.7095 1.5 16.4234 1.5 16.125V4.5C1.5 4.10218 1.65804 3.72064 1.93934 3.43934C2.22064 3.15804 2.60218 3 3 3H11.25C11.6478 3 12.0294 3.15804 12.3107 3.43934C12.592 3.72064 12.75 4.10218 12.75 4.5V5.25H15.75C16.1478 5.25 16.5294 5.40804 16.8107 5.68934C17.092 5.97064 17.25 6.35218 17.25 6.75V8.25H21C21.3978 8.25 21.7794 8.40804 22.0607 8.68934C22.342 8.97064 22.5 9.35218 22.5 9.75V21H12.375C12.2755 21 12.1802 21.0395 12.1098 21.1098C12.0395 21.1802 12 21.2755 12 21.375C12 21.4745 12.0395 21.5698 12.1098 21.6402C12.1802 21.7105 12.2755 21.75 12.375 21.75H22.4363C22.3587 21.9694 22.2149 22.1594 22.0249 22.2937C21.8348 22.4281 21.6077 22.5001 21.375 22.5H12.375C12.0766 22.5 11.7905 22.3815 11.5795 22.1705C11.3685 21.9595 11.25 21.6734 11.25 21.375V19.5H7.125C6.82663 19.5 6.54048 19.3815 6.3295 19.1705C6.11853 18.9595 6 18.6734 6 18.375V17.25H2.625ZM12.6863 16.5C12.6087 16.7194 12.4649 16.9094 12.2749 17.0437C12.0848 17.1781 11.8577 17.2501 11.625 17.25H16.5V6.75C16.5 6.55109 16.421 6.36032 16.2803 6.21967C16.1397 6.07902 15.9489 6 15.75 6H12.75V15.75H2.625C2.52554 15.75 2.43016 15.7895 2.35984 15.8598C2.28951 15.9302 2.25 16.0255 2.25 16.125C2.25 16.2245 2.28951 16.3198 2.35984 16.3902C2.43016 16.4605 2.52554 16.5 2.625 16.5H12.6863ZM6.75 17.25H7.125C6.993 17.2505 6.868 17.2717 6.75 17.3137V17.25ZM12 15V4.5C12 4.30109 11.921 4.11032 11.7803 3.96967C11.6397 3.82902 11.4489 3.75 11.25 3.75H3.75V15H12ZM12 19.5V20.3137C12.118 20.2717 12.243 20.2505 12.375 20.25H21.75V9.75C21.75 9.55109 21.671 9.36032 21.5303 9.21967C21.3897 9.07902 21.1989 9 21 9H17.25V18H7.125C7.02554 18 6.93016 18.0395 6.85983 18.1098C6.78951 18.1802 6.75 18.2755 6.75 18.375C6.75 18.4745 6.78951 18.5698 6.85983 18.6402C6.93016 18.7105 7.02554 18.75 7.125 18.75H17.1863C17.1087 18.9694 16.9649 19.1594 16.7749 19.2937C16.5848 19.4281 16.3577 19.5001 16.125 19.5H12Z" fill="black"/>
</svg>
