<svg width="24" height="24" viewBox="0 0 24 24" fill="none" xmlns="http://www.w3.org/2000/svg">
<path d="M16 6H15.25C15.25 7.79493 13.7949 9.25 12 9.25V10V10.75C14.6234 10.75 16.75 8.62335 16.75 6H16ZM12 10V9.25C10.2051 9.25 8.75 7.79493 8.75 6H8H7.25C7.25 8.62335 9.37665 10.75 12 10.75V10ZM8 6H8.75C8.75 4.20507 10.2051 2.75 12 2.75V2V1.25C9.37665 1.25 7.25 3.37665 7.25 6H8ZM12 2V2.75C13.7949 2.75 15.25 4.20507 15.25 6H16H16.75C16.75 3.37665 14.6234 1.25 12 1.25V2ZM9 13V13.75H15V13V12.25H9V13ZM15 21V20.25H9V21V21.75H15V21ZM9 21V20.25C7.20507 20.25 5.75 18.7949 5.75 17H5H4.25C4.25 19.6234 6.37665 21.75 9 21.75V21ZM19 17H18.25C18.25 18.7949 16.7949 20.25 15 20.25V21V21.75C17.6234 21.75 19.75 19.6234 19.75 17H19ZM15 13V13.75C16.7949 13.75 18.25 15.2051 18.25 17H19H19.75C19.75 14.3766 17.6234 12.25 15 12.25V13ZM9 13V12.25C6.37665 12.25 4.25 14.3766 4.25 17H5H5.75C5.75 15.2051 7.20507 13.75 9 13.75V13Z" fill="#2D264B"/>
</svg>
