<svg width="24" height="24" viewBox="0 0 24 24" fill="none" xmlns="http://www.w3.org/2000/svg">
<path d="M18 11C18 11.5523 17.5523 12 17 12C16.4477 12 16 11.5523 16 11C16 10.4477 16.4477 10 17 10C17.5523 10 18 10.4477 18 11Z" fill="#2D264B"/>
<path d="M16 13C16 13.5523 15.5523 14 15 14C14.4477 14 14 13.5523 14 13C14 12.4477 14.4477 12 15 12C15.5523 12 16 12.4477 16 13Z" fill="#2D264B"/>
<path d="M20 13C20 13.5523 19.5523 14 19 14C18.4477 14 18 13.5523 18 13C18 12.4477 18.4477 12 19 12C19.5523 12 20 12.4477 20 13Z" fill="#2D264B"/>
<path d="M18 15C18 15.5523 17.5523 16 17 16C16.4477 16 16 15.5523 16 15C16 14.4477 16.4477 14 17 14C17.5523 14 18 14.4477 18 15Z" fill="#2D264B"/>
<path d="M1.99994 14L1.25747 14.1061L1.26472 14.1568L1.27879 14.206L1.99994 14ZM8.42323 7.41035L8.72784 6.725V6.72499L8.42323 7.41035ZM8.95421 7.64635L8.64961 8.3317L8.95421 7.64635ZM10.9617 8.41942L10.8059 9.15307L10.9617 8.41942ZM15.0457 7.64635L14.7411 6.96099V6.96099L15.0457 7.64635ZM13.0382 8.41942L13.194 9.15307L13.0382 8.41942ZM15.5599 19.5377L14.929 19.9433V19.9433L15.5599 19.5377ZM8.29462 19.7638L8.92551 20.1694L8.92551 20.1694L8.29462 19.7638ZM3.44214 19.0477L2.72099 19.2537L3.44214 19.0477ZM21.3905 18.2662L20.648 18.1601L21.3905 18.2662ZM22.2236 12.4344L22.966 12.5405L22.2236 12.4344ZM8.66899 19.1815L8.03811 18.7759H8.03811L8.66899 19.1815ZM15.3309 19.1815L15.9618 18.7759V18.7759L15.3309 19.1815ZM15.5766 7.41035L15.8812 8.09571V8.09571L15.5766 7.41035ZM1.77629 12.4344L1.03382 12.5405L1.77629 12.4344ZM4.99994 12.25C4.58572 12.25 4.24994 12.5858 4.24994 13C4.24994 13.4142 4.58572 13.75 4.99994 13.75V12.25ZM8.99994 13.75C9.41415 13.75 9.74994 13.4142 9.74994 13C9.74994 12.5858 9.41415 12.25 8.99994 12.25V13.75ZM6.24994 15C6.24994 15.4142 6.58572 15.75 6.99994 15.75C7.41415 15.75 7.74994 15.4142 7.74994 15H6.24994ZM7.74994 11C7.74994 10.5858 7.41415 10.25 6.99994 10.25C6.58572 10.25 6.24994 10.5858 6.24994 11H7.74994ZM11.9999 8L11.2659 7.8462L11.2635 7.85754L11.2615 7.86895L11.9999 8ZM12.3726 6.22145L13.1066 6.37525L12.3726 6.22145ZM15.7577 3.66061L16.4619 3.9188V3.9188L15.7577 3.66061ZM16.7041 3.25819C16.8467 2.8693 16.647 2.43844 16.2581 2.29584C15.8692 2.15325 15.4384 2.35291 15.2958 2.74181L16.7041 3.25819ZM3.44214 19.0477L4.16328 18.8417L2.72108 13.794L1.99994 14L1.27879 14.206L2.72099 19.2537L3.44214 19.0477ZM1.99994 14L2.7424 13.8939L2.51875 12.3284L1.77629 12.4344L1.03382 12.5405L1.25747 14.1061L1.99994 14ZM8.66899 19.1815L8.03811 18.7759L7.66374 19.3583L8.29462 19.7638L8.92551 20.1694L9.29988 19.587L8.66899 19.1815ZM15.5599 19.5377L16.1908 19.1321L15.9618 18.7759L15.3309 19.1815L14.7 19.587L14.929 19.9433L15.5599 19.5377ZM8.42323 7.41035L8.11863 8.09571L8.64961 8.3317L8.95421 7.64635L9.25882 6.96099L8.72784 6.725L8.42323 7.41035ZM15.0457 7.64635L15.3503 8.33171L15.8812 8.09571L15.5766 7.41035L15.272 6.725L14.7411 6.96099L15.0457 7.64635ZM6.48956 7V7.75C7.05079 7.75 7.60577 7.86778 8.11863 8.09571L8.42323 7.41035L8.72784 6.72499C8.02319 6.41182 7.26066 6.25 6.48956 6.25V7ZM8.95421 7.64635L8.64961 8.3317C9.61675 8.76155 10.1979 9.024 10.8059 9.15307L10.9617 8.41942L11.1174 7.68577C10.6992 7.597 10.2841 7.41669 9.25882 6.96099L8.95421 7.64635ZM15.0457 7.64635L14.7411 6.96099C13.7157 7.41669 13.3006 7.597 12.8825 7.68577L13.0382 8.41942L13.194 9.15307C13.802 9.024 14.3831 8.76155 15.3503 8.3317L15.0457 7.64635ZM18.2383 21V20.25C17.4101 20.25 16.6387 19.8288 16.1908 19.1321L15.5599 19.5377L14.929 19.9433C15.6529 21.0693 16.8997 21.75 18.2383 21.75V21ZM8.29462 19.7638L7.66374 19.3582C7.30645 19.914 6.69107 20.25 6.03035 20.25V21V21.75C7.20147 21.75 8.29222 21.1545 8.92551 20.1694L8.29462 19.7638ZM3.44214 19.0477L2.72099 19.2537C3.14316 20.7313 4.49366 21.75 6.03035 21.75V21V20.25C5.16338 20.25 4.40146 19.6753 4.16328 18.8417L3.44214 19.0477ZM21.3905 18.2662L20.648 18.1601C20.4767 19.3593 19.4497 20.25 18.2383 20.25V21V21.75C20.1962 21.75 21.8561 20.3104 22.1329 18.3722L21.3905 18.2662ZM22.2236 12.4344L22.966 12.5405C23.4403 9.22043 20.8641 6.25 17.5103 6.25V7V7.75C19.9513 7.75 21.8263 9.91195 21.4811 12.3284L22.2236 12.4344ZM8.66899 19.1815L9.29988 19.587C10.5634 17.6216 13.4365 17.6216 14.7 19.587L15.3309 19.1815L15.9618 18.7759C14.1078 15.8919 9.89208 15.8919 8.03811 18.7759L8.66899 19.1815ZM15.5766 7.41035L15.8812 8.09571C16.3941 7.86778 16.9491 7.75 17.5103 7.75V7V6.25C16.7392 6.25 15.9767 6.41182 15.272 6.725L15.5766 7.41035ZM1.77629 12.4344L2.51875 12.3284C2.17354 9.91195 4.04859 7.75 6.48956 7.75V7V6.25C3.13577 6.25 0.559525 9.22043 1.03382 12.5405L1.77629 12.4344ZM6.99994 15H7.74994V11H6.99994H6.24994V15H6.99994ZM11.9999 8L12.734 8.1538L13.1066 6.37525L12.3726 6.22145L11.6385 6.06765L11.2659 7.8462L11.9999 8ZM15.7577 3.66061L16.4619 3.9188L16.7041 3.25819L15.9999 3L15.2958 2.74181L15.0536 3.40242L15.7577 3.66061ZM14.1003 4.81818V5.56818C15.1556 5.56818 16.0986 4.90953 16.4619 3.9188L15.7577 3.66061L15.0536 3.40242C14.9069 3.80232 14.5263 4.06818 14.1003 4.06818V4.81818ZM12.3726 6.22145L13.1066 6.37525C13.2052 5.90499 13.6199 5.56818 14.1003 5.56818V4.81818V4.06818C12.91 4.06818 11.8826 4.9026 11.6385 6.06765L12.3726 6.22145ZM22.2236 12.4344L21.4811 12.3284L20.648 18.1601L21.3905 18.2662L22.1329 18.3722L22.966 12.5405L22.2236 12.4344ZM4.99994 13V13.75H6.99994V13V12.25H4.99994V13ZM6.99994 13V13.75H8.99994V13V12.25H6.99994V13ZM10.9617 8.41942L10.8059 9.15307C11.1642 9.22914 11.528 9.27058 11.8923 9.2774L11.9063 8.52754L11.9204 7.77767C11.6511 7.77263 11.3822 7.74199 11.1174 7.68577L10.9617 8.41942ZM11.9063 8.52754L11.8923 9.2774C12.3283 9.28557 12.765 9.24413 13.194 9.15307L13.0382 8.41942L12.8825 7.68577C12.5654 7.75307 12.2426 7.7837 11.9204 7.77767L11.9063 8.52754ZM11.9999 8L11.2615 7.86895L11.1679 8.39649L11.9063 8.52754L12.6448 8.65858L12.7384 8.13105L11.9999 8Z" fill="#2D264B"/>
</svg>
