<svg width="24" height="24" viewBox="0 0 24 24" fill="none" xmlns="http://www.w3.org/2000/svg">
<path d="M20.2501 3.1875H14.2501C14.1639 3.18742 14.0788 3.20716 14.0014 3.2452C13.924 3.28324 13.8564 3.33855 13.8038 3.40688L7.67353 11.3756L6.61884 10.3219C6.49697 10.2 6.35227 10.1033 6.19302 10.0373C6.03377 9.97136 5.86309 9.93741 5.69072 9.93741C5.51835 9.93741 5.34767 9.97136 5.18842 10.0373C5.02917 10.1033 4.88447 10.2 4.76259 10.3219L3.57197 11.5125C3.44994 11.6344 3.35313 11.7792 3.28708 11.9385C3.22103 12.0978 3.18703 12.2686 3.18703 12.4411C3.18703 12.6136 3.22103 12.7844 3.28708 12.9437C3.35313 13.103 3.44994 13.2478 3.57197 13.3697L5.57916 15.375L2.82197 18.1331C2.70008 18.255 2.60339 18.3997 2.53742 18.5589C2.47145 18.7182 2.4375 18.8889 2.4375 19.0613C2.4375 19.2336 2.47145 19.4043 2.53742 19.5636C2.60339 19.7228 2.70008 19.8675 2.82197 19.9894L4.01166 21.1791C4.13354 21.301 4.27823 21.3976 4.43748 21.4636C4.59673 21.5296 4.76741 21.5635 4.93978 21.5635C5.11215 21.5635 5.28284 21.5296 5.44209 21.4636C5.60133 21.3976 5.74603 21.301 5.86791 21.1791L8.62509 18.4219L10.6313 20.4281C10.7532 20.55 10.8979 20.6467 11.0572 20.7127C11.2164 20.7786 11.3871 20.8126 11.5595 20.8126C11.7318 20.8126 11.9025 20.7786 12.0618 20.7127C12.221 20.6467 12.3657 20.55 12.4876 20.4281L13.6782 19.2384C13.8003 19.1165 13.8971 18.9718 13.9631 18.8125C14.0292 18.6531 14.0632 18.4823 14.0632 18.3098C14.0632 18.1374 14.0292 17.9666 13.9631 17.8072C13.8971 17.6479 13.8003 17.5031 13.6782 17.3813L12.6235 16.3266L20.5923 10.1963C20.6608 10.1438 20.7163 10.0762 20.7545 9.99882C20.7927 9.92143 20.8126 9.8363 20.8126 9.75V3.75C20.8126 3.60082 20.7533 3.45774 20.6478 3.35225C20.5424 3.24676 20.3993 3.1875 20.2501 3.1875ZM5.07197 20.3831C5.05456 20.4006 5.03388 20.4144 5.01112 20.4238C4.98835 20.4333 4.96395 20.4381 4.93931 20.4381C4.91467 20.4381 4.89027 20.4333 4.86751 20.4238C4.84475 20.4144 4.82407 20.4006 4.80666 20.3831L3.61791 19.1934C3.58299 19.1583 3.56338 19.1108 3.56338 19.0613C3.56338 19.0117 3.58299 18.9642 3.61791 18.9291L6.3751 16.1719L7.82916 17.625L5.07197 20.3831ZM12.8823 18.4425L11.6926 19.6331C11.6752 19.6507 11.6544 19.6646 11.6316 19.6742C11.6087 19.6837 11.5842 19.6886 11.5595 19.6886C11.5347 19.6886 11.5102 19.6837 11.4874 19.6742C11.4645 19.6646 11.4438 19.6507 11.4263 19.6331L4.36791 12.5738C4.35047 12.5563 4.33664 12.5357 4.32721 12.5129C4.31777 12.4901 4.31292 12.4657 4.31292 12.4411C4.31292 12.4165 4.31777 12.3921 4.32721 12.3693C4.33664 12.3465 4.35047 12.3259 4.36791 12.3084L5.5576 11.1178C5.57503 11.1002 5.59576 11.0863 5.61861 11.0768C5.64146 11.0673 5.66597 11.0624 5.69072 11.0624C5.71547 11.0624 5.73998 11.0673 5.76283 11.0768C5.78568 11.0863 5.80641 11.1002 5.82384 11.1178L12.8823 18.1772C12.8997 18.1946 12.9135 18.2153 12.923 18.238C12.9324 18.2608 12.9373 18.2852 12.9373 18.3098C12.9373 18.3345 12.9324 18.3589 12.923 18.3816C12.9135 18.4044 12.8997 18.4251 12.8823 18.4425ZM19.6876 9.47344L11.821 15.525L10.546 14.25L15.3976 9.3975C15.497 9.29087 15.551 9.14984 15.5485 9.00411C15.5459 8.85838 15.4869 8.71934 15.3838 8.61628C15.2808 8.51323 15.1417 8.45419 14.996 8.45162C14.8503 8.44905 14.7092 8.50314 14.6026 8.6025L9.75009 13.4541L8.4751 12.1791L14.5313 4.3125H19.6876V9.47344Z" fill="black"/>
</svg>
