<svg width="24" height="24" viewBox="0 0 24 24" fill="none" xmlns="http://www.w3.org/2000/svg">
<path d="M4.126 20C3.97 20 3.832 19.963 3.712 19.889C3.592 19.815 3.49867 19.7173 3.432 19.596C3.36 19.4767 3.32 19.3477 3.312 19.209C3.30534 19.0697 3.34467 18.9293 3.43 18.788L11.3 5.212C11.3853 5.07067 11.488 4.968 11.608 4.904C11.728 4.84 11.8587 4.808 12 4.808C12.1413 4.808 12.2717 4.84 12.391 4.904C12.5103 4.968 12.613 5.07067 12.699 5.212L20.57 18.788C20.6553 18.9293 20.6943 19.0693 20.687 19.208C20.6803 19.348 20.6403 19.4773 20.567 19.596C20.5003 19.7173 20.407 19.815 20.287 19.889C20.167 19.963 20.0293 20 19.874 20H4.126ZM4.45 19H19.55L12 6L4.45 19ZM12 17.616C12.1747 17.616 12.321 17.557 12.439 17.439C12.557 17.321 12.6157 17.1747 12.615 17C12.6143 16.8253 12.5553 16.6793 12.438 16.562C12.3207 16.4447 12.1747 16.3853 12 16.384C11.8253 16.3827 11.6793 16.4417 11.562 16.561C11.4447 16.6803 11.3857 16.8267 11.385 17C11.3843 17.1733 11.4433 17.3197 11.562 17.439C11.6807 17.5583 11.8267 17.6173 12 17.616ZM12 15.385C12.1427 15.385 12.2617 15.337 12.357 15.241C12.4523 15.145 12.5 15.0263 12.5 14.885V10.885C12.5 10.743 12.452 10.624 12.356 10.528C12.26 10.432 12.141 10.3843 11.999 10.385C11.857 10.3857 11.7383 10.4333 11.643 10.528C11.5477 10.6227 11.5 10.7417 11.5 10.885V14.885C11.5 15.0263 11.548 15.145 11.644 15.241C11.74 15.337 11.859 15.385 12.001 15.385" fill="black"/>
</svg>
