<svg width="553" height="547" viewBox="0 0 553 547" fill="none" xmlns="http://www.w3.org/2000/svg">
<path d="M423.518 279.581C383.211 249.046 363.779 253.192 348.631 267.83C346.129 270.248 344.085 273.571 342.403 277.518C343.32 278.158 344.223 278.789 345.086 279.419C351.148 283.842 357.277 288.174 363.351 292.58C365.292 277.407 371.497 272.497 380.859 272.406C410.649 272.114 431.288 331.345 431.288 331.345C431.288 331.345 440.735 348.78 454.455 349.088C468.176 349.396 457.788 305.542 423.518 279.581Z" fill="#057D80"/>
<path d="M414.537 264.174L405.319 273.76L430.461 297.937L439.679 288.35L414.537 264.174Z" fill="#057D80"/>
<path d="M418.175 260.4L408.956 269.988L434.098 294.164L443.317 284.576L418.175 260.4Z" fill="#057D80"/>
<path d="M422.71 269.539C424.145 270.919 424.739 272.633 424.035 273.366C423.33 274.098 421.595 273.572 420.159 272.192C418.724 270.811 418.13 269.099 418.834 268.365C419.539 267.633 421.274 268.158 422.71 269.539Z" fill="white"/>
<path d="M430.175 281.219C431.611 282.599 432.205 284.313 431.5 285.045C430.796 285.777 429.062 285.252 427.625 283.87C426.189 282.49 425.595 280.777 426.3 280.045C427.004 279.313 428.74 279.838 430.175 281.219Z" fill="white"/>
<path d="M434.359 276.867C435.795 278.247 436.388 279.962 435.684 280.694C434.98 281.427 433.244 280.901 431.809 279.52C430.373 278.139 429.779 276.427 430.484 275.695C431.189 274.96 432.924 275.486 434.359 276.867Z" fill="white"/>
<path d="M411.499 499.343C389.663 499.345 367.082 496.407 347.746 491.389C301.364 479.353 287.717 460.867 283.71 450.918C271.441 420.464 296.687 387.973 297.768 386.604C299.283 384.689 302.065 384.363 303.982 385.876C305.899 387.39 306.225 390.172 304.711 392.089C304.482 392.381 281.579 421.949 291.917 447.614C297.677 461.912 318.835 474.745 349.968 482.825C394.629 494.414 456.155 494.006 481.808 473.258C514.906 446.493 464.613 318.02 442.442 270.776C441.403 268.564 442.356 265.93 444.568 264.892C446.776 263.854 449.414 264.805 450.452 267.018C450.656 267.454 471.05 311.082 485.885 358.419C506.278 423.492 506.779 464.445 487.372 480.14C470.599 493.702 441.764 499.343 411.499 499.343Z" fill="#1FE5DF"/>
<path d="M512.588 237.266C512.6 234.492 516.475 229.771 511.229 227.733C514.009 220.338 510.5 220.643 508.482 221.306C509.508 218.623 511.703 213.273 509.686 212.453C505.342 210.682 494.318 229.341 485.44 241.159C484.937 241.828 484.482 242.344 484.066 242.748C484.05 242.318 484.033 241.918 484.02 241.58C483.749 234.668 486.022 226.302 483.01 225.352C479.998 224.405 480.363 227.02 478.754 230.973C471.345 249.173 475.662 269.304 475.662 269.304C476.423 273.197 477.493 276.128 478.756 278.317C477.89 279.264 477.186 280.436 476.736 281.859C459.696 335.697 441.848 343.452 444.022 385.557C444.533 395.459 465.038 412.076 473 397.591C480.6 383.759 487.859 359.6 488.609 336.612C489.591 306.51 493.054 296.665 494.468 285.277C494.637 283.908 494.551 282.676 494.271 281.578C496.072 280.456 497.556 279.115 498.449 278.004C505.204 269.599 520.227 236.926 512.588 237.266Z" fill="#FFCB97"/>
<path d="M508.482 221.306L493.518 245.315" stroke="#181D2B" stroke-miterlimit="10" stroke-linecap="round" stroke-linejoin="round"/>
<path d="M511.23 227.733L501 249.127" stroke="#181D2B" stroke-miterlimit="10" stroke-linecap="round" stroke-linejoin="round"/>
<path d="M512.588 237.266L503.254 256.469" stroke="#181D2B" stroke-miterlimit="10" stroke-linecap="round" stroke-linejoin="round"/>
<path d="M369.202 219.68C369.202 219.68 368.563 248.818 368.563 251.087C368.563 253.357 345.298 292.067 325.653 260.932L333.866 211.695L369.202 219.68Z" fill="#FFDBB7"/>
<path d="M428.995 300.117C419.088 289.813 383.164 263.514 368.597 250.29C354.929 237.882 331.39 245.411 325.255 254.368C323.67 256.677 299.987 289.041 304.457 322.632C312.438 382.622 321.457 394.599 322.059 406.523C322.158 408.479 322.338 410.309 322.589 412.026C317.589 426.106 312.188 434.513 301.533 458.376C297.314 467.829 292.415 488.885 297.587 504.745L310.134 553.001H413.279L418.41 515.41L418.393 515.409C422.867 492.471 420.806 472.125 419.781 460.456C417.705 436.806 420.308 423.525 419.078 415.312C419.909 409.67 423.767 382.994 429.84 356.916C429.84 356.916 430.476 353.514 435.064 345.422C443.071 331.307 442.121 313.769 428.995 300.117Z" fill="#181D2B"/>
<path d="M405.673 180.086C409.149 218.621 389.111 239.755 374.208 239.755C364.803 239.755 332.373 224.016 327.911 201.406C322.573 193.458 317.285 190.145 317.285 180.086C317.285 144.586 334.443 115.806 361.101 115.806C387.758 115.806 409.413 145.223 405.673 180.086Z" fill="#FFDBB7"/>
<path d="M369.202 238.782C369.202 238.782 359.042 236.453 350.479 229.906L368.662 245.314L369.202 238.782Z" fill="#181D2B"/>
<path d="M381.604 182.513V207.991H373.015" stroke="#181D2B" stroke-miterlimit="10" stroke-linecap="round" stroke-linejoin="round"/>
<path d="M361.69 211.277C361.69 211.277 366.106 221.138 375.612 217.738" stroke="#181D2B" stroke-miterlimit="10" stroke-linecap="round" stroke-linejoin="round"/>
<path d="M389.309 187.315C389.309 188.413 390.199 189.303 391.296 189.303C392.392 189.303 393.283 188.413 393.283 187.315C393.283 186.219 392.393 185.328 391.296 185.328C390.198 185.328 389.309 186.218 389.309 187.315Z" fill="#181D2B"/>
<path d="M362.461 187.315C362.461 188.413 363.351 189.303 364.448 189.303C365.544 189.303 366.435 188.413 366.435 187.315C366.435 186.219 365.545 185.328 364.448 185.328C363.351 185.328 362.461 186.218 362.461 187.315Z" fill="#181D2B"/>
<path d="M373.199 182.752C372.936 184.187 369.28 182.031 364.446 181.142C359.612 180.252 355.43 180.966 355.693 179.531C355.956 178.097 360.567 175.059 365.401 175.948C370.235 176.838 373.462 181.318 373.199 182.752Z" fill="#181D2B"/>
<path d="M401.027 175.757C400.955 177.213 397.047 175.56 392.138 175.316C387.228 175.073 383.177 176.333 383.249 174.876C383.321 173.42 387.489 169.8 392.399 170.042C397.308 170.285 401.099 174.3 401.027 175.757Z" fill="#181D2B"/>
<path d="M399.54 387.697H344.516V409.626H399.54V387.697Z" fill="#D36B48"/>
<path d="M391.808 319.324C391.808 319.324 371.169 260.094 341.379 260.384C330.197 260.494 323.516 267.466 323.227 290.604C322.939 313.742 333.86 351.393 345.559 360.264C357.257 369.134 361.608 391.119 359.03 417.67C356.452 444.22 360.84 447.811 326.349 440.464C305.683 436.064 306.985 445.361 301.857 414.858C299.047 398.133 291.744 357.728 293.649 337.927C295.554 318.127 294.002 270.448 309.151 255.809C324.299 241.171 358.883 227.577 385.621 262.28C411.861 296.335 428.696 337.374 414.976 337.067C401.256 336.759 391.808 319.324 391.808 319.324Z" fill="#1FE5DF"/>
<path d="M430.327 307.895C430.327 307.895 407.115 306.581 406.06 313.981C405.005 321.381 407.115 341.774 398.674 352.706C390.233 363.638 380.738 343.535 382.321 376.964C383.904 410.391 369.133 434.218 389.179 439.163C409.226 444.108 435.074 448.236 436.129 433.585C437.184 418.933 477.466 306.912 430.327 307.895Z" fill="#1FE5DF"/>
<path d="M438.385 322.506H419.659V383.725H438.385V322.506Z" fill="#181D2B"/>
<path d="M439.41 383.725H427.044V322.506H439.41C442.923 322.506 445.771 325.354 445.771 328.867V377.364C445.771 380.877 442.923 383.725 439.41 383.725Z" fill="#D36B48"/>
<path d="M440.9 339.355C440.9 342.851 439.74 345.686 438.309 345.686C436.878 345.686 435.718 342.851 435.718 339.355C435.718 335.859 436.878 333.024 438.309 333.024C439.74 333.024 440.9 335.859 440.9 339.355Z" fill="white"/>
<path d="M436.331 363.007C436.331 366.503 435.171 369.338 433.74 369.338C432.309 369.338 431.149 366.503 431.149 363.007C431.149 359.511 432.309 356.676 433.74 356.676C435.171 356.676 436.331 359.511 436.331 363.007Z" fill="white"/>
<path d="M444.832 363.007C444.832 366.503 443.672 369.338 442.241 369.338C440.81 369.338 439.649 366.503 439.649 363.007C439.649 359.511 440.81 356.676 442.241 356.676C443.672 356.676 444.832 359.511 444.832 363.007Z" fill="white"/>
<path d="M377.306 253.781L364.463 263.812L385.937 291.303L398.779 281.271L377.306 253.781Z" fill="#181D2B"/>
<path d="M399.04 281.036L390.985 287.328L369.512 259.839L377.567 253.546C380.211 251.481 384.027 251.95 386.093 254.594L400.089 272.509C402.153 275.153 401.684 278.971 399.04 281.036Z" fill="#D36B48"/>
<path d="M384.923 259.982C386.15 261.551 386.348 263.446 385.367 264.212C384.386 264.979 382.596 264.327 381.37 262.758C380.144 261.188 379.945 259.294 380.926 258.528C381.907 257.761 383.697 258.413 384.923 259.982Z" fill="white"/>
<path d="M390.086 273.051C391.313 274.62 391.511 276.515 390.53 277.281C389.549 278.047 387.759 277.396 386.533 275.827C385.306 274.256 385.108 272.363 386.089 271.596C387.071 270.829 388.861 271.48 390.086 273.051Z" fill="white"/>
<path d="M395.916 268.496C397.142 270.065 397.34 271.96 396.359 272.726C395.378 273.493 393.589 272.841 392.362 271.272C391.136 269.702 390.937 267.808 391.919 267.042C392.9 266.276 394.689 266.927 395.916 268.496Z" fill="white"/>
<path d="M359.249 392.603H382.004" stroke="#181D2B" stroke-miterlimit="10" stroke-linecap="round" stroke-linejoin="round"/>
<path d="M385.991 438.091C385.991 438.091 383.98 429.118 385.991 415.745C388.001 402.374 400.494 334.039 387.047 299.556C373.599 265.072 348.841 246.8 333.241 258.205C317.641 269.609 310.637 295.881 336.425 362.34C362.214 428.798 350.479 443.605 350.479 443.605" stroke="#181D2B" stroke-miterlimit="10" stroke-linecap="round" stroke-linejoin="round"/>
<path d="M302.566 372.788C304.081 379.858 306.271 386.783 309.095 393.438" stroke="#181D2B" stroke-miterlimit="10" stroke-linecap="round" stroke-linejoin="round"/>
<path d="M309.167 373.117C310.438 380.455 312.662 387.627 315.766 394.397" stroke="#181D2B" stroke-miterlimit="10" stroke-linecap="round" stroke-linejoin="round"/>
<path d="M406.696 427.833C407.532 420.965 408.111 414.064 408.428 407.152" stroke="#181D2B" stroke-miterlimit="10" stroke-linecap="round" stroke-linejoin="round"/>
<path d="M414.418 308.673C412.284 309.018 410.183 309.579 408.16 310.345C407.053 310.764 405.935 311.267 405.128 312.134C404.32 313.001 403.889 314.313 404.356 315.402" stroke="#181D2B" stroke-miterlimit="10" stroke-linecap="round" stroke-linejoin="round"/>
<path d="M416.981 315.458C416.829 316.63 416.932 317.833 417.279 318.963" stroke="#181D2B" stroke-miterlimit="10" stroke-linecap="round" stroke-linejoin="round"/>
<path d="M421.761 315.774C421.838 317.473 422.38 319.147 423.313 320.57" stroke="#181D2B" stroke-miterlimit="10" stroke-linecap="round" stroke-linejoin="round"/>
<path d="M436.702 315.468C438.386 317.319 439.515 319.669 439.908 322.141" stroke="#181D2B" stroke-miterlimit="10" stroke-linecap="round" stroke-linejoin="round"/>
<path d="M433.53 293.171C435.44 296.355 437.35 299.538 439.261 302.722" stroke="#181D2B" stroke-miterlimit="10" stroke-linecap="round" stroke-linejoin="round"/>
<path d="M395.94 270.894C396.922 273.071 397.173 275.57 396.645 277.899" stroke="#181D2B" stroke-miterlimit="10" stroke-linecap="round" stroke-linejoin="round"/>
<path d="M393.477 274.708C393.375 276.407 393.274 278.105 393.173 279.804" stroke="#181D2B" stroke-miterlimit="10" stroke-linecap="round" stroke-linejoin="round"/>
<path d="M420.774 286.692C425.311 287.317 436.523 286.017 439.602 283.852C442.685 281.686 449.536 278.836 454.897 279.526C460.259 280.212 482.383 303.277 482.383 303.277C482.383 303.277 495.624 296.78 501.218 293.019C506.812 289.259 503.276 285.488 500.315 278.299C497.35 271.105 489.248 274.182 485.826 272.469C482.404 270.755 484.003 266.988 480.127 263.908C476.248 260.824 470.85 263.543 470.85 263.543C470.85 263.543 475.799 247.468 476.447 241.513C477.093 235.556 472.725 236.506 472.725 236.506L476.956 221.22C476.956 221.22 487.917 215.862 490.884 212.212C493.854 208.562 490.544 208.334 490.544 208.334C490.544 208.334 498.321 181.409 501.633 179.925C504.942 178.444 506.659 171.599 500.729 164.062C494.798 156.528 464.452 145.895 464.452 145.895C442.429 136.869 441.516 144.399 441.516 144.399C441.516 144.399 432.845 144.619 430.679 149.245C428.514 153.867 430.547 168.014 431.683 171.72C432.822 175.428 434.763 175.261 434.763 175.261L422.882 215.824C422.882 215.824 415.793 218.553 412.37 219.977C408.942 221.401 407.558 251.533 405.925 252.143C404.297 252.752 403.213 261.346 404.695 265.225C406.177 269.107 416.231 286.068 420.774 286.692ZM461.186 257.844C457.308 255.332 455.947 240.945 462.683 240.608C469.414 240.272 472.494 238.677 472.265 243.126C472.035 247.58 468.033 258.421 468.033 258.421C468.033 258.421 465.063 260.359 461.186 257.844Z" fill="#181D2B"/>
<path d="M473.577 116.081L464.105 156.064L444.031 152.004L454.268 111.612L473.577 116.081Z" fill="#D36B48"/>
<path d="M490.175 144.573L479.97 179.29L468.368 180.673L478.225 140.907L490.175 144.573Z" fill="#D36B48"/>
<path d="M456.611 276.101C456.611 276.101 445.314 275.296 440.291 279.629C435.267 283.961 429.789 284.073 426.024 282.472C422.26 280.872 438.763 258.603 448.264 257.653C457.764 256.703 464.833 267.662 463.803 270.856C462.773 274.051 489.919 295.636 489.348 296.776C488.778 297.917 481.793 299.557 481.793 299.557L456.611 276.101Z" fill="#D36B48"/>
<path d="M452.639 239.575C453.446 239.598 470.444 237.078 470.444 237.078L490.206 162.771C490.206 162.771 488.294 155.841 480.194 154.352C472.093 152.862 469.809 157.712 469.809 157.712L453.91 216.241L450.6 215.724L464.92 160.051L440.483 153.869L433.521 158.658L433.518 162.651L435.68 173.151L438.015 174.035L416.92 248.513C416.92 248.513 408.008 265.457 423.295 270.829C438.583 276.201 439.838 274.833 439.959 264.906C440.077 254.979 435.184 239.078 452.639 239.575Z" fill="#1FE5DF"/>
<path d="M424.33 255.941C433.97 260.768 445.621 257.02 450.353 247.566C455.086 238.112 451.109 226.538 441.469 221.711C431.829 216.883 420.178 220.632 415.446 230.081C410.713 239.532 414.69 251.112 424.33 255.941Z" fill="#D36B48" stroke="#181D2B" stroke-miterlimit="10" stroke-linecap="round" stroke-linejoin="round"/>
<path d="M477.929 162.432C481.205 164.072 485.164 162.799 486.774 159.587C488.382 156.374 487.03 152.441 483.753 150.8C480.477 149.16 476.518 150.433 474.908 153.646C473.301 156.857 474.653 160.791 477.929 162.432Z" fill="#D36B48" stroke="#E6E2DC" stroke-miterlimit="10" stroke-linecap="round" stroke-linejoin="round"/>
<path d="M449.094 165.167C454.202 167.725 460.375 165.74 462.883 160.732C465.39 155.725 463.283 149.592 458.176 147.035C453.069 144.477 446.896 146.462 444.388 151.47C441.88 156.477 443.988 162.609 449.094 165.167Z" fill="#181D2B" stroke="#E6E2DC" stroke-width="9" stroke-miterlimit="10" stroke-linecap="round" stroke-linejoin="round"/>
<path d="M439.215 176.349L458.615 175.789" stroke="#181D2B" stroke-miterlimit="10" stroke-linecap="round" stroke-linejoin="round"/>
<path d="M437.98 180.87L457.381 180.309" stroke="#181D2B" stroke-miterlimit="10" stroke-linecap="round" stroke-linejoin="round"/>
<path d="M436.746 185.39L456.146 184.829" stroke="#181D2B" stroke-miterlimit="10" stroke-linecap="round" stroke-linejoin="round"/>
<path d="M435.512 189.91L454.912 189.349" stroke="#181D2B" stroke-miterlimit="10" stroke-linecap="round" stroke-linejoin="round"/>
<path d="M434.279 194.429L453.679 193.87" stroke="#181D2B" stroke-miterlimit="10" stroke-linecap="round" stroke-linejoin="round"/>
<path d="M433.044 198.95L452.445 198.389" stroke="#181D2B" stroke-miterlimit="10" stroke-linecap="round" stroke-linejoin="round"/>
<path d="M431.81 203.47L451.21 202.909" stroke="#181D2B" stroke-miterlimit="10" stroke-linecap="round" stroke-linejoin="round"/>
<path d="M430.577 207.991L449.976 207.429" stroke="#181D2B" stroke-miterlimit="10" stroke-linecap="round" stroke-linejoin="round"/>
<path d="M429.342 212.511L448.743 211.949" stroke="#181D2B" stroke-miterlimit="10" stroke-linecap="round" stroke-linejoin="round"/>
<path d="M470.049 182.8L474.218 166.227L479.662 167.597L476.135 181.614C474.104 181.999 472.083 182.426 470.049 182.8Z" fill="white"/>
<path d="M464.982 202.937L469.603 184.57C471.633 184.213 473.652 183.814 475.677 183.43L471.199 201.23C469.157 201.902 467.11 202.501 464.982 202.937Z" fill="white"/>
<path d="M460.943 218.99L464.525 204.753C464.713 204.724 464.904 204.696 465.087 204.664C467.013 204.34 468.873 203.806 470.702 203.21L467.049 217.733C465.001 218.118 462.964 218.533 460.943 218.99Z" fill="white"/>
<path d="M460.475 220.85C462.498 220.375 464.539 219.947 466.59 219.549L462.808 234.586L457.364 233.217L460.475 220.85Z" fill="white"/>
<path d="M429.085 235.036C430.773 233.187 427.305 223.755 420.727 229.517C414.147 235.279 413.87 240.736 416.616 242.113C419.362 243.489 418.809 239.665 421.877 236.488C423.674 234.625 427.019 237.299 429.085 235.036Z" fill="#1FE5DF"/>
<path d="M428.761 242.25C426.957 240.512 417.438 243.727 423.022 250.462C428.606 257.196 434.054 257.62 435.502 254.91C436.951 252.201 433.114 252.653 430.019 249.498C428.207 247.649 430.968 244.376 428.761 242.25Z" fill="#1FE5DF"/>
<path d="M435.963 242.767C434.179 244.523 437.136 254.13 444.015 248.726C450.892 243.322 451.461 237.886 448.793 236.367C446.124 234.846 446.472 238.694 443.239 241.703C441.344 243.466 438.146 240.616 435.963 242.767Z" fill="#1FE5DF"/>
<path d="M436.672 235.58C438.38 237.411 448.057 234.712 442.842 227.691C437.626 220.671 432.209 219.957 430.619 222.584C429.027 225.21 432.883 224.966 435.804 228.278C437.516 230.219 434.582 233.34 436.672 235.58Z" fill="#1FE5DF"/>
<path d="M419.353 259.49L419.438 259.318C420.148 257.9 422.184 257.208 423.496 258.189C425.8 259.913 428.836 260.182 431.651 260.383C432.23 260.222 432.813 260.205 433.252 260.423L433.765 260.681C435.812 261.706 432.753 263.783 431.532 263.69C427.712 263.397 423.827 263.123 420.529 261.087C419.762 260.956 418.911 260.372 419.353 259.49Z" fill="#181D2B"/>
<path d="M417.809 264.71C418.217 263.682 419.522 263.101 420.567 263.113C422.486 263.135 424.62 264.084 426.432 264.671C428.59 265.371 430.849 265.427 433.065 265.745C434.087 265.911 434.379 266.943 433.801 267.724C433.14 268.614 431.984 268.975 430.916 268.869C430.307 268.944 429.856 268.868 429.545 268.695C428.186 268.521 426.823 268.368 425.459 268.109C424.339 267.895 423.275 267.499 422.174 267.19C421.364 266.961 420.127 266.348 419.293 266.338C418.4 266.326 417.402 265.735 417.809 264.71Z" fill="#181D2B"/>
<path d="M451.283 268.201C451.013 267.915 450.897 267.401 451.1 267.042C451.191 266.878 451.273 266.706 451.382 266.553C451.624 266.208 451.916 266.016 452.255 265.781C452.422 265.665 452.606 265.574 452.797 265.499C453.542 265.148 454.439 265.042 455.16 265.402L455.501 265.574C455.881 265.763 456.139 266.138 456.12 266.572C456.099 267.048 455.787 267.473 455.442 267.776C454.88 268.269 454.049 268.607 453.261 268.591C453.037 268.639 452.811 268.671 452.585 268.67C452.125 268.665 451.612 268.549 451.283 268.201Z" fill="#181D2B"/>
<path d="M449.271 222.045C449.504 222.098 449.727 222.101 449.948 222.085C450.038 222.095 450.129 222.101 450.216 222.102C450.812 222.107 451.415 221.928 451.927 221.627C452.08 221.537 452.211 221.436 452.336 221.328C452.474 221.241 452.608 221.146 452.731 221.038C453.076 220.735 453.388 220.312 453.409 219.834C453.427 219.435 453.177 218.987 452.792 218.836C452.624 218.771 452.459 218.687 452.28 218.659C452.122 218.619 451.957 218.596 451.775 218.602C451.577 218.596 451.379 218.611 451.18 218.65C451.01 218.673 450.788 218.731 450.569 218.809C450.553 218.814 450.539 218.818 450.522 218.822C450.509 218.829 450.497 218.835 450.485 218.841C450.319 218.905 450.162 218.977 450.033 219.053C449.99 219.065 449.948 219.079 449.905 219.091C449.085 219.325 447.91 220.314 448.274 221.291C448.431 221.715 448.853 221.951 449.271 222.045Z" fill="#181D2B"/>
<path d="M435.944 162.998C435.565 162.809 435.307 162.433 435.326 162C435.347 161.522 435.659 161.099 436.004 160.796C436.627 160.251 437.578 159.893 438.439 159.999C438.495 159.997 438.549 159.988 438.605 159.988C439.064 159.993 439.577 160.109 439.905 160.457C440.186 160.755 440.275 161.244 440.088 161.616L440.002 161.788C439.952 161.887 439.896 161.981 439.836 162.071C439.806 162.117 439.774 162.161 439.741 162.205C439.714 162.24 439.687 162.275 439.658 162.308C439.567 162.418 439.467 162.521 439.357 162.616C439.349 162.623 439.343 162.628 439.336 162.635C439.289 162.675 439.239 162.712 439.188 162.749C439.135 162.788 439.08 162.825 439.023 162.862C438.999 162.877 438.979 162.895 438.954 162.909C438.945 162.915 438.935 162.918 438.926 162.924C438.821 162.985 438.71 163.04 438.596 163.091C438.563 163.106 438.529 163.12 438.495 163.133C438.462 163.146 438.433 163.16 438.401 163.173C438.322 163.201 438.24 163.228 438.158 163.253C438.132 163.261 438.105 163.267 438.079 163.274C437.963 163.305 437.845 163.33 437.726 163.348C437.708 163.352 437.69 163.355 437.673 163.357C437.533 163.377 437.394 163.386 437.254 163.385C437.25 163.385 437.246 163.386 437.243 163.386C437.222 163.386 437.201 163.384 437.178 163.384C437.119 163.383 437.059 163.378 436.999 163.372C436.942 163.366 436.885 163.358 436.828 163.348C436.811 163.346 436.795 163.343 436.778 163.34C436.61 163.306 436.446 163.254 436.296 163.177C436.291 163.175 436.288 163.174 436.284 163.171L435.944 162.998Z" fill="#181D2B"/>
<path d="M429.905 244.6C433.181 246.24 437.141 244.966 438.75 241.753C440.358 238.54 439.007 234.606 435.731 232.966C432.455 231.324 428.495 232.597 426.886 235.81C425.278 239.022 426.629 242.957 429.905 244.6Z" fill="#181D2B" stroke="#E6E2DC" stroke-miterlimit="10" stroke-linecap="round" stroke-linejoin="round"/>
<path d="M489.909 262.769C488.778 262.522 487.913 262.707 487.231 263.194C487.353 260.332 486.294 258.009 483.72 257.446C481.377 256.934 480.135 258.397 479.313 260.705C479.45 257.467 478.463 254.925 476.001 254.387C472.815 253.691 469.323 257.323 468.322 261.902C468.161 258.283 468.183 254.159 467.552 251.08C468.491 250.253 468.952 247.992 468.946 246.647C468.936 244.166 466.83 243.217 463.568 243.23C460.305 243.243 460.098 256.673 459.711 261.057C457.071 260.843 457.686 263.325 456.709 267.276C455.542 271.997 455.084 275.651 455.053 278.48C454.885 279.674 454.945 281.104 455.404 283.078C455.991 285.597 455.053 293.246 463.195 297.852C462.926 298.362 462.692 298.911 462.504 299.504C453.49 327.982 444.251 343.567 437.87 358.161C425.998 343.744 407.761 324.476 379.602 298.035C371.802 290.708 335.336 302.766 341.792 319.908C353.847 351.916 432.568 414.667 442.08 419.244C443.829 420.085 446.069 420.727 448.383 420.824C452.417 421.303 456.229 419.854 458.768 415.238C466.368 401.406 473.627 377.248 474.377 354.259C475.359 324.157 478.822 314.312 480.236 302.924C480.3 302.409 480.317 301.92 480.313 301.442C484.469 300.886 490.162 283.9 490.259 274.809C491.762 273.973 492.797 272.195 493.273 270.02C494.023 266.585 493.097 263.466 489.909 262.769ZM468.385 263.145C468.374 262.967 468.368 262.78 468.358 262.599C468.394 262.76 468.426 262.925 468.385 263.145C468.645 263.183 468.525 263.165 468.385 263.145C468.224 263.122 468.038 263.094 468.385 263.145Z" fill="#FFDBB7"/>
<path d="M459.711 261.057L457.954 279.008" stroke="#181D2B" stroke-miterlimit="10" stroke-linecap="round" stroke-linejoin="round"/>
<path d="M463.196 297.852L468.189 299.1" stroke="#181D2B" stroke-miterlimit="10" stroke-linecap="round" stroke-linejoin="round"/>
<path d="M437.87 358.161L454.324 375.769" stroke="#181D2B" stroke-miterlimit="10" stroke-linecap="round" stroke-linejoin="round"/>
<path d="M344.732 105.449C338.238 99.1804 328.366 95.451 320.007 98.8597C310.838 102.599 306.756 112.989 302.556 121.957C293.528 141.235 279.7 158.243 262.671 171.016C258.593 174.075 254.221 177.014 251.51 181.331C248.601 185.963 247.954 191.799 249.077 197.152C250.199 202.505 252.976 207.405 256.435 211.642C259.6 215.521 263.53 219.27 264.229 224.227C264.974 229.511 261.842 235.283 264.311 240.014C265.267 241.847 266.949 243.197 268.726 244.251C274.496 247.674 281.797 248.393 288.124 246.162C294.451 243.932 299.687 238.793 302.036 232.509C304.143 226.87 303.953 220.551 302.339 214.752C301.773 212.718 301.035 210.562 301.676 208.551C302.074 207.299 302.969 206.266 303.939 205.381C308.808 200.94 315.764 199.519 320.997 195.513C329.64 188.896 331.794 176.782 331.523 165.9C331.384 160.289 330.789 154.562 332.266 149.147C333.979 142.869 338.323 137.638 343.076 133.192C346.651 129.846 351.937 125.31 351.347 119.831C350.744 114.2 348.897 109.468 344.732 105.449Z" fill="#E7C730"/>
<path d="M356.602 144.181C356.602 144.181 379.303 172.07 405.335 175.674L406.059 187.241L409.9 175.789C409.9 175.789 432.707 156.166 409.9 131.153C387.093 106.139 349.79 103.433 332.394 126.82C332.394 126.82 301.053 136.197 311.892 176.349C311.892 176.349 317.78 209.589 331.948 223.193L333.747 214.183C333.747 214.183 328.528 204.713 327.175 196.788L325.653 183.232C325.653 183.232 331.038 193.257 336.644 183.232C342.251 173.207 357.037 163.282 356.602 144.181Z" fill="#E7C730"/>
<path d="M339.7 130.683C343.713 124.235 351.391 120.788 358.95 120.06C366.51 119.331 374.079 120.941 381.49 122.601" stroke="#181D2B" stroke-miterlimit="10" stroke-linecap="round" stroke-linejoin="round"/>
<path d="M357.521 137.653C362.203 136.412 367.159 137.905 371.617 139.795C385.771 145.796 398.443 156.518 404.106 170.809" stroke="#181D2B" stroke-miterlimit="10" stroke-linecap="round" stroke-linejoin="round"/>
<path d="M407.944 151.388C411.483 155.237 413.51 160.442 413.507 165.67" stroke="#181D2B" stroke-miterlimit="10" stroke-linecap="round" stroke-linejoin="round"/>
<path d="M314.193 142.119C316.378 144.568 319.614 146.048 322.897 146.098C326.179 146.148 329.46 144.768 331.718 142.385" stroke="#181D2B" stroke-miterlimit="10" stroke-linecap="round" stroke-linejoin="round"/>
<path d="M309.487 163.451C311.919 165.74 315.404 166.728 318.735 166.492C322.066 166.255 325.244 164.879 327.987 162.975C334.598 158.381 338.812 150.517 338.974 142.468" stroke="#181D2B" stroke-miterlimit="10" stroke-linecap="round" stroke-linejoin="round"/>
<path d="M310.908 155.324C313.335 155.829 315.886 155.301 318.152 154.297C320.418 153.293 322.448 151.831 324.458 150.382" stroke="#181D2B" stroke-miterlimit="10" stroke-linecap="round" stroke-linejoin="round"/>
<path d="M311.891 176.349C311.891 176.349 300.115 138.417 332.393 126.82C332.393 126.82 337.036 118.696 349.984 113.577" stroke="#181D2B" stroke-miterlimit="10" stroke-linecap="round" stroke-linejoin="round"/>
<path d="M340.999 118.099C339.961 113.689 337.679 109.579 334.484 106.367" stroke="#181D2B" stroke-miterlimit="10" stroke-linecap="round" stroke-linejoin="round"/>
<path d="M331.025 127.414C330.315 122.747 325.85 119.279 321.18 118.59C316.51 117.901 311.772 119.51 307.664 121.838" stroke="#181D2B" stroke-miterlimit="10" stroke-linecap="round" stroke-linejoin="round"/>
<path d="M319.344 134.565C310.439 134.933 303.391 140.101 298.019 147.214C292.648 154.327 289.978 163.198 289.116 172.069C288.644 176.937 288.678 181.885 287.512 186.634C285.1 196.465 277.915 204.27 271.821 212.353C270.455 214.165 269.11 216.057 268.462 218.231C267.921 220.046 267.893 221.976 268.041 223.864C268.362 227.962 269.534 232.065 271.932 235.403C274.33 238.741 278.043 241.242 282.132 241.656" stroke="#181D2B" stroke-miterlimit="10" stroke-linecap="round" stroke-linejoin="round"/>
<path d="M309.632 164.161C301.226 174.529 297.781 188.746 300.507 201.813" stroke="#181D2B" stroke-miterlimit="10" stroke-linecap="round" stroke-linejoin="round"/>
<path d="M329.099 184.481C331.333 192.615 330.546 200.48 324.847 202.044C319.147 203.609 312.716 198.284 310.482 190.149C308.248 182.014 311.057 174.151 316.756 172.586C322.455 171.021 326.865 176.346 329.099 184.481Z" fill="#FFDBB7"/>
<path d="M322.711 176.63C322.711 176.63 317.429 174.518 314.271 178.743C310.384 183.944 312.687 187.242 312.687 187.242L322.711 176.63Z" fill="#181D2B"/>
<path d="M132.905 445.24C121.252 445.24 109.06 443.429 96.369 439.803C72.7514 433.056 56.8461 419.257 49.093 398.788C37.7277 368.787 43.9247 325.32 67.5112 269.598C84.8832 228.559 105.803 195.638 106.012 195.311C107.327 193.252 110.062 192.65 112.122 193.962C114.181 195.276 114.784 198.011 113.47 200.071C112.654 201.35 32.0551 328.851 57.3681 395.658C64.0782 413.368 78.0182 425.357 98.7989 431.296C129.342 440.021 156.636 437.49 179.917 423.765C227.632 395.639 243.43 329.379 243.584 328.713C244.134 326.336 246.5 324.843 248.89 325.398C251.269 325.947 252.754 328.32 252.207 330.7C251.545 333.568 235.453 401.268 184.452 431.363C168.787 440.608 151.538 445.239 132.905 445.24Z" fill="#1FE5DF"/>
<path d="M183.013 204.405C183.013 204.405 210.635 219.875 235.342 204.061L230.563 144.182L186.241 145.953L183.013 204.405Z" fill="#FFDBB7"/>
<path d="M159.235 157.903L150.069 156.421C150.069 156.421 143.659 100.682 150.17 92.6383C157.92 83.067 185.388 62.1304 218.568 73.9226C234.08 79.436 241.227 90.9351 241.301 112.973C241.424 149.263 228.183 159.116 214.637 160.963C211.866 179.128 194.857 185.292 194.857 185.292C194.857 185.292 171.678 194.928 168.11 190.91C164.543 186.892 159.235 157.903 159.235 157.903Z" fill="#FFDBB7"/>
<path d="M176.721 154.421C176.721 154.421 175.963 165.199 165.869 165.274" stroke="#181D2B" stroke-miterlimit="10" stroke-linecap="round" stroke-linejoin="round"/>
<path d="M167.845 138.646C167.955 139.737 167.157 140.712 166.066 140.82C164.975 140.93 164.001 140.132 163.893 139.041C163.783 137.95 164.58 136.975 165.671 136.866C166.763 136.757 167.737 137.555 167.845 138.646Z" fill="#181D2B"/>
<path d="M156.638 134.478C157.043 135.879 160.466 133.371 165.188 132.006C169.909 130.641 174.142 130.935 173.737 129.535C173.332 128.134 168.443 125.568 163.721 126.934C159 128.299 156.234 133.078 156.638 134.478Z" fill="#181D2B"/>
<path d="M211.302 134.964C211.302 134.964 216.74 120.503 227.712 134.565L211.302 134.964Z" fill="#181D2B"/>
<path d="M211.302 134.964C211.302 134.964 216.74 120.503 227.712 134.565" stroke="#181D2B" stroke-miterlimit="10" stroke-linecap="round" stroke-linejoin="round"/>
<path d="M183.804 189.302L199.425 182.986L183.506 195.475L183.804 189.302Z" fill="#181D2B"/>
<path d="M150.513 110.581C150.513 110.581 182.519 106.199 188.058 102.331C193.596 98.4637 185.946 109.515 185.419 116.386C184.891 123.258 199.928 122.566 200.983 130.295C202.038 138.025 204.939 138.808 205.995 138.417C207.05 138.025 206.258 128.976 209.951 125.324C213.644 121.672 223.153 121.66 226.65 125.495C229.997 129.166 234.118 139.331 226.65 146.724C219.183 154.115 215.751 157.585 217.334 162.708C218.918 167.831 237.646 167.635 238.174 163.381C238.701 159.127 259.275 92.9248 244.768 81.4501C230.26 69.9754 233.596 76.5693 233.596 76.5693C233.596 76.5693 242.309 68.3274 237.119 63.9842C214.962 45.4454 161.226 70.6544 153.409 63.9842C145.592 57.3139 145.154 63.1613 146.032 68.1505C146.911 73.1396 137.274 57.5782 131.278 63.9842C123.518 72.2725 121.596 81.2145 124.551 94.4157C127.628 108.153 134.595 110.303 150.513 110.581Z" fill="#D36B48"/>
<path d="M232.395 75.8337C235.214 73.8904 236.387 69.8779 235.055 66.7225" stroke="#181D2B" stroke-miterlimit="10" stroke-linecap="round" stroke-linejoin="round"/>
<path d="M224.249 76.9033C226.604 74.0598 226.553 69.5086 224.135 66.7182" stroke="#181D2B" stroke-miterlimit="10" stroke-linecap="round" stroke-linejoin="round"/>
<path d="M215.041 82.7021C215.849 79.487 214.554 75.846 211.899 73.863" stroke="#181D2B" stroke-miterlimit="10" stroke-linecap="round" stroke-linejoin="round"/>
<path d="M171.463 106.116C164.067 107.985 155.872 106.387 149.719 101.877C143.567 97.3665 139.577 90.0315 139.134 82.4156" stroke="#181D2B" stroke-miterlimit="10" stroke-linecap="round" stroke-linejoin="round"/>
<path d="M153.204 74.4667C154.22 81.6292 160.249 87.7885 167.389 88.9553" stroke="#181D2B" stroke-miterlimit="10" stroke-linecap="round" stroke-linejoin="round"/>
<path d="M170.017 80.7732C171.597 84.9329 175.038 88.3449 179.212 89.8889C183.385 91.4328 188.219 91.0822 192.126 88.9532" stroke="#181D2B" stroke-miterlimit="10" stroke-linecap="round" stroke-linejoin="round"/>
<path d="M87.8351 375.709C78.4839 358.691 69.5529 328.968 68.6305 300.686C67.4217 263.651 63.1613 251.539 61.4227 237.528C59.6896 223.517 79.2824 220.816 83.2386 233.322C104.204 299.56 126.161 309.1 123.486 360.903C122.857 373.086 97.6309 393.528 87.8351 375.709Z" fill="#FFCB97"/>
<path d="M93.4492 210.529C93.4492 210.529 90.0516 179.401 90.0305 172.196C90.0162 165.432 87.6261 167.063 84.7848 166.692C80.4504 166.12 79.8188 195.691 79.8188 195.691L93.4492 210.529Z" fill="#FFCB97"/>
<path d="M84.1333 186.644C84.1333 186.644 68.2423 188.926 63.5219 189.692C57.085 190.741 55.5045 192.502 53.9141 194.835C51.9543 197.703 54.5534 234.492 61.2646 234.362C93.4481 233.741 95.1248 216.197 96.1622 211.738C98.07 203.533 94.4247 202.94 92.9891 195.532C92.2414 191.66 84.1333 186.644 84.1333 186.644Z" fill="#FFCB97"/>
<path d="M90.7229 168.253C90.7108 171.307 90.0903 173.78 86.0766 173.765C82.063 173.749 80.1407 171.266 80.1518 168.212C80.1639 165.159 82.1061 162.691 86.1186 162.707C90.1334 162.722 90.7362 165.2 90.7229 168.253Z" fill="#FFDBB7"/>
<path d="M145.336 183.292C146.818 179.412 145.734 170.818 144.106 170.209C142.475 169.599 141.09 139.467 137.663 138.043C134.241 136.62 127.15 133.89 127.15 133.89L115.269 93.3274C115.269 93.3274 117.21 93.4944 118.35 89.786C119.485 86.0798 121.518 71.9329 119.354 67.311C117.187 62.6857 108.516 62.4656 108.516 62.4656C108.516 62.4656 107.604 54.9348 85.581 63.9609C85.581 63.9609 55.2357 74.594 49.3042 82.128C43.375 89.6643 45.0904 96.5105 48.4006 97.9903C51.712 99.4734 59.4894 126.399 59.4894 126.399C59.4894 126.399 56.1791 126.627 59.1498 130.277C62.1172 133.928 73.0777 139.285 73.0777 139.285L77.3081 154.571C77.3081 154.571 72.9406 153.62 73.5876 159.577C74.2346 165.531 79.185 181.608 79.185 181.608C79.185 181.608 73.7866 178.889 69.9079 181.973C66.0314 185.055 67.6306 188.821 64.2087 190.535C60.7867 192.248 52.6831 189.171 49.7201 196.366C46.7582 203.555 43.2223 207.324 48.8165 211.085C54.4106 214.845 67.6517 221.344 67.6517 221.344C67.6517 221.344 89.7761 198.279 95.138 197.592C100.499 196.902 107.349 199.752 110.433 201.918C113.512 204.083 124.722 205.383 129.26 204.758C133.8 204.131 143.854 187.17 145.336 183.292ZM81.9998 176.484C81.9998 176.484 77.9983 165.642 77.7671 161.189C77.5382 156.74 80.6184 158.335 87.3495 158.671C94.0851 159.008 92.7247 173.395 88.8459 175.907C84.9694 178.422 81.9998 176.484 81.9998 176.484Z" fill="#181D2B"/>
<path d="M76.4554 34.1443L85.9272 74.1273L106.001 70.0672L95.764 29.6749L76.4554 34.1443Z" fill="#D36B48"/>
<path d="M59.8566 62.6348L70.0616 97.3521L81.6647 98.7357L71.8069 58.9695L59.8566 62.6348Z" fill="#D36B48"/>
<path d="M93.4215 194.164C93.4215 194.164 104.718 193.358 109.742 197.692C114.765 202.024 120.242 202.136 124.008 200.535C127.773 198.935 111.269 176.666 101.769 175.716C92.268 174.766 85.1995 185.725 86.2292 188.919C87.2589 192.114 60.1132 213.699 60.6839 214.839C61.2557 215.98 68.2401 217.619 68.2401 217.619L93.4215 194.164Z" fill="#D36B48"/>
<path d="M97.3921 157.638C96.5858 157.661 79.5877 155.14 79.5877 155.14L59.8257 80.834C59.8257 80.834 61.7369 73.9038 69.8372 72.4152C77.9386 70.9265 80.2225 75.7752 80.2225 75.7752L96.1213 134.304L99.4315 133.787L85.1111 78.1155L109.548 71.933L116.51 76.7219L116.515 80.7146L114.353 91.2138L112.019 92.0975L133.114 166.577C133.114 166.577 142.026 183.521 126.739 188.894C111.45 194.265 110.195 192.897 110.075 182.97C109.954 173.042 114.848 157.141 97.3921 157.638Z" fill="#1FE5DF"/>
<path d="M125.702 174.002C116.062 178.83 104.412 175.083 99.6793 165.628C94.9467 156.174 98.9239 144.6 108.564 139.773C118.204 134.946 129.854 138.693 134.587 148.144C139.319 157.595 135.342 169.174 125.702 174.002Z" fill="#D36B48" stroke="#181D2B" stroke-miterlimit="10" stroke-linecap="round" stroke-linejoin="round"/>
<path d="M72.1033 80.4944C68.8274 82.1346 64.8679 80.8616 63.2587 77.6498C61.6505 74.438 63.0021 70.5039 66.278 68.8637C69.554 67.2235 73.5135 68.4965 75.1227 71.7095C76.7308 74.9202 75.3793 78.8542 72.1033 80.4944Z" fill="#D36B48" stroke="#E6E2DC" stroke-miterlimit="10" stroke-linecap="round" stroke-linejoin="round"/>
<path d="M110.818 94.4123L91.4174 93.8516" stroke="#181D2B" stroke-miterlimit="10" stroke-linecap="round" stroke-linejoin="round"/>
<path d="M112.052 98.9327L92.6517 98.3719" stroke="#181D2B" stroke-miterlimit="10" stroke-linecap="round" stroke-linejoin="round"/>
<path d="M113.285 103.453L93.885 102.892" stroke="#181D2B" stroke-miterlimit="10" stroke-linecap="round" stroke-linejoin="round"/>
<path d="M114.519 107.972L95.1191 107.412" stroke="#181D2B" stroke-miterlimit="10" stroke-linecap="round" stroke-linejoin="round"/>
<path d="M115.754 112.492L96.3535 111.933" stroke="#181D2B" stroke-miterlimit="10" stroke-linecap="round" stroke-linejoin="round"/>
<path d="M116.988 117.012L97.5878 116.452" stroke="#181D2B" stroke-miterlimit="10" stroke-linecap="round" stroke-linejoin="round"/>
<path d="M118.221 121.533L98.821 120.972" stroke="#181D2B" stroke-miterlimit="10" stroke-linecap="round" stroke-linejoin="round"/>
<path d="M119.456 126.053L100.055 125.492" stroke="#181D2B" stroke-miterlimit="10" stroke-linecap="round" stroke-linejoin="round"/>
<path d="M120.69 130.573L101.29 130.012" stroke="#181D2B" stroke-miterlimit="10" stroke-linecap="round" stroke-linejoin="round"/>
<path d="M79.9825 100.861L75.8129 84.2903L70.3691 85.6595L73.8962 99.677C75.9279 100.061 77.9486 100.488 79.9825 100.861Z" fill="white"/>
<path d="M85.049 120.998L80.4282 102.632C78.3987 102.275 76.3791 101.876 74.354 101.492L78.8322 119.292C80.875 119.965 82.9222 120.563 85.049 120.998Z" fill="white"/>
<path d="M89.0881 137.053L85.5057 122.816C85.3177 122.787 85.1275 122.759 84.945 122.727C83.0194 122.403 81.1592 121.869 79.3309 121.273L82.9841 135.796C85.0313 136.18 87.0685 136.595 89.0881 137.053Z" fill="white"/>
<path d="M89.557 138.913C87.5341 138.439 85.4935 138.01 83.4419 137.612L87.2244 152.648L92.6681 151.278L89.557 138.913Z" fill="white"/>
<path d="M120.948 153.098C119.26 151.249 122.727 141.818 129.306 147.58C135.885 153.342 136.163 158.799 133.417 160.175C130.67 161.551 131.223 157.727 128.155 154.55C126.358 152.688 123.012 155.362 120.948 153.098Z" fill="#1FE5DF"/>
<path d="M121.271 160.312C123.075 158.575 132.594 161.789 127.01 168.524C121.425 175.259 115.977 175.682 114.53 172.973C113.081 170.264 116.917 170.715 120.011 167.561C121.826 165.712 119.063 162.439 121.271 160.312Z" fill="#1FE5DF"/>
<path d="M114.069 160.83C115.853 162.586 112.896 172.193 106.018 166.789C99.1406 161.385 98.571 155.949 101.24 154.43C103.909 152.909 103.56 156.757 106.793 159.766C108.688 161.529 111.885 158.679 114.069 160.83Z" fill="#1FE5DF"/>
<path d="M113.359 153.642C111.652 155.472 101.974 152.774 107.189 145.753C112.405 138.733 117.822 138.019 119.414 140.647C121.005 143.273 117.15 143.028 114.229 146.34C112.517 148.282 115.451 151.402 113.359 153.642Z" fill="#1FE5DF"/>
<path d="M130.679 177.553L130.594 177.381C129.884 175.963 127.848 175.271 126.536 176.252C124.232 177.976 121.196 178.245 118.382 178.446C117.802 178.285 117.219 178.268 116.78 178.486L116.267 178.744C114.22 179.769 117.279 181.846 118.5 181.753C122.32 181.46 126.205 181.186 129.504 179.15C130.27 179.019 131.121 178.435 130.679 177.553Z" fill="#181D2B"/>
<path d="M132.223 182.773C131.815 181.744 130.51 181.164 129.465 181.176C127.546 181.199 125.413 182.147 123.6 182.735C121.442 183.435 119.184 183.491 116.967 183.809C115.945 183.975 115.653 185.007 116.232 185.788C116.892 186.678 118.049 187.039 119.116 186.933C119.726 187.008 120.177 186.931 120.488 186.758C121.847 186.584 123.209 186.43 124.573 186.172C125.693 185.958 126.757 185.562 127.858 185.253C128.669 185.024 129.905 184.411 130.738 184.401C131.632 184.389 132.629 183.798 132.223 182.773Z" fill="#181D2B"/>
<path d="M98.748 186.263C99.0179 185.978 99.134 185.464 98.9316 185.104C98.8398 184.941 98.758 184.769 98.6496 184.615C98.4074 184.27 98.1154 184.079 97.7758 183.843C97.6088 183.727 97.4252 183.637 97.2339 183.561C96.4896 183.211 95.5926 183.105 94.8715 183.465L94.5297 183.637C94.1504 183.826 93.8927 184.201 93.9126 184.634C93.9336 185.111 94.2455 185.536 94.5906 185.839C95.1524 186.332 95.9819 186.669 96.7716 186.654C96.995 186.701 97.2206 186.733 97.4474 186.732C97.9074 186.728 98.4206 186.612 98.748 186.263Z" fill="#181D2B"/>
<path d="M101.758 139.354C102.121 138.377 100.947 137.388 100.127 137.154C100.084 137.142 100.041 137.128 99.9988 137.115C99.8716 137.039 99.7135 136.966 99.5476 136.903C99.5343 136.897 99.5222 136.891 99.51 136.884C99.4923 136.88 99.479 136.876 99.4635 136.871C99.2445 136.792 99.0233 136.734 98.8519 136.71C98.6528 136.673 98.4549 136.657 98.2569 136.663C98.0755 136.657 97.9107 136.678 97.7526 136.72C97.5745 136.749 97.4097 136.833 97.2405 136.898C96.8545 137.049 96.6045 137.496 96.6222 137.896C96.6432 138.374 96.9551 138.797 97.3002 139.1C97.423 139.208 97.5568 139.303 97.695 139.39C97.82 139.497 97.9516 139.599 98.1043 139.689C98.6163 139.991 99.2191 140.169 99.8152 140.164C99.9026 140.163 99.9933 140.157 100.083 140.147C100.304 140.162 100.528 140.159 100.76 140.107C101.179 140.014 101.6 139.778 101.758 139.354Z" fill="#181D2B"/>
<path d="M114.088 81.0596C114.468 80.8694 114.725 80.4945 114.706 80.062C114.685 79.5842 114.374 79.1606 114.028 78.8576C113.406 78.3123 112.455 77.9551 111.593 78.0613C111.538 78.059 111.484 78.0502 111.428 78.0502C110.969 78.0535 110.456 78.1707 110.129 78.518C109.848 78.8155 109.758 79.3044 109.945 79.6771L110.03 79.8485C110.08 79.9481 110.136 80.0421 110.196 80.1317C110.226 80.1781 110.258 80.2224 110.291 80.2655C110.318 80.3009 110.346 80.3352 110.374 80.3684C110.465 80.479 110.566 80.5818 110.675 80.6758C110.683 80.6825 110.689 80.6891 110.696 80.6946C110.744 80.7345 110.793 80.771 110.844 80.8086C110.897 80.8473 110.953 80.886 111.009 80.9214C111.033 80.9357 111.053 80.9534 111.079 80.9678C111.088 80.9733 111.098 80.9778 111.106 80.9822C111.212 81.043 111.322 81.0983 111.436 81.1492C111.47 81.1647 111.503 81.178 111.538 81.1912C111.57 81.2034 111.6 81.2189 111.632 81.2299C111.71 81.2587 111.792 81.2852 111.874 81.3096C111.901 81.3173 111.927 81.3228 111.954 81.3306C112.07 81.3616 112.187 81.3859 112.306 81.4047C112.324 81.408 112.342 81.4113 112.36 81.4135C112.499 81.4334 112.638 81.4423 112.779 81.4412C112.782 81.4412 112.786 81.4423 112.79 81.4423C112.811 81.4423 112.832 81.4401 112.854 81.4401C112.914 81.4379 112.973 81.4346 113.033 81.4279C113.089 81.4224 113.147 81.4146 113.205 81.4047C113.221 81.4014 113.238 81.3992 113.254 81.3958C113.422 81.3627 113.586 81.3107 113.737 81.2333C113.741 81.231 113.744 81.2299 113.749 81.2288L114.088 81.0596Z" fill="#181D2B"/>
<path d="M100.937 83.2297C95.8293 85.7867 89.6567 83.8015 87.1483 78.7946C84.641 73.7866 86.7479 67.655 91.8554 65.0968C96.9618 62.5397 103.136 64.5239 105.643 69.5318C108.152 74.5398 106.044 80.6715 100.937 83.2297Z" fill="#181D2B" stroke="#E6E2DC" stroke-width="9" stroke-miterlimit="10" stroke-linecap="round" stroke-linejoin="round"/>
<path d="M120.127 162.661C116.851 164.303 112.892 163.028 111.282 159.815C109.674 156.602 111.026 152.669 114.302 151.027C117.578 149.386 121.537 150.66 123.146 153.872C124.755 157.085 123.403 161.02 120.127 162.661Z" fill="#181D2B" stroke="#E6E2DC" stroke-miterlimit="10" stroke-linecap="round" stroke-linejoin="round"/>
<path d="M77.5692 185.654C78.8002 191.289 79.2006 195.987 75.2809 196.845C71.3601 197.701 68.4746 193.545 67.2436 187.91C66.0126 182.275 66.9019 177.295 70.8226 176.438C74.7434 175.582 76.3383 180.019 77.5692 185.654Z" fill="#FFCB97"/>
<path d="M91.9539 217.839C91.9539 217.839 100.362 215.765 94.5574 192.295C93.2966 187.198 94.2024 184.078 90.369 184.698C86.5345 185.323 89.2519 202.896 86.2712 204.279C82.5838 205.992 67.8221 228.927 91.9539 217.839Z" fill="#FFCB97"/>
<path d="M67.6804 187.617C68.6946 192.258 68.9192 196.151 64.9984 197.007C61.0776 197.864 58.3679 194.513 57.3537 189.873C56.3395 185.234 57.4057 181.058 61.3265 180.202C65.2483 179.344 66.6673 182.976 67.6804 187.617Z" fill="#FFCB97"/>
<path d="M59.9009 193.415C60.8244 197.64 60.9759 201.197 57.0541 202.054C53.1333 202.911 50.4977 199.897 49.5742 195.67C48.6507 191.445 49.7899 187.606 53.7117 186.749C57.6336 185.893 58.9785 189.189 59.9009 193.415Z" fill="#FFCB97"/>
<path d="M256.322 433.541C256.322 433.541 274.269 296.482 268.216 270.197C260.606 237.109 237.057 199.651 237.057 199.651C237.057 199.651 194.741 196.913 178.457 202.298C178.457 202.298 150.584 222.935 144.347 270.197C141.809 289.421 142.343 306.652 156.058 322.857C161.539 329.329 156.449 548.434 156.73 553C161.228 553 260.352 553 260.352 553C260.352 553 268.388 518.859 271.255 503.719C277.883 468.763 257.516 437.4 256.322 433.541Z" fill="#181D2B"/>
<path d="M226.651 362.34H171.627V388.072H226.651V362.34Z" fill="#D36B48"/>
<path d="M168.042 282.567C168.042 282.567 165.772 232.042 177.838 220.114C189.905 208.185 217.202 205.182 228.414 210.936C239.72 216.738 246.878 220.887 247.405 248.033C247.933 275.18 237.402 319.493 225.796 330.043C214.191 340.594 210.067 366.443 212.92 397.567C215.773 428.691 211.422 432.956 245.836 423.918C266.455 418.503 268.97 432.481 273.782 396.628C276.42 376.968 284.86 326.35 282.751 303.139C280.641 279.927 276.42 224.027 261.122 207.034C245.824 190.04 187.351 174.511 160.973 215.556C135.087 255.834 142.428 304.194 156.144 303.667C169.859 303.14 168.042 282.567 168.042 282.567Z" fill="#1FE5DF"/>
<path d="M140.84 268.696C140.84 268.696 164.052 267.154 165.107 275.838C166.162 284.522 164.052 308.452 172.493 321.281C180.934 334.109 190.429 310.519 188.846 349.746C187.263 388.972 202.034 416.932 181.988 422.734C161.941 428.537 136.093 433.382 135.038 416.189C133.982 398.995 127.652 284.522 140.84 268.696Z" fill="#1FE5DF"/>
<path d="M183.507 422.222C183.507 422.222 181.135 384.672 180.141 372.51C179.147 360.349 160.247 291.841 161.73 261.371C163.214 230.899 175.146 201.77 207.869 202.738C240.593 203.706 253.647 217.08 256.512 252.259C259.378 287.44 236.528 320.869 229.169 338.38C221.81 355.89 220.473 414.472 231.966 427.208" stroke="#181D2B" stroke-miterlimit="10" stroke-linecap="round" stroke-linejoin="round"/>
<path d="M268.839 343.462C268.036 350.047 267.234 356.634 266.431 363.219" stroke="#181D2B" stroke-miterlimit="10" stroke-linecap="round" stroke-linejoin="round"/>
<path d="M260.352 345.066C260.278 350.287 259.843 355.503 259.046 360.664" stroke="#181D2B" stroke-miterlimit="10" stroke-linecap="round" stroke-linejoin="round"/>
<path d="M242.822 203.068C247.247 207.022 250.933 211.8 253.634 217.084" stroke="#181D2B" stroke-miterlimit="10" stroke-linecap="round" stroke-linejoin="round"/>
<path d="M144.113 268.471C148.018 268.821 151.889 269.559 155.649 270.673" stroke="#181D2B" stroke-miterlimit="10" stroke-linecap="round" stroke-linejoin="round"/>
<path d="M148.26 277.57C148.524 280.06 149.055 282.521 149.84 284.897" stroke="#181D2B" stroke-miterlimit="10" stroke-linecap="round" stroke-linejoin="round"/>
<path d="M152.426 276.61C152.852 279.157 153.279 281.703 153.707 284.25" stroke="#181D2B" stroke-miterlimit="10" stroke-linecap="round" stroke-linejoin="round"/>
<path d="M167.985 392.188C169.007 397.557 169.763 402.976 170.252 408.42" stroke="#181D2B" stroke-miterlimit="10" stroke-linecap="round" stroke-linejoin="round"/>
<path d="M189.222 368.951H212.392" stroke="#181D2B" stroke-miterlimit="10" stroke-linecap="round" stroke-linejoin="round"/>
<path d="M150.255 341.901H131.528V403.119H150.255V341.901Z" fill="#181D2B"/>
<path d="M134.127 403.119H142.87V341.901H134.127C128.612 341.901 124.142 346.371 124.142 351.886V393.135C124.143 398.649 128.613 403.119 134.127 403.119Z" fill="#D36B48"/>
<path d="M131.604 365.079C133.035 365.079 134.195 362.245 134.195 358.749C134.195 355.252 133.035 352.418 131.604 352.418C130.173 352.418 129.013 355.252 129.013 358.749C129.013 362.245 130.173 365.079 131.604 365.079Z" fill="white"/>
<path d="M133.582 382.401C133.582 385.897 134.742 388.731 136.173 388.731C137.604 388.731 138.764 385.897 138.764 382.401C138.764 378.904 137.604 376.07 136.173 376.07C134.742 376.071 133.582 378.904 133.582 382.401Z" fill="white"/>
<path d="M125.082 382.401C125.082 385.897 126.242 388.731 127.673 388.731C129.104 388.731 130.265 385.897 130.265 382.401C130.265 378.904 129.104 376.07 127.673 376.07C126.242 376.071 125.082 378.904 125.082 382.401Z" fill="white"/>
<path d="M150.286 236.328L163.108 242.445L180.141 212.304L167.318 206.187L150.286 236.328Z" fill="#181D2B"/>
<path d="M151.095 236.714L158.052 240.032L175.083 209.892L167.368 206.21C164.492 204.838 161.045 205.926 159.476 208.7L148.425 228.256C146.698 231.317 147.923 235.201 151.095 236.714Z" fill="#D36B48"/>
<path d="M160.908 213.66C159.935 215.381 159.941 217.155 160.92 217.623C161.9 218.091 163.482 217.073 164.456 215.352C165.428 213.63 165.422 211.856 164.442 211.39C163.464 210.923 161.881 211.939 160.908 213.66Z" fill="white"/>
<path d="M157.457 226.799C156.483 228.519 156.49 230.295 157.47 230.761C158.45 231.229 160.033 230.212 161.006 228.491C161.978 226.769 161.972 224.996 160.993 224.528C160.012 224.06 158.429 225.076 157.457 226.799Z" fill="white"/>
<path d="M151.636 224.021C150.664 225.742 150.669 227.516 151.649 227.984C152.629 228.452 154.212 227.434 155.184 225.713C156.157 223.991 156.151 222.217 155.171 221.751C154.191 221.284 152.608 222.3 151.636 224.021Z" fill="white"/>
<path d="M247.895 349.312H229.169V410.53H247.895V349.312Z" fill="#181D2B"/>
<path d="M246.294 410.53H236.553V349.312H246.294C251.257 349.312 255.28 353.336 255.28 358.298V401.544C255.281 406.508 251.258 410.53 246.294 410.53Z" fill="#D36B48"/>
<path d="M250.487 368.951C250.487 372.448 249.327 375.282 247.896 375.282C246.464 375.282 245.304 372.448 245.304 368.951C245.304 365.455 246.464 362.621 247.896 362.621C249.327 362.622 250.487 365.457 250.487 368.951Z" fill="white"/>
<path d="M243.327 398.934C244.758 398.934 245.918 396.1 245.918 392.603C245.918 389.107 244.758 386.273 243.327 386.273C241.896 386.273 240.735 389.107 240.735 392.603C240.735 396.1 241.896 398.934 243.327 398.934Z" fill="white"/>
<path d="M254.418 392.603C254.418 396.099 253.257 398.934 251.826 398.934C250.395 398.934 249.235 396.099 249.235 392.603C249.235 389.107 250.395 386.273 251.826 386.273C253.257 386.274 254.418 389.107 254.418 392.603Z" fill="white"/>
<path d="M281.386 268.49H262.66V329.708H281.386V268.49Z" fill="#181D2B"/>
<path d="M281.954 329.708H270.044V268.49H281.954C285.718 268.49 288.771 271.543 288.771 275.307V322.891C288.772 326.657 285.72 329.708 281.954 329.708Z" fill="#D36B48"/>
<path d="M283.901 285.339C283.901 288.835 282.741 291.67 281.31 291.67C279.879 291.67 278.719 288.835 278.719 285.339C278.719 281.843 279.879 279.008 281.31 279.008C282.741 279.008 283.901 281.843 283.901 285.339Z" fill="white"/>
<path d="M276.741 315.321C278.172 315.321 279.333 312.487 279.333 308.991C279.333 305.494 278.172 302.66 276.741 302.66C275.31 302.66 274.15 305.494 274.15 308.991C274.15 312.487 275.31 315.321 276.741 315.321Z" fill="white"/>
<path d="M287.832 308.991C287.832 312.487 286.672 315.321 285.241 315.321C283.81 315.321 282.649 312.487 282.649 308.991C282.649 305.495 283.81 302.66 285.241 302.66C286.673 302.66 287.832 305.495 287.832 308.991Z" fill="white"/>
<path d="M241.087 232.041C238.896 209.612 200.073 209.711 193.31 221.009C168.352 262.679 152.472 291.679 142.538 312.455C131.638 298.703 117.696 285.541 100.445 261.674C101.594 258.44 102.098 254.065 101.601 248.192C101.601 248.192 99.9303 222.917 85.0347 203.874C81.7997 199.738 81.3506 196.522 78.1067 198.655C74.8628 200.794 80.3696 209.929 82.377 218.199C82.4754 218.607 82.5894 219.077 82.7154 219.597C82.0861 219.259 81.375 218.802 80.5543 218.179C66.0701 207.186 46.7417 188.817 42.1982 192.374C40.0869 194.024 44.4866 199.614 46.6034 202.445C43.9922 202.339 39.7374 203.16 45.5173 210.975C39.9962 215.153 46.1699 219.435 47.1188 222.713C38.9709 224.645 60.8664 251.464 73.4118 262.751C78.7106 274.136 85.6917 285.885 95.7607 317.335C104.389 344.284 121.114 370.428 134.765 384.236C139.323 388.845 144.324 389.274 148.935 387.35C151.641 386.455 154.076 384.942 155.861 383.358C165.577 374.738 245.209 274.176 241.087 232.041Z" fill="#FFDBB7"/>
<path d="M99.8651 261.334C99.0743 259.388 98.0059 257.555 96.7019 255.907" stroke="#181D2B" stroke-miterlimit="10" stroke-linecap="round" stroke-linejoin="round"/>
<path d="M141.445 311.744C147.857 318.019 154.346 324.915 156.469 333.631" stroke="#181D2B" stroke-miterlimit="10" stroke-linecap="round" stroke-linejoin="round"/>
<path d="M46.839 202.737C46.839 202.737 58.2507 214.252 60.445 216.362" stroke="#181D2B" stroke-miterlimit="10" stroke-linecap="round" stroke-linejoin="round"/>
<path d="M45.5162 210.975C45.5162 210.975 51.993 219.659 55.2723 221.638" stroke="#181D2B" stroke-miterlimit="10" stroke-linecap="round" stroke-linejoin="round"/>
<path d="M47.1178 222.712C49.7147 226.253 51.0341 227.644 51.0341 227.644" stroke="#181D2B" stroke-miterlimit="10" stroke-linecap="round" stroke-linejoin="round"/>
</svg>
