<svg width="280" height="152" viewBox="0 0 280 152" fill="none" xmlns="http://www.w3.org/2000/svg">
<g filter="url(#filter0_d_245_4261)">
<path d="M212 32V91.9297C212 98.6022 212 101.939 210.595 103.985C209.367 105.773 207.465 106.986 205.326 107.346C202.878 107.757 199.852 106.35 193.802 103.536L169 92L153.874 99.0352C153.72 101.316 153.375 102.849 152.595 103.985C151.367 105.773 149.465 106.986 147.326 107.346C145.523 107.649 143.407 106.963 140 105.458C136.593 106.963 134.477 107.649 132.674 107.346C130.535 106.986 128.633 105.773 127.405 103.985C126.625 102.849 126.279 101.316 126.125 99.0352L111 92L86.1982 103.536C80.148 106.35 77.1223 107.757 74.6738 107.346C72.5349 106.986 70.6333 105.773 69.4053 103.985C67.9998 101.939 68 98.6022 68 91.9297V32H212Z" fill="#D53951"/>
</g>
<mask id="mask0_245_4261" style="mask-type:alpha" maskUnits="userSpaceOnUse" x="68" y="32" width="144" height="76">
<path d="M212 32V99.4561C212 105.305 205.929 109.176 200.626 106.71L169 92L154 98.9766V99.4561C154 105.305 147.929 109.176 142.626 106.71L140 105.488L137.374 106.71C132.071 109.176 126 105.305 126 99.4561V98.9766L111 92L79.374 106.71C74.071 109.176 68 105.305 68 99.4561V32H212Z" fill="black"/>
</mask>
<g mask="url(#mask0_245_4261)">
<g filter="url(#filter1_d_245_4261)">
<path d="M212 32V91.9297C212 98.6022 212 101.939 210.595 103.985C209.367 105.773 207.465 106.986 205.326 107.346C202.878 107.757 199.852 106.35 193.802 103.536L169 92L153.874 99.0352C153.72 101.316 153.375 102.849 152.595 103.985C151.367 105.773 149.465 106.986 147.326 107.346C145.523 107.649 143.407 106.963 140 105.458C136.593 106.963 134.477 107.649 132.674 107.346C130.535 106.986 128.633 105.773 127.405 103.985C126.625 102.849 126.279 101.316 126.125 99.0352L111 92L86.1982 103.536C80.148 106.35 77.1223 107.757 74.6738 107.346C72.5349 106.986 70.6333 105.773 69.4053 103.985C67.9998 101.939 68 98.6022 68 91.9297V32H212Z" fill="#D53951"/>
</g>
<g filter="url(#filter2_d_245_4261)">
<path d="M212 32V91.9297C212 98.6022 212 101.939 210.595 103.985C209.367 105.773 207.465 106.986 205.326 107.346C202.878 107.757 199.852 106.35 193.802 103.536L169 92L153.874 99.0352C153.72 101.316 153.375 102.849 152.595 103.985C151.367 105.773 149.465 106.986 147.326 107.346C145.523 107.649 143.407 106.963 140 105.458C136.593 106.963 134.477 107.649 132.674 107.346C130.535 106.986 128.633 105.773 127.405 103.985C126.625 102.849 126.279 101.316 126.125 99.0352L111 92L86.1982 103.536C80.148 106.35 77.1223 107.757 74.6738 107.346C72.5349 106.986 70.6333 105.773 69.4053 103.985C67.9998 101.939 68 98.6022 68 91.9297V32H212Z" fill="#D53951"/>
</g>
<path d="M212 32V91.9297C212 98.6022 212 101.939 210.595 103.985C209.367 105.773 207.465 106.986 205.326 107.346C202.878 107.757 199.852 106.35 193.802 103.536L169 92L153.874 99.0352C153.72 101.316 153.375 102.849 152.595 103.985C151.367 105.773 149.465 106.986 147.326 107.346C145.523 107.649 143.407 106.963 140 105.458C136.593 106.963 134.477 107.649 132.674 107.346C130.535 106.986 128.633 105.773 127.405 103.985C126.625 102.849 126.279 101.316 126.125 99.0352L111 92L86.1982 103.536C80.148 106.35 77.1223 107.757 74.6738 107.346C72.5349 106.986 70.6333 105.773 69.4053 103.985C67.9998 101.939 68 98.6022 68 91.9297V32H212Z" fill="url(#paint0_linear_245_4261)" fill-opacity="0.3" style="mix-blend-mode:overlay"/>
<path d="M212 32V91.9297C212 98.6022 212 101.939 210.595 103.985C209.367 105.773 207.465 106.986 205.326 107.346C202.878 107.757 199.852 106.35 193.802 103.536L169 92L153.874 99.0352C153.72 101.316 153.375 102.849 152.595 103.985C151.367 105.773 149.465 106.986 147.326 107.346C145.523 107.649 143.407 106.963 140 105.458C136.593 106.963 134.477 107.649 132.674 107.346C130.535 106.986 128.633 105.773 127.405 103.985C126.625 102.849 126.279 101.316 126.125 99.0352L111 92L86.1982 103.536C80.148 106.35 77.1223 107.757 74.6738 107.346C72.5349 106.986 70.6333 105.773 69.4053 103.985C67.9998 101.939 68 98.6022 68 91.9297V32H212Z" fill="url(#paint1_radial_245_4261)" fill-opacity="0.6" style="mix-blend-mode:overlay"/>
<g style="mix-blend-mode:soft-light">
<mask id="path-6-inside-1_245_4261" fill="white">
<path d="M212 32V91.9297C212 98.6022 212 101.939 210.595 103.985C209.367 105.773 207.465 106.986 205.326 107.346C202.878 107.757 199.852 106.35 193.802 103.536L169 92L153.874 99.0352C153.72 101.316 153.375 102.849 152.595 103.985C151.367 105.773 149.465 106.986 147.326 107.346C145.523 107.649 143.407 106.963 140 105.458C136.593 106.963 134.477 107.649 132.674 107.346C130.535 106.986 128.633 105.773 127.405 103.985C126.625 102.849 126.279 101.316 126.125 99.0352L111 92L86.1982 103.536C80.148 106.35 77.1223 107.757 74.6738 107.346C72.5349 106.986 70.6333 105.773 69.4053 103.985C67.9998 101.939 68 98.6022 68 91.9297V32H212Z"/>
</mask>
<path d="M212 32H212.5C212.5 31.7239 212.276 31.5 212 31.5V32ZM210.595 103.985L211.007 104.268L211.007 104.268L210.595 103.985ZM205.326 107.346L205.409 107.839L205.409 107.839L205.326 107.346ZM193.802 103.536L193.591 103.989V103.989L193.802 103.536ZM169 92L169.211 91.5466C169.077 91.4845 168.923 91.4845 168.789 91.5466L169 92ZM153.874 99.0352L153.663 98.5818C153.498 98.6587 153.387 98.8195 153.375 99.0014L153.874 99.0352ZM152.595 103.985L153.007 104.268L153.007 104.268L152.595 103.985ZM147.326 107.346L147.409 107.839L147.409 107.839L147.326 107.346ZM140 105.458L140.202 105.001C140.073 104.944 139.927 104.944 139.798 105.001L140 105.458ZM132.674 107.346L132.591 107.839L132.591 107.839L132.674 107.346ZM127.405 103.985L126.993 104.268L126.993 104.268L127.405 103.985ZM126.125 99.0352L126.624 99.0014C126.612 98.8195 126.501 98.6587 126.336 98.5818L126.125 99.0352ZM111 92L111.211 91.5466C111.077 91.4845 110.923 91.4845 110.789 91.5466L111 92ZM86.1982 103.536L86.4091 103.989L86.4091 103.989L86.1982 103.536ZM74.6738 107.346L74.5909 107.839L74.591 107.839L74.6738 107.346ZM69.4053 103.985L68.9931 104.268L68.9931 104.268L69.4053 103.985ZM68 32V31.5C67.7239 31.5 67.5 31.7239 67.5 32H68ZM212 32H211.5V91.9297H212H212.5V32H212ZM212 91.9297H211.5C211.5 95.2756 211.5 97.7509 211.326 99.6468C211.153 101.543 210.812 102.785 210.183 103.702L210.595 103.985L211.007 104.268C211.783 103.139 212.144 101.69 212.322 99.7377C212.501 97.7856 212.5 95.2562 212.5 91.9297H212ZM210.595 103.985L210.183 103.702C209.031 105.378 207.249 106.516 205.243 106.853L205.326 107.346L205.409 107.839C207.682 107.457 209.702 106.168 211.007 104.268L210.595 103.985ZM205.326 107.346L205.243 106.853C204.146 107.037 202.876 106.822 201.083 106.18C199.291 105.537 197.047 104.494 194.013 103.083L193.802 103.536L193.591 103.989C196.607 105.392 198.901 106.46 200.746 107.121C202.591 107.783 204.058 108.066 205.409 107.839L205.326 107.346ZM193.802 103.536L194.013 103.083L169.211 91.5466L169 92L168.789 92.4534L193.591 103.989L193.802 103.536ZM169 92L168.789 91.5466L153.663 98.5818L153.874 99.0352L154.085 99.4885L169.211 92.4534L169 92ZM153.874 99.0352L153.375 99.0014C153.222 101.264 152.883 102.683 152.183 103.702L152.595 103.985L153.007 104.268C153.867 103.016 154.217 101.367 154.373 99.0689L153.874 99.0352ZM152.595 103.985L152.183 103.702C151.031 105.378 149.249 106.516 147.243 106.853L147.326 107.346L147.409 107.839C149.682 107.457 151.702 106.168 153.007 104.268L152.595 103.985ZM147.326 107.346L147.243 106.853C145.61 107.127 143.631 106.516 140.202 105.001L140 105.458L139.798 105.915C143.184 107.411 145.435 108.17 147.409 107.839L147.326 107.346ZM140 105.458L139.798 105.001C136.369 106.516 134.39 107.127 132.757 106.853L132.674 107.346L132.591 107.839C134.565 108.17 136.816 107.411 140.202 105.915L140 105.458ZM132.674 107.346L132.757 106.853C130.751 106.516 128.969 105.378 127.817 103.702L127.405 103.985L126.993 104.268C128.298 106.168 130.318 107.457 132.591 107.839L132.674 107.346ZM127.405 103.985L127.817 103.702C127.117 102.683 126.777 101.264 126.624 99.0014L126.125 99.0352L125.626 99.0689C125.782 101.368 126.133 103.016 126.993 104.268L127.405 103.985ZM126.125 99.0352L126.336 98.5818L111.211 91.5466L111 92L110.789 92.4534L125.914 99.4885L126.125 99.0352ZM111 92L110.789 91.5466L85.9874 103.083L86.1982 103.536L86.4091 103.989L111.211 92.4534L111 92ZM86.1982 103.536L85.9874 103.083C82.9535 104.494 80.7088 105.537 78.9166 106.18C77.1245 106.822 75.8539 107.037 74.7567 106.853L74.6738 107.346L74.591 107.839C75.9422 108.066 77.4087 107.783 79.2541 107.121C81.0994 106.46 83.3927 105.392 86.4091 103.989L86.1982 103.536ZM74.6738 107.346L74.7567 106.853C72.7515 106.516 70.9687 105.378 69.8174 103.702L69.4053 103.985L68.9931 104.268C70.2979 106.168 72.3183 107.457 74.5909 107.839L74.6738 107.346ZM69.4053 103.985L69.8174 103.702C69.1876 102.785 68.8466 101.543 68.6735 99.6468C68.5004 97.7509 68.5 95.2757 68.5 91.9297H68H67.5C67.5 95.2563 67.4994 97.7856 67.6776 99.7377C67.8558 101.69 68.2174 103.139 68.9931 104.268L69.4053 103.985ZM68 91.9297H68.5V32H68H67.5V91.9297H68ZM68 32V32.5H212V32V31.5H68V32Z" fill="url(#paint2_linear_245_4261)" mask="url(#path-6-inside-1_245_4261)"/>
</g>
</g>
<g filter="url(#filter3_d_245_4261)">
<path fill-rule="evenodd" clip-rule="evenodd" d="M97 56H183V115.93C183 122.602 183 125.939 181.594 127.985C180.366 129.773 178.465 130.986 176.326 131.345C173.877 131.757 170.852 130.35 164.802 127.536L140 116L115.198 127.536C109.148 130.35 106.123 131.757 103.674 131.345C101.535 130.986 99.6337 129.773 98.4057 127.985C97 125.939 97 122.602 97 115.93V56Z" fill="#6239D5"/>
</g>
<mask id="mask1_245_4261" style="mask-type:luminance" maskUnits="userSpaceOnUse" x="97" y="56" width="86" height="76">
<path fill-rule="evenodd" clip-rule="evenodd" d="M97 56H183V123.456C183 129.305 176.929 133.176 171.626 130.71L140 116L108.374 130.71C103.071 133.176 97 129.305 97 123.456V56Z" fill="white"/>
</mask>
<g mask="url(#mask1_245_4261)">
<g filter="url(#filter4_d_245_4261)">
<path fill-rule="evenodd" clip-rule="evenodd" d="M97 56H183V115.93C183 122.602 183 125.939 181.594 127.985C180.366 129.773 178.465 130.986 176.326 131.345C173.877 131.757 170.852 130.35 164.802 127.536L140 116L115.198 127.536C109.148 130.35 106.123 131.757 103.674 131.345C101.535 130.986 99.6337 129.773 98.4057 127.985C97 125.939 97 122.602 97 115.93V56Z" fill="#6239D5"/>
</g>
<path fill-rule="evenodd" clip-rule="evenodd" d="M97 56H183V136L140 116L97 136V56Z" fill="url(#paint3_linear_245_4261)" fill-opacity="0.3" style="mix-blend-mode:overlay"/>
<path fill-rule="evenodd" clip-rule="evenodd" d="M97 56H183V136L140 116L97 136V56Z" fill="url(#paint4_radial_245_4261)" fill-opacity="0.6" style="mix-blend-mode:overlay"/>
<path fill-rule="evenodd" clip-rule="evenodd" d="M120 16H160V128H140H120V16Z" fill="white"/>
<g style="mix-blend-mode:soft-light">
<path d="M98 16.25H182C182.414 16.25 182.75 16.5858 182.75 17V123.456C182.75 129.033 177.051 132.755 171.973 130.591L171.731 130.483L140.527 115.97C140.235 115.834 139.903 115.817 139.601 115.919L139.473 115.97L108.269 130.483C103.131 132.873 97.25 129.122 97.25 123.456V17L97.2539 16.9229C97.2925 16.5449 97.6118 16.25 98 16.25Z" stroke="url(#paint5_linear_245_4261)" stroke-width="0.5" stroke-linecap="round" stroke-linejoin="round"/>
</g>
</g>
<defs>
<filter id="filter0_d_245_4261" x="58" y="32" width="164" height="95.416" filterUnits="userSpaceOnUse" color-interpolation-filters="sRGB">
<feFlood flood-opacity="0" result="BackgroundImageFix"/>
<feColorMatrix in="SourceAlpha" type="matrix" values="0 0 0 0 0 0 0 0 0 0 0 0 0 0 0 0 0 0 127 0" result="hardAlpha"/>
<feOffset dy="10"/>
<feGaussianBlur stdDeviation="5"/>
<feColorMatrix type="matrix" values="0 0 0 0 0 0 0 0 0 0 0 0 0 0 0 0 0 0 0.2 0"/>
<feBlend mode="normal" in2="BackgroundImageFix" result="effect1_dropShadow_245_4261"/>
<feBlend mode="normal" in="SourceGraphic" in2="effect1_dropShadow_245_4261" result="shape"/>
</filter>
<filter id="filter1_d_245_4261" x="58" y="32" width="164" height="95.416" filterUnits="userSpaceOnUse" color-interpolation-filters="sRGB">
<feFlood flood-opacity="0" result="BackgroundImageFix"/>
<feColorMatrix in="SourceAlpha" type="matrix" values="0 0 0 0 0 0 0 0 0 0 0 0 0 0 0 0 0 0 127 0" result="hardAlpha"/>
<feOffset dy="10"/>
<feGaussianBlur stdDeviation="5"/>
<feColorMatrix type="matrix" values="0 0 0 0 0 0 0 0 0 0 0 0 0 0 0 0 0 0 0.2 0"/>
<feBlend mode="normal" in2="BackgroundImageFix" result="effect1_dropShadow_245_4261"/>
<feBlend mode="normal" in="SourceGraphic" in2="effect1_dropShadow_245_4261" result="shape"/>
</filter>
<filter id="filter2_d_245_4261" x="58" y="32" width="164" height="95.416" filterUnits="userSpaceOnUse" color-interpolation-filters="sRGB">
<feFlood flood-opacity="0" result="BackgroundImageFix"/>
<feColorMatrix in="SourceAlpha" type="matrix" values="0 0 0 0 0 0 0 0 0 0 0 0 0 0 0 0 0 0 127 0" result="hardAlpha"/>
<feOffset dy="10"/>
<feGaussianBlur stdDeviation="5"/>
<feColorMatrix type="matrix" values="0 0 0 0 0 0 0 0 0 0 0 0 0 0 0 0 0 0 0.2 0"/>
<feBlend mode="normal" in2="BackgroundImageFix" result="effect1_dropShadow_245_4261"/>
<feBlend mode="normal" in="SourceGraphic" in2="effect1_dropShadow_245_4261" result="shape"/>
</filter>
<filter id="filter3_d_245_4261" x="87" y="56" width="106" height="95.4158" filterUnits="userSpaceOnUse" color-interpolation-filters="sRGB">
<feFlood flood-opacity="0" result="BackgroundImageFix"/>
<feColorMatrix in="SourceAlpha" type="matrix" values="0 0 0 0 0 0 0 0 0 0 0 0 0 0 0 0 0 0 127 0" result="hardAlpha"/>
<feOffset dy="10"/>
<feGaussianBlur stdDeviation="5"/>
<feColorMatrix type="matrix" values="0 0 0 0 0 0 0 0 0 0 0 0 0 0 0 0 0 0 0.2 0"/>
<feBlend mode="normal" in2="BackgroundImageFix" result="effect1_dropShadow_245_4261"/>
<feBlend mode="normal" in="SourceGraphic" in2="effect1_dropShadow_245_4261" result="shape"/>
</filter>
<filter id="filter4_d_245_4261" x="87" y="56" width="106" height="95.4158" filterUnits="userSpaceOnUse" color-interpolation-filters="sRGB">
<feFlood flood-opacity="0" result="BackgroundImageFix"/>
<feColorMatrix in="SourceAlpha" type="matrix" values="0 0 0 0 0 0 0 0 0 0 0 0 0 0 0 0 0 0 127 0" result="hardAlpha"/>
<feOffset dy="10"/>
<feGaussianBlur stdDeviation="5"/>
<feColorMatrix type="matrix" values="0 0 0 0 0 0 0 0 0 0 0 0 0 0 0 0 0 0 0.2 0"/>
<feBlend mode="normal" in2="BackgroundImageFix" result="effect1_dropShadow_245_4261"/>
<feBlend mode="normal" in="SourceGraphic" in2="effect1_dropShadow_245_4261" result="shape"/>
</filter>
<linearGradient id="paint0_linear_245_4261" x1="140" y1="-5.70806" x2="140" y2="107.416" gradientUnits="userSpaceOnUse">
<stop stop-color="white"/>
<stop offset="1" stop-color="white" stop-opacity="0"/>
</linearGradient>
<radialGradient id="paint1_radial_245_4261" cx="0" cy="0" r="1" gradientUnits="userSpaceOnUse" gradientTransform="translate(140 32) rotate(90) scale(75.4161 133.954)">
<stop stop-color="white"/>
<stop offset="1" stop-color="white" stop-opacity="0"/>
</radialGradient>
<linearGradient id="paint2_linear_245_4261" x1="140" y1="32" x2="140" y2="107.416" gradientUnits="userSpaceOnUse">
<stop stop-color="white"/>
<stop offset="1" stop-color="#999999"/>
</linearGradient>
<linearGradient id="paint3_linear_245_4261" x1="140" y1="16" x2="140" y2="136" gradientUnits="userSpaceOnUse">
<stop stop-color="white"/>
<stop offset="1" stop-color="white" stop-opacity="0"/>
</linearGradient>
<radialGradient id="paint4_radial_245_4261" cx="0" cy="0" r="1" gradientUnits="userSpaceOnUse" gradientTransform="translate(140 56) rotate(90) scale(80 80)">
<stop stop-color="white"/>
<stop offset="1" stop-color="white" stop-opacity="0"/>
</radialGradient>
<linearGradient id="paint5_linear_245_4261" x1="140" y1="16" x2="140" y2="136" gradientUnits="userSpaceOnUse">
<stop stop-color="white"/>
<stop offset="1" stop-color="#999999"/>
</linearGradient>
</defs>
</svg>
