<svg width="280" height="148" viewBox="0 0 280 148" fill="none" xmlns="http://www.w3.org/2000/svg">
<g filter="url(#filter0_d_245_4239)">
<path fill-rule="evenodd" clip-rule="evenodd" d="M97 52H183V111.93C183 118.602 183 121.939 181.594 123.985C180.366 125.773 178.465 126.986 176.326 127.345C173.877 127.757 170.852 126.35 164.802 123.536L140 112L115.198 123.536C109.148 126.35 106.123 127.757 103.674 127.345C101.535 126.986 99.6337 125.773 98.4057 123.985C97 121.939 97 118.602 97 111.93V52Z" fill="#D53951"/>
</g>
<mask id="mask0_245_4239" style="mask-type:luminance" maskUnits="userSpaceOnUse" x="97" y="52" width="86" height="76">
<path fill-rule="evenodd" clip-rule="evenodd" d="M97 52H183V119.456C183 125.305 176.929 129.176 171.626 126.71L140 112L108.374 126.71C103.071 129.176 97 125.305 97 119.456V52Z" fill="white"/>
</mask>
<g mask="url(#mask0_245_4239)">
<g filter="url(#filter1_d_245_4239)">
<path fill-rule="evenodd" clip-rule="evenodd" d="M97 52H183V111.93C183 118.602 183 121.939 181.594 123.985C180.366 125.773 178.465 126.986 176.326 127.345C173.877 127.757 170.852 126.35 164.802 123.536L140 112L115.198 123.536C109.148 126.35 106.123 127.757 103.674 127.345C101.535 126.986 99.6337 125.773 98.4057 123.985C97 121.939 97 118.602 97 111.93V52Z" fill="#D53951"/>
</g>
<path fill-rule="evenodd" clip-rule="evenodd" d="M97 52H183V132L140 112L97 132V52Z" fill="url(#paint0_linear_245_4239)" fill-opacity="0.3" style="mix-blend-mode:overlay"/>
<path fill-rule="evenodd" clip-rule="evenodd" d="M97 52H183V132L140 112L97 132V52Z" fill="url(#paint1_radial_245_4239)" fill-opacity="0.6" style="mix-blend-mode:overlay"/>
<path fill-rule="evenodd" clip-rule="evenodd" d="M120 12H160V124H140H120V12Z" fill="white"/>
<g style="mix-blend-mode:soft-light">
<path d="M98 12.25H182C182.414 12.25 182.75 12.5858 182.75 13V119.456C182.75 125.033 177.051 128.755 171.973 126.591L171.731 126.483L140.527 111.97C140.235 111.834 139.903 111.817 139.601 111.919L139.473 111.97L108.269 126.483C103.131 128.873 97.25 125.122 97.25 119.456V13L97.2539 12.9229C97.2925 12.5449 97.6118 12.25 98 12.25Z" stroke="url(#paint2_linear_245_4239)" stroke-width="0.5" stroke-linecap="round" stroke-linejoin="round"/>
</g>
</g>
<defs>
<filter id="filter0_d_245_4239" x="87" y="52" width="106" height="95.4158" filterUnits="userSpaceOnUse" color-interpolation-filters="sRGB">
<feFlood flood-opacity="0" result="BackgroundImageFix"/>
<feColorMatrix in="SourceAlpha" type="matrix" values="0 0 0 0 0 0 0 0 0 0 0 0 0 0 0 0 0 0 127 0" result="hardAlpha"/>
<feOffset dy="10"/>
<feGaussianBlur stdDeviation="5"/>
<feColorMatrix type="matrix" values="0 0 0 0 0 0 0 0 0 0 0 0 0 0 0 0 0 0 0.2 0"/>
<feBlend mode="normal" in2="BackgroundImageFix" result="effect1_dropShadow_245_4239"/>
<feBlend mode="normal" in="SourceGraphic" in2="effect1_dropShadow_245_4239" result="shape"/>
</filter>
<filter id="filter1_d_245_4239" x="87" y="52" width="106" height="95.4158" filterUnits="userSpaceOnUse" color-interpolation-filters="sRGB">
<feFlood flood-opacity="0" result="BackgroundImageFix"/>
<feColorMatrix in="SourceAlpha" type="matrix" values="0 0 0 0 0 0 0 0 0 0 0 0 0 0 0 0 0 0 127 0" result="hardAlpha"/>
<feOffset dy="10"/>
<feGaussianBlur stdDeviation="5"/>
<feColorMatrix type="matrix" values="0 0 0 0 0 0 0 0 0 0 0 0 0 0 0 0 0 0 0.2 0"/>
<feBlend mode="normal" in2="BackgroundImageFix" result="effect1_dropShadow_245_4239"/>
<feBlend mode="normal" in="SourceGraphic" in2="effect1_dropShadow_245_4239" result="shape"/>
</filter>
<linearGradient id="paint0_linear_245_4239" x1="140" y1="12" x2="140" y2="132" gradientUnits="userSpaceOnUse">
<stop stop-color="white"/>
<stop offset="1" stop-color="white" stop-opacity="0"/>
</linearGradient>
<radialGradient id="paint1_radial_245_4239" cx="0" cy="0" r="1" gradientUnits="userSpaceOnUse" gradientTransform="translate(140 52) rotate(90) scale(80 80)">
<stop stop-color="white"/>
<stop offset="1" stop-color="white" stop-opacity="0"/>
</radialGradient>
<linearGradient id="paint2_linear_245_4239" x1="140" y1="12" x2="140" y2="132" gradientUnits="userSpaceOnUse">
<stop stop-color="white"/>
<stop offset="1" stop-color="#999999"/>
</linearGradient>
</defs>
</svg>
