<svg width="430" height="505" viewBox="0 0 430 505" fill="none" xmlns="http://www.w3.org/2000/svg">
<path d="M217.875 252.958L54.7656 -51L8.41625 -14.0774L217.875 252.958Z" fill="#F73C42" fill-opacity="0.15"/>
<path d="M217.442 253.493L199.557 -91L141.886 -77.3732L217.442 253.493Z" fill="#F73C42" fill-opacity="0.15"/>
<path d="M216.837 253.799L347.594 -65.4155L289.62 -77.6878L216.837 253.799Z" fill="#F73C42" fill-opacity="0.15"/>
<path d="M216.161 253.818L470.578 20.8659L423.377 -14.961L216.161 253.818Z" fill="#F73C42" fill-opacity="0.15"/>
<path d="M215.54 253.547L545.014 151.361L517.602 98.8238L215.54 253.547Z" fill="#F73C42" fill-opacity="0.15"/>
<path d="M215.093 253.037L556.68 301.139L554.294 241.928L215.093 253.037Z" fill="#F73C42" fill-opacity="0.15"/>
<path d="M214.906 252.385L503.348 441.585L526.444 387.014L214.906 252.385Z" fill="#F73C42" fill-opacity="0.15"/>
<path d="M215.015 251.716L395.207 545.869L439.374 506.362L215.015 251.716Z" fill="#F73C42" fill-opacity="0.15"/>
<path d="M215.401 251.157L252.918 594.068L309.716 577.172L215.401 251.157Z" fill="#F73C42" fill-opacity="0.15"/>
<path d="M215.987 250.816L103.662 576.973L162.242 585.917L215.987 250.816Z" fill="#F73C42" fill-opacity="0.15"/>
<path d="M216.662 250.757L-24.0449 497.851L25.1243 530.925L216.662 250.757Z" fill="#F73C42" fill-opacity="0.15"/>
<path d="M217.3 250.993L-105.805 371.817L-75.4391 422.704L217.3 250.993Z" fill="#F73C42" fill-opacity="0.15"/>
<path d="M217.775 251.477L-126 222.95L-120.239 281.928L217.775 251.477Z" fill="#F73C42" fill-opacity="0.15"/>
<path d="M217.998 252.119L-80.7715 79.6894L-100.716 135.49L217.998 252.119Z" fill="#F73C42" fill-opacity="0.15"/>
</svg>
