<svg width="110" height="139" viewBox="0 0 110 139" fill="none" xmlns="http://www.w3.org/2000/svg">
<g filter="url(#filter0_dddd_247_5190)">
<path d="M51.0174 15.757C53.4095 14.376 56.3565 14.376 58.7485 15.757L86.5027 31.7808C88.8947 33.1619 90.3682 35.7141 90.3682 38.4762V70.5239C90.3682 73.2859 88.8947 75.8381 86.5027 77.2192L58.7485 93.243C56.3565 94.624 53.4095 94.624 51.0174 93.243L23.2633 77.2192C20.8713 75.8381 19.3978 73.2859 19.3978 70.5238V38.4761C19.3978 35.7141 20.8713 33.1619 23.2633 31.7808L51.0174 15.757Z" fill="white"/>
</g>
<mask id="mask0_247_5190" style="mask-type:alpha" maskUnits="userSpaceOnUse" x="19" y="14" width="72" height="81">
<path d="M51.0174 15.757C53.4095 14.376 56.3565 14.376 58.7485 15.757L86.5027 31.7808C88.8947 33.1619 90.3682 35.7141 90.3682 38.4762V70.5239C90.3682 73.2859 88.8947 75.8381 86.5027 77.2192L58.7485 93.243C56.3565 94.624 53.4095 94.624 51.0174 93.243L23.2633 77.2192C20.8713 75.8381 19.3978 73.2859 19.3978 70.5238V38.4761C19.3978 35.7141 20.8713 33.1619 23.2633 31.7808L51.0174 15.757Z" fill="black"/>
</mask>
<g mask="url(#mask0_247_5190)">
<mask id="mask1_247_5190" style="mask-type:alpha" maskUnits="userSpaceOnUse" x="19" y="14" width="72" height="81">
<path d="M51.0174 15.757C53.4095 14.376 56.3565 14.376 58.7485 15.757L86.5027 31.7808C88.8947 33.1619 90.3682 35.7141 90.3682 38.4762V70.5239C90.3682 73.2859 88.8947 75.8381 86.5027 77.2192L58.7485 93.243C56.3565 94.624 53.4095 94.624 51.0174 93.243L23.2633 77.2192C20.8713 75.8381 19.3978 73.2859 19.3978 70.5238V38.4761C19.3978 35.7141 20.8713 33.1619 23.2633 31.7808L51.0174 15.757Z" fill="url(#paint0_linear_247_5190)"/>
</mask>
<g mask="url(#mask1_247_5190)">
<rect x="0.765625" y="0.382324" width="108.235" height="108.235" fill="#F870E3"/>
<rect x="0.765625" y="0.382324" width="108.235" height="108.235" fill="url(#paint1_linear_247_5190)" fill-opacity="0.6" style="mix-blend-mode:overlay"/>
<rect x="0.765625" y="0.382324" width="108.235" height="108.235" fill="url(#paint2_radial_247_5190)" fill-opacity="0.6" style="mix-blend-mode:overlay"/>
<rect x="0.765625" y="0.382355" width="108.235" height="108.235" fill="black" fill-opacity="0.16" style="mix-blend-mode:overlay"/>
<rect x="0.765625" y="0.382355" width="108.235" height="108.235" fill="black" fill-opacity="0.12" style="mix-blend-mode:darken"/>
</g>
<g filter="url(#filter1_d_247_5190)">
<mask id="mask2_247_5190" style="mask-type:alpha" maskUnits="userSpaceOnUse" x="19" y="14" width="72" height="81">
<path d="M53.2744 14.8909C54.334 14.6658 55.4297 14.6657 56.4893 14.8909C57.6867 15.1456 58.8139 15.7964 61.0664 17.0969L84.1826 30.4426C86.435 31.7431 87.5626 32.3942 88.3818 33.304C89.1062 34.1088 89.6546 35.0573 89.9893 36.0872C90.3674 37.2515 90.3672 38.5534 90.3672 41.1546V67.846L90.3613 69.5716C90.3436 71.0894 90.273 72.04 89.9893 72.9133L89.8535 73.2962C89.5145 74.1787 89.0159 74.9932 88.3818 75.6975L88.2236 75.8655C87.4166 76.6913 86.2944 77.3396 84.1826 78.5589L61.0664 91.9046L59.5693 92.762C58.2461 93.5054 57.3873 93.9196 56.4893 94.1106L56.0908 94.1839C55.2904 94.3106 54.4743 94.3104 53.6738 94.1839L53.2744 94.1106C52.3763 93.9197 51.5175 93.5054 50.1943 92.762L48.6973 91.9046L25.582 78.5589C23.4704 77.3397 22.3471 76.6911 21.54 75.8655L21.3828 75.6975C20.7488 74.9933 20.2501 74.1785 19.9111 73.2962L19.7754 72.9133C19.4916 72.04 19.4201 71.0894 19.4023 69.5716L19.3965 67.846V41.1546C19.3965 38.7157 19.3973 37.4198 19.709 36.3079L19.7754 36.0872C20.0684 35.1856 20.5241 34.3466 21.1191 33.6116L21.3828 33.304C21.9973 32.6216 22.7842 32.0841 24.0898 31.3098L25.582 30.4426L48.6973 17.0969C50.8096 15.8774 51.9318 15.2286 53.0508 14.9426L53.2744 14.8909ZM67.792 84.2825H41.9717C41.871 84.2825 41.7731 84.2816 41.6787 84.2815L50.2432 89.2258L51.7588 90.0911C52.9924 90.7813 53.4643 90.9888 53.918 91.0852L54.1572 91.1301C54.7173 91.2186 55.2907 91.2034 55.8467 91.0852L56.0781 91.0266C56.6382 90.8589 57.3914 90.4551 59.5205 89.2258L68.084 84.2805L67.792 84.2825ZM59.251 81.1897H67.791C69.5603 81.1897 69.7546 81.1543 69.877 81.1145L70.0283 81.0559C70.1756 80.9902 70.3123 80.9015 70.4326 80.7932L70.5225 80.6956C70.6402 80.5453 70.8781 80.1729 71.541 79.0247L75.8105 71.6282L59.251 81.1897ZM38.2227 79.0247C39.106 80.5547 39.2345 80.7061 39.3301 80.7923L39.457 80.8948C39.5876 80.9895 39.7327 81.0634 39.8867 81.1135L40.0156 81.1419C40.2047 81.1687 40.6459 81.1897 41.9717 81.1897H50.5127L33.9521 71.6272L38.2227 79.0247ZM22.4893 67.846C22.4893 70.655 22.5249 71.3693 22.7158 71.9573L22.7979 72.1868C23.0013 72.7163 23.3002 73.2056 23.6807 73.6282L23.8477 73.7991C24.273 74.2002 24.9993 74.6512 27.1279 75.8801L35.6914 80.8245L35.5439 80.5706L22.6348 58.2112C22.5845 58.1242 22.5363 58.0389 22.4893 57.9573V67.846ZM87.1289 58.2112L74.2188 80.5716L74.0713 80.8245L82.6357 75.8801C85.0689 74.4753 85.6692 74.0876 86.083 73.6282L86.2412 73.4426C86.5981 73.0018 86.8721 72.4981 87.0479 71.9573L87.1123 71.7278C87.2473 71.1589 87.2744 70.3051 87.2744 67.846V57.9573C87.2273 58.039 87.1792 58.1241 87.1289 58.2112ZM25.3125 52.3352C24.6496 53.4835 24.4472 53.8759 24.376 54.053L24.3359 54.178C24.3022 54.3369 24.2946 54.5005 24.3115 54.6614L24.3359 54.8216C24.3628 54.9473 24.4304 55.1347 25.3135 56.6643L29.584 64.0608V44.9368L25.3125 52.3352ZM80.1807 64.0598L84.4502 56.6653C85.3345 55.1336 85.4 54.9474 85.4268 54.8216L85.4521 54.6614C85.469 54.5006 85.4615 54.3368 85.4277 54.178L85.3877 54.053C85.3166 53.8761 85.1135 53.4841 84.4502 52.3352L80.1807 44.9397V64.0598ZM27.1279 33.1204C24.9986 34.3498 24.2729 34.8002 23.8477 35.2014L23.6807 35.3723C23.3001 35.795 23.0013 36.2841 22.7979 36.8137L22.7158 37.0432C22.5249 37.6313 22.4893 38.3451 22.4893 41.1546V51.0432L22.6348 50.7893L35.5449 28.429C35.5954 28.3416 35.6441 28.2569 35.6914 28.1751L27.1279 33.1204ZM74.2188 28.429L87.1289 50.7883L87.2744 51.0423V41.1546C87.2744 38.6969 87.247 37.8426 87.1123 37.2737L87.0479 37.0432C86.8722 36.5025 86.598 35.9988 86.2412 35.5579L86.083 35.3723C85.6693 34.913 85.0682 34.5248 82.6357 33.1204L74.0713 28.1751C74.1186 28.2569 74.1683 28.3416 74.2188 28.429ZM41.9727 27.8098C40.6482 27.8098 40.206 27.8309 40.0166 27.8577L39.8867 27.886C39.7327 27.9361 39.5876 28.0101 39.457 28.1048L39.3311 28.2073C39.2355 28.2934 39.1074 28.4425 38.2227 29.9749L33.9512 37.3714L50.5137 27.8098H41.9727ZM75.8105 37.3704L71.541 29.9749C70.8778 28.8262 70.6392 28.4541 70.5215 28.304L70.4336 28.2073C70.3129 28.0987 70.1751 28.0094 70.0273 27.9436L69.876 27.886C69.7536 27.8463 69.5576 27.8108 67.791 27.8108L59.25 27.8098L75.8105 37.3704ZM55.8467 17.9153C55.2112 17.7802 54.5535 17.7804 53.918 17.9153C53.3131 18.0439 52.6767 18.3697 50.2432 19.7747L41.6787 24.719C41.7731 24.7189 41.871 24.718 41.9717 24.718H67.792C67.8923 24.718 67.9899 24.719 68.084 24.719L59.5205 19.7747C57.3921 18.5458 56.6382 18.1427 56.0781 17.9749L55.8467 17.9153Z" fill="black"/>
</mask>
<g mask="url(#mask2_247_5190)">
<rect x="0.763672" y="0.382263" width="108.235" height="108.235" fill="#F870E3"/>
<rect x="0.763672" y="0.382263" width="108.235" height="108.235" fill="url(#paint3_linear_247_5190)" fill-opacity="0.6" style="mix-blend-mode:overlay"/>
<rect x="0.763672" y="0.382263" width="108.235" height="108.235" fill="url(#paint4_radial_247_5190)" fill-opacity="0.6" style="mix-blend-mode:overlay"/>
<g style="mix-blend-mode:soft-light">
<path fill-rule="evenodd" clip-rule="evenodd" d="M0.763672 0.382355H65.7049L44.9789 108.618H0.763672V0.382355Z" fill="url(#paint5_linear_247_5190)" style="mix-blend-mode:lighten"/>
</g>
<g style="mix-blend-mode:soft-light">
<mask id="path-11-inside-1_247_5190" fill="white">
<path d="M53.2744 14.8909C54.334 14.6658 55.4297 14.6657 56.4893 14.8909C57.6867 15.1456 58.8139 15.7964 61.0664 17.0969L84.1826 30.4426C86.435 31.7431 87.5626 32.3942 88.3818 33.304C89.1062 34.1088 89.6546 35.0573 89.9893 36.0872C90.3674 37.2515 90.3672 38.5534 90.3672 41.1546V67.846L90.3613 69.5716C90.3436 71.0894 90.273 72.04 89.9893 72.9133L89.8535 73.2962C89.5145 74.1787 89.0159 74.9932 88.3818 75.6975L88.2236 75.8655C87.4166 76.6913 86.2944 77.3396 84.1826 78.5589L61.0664 91.9046L59.5693 92.762C58.2461 93.5054 57.3873 93.9196 56.4893 94.1106L56.0908 94.1839C55.2904 94.3106 54.4743 94.3104 53.6738 94.1839L53.2744 94.1106C52.3763 93.9197 51.5175 93.5054 50.1943 92.762L48.6973 91.9046L25.582 78.5589C23.4704 77.3397 22.3471 76.6911 21.54 75.8655L21.3828 75.6975C20.7488 74.9933 20.2501 74.1785 19.9111 73.2962L19.7754 72.9133C19.4916 72.04 19.4201 71.0894 19.4023 69.5716L19.3965 67.846V41.1546C19.3965 38.7157 19.3973 37.4198 19.709 36.3079L19.7754 36.0872C20.0684 35.1856 20.5241 34.3466 21.1191 33.6116L21.3828 33.304C21.9973 32.6216 22.7842 32.0841 24.0898 31.3098L25.582 30.4426L48.6973 17.0969C50.8096 15.8774 51.9318 15.2286 53.0508 14.9426L53.2744 14.8909ZM67.792 84.2825H41.9717C41.871 84.2825 41.7731 84.2816 41.6787 84.2815L50.2432 89.2258L51.7588 90.0911C52.9924 90.7813 53.4643 90.9888 53.918 91.0852L54.1572 91.1301C54.7173 91.2186 55.2907 91.2034 55.8467 91.0852L56.0781 91.0266C56.6382 90.8589 57.3914 90.4551 59.5205 89.2258L68.084 84.2805L67.792 84.2825ZM59.251 81.1897H67.791C69.5603 81.1897 69.7546 81.1543 69.877 81.1145L70.0283 81.0559C70.1756 80.9902 70.3123 80.9015 70.4326 80.7932L70.5225 80.6956C70.6402 80.5453 70.8781 80.1729 71.541 79.0247L75.8105 71.6282L59.251 81.1897ZM38.2227 79.0247C39.106 80.5547 39.2345 80.7061 39.3301 80.7923L39.457 80.8948C39.5876 80.9895 39.7327 81.0634 39.8867 81.1135L40.0156 81.1419C40.2047 81.1687 40.6459 81.1897 41.9717 81.1897H50.5127L33.9521 71.6272L38.2227 79.0247ZM22.4893 67.846C22.4893 70.655 22.5249 71.3693 22.7158 71.9573L22.7979 72.1868C23.0013 72.7163 23.3002 73.2056 23.6807 73.6282L23.8477 73.7991C24.273 74.2002 24.9993 74.6512 27.1279 75.8801L35.6914 80.8245L35.5439 80.5706L22.6348 58.2112C22.5845 58.1242 22.5363 58.0389 22.4893 57.9573V67.846ZM87.1289 58.2112L74.2188 80.5716L74.0713 80.8245L82.6357 75.8801C85.0689 74.4753 85.6692 74.0876 86.083 73.6282L86.2412 73.4426C86.5981 73.0018 86.8721 72.4981 87.0479 71.9573L87.1123 71.7278C87.2473 71.1589 87.2744 70.3051 87.2744 67.846V57.9573C87.2273 58.039 87.1792 58.1241 87.1289 58.2112ZM25.3125 52.3352C24.6496 53.4835 24.4472 53.8759 24.376 54.053L24.3359 54.178C24.3022 54.3369 24.2946 54.5005 24.3115 54.6614L24.3359 54.8216C24.3628 54.9473 24.4304 55.1347 25.3135 56.6643L29.584 64.0608V44.9368L25.3125 52.3352ZM80.1807 64.0598L84.4502 56.6653C85.3345 55.1336 85.4 54.9474 85.4268 54.8216L85.4521 54.6614C85.469 54.5006 85.4615 54.3368 85.4277 54.178L85.3877 54.053C85.3166 53.8761 85.1135 53.4841 84.4502 52.3352L80.1807 44.9397V64.0598ZM27.1279 33.1204C24.9986 34.3498 24.2729 34.8002 23.8477 35.2014L23.6807 35.3723C23.3001 35.795 23.0013 36.2841 22.7979 36.8137L22.7158 37.0432C22.5249 37.6313 22.4893 38.3451 22.4893 41.1546V51.0432L22.6348 50.7893L35.5449 28.429C35.5954 28.3416 35.6441 28.2569 35.6914 28.1751L27.1279 33.1204ZM74.2188 28.429L87.1289 50.7883L87.2744 51.0423V41.1546C87.2744 38.6969 87.247 37.8426 87.1123 37.2737L87.0479 37.0432C86.8722 36.5025 86.598 35.9988 86.2412 35.5579L86.083 35.3723C85.6693 34.913 85.0682 34.5248 82.6357 33.1204L74.0713 28.1751C74.1186 28.2569 74.1683 28.3416 74.2188 28.429ZM41.9727 27.8098C40.6482 27.8098 40.206 27.8309 40.0166 27.8577L39.8867 27.886C39.7327 27.9361 39.5876 28.0101 39.457 28.1048L39.3311 28.2073C39.2355 28.2934 39.1074 28.4425 38.2227 29.9749L33.9512 37.3714L50.5137 27.8098H41.9727ZM75.8105 37.3704L71.541 29.9749C70.8778 28.8262 70.6392 28.4541 70.5215 28.304L70.4336 28.2073C70.3129 28.0987 70.1751 28.0094 70.0273 27.9436L69.876 27.886C69.7536 27.8463 69.5576 27.8108 67.791 27.8108L59.25 27.8098L75.8105 37.3704ZM55.8467 17.9153C55.2112 17.7802 54.5535 17.7804 53.918 17.9153C53.3131 18.0439 52.6767 18.3697 50.2432 19.7747L41.6787 24.719C41.7731 24.7189 41.871 24.718 41.9717 24.718H67.792C67.8923 24.718 67.9899 24.719 68.084 24.719L59.5205 19.7747C57.3921 18.5458 56.6382 18.1427 56.0781 17.9749L55.8467 17.9153Z"/>
</mask>
<path d="M53.2744 14.8909L53.2342 14.7018L53.2308 14.7026L53.2744 14.8909ZM56.4893 14.8909L56.5295 14.7018L56.5294 14.7018L56.4893 14.8909ZM61.0664 17.0969L60.9698 17.2643L60.9698 17.2643L61.0664 17.0969ZM84.1826 30.4426L84.2793 30.2753L84.2793 30.2753L84.1826 30.4426ZM88.3818 33.304L88.5255 33.1747L88.5255 33.1746L88.3818 33.304ZM89.9893 36.0872L90.1731 36.0275L90.1731 36.0274L89.9893 36.0872ZM90.3672 41.1546L90.5605 41.1546L90.3672 41.1546ZM90.3672 67.846L90.5605 67.8466V67.846H90.3672ZM90.3613 69.5716L90.5546 69.5738L90.5546 69.5722L90.3613 69.5716ZM89.9893 72.9133L90.1715 72.978L90.1731 72.9731L89.9893 72.9133ZM89.8535 73.2962L90.034 73.3655L90.0357 73.3608L89.8535 73.2962ZM88.3818 75.6975L88.5226 75.8301L88.5255 75.8268L88.3818 75.6975ZM88.2236 75.8655L88.3619 76.0006L88.3643 75.998L88.2236 75.8655ZM84.1826 78.5589L84.2793 78.7262L84.2793 78.7262L84.1826 78.5589ZM61.0664 91.9046L61.1625 92.0723L61.163 92.0719L61.0664 91.9046ZM59.5693 92.762L59.664 92.9305L59.6654 92.9297L59.5693 92.762ZM56.4893 94.1106L56.5242 94.3008L56.5295 94.2997L56.4893 94.1106ZM56.0908 94.1839L56.1211 94.3748L56.1258 94.3739L56.0908 94.1839ZM53.6738 94.1839L53.639 94.374L53.6436 94.3748L53.6738 94.1839ZM53.2744 94.1106L53.2342 94.2997L53.2396 94.3007L53.2744 94.1106ZM50.1943 92.762L50.0983 92.9297L50.0997 92.9305L50.1943 92.762ZM48.6973 91.9046L48.6006 92.0719L48.6012 92.0723L48.6973 91.9046ZM25.582 78.5589L25.6787 78.3915L25.6787 78.3915L25.582 78.5589ZM21.54 75.8655L21.3989 75.9976L21.4018 76.0006L21.54 75.8655ZM21.3828 75.6975L21.2392 75.8269L21.2417 75.8296L21.3828 75.6975ZM19.9111 73.2962L19.7289 73.3608L19.7307 73.3655L19.9111 73.2962ZM19.7754 72.9133L19.5915 72.9731L19.5932 72.9779L19.7754 72.9133ZM19.4023 69.5716L19.2091 69.5722L19.2091 69.5738L19.4023 69.5716ZM19.3965 67.846H19.2032L19.2032 67.8466L19.3965 67.846ZM19.3965 41.1546H19.2032H19.3965ZM19.709 36.3079L19.5239 36.2522L19.5229 36.2557L19.709 36.3079ZM19.7754 36.0872L19.5915 36.0274L19.5903 36.0315L19.7754 36.0872ZM21.1191 33.6116L20.9723 33.4858L20.9689 33.49L21.1191 33.6116ZM21.3828 33.304L21.2391 33.1746L21.2361 33.1782L21.3828 33.304ZM24.0898 31.3098L23.9927 31.1427L23.9913 31.1436L24.0898 31.3098ZM25.582 30.4426L25.4854 30.2753L25.4849 30.2755L25.582 30.4426ZM48.6973 17.0969L48.6006 16.9296L48.6006 16.9296L48.6973 17.0969ZM53.0508 14.9426L53.0072 14.7543L53.0029 14.7554L53.0508 14.9426ZM67.792 84.2825V84.4758L67.7933 84.4758L67.792 84.2825ZM41.9717 84.2825L41.9717 84.0892H41.9717L41.9717 84.2825ZM41.6787 84.2815L41.6788 84.0882C41.5913 84.0882 41.5147 84.1469 41.492 84.2314C41.4694 84.3159 41.5063 84.4051 41.5821 84.4489L41.6787 84.2815ZM50.2432 89.2258L50.1465 89.3932L50.1473 89.3937L50.2432 89.2258ZM51.7588 90.0911L51.663 90.2589L51.6644 90.2598L51.7588 90.0911ZM53.918 91.0852L53.8778 91.2743L53.8823 91.2752L53.918 91.0852ZM54.1572 91.1301L54.1215 91.3202L54.1271 91.3211L54.1572 91.1301ZM55.8467 91.0852L55.8869 91.2744L55.8941 91.2726L55.8467 91.0852ZM56.0781 91.0266L56.1256 91.2142L56.1336 91.2118L56.0781 91.0266ZM59.5205 89.2258L59.6171 89.3932L59.6172 89.3932L59.5205 89.2258ZM68.084 84.2805L68.1806 84.4479C68.2566 84.404 68.2935 84.3145 68.2705 84.2299C68.2475 84.1452 68.1704 84.0867 68.0827 84.0873L68.084 84.2805ZM59.251 81.1897L59.1543 81.0223C59.0786 81.0661 59.0416 81.1552 59.0643 81.2397C59.0869 81.3242 59.1635 81.383 59.251 81.383V81.1897ZM67.791 81.1897L67.791 81.383L67.791 81.383L67.791 81.1897ZM69.877 81.1145L69.9368 81.2986L69.9467 81.2948L69.877 81.1145ZM70.0283 81.0559L70.0982 81.2364L70.1071 81.2324L70.0283 81.0559ZM70.4326 80.7932L70.5619 80.9369C70.5664 80.9328 70.5707 80.9286 70.5749 80.9241L70.4326 80.7932ZM70.5225 80.6956L70.6647 80.8264C70.6682 80.8227 70.6715 80.8188 70.6746 80.8148L70.5225 80.6956ZM71.541 79.0247L71.7084 79.1213L71.7084 79.1213L71.541 79.0247ZM75.8105 71.6282L75.9779 71.7248C76.0217 71.6491 76.0091 71.5534 75.9472 71.4915C75.8853 71.4297 75.7897 71.4171 75.7139 71.4608L75.8105 71.6282ZM38.2227 79.0247L38.0553 79.1213L38.0553 79.1213L38.2227 79.0247ZM39.3301 80.7923L39.2005 80.936L39.2086 80.9426L39.3301 80.7923ZM39.457 80.8948L39.3354 81.0454L39.3436 81.0512L39.457 80.8948ZM39.8867 81.1135L39.8269 81.2973C39.8329 81.2993 39.8391 81.301 39.8452 81.3023L39.8867 81.1135ZM40.0156 81.1419L39.9742 81.3306C39.9789 81.3317 39.9837 81.3325 39.9885 81.3332L40.0156 81.1419ZM41.9717 81.1897L41.9717 81.383H41.9717V81.1897ZM50.5127 81.1897V81.383C50.6002 81.383 50.6767 81.3242 50.6994 81.2397C50.722 81.1552 50.6851 81.0661 50.6093 81.0223L50.5127 81.1897ZM33.9521 71.6272L34.0488 71.4598C33.973 71.4161 33.8773 71.4287 33.8155 71.4905C33.7536 71.5524 33.741 71.6481 33.7848 71.7238L33.9521 71.6272ZM22.4893 67.846L22.296 67.846L22.296 67.846L22.4893 67.846ZM22.7158 71.9573L22.5319 72.017L22.5338 72.0223L22.7158 71.9573ZM22.7979 72.1868L22.6158 72.2519L22.6174 72.2561L22.7979 72.1868ZM23.6807 73.6282L23.5369 73.7576L23.5424 73.7633L23.6807 73.6282ZM23.8477 73.7991L23.7093 73.9343L23.715 73.9397L23.8477 73.7991ZM27.1279 75.8801L27.2246 75.7128L27.2246 75.7128L27.1279 75.8801ZM35.6914 80.8245L35.5948 80.9919C35.6706 81.0356 35.7664 81.023 35.8282 80.961C35.8901 80.899 35.9025 80.8031 35.8585 80.7274L35.6914 80.8245ZM35.5439 80.5706L35.3766 80.6672L35.3768 80.6676L35.5439 80.5706ZM22.6348 58.2112L22.8021 58.1146L22.8021 58.1146L22.6348 58.2112ZM22.4893 57.9573L22.6567 57.8608C22.613 57.785 22.5238 57.748 22.4393 57.7706C22.3548 57.7932 22.296 57.8698 22.296 57.9573H22.4893ZM87.1289 58.2112L87.2963 58.3078L87.2963 58.3078L87.1289 58.2112ZM74.2188 80.5716L74.3857 80.6689L74.3861 80.6682L74.2188 80.5716ZM74.0713 80.8245L73.9043 80.7271C73.8602 80.8028 73.8725 80.8988 73.9343 80.9609C73.9962 81.023 74.092 81.0357 74.1679 80.9919L74.0713 80.8245ZM82.6357 75.8801L82.7324 76.0475L82.7324 76.0475L82.6357 75.8801ZM86.083 73.6282L86.2267 73.7576L86.2301 73.7536L86.083 73.6282ZM86.2412 73.4426L86.3883 73.5681L86.3914 73.5642L86.2412 73.4426ZM87.0479 71.9573L87.2318 72.0171L87.2339 72.0096L87.0479 71.9573ZM87.1123 71.7278L87.2985 71.7801L87.3004 71.7724L87.1123 71.7278ZM87.2744 67.846L87.4677 67.846V67.846H87.2744ZM87.2744 57.9573H87.4677C87.4677 57.8698 87.4089 57.7932 87.3244 57.7706C87.2399 57.748 87.1507 57.785 87.107 57.8608L87.2744 57.9573ZM25.3125 52.3352L25.1451 52.2386L25.1451 52.2386L25.3125 52.3352ZM24.376 54.053L24.1962 53.9807L24.1919 53.994L24.376 54.053ZM24.3359 54.178L24.1519 54.119C24.1499 54.1252 24.1482 54.1315 24.1469 54.1378L24.3359 54.178ZM24.3115 54.6614L24.1191 54.6816L24.1205 54.6905L24.3115 54.6614ZM24.3359 54.8216L24.1445 54.8507L24.1469 54.8619L24.3359 54.8216ZM25.3135 56.6643L25.1461 56.761L25.1461 56.761L25.3135 56.6643ZM29.584 64.0608L29.4166 64.1574C29.4603 64.2332 29.5495 64.2701 29.634 64.2475C29.7185 64.2249 29.7773 64.1483 29.7773 64.0608H29.584ZM29.584 44.9368H29.7773C29.7773 44.8493 29.7185 44.7727 29.634 44.7501C29.5495 44.7275 29.4603 44.7644 29.4166 44.8401L29.584 44.9368ZM80.1807 64.0598H79.9874C79.9874 64.1473 80.0461 64.2239 80.1306 64.2465C80.2151 64.2692 80.3043 64.2322 80.348 64.1565L80.1807 64.0598ZM84.4502 56.6653L84.6176 56.7619L84.6176 56.7619L84.4502 56.6653ZM85.4268 54.8216L85.6161 54.8618L85.6177 54.8518L85.4268 54.8216ZM85.4521 54.6614L85.6433 54.6917L85.6444 54.6815L85.4521 54.6614ZM85.4277 54.178L85.6168 54.1378C85.6154 54.1315 85.6138 54.1252 85.6118 54.119L85.4277 54.178ZM85.3877 54.053L85.5722 53.9939L85.567 53.9809L85.3877 54.053ZM84.4502 52.3352L84.2828 52.4319L84.2828 52.4319L84.4502 52.3352ZM80.1807 44.9397L80.348 44.8431C80.3043 44.7673 80.2151 44.7304 80.1306 44.753C80.0461 44.7757 79.9874 44.8522 79.9874 44.9397H80.1807ZM27.1279 33.1204L27.2246 33.2878L27.2246 33.2878L27.1279 33.1204ZM23.8477 35.2014L23.7149 35.0607L23.7094 35.0664L23.8477 35.2014ZM23.6807 35.3723L23.5423 35.2371L23.537 35.243L23.6807 35.3723ZM22.7979 36.8137L22.6174 36.7444L22.6159 36.7487L22.7979 36.8137ZM22.7158 37.0432L22.5337 36.9781L22.532 36.9835L22.7158 37.0432ZM22.4893 41.1546L22.296 41.1546V41.1546H22.4893ZM22.4893 51.0432H22.296C22.296 51.1308 22.3549 51.2075 22.4395 51.23C22.5242 51.2525 22.6134 51.2153 22.657 51.1393L22.4893 51.0432ZM22.6348 50.7893L22.4674 50.6927L22.4671 50.6932L22.6348 50.7893ZM35.5449 28.429L35.7123 28.5256L35.7123 28.5256L35.5449 28.429ZM35.6914 28.1751L35.8587 28.2718C35.9025 28.1961 35.89 28.1003 35.8281 28.0384C35.7663 27.9765 35.6705 27.9639 35.5948 28.0077L35.6914 28.1751ZM74.2188 28.429L74.0514 28.5256L74.0514 28.5256L74.2188 28.429ZM87.1289 50.7883L87.2966 50.6922L87.2963 50.6917L87.1289 50.7883ZM87.2744 51.0423L87.1067 51.1384C87.1503 51.2144 87.2395 51.2516 87.3241 51.229C87.4088 51.2065 87.4677 51.1298 87.4677 51.0423H87.2744ZM87.2744 41.1546L87.4677 41.1546L87.4677 41.1546L87.2744 41.1546ZM87.1123 37.2737L87.3005 37.2291L87.2984 37.2216L87.1123 37.2737ZM87.0479 37.0432L87.2341 36.9911L87.2317 36.9835L87.0479 37.0432ZM86.2412 35.5579L86.3915 35.4362L86.3883 35.4325L86.2412 35.5579ZM86.083 35.3723L86.2301 35.2469L86.2266 35.243L86.083 35.3723ZM82.6357 33.1204L82.5391 33.2878L82.5391 33.2878L82.6357 33.1204ZM74.0713 28.1751L74.1679 28.0077C74.0922 27.9639 73.9964 27.9765 73.9346 28.0384C73.8727 28.1003 73.8602 28.1961 73.904 28.2718L74.0713 28.1751ZM41.9727 27.8098L41.9727 28.0031H41.9727V27.8098ZM40.0166 27.8577L39.9895 27.6663C39.9848 27.667 39.9801 27.6678 39.9754 27.6688L40.0166 27.8577ZM39.8867 27.886L39.8455 27.6972C39.8393 27.6985 39.833 27.7002 39.8269 27.7022L39.8867 27.886ZM39.457 28.1048L39.3434 27.948L39.335 27.9549L39.457 28.1048ZM39.3311 28.2073L39.2089 28.0572L39.2017 28.0637L39.3311 28.2073ZM38.2227 29.9749L38.39 30.0715L38.39 30.0715L38.2227 29.9749ZM33.9512 37.3714L33.7838 37.2747C33.7401 37.3505 33.7526 37.4461 33.8145 37.508C33.8763 37.5699 33.972 37.5825 34.0478 37.5387L33.9512 37.3714ZM50.5137 27.8098L50.6103 27.9772C50.6861 27.9335 50.723 27.8443 50.7004 27.7598C50.6777 27.6753 50.6012 27.6166 50.5137 27.6166V27.8098ZM75.8105 37.3704L75.7139 37.5378C75.7897 37.5815 75.8854 37.5689 75.9472 37.507C76.0091 37.4452 76.0217 37.3495 75.9779 37.2737L75.8105 37.3704ZM71.541 29.9749L71.7084 29.8782L71.7084 29.8782L71.541 29.9749ZM70.5215 28.304L70.674 28.1844L70.6645 28.174L70.5215 28.304ZM70.4336 28.2073L70.5766 28.0773C70.5723 28.0725 70.5677 28.068 70.5629 28.0636L70.4336 28.2073ZM70.0273 27.9436L70.1061 27.7668L70.0961 27.763L70.0273 27.9436ZM69.876 27.886L69.9448 27.7051L69.9356 27.7022L69.876 27.886ZM67.791 27.8108L67.791 28.0041L67.791 28.0041L67.791 27.8108ZM59.25 27.8098L59.25 27.6166C59.1625 27.6165 59.086 27.6753 59.0633 27.7598C59.0407 27.8443 59.0776 27.9335 59.1534 27.9772L59.25 27.8098ZM55.8467 17.9153L55.8949 17.728L55.8869 17.7262L55.8467 17.9153ZM53.918 17.9153L53.8778 17.7262L53.8778 17.7262L53.918 17.9153ZM50.2432 19.7747L50.3398 19.9421L50.3398 19.9421L50.2432 19.7747ZM41.6787 24.719L41.5821 24.5516C41.5063 24.5954 41.4694 24.6846 41.492 24.7691C41.5147 24.8536 41.5913 24.9124 41.6789 24.9123L41.6787 24.719ZM41.9717 24.718L41.9717 24.5248H41.9717L41.9717 24.718ZM67.792 24.718L67.792 24.5248H67.792V24.718ZM68.084 24.719L68.0839 24.9123C68.1714 24.9123 68.248 24.8536 68.2707 24.7691C68.2933 24.6846 68.2564 24.5954 68.1806 24.5516L68.084 24.719ZM59.5205 19.7747L59.6171 19.6073L59.6171 19.6073L59.5205 19.7747ZM56.0781 17.9749L56.1336 17.7896L56.1263 17.7877L56.0781 17.9749ZM53.2744 14.8909L53.3146 15.0799C54.3476 14.8604 55.416 14.8604 56.4491 15.0799L56.4893 14.8909L56.5294 14.7018C55.4434 14.471 54.3203 14.4711 53.2342 14.7018L53.2744 14.8909ZM56.4893 14.8909L56.449 15.0799C57.6094 15.3268 58.7059 15.9573 60.9698 17.2643L61.0664 17.0969L61.163 16.9296C58.9218 15.6356 57.7639 14.9644 56.5295 14.7018L56.4893 14.8909ZM61.0664 17.0969L60.9698 17.2643L84.086 30.61L84.1826 30.4426L84.2793 30.2753L61.163 16.9296L61.0664 17.0969ZM84.1826 30.4426L84.086 30.61C86.3497 31.917 87.4443 32.5516 88.2382 33.4333L88.3818 33.304L88.5255 33.1746C87.6809 32.2367 86.5204 31.5692 84.2793 30.2753L84.1826 30.4426ZM88.3818 33.304L88.2382 33.4333C88.9445 34.2181 89.4792 35.1429 89.8054 36.1469L89.9893 36.0872L90.1731 36.0274C89.83 34.9718 89.2679 33.9996 88.5255 33.1747L88.3818 33.304ZM89.9893 36.0872L89.8054 36.1469C90.1719 37.2752 90.1739 38.5404 90.1739 41.1546L90.3672 41.1546L90.5605 41.1546C90.5605 38.5665 90.5629 37.2278 90.1731 36.0275L89.9893 36.0872ZM90.3672 41.1546H90.1739V67.846H90.3672H90.5605V41.1546H90.3672ZM90.3672 67.846L90.1739 67.8453L90.1681 69.5709L90.3613 69.5716L90.5546 69.5722L90.5605 67.8466L90.3672 67.846ZM90.3613 69.5716L90.1681 69.5693C90.1503 71.0864 90.0793 72.0108 89.8054 72.8536L89.9893 72.9133L90.1731 72.9731C90.4667 72.0692 90.5368 71.0924 90.5546 69.5738L90.3613 69.5716ZM89.9893 72.9133L89.8071 72.8488L89.6714 73.2316L89.8535 73.2962L90.0357 73.3608L90.1714 72.9779L89.9893 72.9133ZM89.8535 73.2962L89.6731 73.2269C89.3426 74.0874 88.8564 74.8815 88.2382 75.5682L88.3818 75.6975L88.5255 75.8268C89.1755 75.1049 89.6865 74.2701 90.0339 73.3655L89.8535 73.2962ZM88.3818 75.6975L88.2411 75.565L88.0829 75.733L88.2236 75.8655L88.3643 75.998L88.5225 75.83L88.3818 75.6975ZM88.2236 75.8655L88.0854 75.7304C87.3014 76.5326 86.2078 77.1664 84.086 78.3915L84.1826 78.5589L84.2793 78.7262C86.3809 77.5128 87.5318 76.8499 88.3619 76.0006L88.2236 75.8655ZM84.1826 78.5589L84.086 78.3915L60.9698 91.7372L61.0664 91.9046L61.163 92.0719L84.2793 78.7262L84.1826 78.5589ZM61.0664 91.9046L60.9703 91.7368L59.4733 92.5943L59.5693 92.762L59.6654 92.9297L61.1625 92.0723L61.0664 91.9046ZM59.5693 92.762L59.4747 92.5935C58.1521 93.3366 57.3157 93.7372 56.4491 93.9216L56.4893 94.1106L56.5295 94.2997C57.4589 94.102 58.3401 93.6743 59.664 92.9305L59.5693 92.762ZM56.4893 94.1106L56.4543 93.9205L56.0559 93.9938L56.0908 94.1839L56.1258 94.3739L56.5242 94.3007L56.4893 94.1106ZM56.0908 94.1839L56.0606 93.993C55.2802 94.1165 54.4845 94.1164 53.704 93.9929L53.6738 94.1839L53.6436 94.3748C54.4641 94.5045 55.3006 94.5046 56.121 94.3748L56.0908 94.1839ZM53.6738 94.1839L53.7087 93.9937L53.3093 93.9205L53.2744 94.1106L53.2396 94.3007L53.639 94.374L53.6738 94.1839ZM53.2744 94.1106L53.3146 93.9216C52.4479 93.7373 51.6115 93.3365 50.289 92.5935L50.1943 92.762L50.0997 92.9305C51.4235 93.6743 52.3047 94.1021 53.2342 94.2997L53.2744 94.1106ZM50.1943 92.762L50.2904 92.5943L48.7933 91.7368L48.6973 91.9046L48.6012 92.0723L50.0983 92.9297L50.1943 92.762ZM48.6973 91.9046L48.7939 91.7372L25.6787 78.3915L25.582 78.5589L25.4854 78.7262L48.6006 92.0719L48.6973 91.9046ZM25.582 78.5589L25.6787 78.3915C23.5569 77.1665 22.4623 76.5324 21.6783 75.7304L21.54 75.8655L21.4018 76.0006C22.232 76.8498 23.3838 77.5129 25.4854 78.7262L25.582 78.5589ZM21.54 75.8655L21.6811 75.7334L21.5239 75.5654L21.3828 75.6975L21.2417 75.8296L21.3989 75.9976L21.54 75.8655ZM21.3828 75.6975L21.5264 75.5682C20.9083 74.8817 20.4221 74.0872 20.0916 73.2268L19.9111 73.2962L19.7307 73.3655C20.0782 74.2699 20.5893 75.105 21.2392 75.8269L21.3828 75.6975ZM19.9111 73.2962L20.0933 73.2316L19.9576 72.8488L19.7754 72.9133L19.5932 72.9779L19.729 73.3608L19.9111 73.2962ZM19.7754 72.9133L19.9592 72.8536C19.6853 72.0107 19.6133 71.0862 19.5956 69.5693L19.4023 69.5716L19.2091 69.5738C19.2268 71.0926 19.2979 72.0693 19.5916 72.9731L19.7754 72.9133ZM19.4023 69.5716L19.5956 69.5709L19.5898 67.8453L19.3965 67.846L19.2032 67.8466L19.2091 69.5722L19.4023 69.5716ZM19.3965 67.846H19.5898V41.1546H19.3965H19.2032V67.846H19.3965ZM19.3965 41.1546L19.5898 41.1546C19.5898 38.7042 19.5923 37.4402 19.8951 36.36L19.709 36.3079L19.5229 36.2557C19.2023 37.3994 19.2032 38.7273 19.2032 41.1546L19.3965 41.1546ZM19.709 36.3079L19.8941 36.3636L19.9605 36.1429L19.7754 36.0872L19.5903 36.0315L19.5239 36.2522L19.709 36.3079ZM19.7754 36.0872L19.9592 36.1469C20.2449 35.2679 20.6892 34.4498 21.2694 33.7332L21.1191 33.6116L20.9689 33.49C20.359 34.2433 19.8919 35.1034 19.5916 36.0274L19.7754 36.0872ZM21.1191 33.6116L21.2659 33.7374L21.5296 33.4298L21.3828 33.304L21.2361 33.1782L20.9724 33.4858L21.1191 33.6116ZM21.3828 33.304L21.5264 33.4333C22.1195 32.7747 22.8836 32.2499 24.1884 31.4761L24.0898 31.3098L23.9913 31.1436C22.6847 31.9184 21.8751 32.4685 21.2392 33.1746L21.3828 33.304ZM24.0898 31.3098L24.187 31.4769L25.6791 30.6098L25.582 30.4426L25.4849 30.2755L23.9927 31.1427L24.0898 31.3098ZM25.582 30.4426L25.6787 30.61L48.7939 17.2643L48.6973 17.0969L48.6006 16.9296L25.4854 30.2753L25.582 30.4426ZM48.6973 17.0969L48.7939 17.2643C50.9164 16.0389 52.0117 15.4077 53.0986 15.1299L53.0508 14.9426L53.0029 14.7554C51.852 15.0495 50.7027 15.7159 48.6006 16.9296L48.6973 17.0969ZM53.0508 14.9426L53.0944 15.1309L53.318 15.0792L53.2744 14.8909L53.2308 14.7026L53.0072 14.7543L53.0508 14.9426ZM67.792 84.2825V84.0892H41.9717V84.2825V84.4758H67.792V84.2825ZM41.9717 84.2825L41.9717 84.0892C41.864 84.0892 41.7825 84.0883 41.6788 84.0882L41.6787 84.2815L41.6786 84.4748C41.7637 84.4748 41.8779 84.4758 41.9717 84.4758L41.9717 84.2825ZM41.6787 84.2815L41.5821 84.4489L50.1465 89.3932L50.2432 89.2258L50.3398 89.0585L41.7753 84.1141L41.6787 84.2815ZM50.2432 89.2258L50.1473 89.3937L51.663 90.2589L51.7588 90.0911L51.8546 89.9232L50.339 89.058L50.2432 89.2258ZM51.7588 90.0911L51.6644 90.2598C52.8958 90.9487 53.3916 91.1709 53.8778 91.2743L53.918 91.0852L53.9582 90.8962C53.537 90.8067 53.089 90.6139 51.8532 89.9224L51.7588 90.0911ZM53.918 91.0852L53.8823 91.2752L54.1216 91.3201L54.1572 91.1301L54.1929 90.9402L53.9536 90.8953L53.918 91.0852ZM54.1572 91.1301L54.1271 91.3211C54.7106 91.4132 55.3078 91.3974 55.8869 91.2743L55.8467 91.0852L55.8065 90.8962C55.2736 91.0094 54.7241 91.024 54.1874 90.9392L54.1572 91.1301ZM55.8467 91.0852L55.8941 91.2726L56.1256 91.214L56.0781 91.0266L56.0307 90.8393L55.7992 90.8979L55.8467 91.0852ZM56.0781 91.0266L56.1336 91.2118C56.7208 91.036 57.4979 90.6168 59.6171 89.3932L59.5205 89.2258L59.4239 89.0585C57.2849 90.2934 56.5556 90.6819 56.0227 90.8415L56.0781 91.0266ZM59.5205 89.2258L59.6172 89.3932L68.1806 84.4479L68.084 84.2805L67.9873 84.1132L59.4239 89.0585L59.5205 89.2258ZM68.084 84.2805L68.0827 84.0873L67.7907 84.0892L67.792 84.2825L67.7933 84.4758L68.0853 84.4738L68.084 84.2805ZM59.251 81.1897V81.383H67.791V81.1897V80.9964H59.251V81.1897ZM67.791 81.1897L67.791 81.383C68.6758 81.383 69.1708 81.3741 69.461 81.3601C69.7509 81.346 69.8506 81.3263 69.9367 81.2983L69.877 81.1145L69.8172 80.9307C69.7809 80.9425 69.7224 80.9604 69.4422 80.974C69.1623 80.9876 68.6755 80.9964 67.791 80.9964L67.791 81.1897ZM69.877 81.1145L69.9467 81.2948L70.0981 81.2362L70.0283 81.0559L69.9585 80.8757L69.8072 80.9343L69.877 81.1145ZM70.0283 81.0559L70.1071 81.2324C70.2727 81.1585 70.4265 81.0587 70.5619 80.9369L70.4326 80.7932L70.3033 80.6495C70.198 80.7443 70.0784 80.8219 69.9495 80.8794L70.0283 81.0559ZM70.4326 80.7932L70.5749 80.9241L70.6647 80.8264L70.5225 80.6956L70.3802 80.5647L70.2904 80.6624L70.4326 80.7932ZM70.5225 80.6956L70.6746 80.8148C70.8027 80.6512 71.0481 80.2649 71.7084 79.1213L71.541 79.0247L71.3736 78.928C70.708 80.0809 70.4777 80.4393 70.3703 80.5764L70.5225 80.6956ZM71.541 79.0247L71.7084 79.1213L75.9779 71.7248L75.8105 71.6282L75.6432 71.5316L71.3736 78.9281L71.541 79.0247ZM75.8105 71.6282L75.7139 71.4608L59.1543 81.0223L59.251 81.1897L59.3476 81.3571L75.9072 71.7956L75.8105 71.6282ZM38.2227 79.0247L38.0553 79.1213C38.497 79.8865 38.752 80.3104 38.9093 80.5546C39.0664 80.7986 39.1335 80.8753 39.2007 80.9358L39.3301 80.7923L39.4595 80.6487C39.4311 80.6231 39.3861 80.5811 39.2343 80.3453C39.0826 80.1097 38.8316 79.6929 38.39 78.928L38.2227 79.0247ZM39.3301 80.7923L39.2086 80.9426L39.3356 81.0452L39.457 80.8948L39.5785 80.7444L39.4515 80.6419L39.3301 80.7923ZM39.457 80.8948L39.3436 81.0512C39.4905 81.1578 39.6537 81.241 39.8269 81.2973L39.8867 81.1135L39.9465 80.9298C39.8117 80.8859 39.6847 80.8211 39.5705 80.7383L39.457 80.8948ZM39.8867 81.1135L39.8452 81.3023L39.9742 81.3306L40.0156 81.1419L40.0571 80.9531L39.9282 80.9248L39.8867 81.1135ZM40.0156 81.1419L39.9885 81.3332C40.194 81.3624 40.6508 81.383 41.9717 81.383L41.9717 81.1897L41.9717 80.9964C40.641 80.9964 40.2153 80.975 40.0428 80.9505L40.0156 81.1419ZM41.9717 81.1897V81.383H50.5127V81.1897V80.9964H41.9717V81.1897ZM50.5127 81.1897L50.6093 81.0223L34.0488 71.4598L33.9521 71.6272L33.8555 71.7946L50.416 81.3571L50.5127 81.1897ZM33.9521 71.6272L33.7848 71.7238L38.0553 79.1213L38.2227 79.0247L38.39 78.928L34.1195 71.5306L33.9521 71.6272ZM22.4893 67.846L22.296 67.846C22.296 70.6399 22.3292 71.3925 22.532 72.017L22.7158 71.9573L22.8996 71.8976C22.7205 71.3461 22.6825 70.6702 22.6825 67.846L22.4893 67.846ZM22.7158 71.9573L22.5338 72.0223L22.6159 72.2518L22.7979 72.1868L22.9799 72.1217L22.8978 71.8922L22.7158 71.9573ZM22.7979 72.1868L22.6174 72.2561C22.8293 72.8076 23.1406 73.3172 23.537 73.7575L23.6807 73.6282L23.8243 73.4989C23.4598 73.094 23.1733 72.6251 22.9783 72.1175L22.7979 72.1868ZM23.6807 73.6282L23.5424 73.7633L23.7094 73.9342L23.8477 73.7991L23.9859 73.664L23.8189 73.4931L23.6807 73.6282ZM23.8477 73.7991L23.715 73.9397C24.1609 74.3603 24.9124 74.8242 27.0313 76.0475L27.1279 75.8801L27.2246 75.7128C25.0862 74.4782 24.385 74.0402 23.9803 73.6585L23.8477 73.7991ZM27.1279 75.8801L27.0313 76.0475L35.5948 80.9919L35.6914 80.8245L35.788 80.6571L27.2246 75.7128L27.1279 75.8801ZM35.6914 80.8245L35.8585 80.7274L35.7111 80.4735L35.5439 80.5706L35.3768 80.6676L35.5243 80.9215L35.6914 80.8245ZM35.5439 80.5706L35.7113 80.4739L22.8021 58.1146L22.6348 58.2112L22.4674 58.3078L35.3766 80.6672L35.5439 80.5706ZM22.6348 58.2112L22.8021 58.1146C22.7491 58.0227 22.7076 57.9491 22.6567 57.8608L22.4893 57.9573L22.3218 58.0538C22.3649 58.1286 22.42 58.2257 22.4674 58.3078L22.6348 58.2112ZM22.4893 57.9573H22.296V67.846H22.4893H22.6825V57.9573H22.4893ZM87.1289 58.2112L86.9615 58.1146L74.0514 80.4749L74.2188 80.5716L74.3861 80.6682L87.2963 58.3078L87.1289 58.2112ZM74.2188 80.5716L74.0518 80.4742L73.9043 80.7271L74.0713 80.8245L74.2383 80.9218L74.3857 80.6689L74.2188 80.5716ZM74.0713 80.8245L74.1679 80.9919L82.7324 76.0475L82.6357 75.8801L82.5391 75.7128L73.9747 80.6571L74.0713 80.8245ZM82.6357 75.8801L82.7324 76.0475C85.1524 74.6503 85.7872 74.2455 86.2266 73.7575L86.083 73.6282L85.9394 73.4988C85.5513 73.9298 84.9854 74.3004 82.5391 75.7128L82.6357 75.8801ZM86.083 73.6282L86.2301 73.7536L86.3883 73.568L86.2412 73.4426L86.0941 73.3172L85.9359 73.5028L86.083 73.6282ZM86.2412 73.4426L86.3914 73.5642C86.7632 73.105 87.0486 72.5804 87.2317 72.017L87.0479 71.9573L86.864 71.8976C86.6956 72.4157 86.433 72.8985 86.091 73.321L86.2412 73.4426ZM87.0479 71.9573L87.2339 72.0096L87.2984 71.7801L87.1123 71.7278L86.9262 71.6755L86.8618 71.905L87.0479 71.9573ZM87.1123 71.7278L87.3004 71.7724C87.4419 71.1759 87.4677 70.2938 87.4677 67.846L87.2744 67.846L87.0811 67.846C87.0811 70.3164 87.0527 71.1419 86.9242 71.6832L87.1123 71.7278ZM87.2744 67.846H87.4677V57.9573H87.2744H87.0811V67.846H87.2744ZM87.2744 57.9573L87.107 57.8608C87.0553 57.9504 87.0153 58.0215 86.9615 58.1146L87.1289 58.2112L87.2963 58.3078C87.3431 58.2267 87.3993 58.1276 87.4419 58.0538L87.2744 57.9573ZM25.3125 52.3352L25.1451 52.2386C24.4846 53.3826 24.2742 53.7882 24.1967 53.9808L24.376 54.053L24.5553 54.1251C24.6203 53.9635 24.8145 53.5844 25.4799 52.4319L25.3125 52.3352ZM24.376 54.053L24.1919 53.994L24.1519 54.119L24.3359 54.178L24.52 54.237L24.56 54.112L24.376 54.053ZM24.3359 54.178L24.1469 54.1378C24.1087 54.3174 24.1004 54.5013 24.1193 54.6816L24.3115 54.6614L24.5037 54.6412C24.4889 54.4996 24.4956 54.3565 24.525 54.2182L24.3359 54.178ZM24.3115 54.6614L24.1205 54.6905L24.1449 54.8507L24.3359 54.8216L24.527 54.7924L24.5026 54.6323L24.3115 54.6614ZM24.3359 54.8216L24.1469 54.8619C24.1658 54.9504 24.199 55.047 24.3318 55.305C24.4647 55.5632 24.7045 55.996 25.1461 56.761L25.3135 56.6643L25.4809 56.5677C25.0394 55.803 24.8038 55.3773 24.6754 55.128C24.547 54.8785 24.5329 54.8185 24.525 54.7812L24.3359 54.8216ZM25.3135 56.6643L25.1461 56.761L29.4166 64.1574L29.584 64.0608L29.7514 63.9642L25.4809 56.5677L25.3135 56.6643ZM29.584 64.0608H29.7773V44.9368H29.584H29.3907V64.0608H29.584ZM29.584 44.9368L29.4166 44.8401L25.1451 52.2386L25.3125 52.3352L25.4799 52.4319L29.7514 45.0334L29.584 44.9368ZM80.1807 64.0598L80.348 64.1565L84.6176 56.7619L84.4502 56.6653L84.2828 56.5687L80.0133 63.9632L80.1807 64.0598ZM84.4502 56.6653L84.6176 56.7619C85.0599 55.9959 85.2994 55.5628 85.432 55.3045C85.5646 55.0461 85.597 54.95 85.6158 54.8618L85.4268 54.8216L85.2377 54.7813C85.2297 54.8189 85.216 54.8788 85.0881 55.1279C84.9602 55.3771 84.7249 55.803 84.2828 56.5687L84.4502 56.6653ZM85.4268 54.8216L85.6177 54.8518L85.643 54.6917L85.4521 54.6614L85.2613 54.6311L85.2359 54.7913L85.4268 54.8216ZM85.4521 54.6614L85.6444 54.6815C85.6632 54.5014 85.6549 54.3172 85.6168 54.1378L85.4277 54.178L85.2387 54.2181C85.268 54.3563 85.2747 54.4998 85.2599 54.6413L85.4521 54.6614ZM85.4277 54.178L85.6118 54.119L85.5718 53.994L85.3877 54.053L85.2036 54.112L85.2437 54.237L85.4277 54.178ZM85.3877 54.053L85.567 53.9809C85.4896 53.7884 85.2783 53.3829 84.6176 52.2386L84.4502 52.3352L84.2828 52.4319C84.9487 53.5853 85.1435 53.9638 85.2084 54.1251L85.3877 54.053ZM84.4502 52.3352L84.6176 52.2386L80.348 44.8431L80.1807 44.9397L80.0133 45.0363L84.2828 52.4319L84.4502 52.3352ZM80.1807 44.9397H79.9874V64.0598H80.1807H80.3739V44.9397H80.1807ZM27.1279 33.1204L27.0313 32.953C24.9117 34.1767 24.1609 34.6402 23.715 35.0609L23.8477 35.2014L23.9803 35.342C24.385 34.9602 25.0855 34.5228 27.2246 33.2878L27.1279 33.1204ZM23.8477 35.2014L23.7094 35.0664L23.5424 35.2373L23.6807 35.3723L23.8189 35.5074L23.9859 35.3365L23.8477 35.2014ZM23.6807 35.3723L23.537 35.243C23.1405 35.6834 22.8293 36.1928 22.6174 36.7444L22.7979 36.8137L22.9783 36.883C23.1733 36.3753 23.4597 35.9066 23.8243 35.5017L23.6807 35.3723ZM22.7979 36.8137L22.6159 36.7487L22.5338 36.9782L22.7158 37.0432L22.8978 37.1083L22.9799 36.8788L22.7979 36.8137ZM22.7158 37.0432L22.532 36.9835C22.3292 37.608 22.296 38.3602 22.296 41.1546L22.4893 41.1546L22.6825 41.1546C22.6825 38.3299 22.7205 37.6545 22.8996 37.1029L22.7158 37.0432ZM22.4893 41.1546H22.296V51.0432H22.4893H22.6825V41.1546H22.4893ZM22.4893 51.0432L22.657 51.1393L22.8025 50.8854L22.6348 50.7893L22.4671 50.6932L22.3216 50.9471L22.4893 51.0432ZM22.6348 50.7893L22.8021 50.886L35.7123 28.5256L35.5449 28.429L35.3775 28.3323L22.4674 50.6927L22.6348 50.7893ZM35.5449 28.429L35.7123 28.5256C35.763 28.4377 35.8114 28.3537 35.8587 28.2718L35.6914 28.1751L35.5241 28.0783C35.4768 28.1601 35.4277 28.2455 35.3775 28.3323L35.5449 28.429ZM35.6914 28.1751L35.5948 28.0077L27.0313 32.953L27.1279 33.1204L27.2246 33.2878L35.7881 28.3424L35.6914 28.1751ZM74.2188 28.429L74.0514 28.5256L86.9615 50.885L87.1289 50.7883L87.2963 50.6917L74.3861 28.3323L74.2188 28.429ZM87.1289 50.7883L86.9612 50.8844L87.1067 51.1384L87.2744 51.0423L87.4421 50.9462L87.2966 50.6922L87.1289 50.7883ZM87.2744 51.0423H87.4677V41.1546H87.2744H87.0811V51.0423H87.2744ZM87.2744 41.1546L87.4677 41.1546C87.4677 38.7082 87.4416 37.8256 87.3004 37.2292L87.1123 37.2737L86.9242 37.3182C87.0524 37.8596 87.0811 38.6857 87.0811 41.1546L87.2744 41.1546ZM87.1123 37.2737L87.2984 37.2216L87.234 36.9912L87.0479 37.0432L86.8617 37.0953L86.9262 37.3258L87.1123 37.2737ZM87.0479 37.0432L87.2317 36.9835C87.0486 36.4202 86.7631 35.8955 86.3915 35.4363L86.2412 35.5579L86.091 35.6795C86.433 36.102 86.6957 36.5849 86.864 37.103L87.0479 37.0432ZM86.2412 35.5579L86.3883 35.4325L86.2301 35.2469L86.083 35.3723L85.9359 35.4977L86.0941 35.6833L86.2412 35.5579ZM86.083 35.3723L86.2266 35.243C85.7872 34.7551 85.1517 34.3498 82.7324 32.953L82.6357 33.1204L82.5391 33.2878C84.9847 34.6998 85.5513 35.0708 85.9394 35.5017L86.083 35.3723ZM82.6357 33.1204L82.7324 32.953L74.1679 28.0077L74.0713 28.1751L73.9746 28.3424L82.5391 33.2878L82.6357 33.1204ZM74.0713 28.1751L73.904 28.2718C73.9537 28.3578 73.9994 28.4356 74.0514 28.5256L74.2188 28.429L74.3861 28.3323C74.3373 28.2477 74.2835 28.156 74.2386 28.0783L74.0713 28.1751ZM41.9727 27.8098L41.9727 27.6166C40.6531 27.6166 40.1954 27.6372 39.9895 27.6663L40.0166 27.8577L40.0437 28.0491C40.2166 28.0246 40.6434 28.0031 41.9727 28.0031L41.9727 27.8098ZM40.0166 27.8577L39.9754 27.6688L39.8455 27.6972L39.8867 27.886L39.9279 28.0748L40.0578 28.0465L40.0166 27.8577ZM39.8867 27.886L39.8269 27.7022C39.6537 27.7586 39.4905 27.8418 39.3436 27.9483L39.457 28.1048L39.5705 28.2612C39.6847 28.1784 39.8117 28.1136 39.9465 28.0698L39.8867 27.886ZM39.457 28.1048L39.335 27.9549L39.209 28.0574L39.3311 28.2073L39.4531 28.3572L39.579 28.2547L39.457 28.1048ZM39.3311 28.2073L39.2017 28.0637C39.1347 28.124 39.0677 28.2 38.9104 28.4439C38.753 28.6879 38.4977 29.1119 38.0553 29.8782L38.2227 29.9749L38.39 30.0715C38.8323 29.3055 39.0834 28.8887 39.2352 28.6535C39.3869 28.4183 39.4318 28.3766 39.4604 28.3509L39.3311 28.2073ZM38.2227 29.9749L38.0553 29.8782L33.7838 37.2747L33.9512 37.3714L34.1185 37.468L38.39 30.0715L38.2227 29.9749ZM33.9512 37.3714L34.0478 37.5387L50.6103 27.9772L50.5137 27.8098L50.417 27.6424L33.8545 37.204L33.9512 37.3714ZM50.5137 27.8098V27.6166H41.9727V27.8098V28.0031H50.5137V27.8098ZM75.8105 37.3704L75.9779 37.2737L71.7084 29.8782L71.541 29.9749L71.3736 30.0715L75.6432 37.467L75.8105 37.3704ZM71.541 29.9749L71.7084 29.8782C71.0478 28.734 70.8016 28.3481 70.6736 28.1847L70.5215 28.304L70.3694 28.4232C70.4767 28.5602 70.7079 28.9185 71.3736 30.0715L71.541 29.9749ZM70.5215 28.304L70.6645 28.174L70.5766 28.0773L70.4336 28.2073L70.2906 28.3373L70.3785 28.434L70.5215 28.304ZM70.4336 28.2073L70.5629 28.0636C70.427 27.9413 70.2721 27.8411 70.106 27.7671L70.0273 27.9436L69.9487 28.1202C70.0781 28.1778 70.1988 28.256 70.3043 28.3509L70.4336 28.2073ZM70.0273 27.9436L70.0961 27.763L69.9447 27.7054L69.876 27.886L69.8072 28.0666L69.9586 28.1243L70.0273 27.9436ZM69.876 27.886L69.9356 27.7022C69.8496 27.6743 69.7494 27.6546 69.4595 27.6405C69.1693 27.6264 68.6745 27.6175 67.791 27.6175L67.791 27.8108L67.791 28.0041C68.6741 28.0041 69.1607 28.013 69.4407 28.0266C69.721 28.0402 69.78 28.0581 69.8164 28.0699L69.876 27.886ZM67.791 27.8108L67.791 27.6175L59.25 27.6166L59.25 27.8098L59.25 28.0031L67.791 28.0041L67.791 27.8108ZM59.25 27.8098L59.1534 27.9772L75.7139 37.5378L75.8105 37.3704L75.9072 37.203L59.3466 27.6424L59.25 27.8098ZM55.8467 17.9153L55.8869 17.7262C55.2248 17.5855 54.5398 17.5857 53.8778 17.7262L53.918 17.9153L53.9581 18.1044C54.5672 17.975 55.1975 17.9749 55.8065 18.1044L55.8467 17.9153ZM53.918 17.9153L53.8778 17.7262C53.2354 17.8628 52.567 18.2098 50.1465 19.6073L50.2432 19.7747L50.3398 19.9421C52.7865 18.5295 53.3908 18.225 53.9582 18.1044L53.918 17.9153ZM50.2432 19.7747L50.1465 19.6073L41.5821 24.5516L41.6787 24.719L41.7753 24.8864L50.3398 19.9421L50.2432 19.7747ZM41.6787 24.719L41.6789 24.9123C41.7815 24.9122 41.8651 24.9113 41.9717 24.9113L41.9717 24.718L41.9717 24.5248C41.8769 24.5248 41.7647 24.5257 41.6786 24.5257L41.6787 24.719ZM41.9717 24.718V24.9113H67.792V24.718V24.5248H41.9717V24.718ZM67.792 24.718L67.792 24.9113C67.9008 24.9113 67.979 24.9122 68.0839 24.9123L68.084 24.719L68.0841 24.5257C68.0008 24.5257 67.8839 24.5248 67.792 24.5248L67.792 24.718ZM68.084 24.719L68.1806 24.5516L59.6171 19.6073L59.5205 19.7747L59.4239 19.9421L67.9873 24.8864L68.084 24.719ZM59.5205 19.7747L59.6171 19.6073C57.4984 18.384 56.7207 17.9656 56.1336 17.7897L56.0781 17.9749L56.0227 18.16C56.5556 18.3197 57.2858 18.7076 59.4239 19.9421L59.5205 19.7747ZM56.0781 17.9749L56.1263 17.7877L55.8949 17.7281L55.8467 17.9153L55.7985 18.1025L56.0299 18.162L56.0781 17.9749Z" fill="url(#paint6_linear_247_5190)" mask="url(#path-11-inside-1_247_5190)"/>
</g>
</g>
</g>
<g filter="url(#filter2_d_247_5190)">
<path fill-rule="evenodd" clip-rule="evenodd" d="M48.4946 38.6716C48.468 38.6716 48.4396 38.6714 48.4095 38.6713C48.1212 38.6697 47.6821 38.6673 47.2779 38.794C46.5591 39.0195 45.9671 39.5477 45.6531 40.2232L41.9655 40.2232C41.6936 40.2231 41.3961 40.223 41.1364 40.2468C40.834 40.2745 40.4623 40.3422 40.0823 40.5496C39.5697 40.8294 39.1373 41.3048 38.9072 41.8416C38.6303 42.4876 38.7009 43.1688 38.7451 43.5957C38.7494 43.6373 38.7535 43.6765 38.757 43.7129C39.4282 50.7834 43.793 56.5249 50.4947 58.2768C51.1315 58.9837 51.8127 59.5891 52.5282 60.0987C52.8822 60.3508 53.2619 60.5275 53.6473 60.6429C53.6381 60.7345 53.6279 60.828 53.6165 60.9228C53.504 61.8615 53.2967 62.7491 52.9878 63.3506C52.3551 63.3919 51.7044 63.472 51.0885 63.6274C49.7845 63.9563 48.4516 64.6713 47.7858 66.2187L47.7726 66.2492C47.7113 66.3909 47.6168 66.6095 47.564 66.8456C47.4962 67.1487 47.501 67.4367 47.5576 67.7361C47.6199 68.0655 47.7796 68.3608 47.9094 68.5579C48.0391 68.7549 48.2472 69.0184 48.5252 69.2058C49.1144 69.603 49.751 69.5992 50.2196 69.5964H50.2202C50.2579 69.5962 50.2945 69.596 50.3298 69.596H59.4359C59.4714 69.596 59.5082 69.5962 59.5461 69.5964C60.0147 69.5992 60.6513 69.603 61.2405 69.2058C61.5185 69.0184 61.7266 68.7549 61.8563 68.5579C61.9861 68.3608 62.1458 68.0655 62.2081 67.7361C62.2647 67.4367 62.2695 67.1487 62.2017 66.8456C62.1489 66.6095 62.0544 66.3909 61.9931 66.2492L61.9799 66.2187C61.3141 64.6713 59.9812 63.9563 58.6772 63.6274C58.0613 63.472 57.4106 63.3919 56.7779 63.3506C56.469 62.7491 56.2617 61.8615 56.1492 60.9228C56.1378 60.828 56.1276 60.7345 56.1185 60.6429C56.5038 60.5275 56.8836 60.3508 57.2375 60.0987C57.9571 59.5862 58.6419 58.9768 59.2818 58.2648C65.9739 56.5032 70.3385 50.7917 71.0091 43.7126C71.0125 43.6761 71.0166 43.637 71.0209 43.5954C71.065 43.1683 71.1355 42.4871 70.8585 41.8412C70.6283 41.3045 70.196 40.8293 69.6834 40.5496C69.3034 40.3421 68.9317 40.2745 68.6294 40.2468C68.3697 40.223 68.0721 40.2231 67.8002 40.2232L64.1126 40.2232C63.7987 39.5477 63.2066 39.0195 62.4878 38.794C62.0837 38.6673 61.6445 38.6697 61.3563 38.6713C61.3262 38.6714 61.2977 38.6716 61.2712 38.6716H48.4946ZM42.011 43.3156H45.4839C45.7306 47.5403 46.4907 50.9613 47.6419 53.6784C44.3772 51.5392 42.2586 47.8762 41.8355 43.4206L41.8256 43.3158C41.8815 43.3156 41.9428 43.3156 42.011 43.3156ZM62.1294 53.6653C63.2775 50.9503 64.0356 47.5335 64.2819 43.3156H67.7548C67.8231 43.3156 67.8844 43.3156 67.9403 43.3158L67.9304 43.421C67.5083 47.8774 65.3926 51.5282 62.1294 53.6653Z" fill="white"/>
<path d="M61.5986 38.5752C61.8669 38.5798 62.2011 38.6032 62.5166 38.7021L62.6553 38.749C63.3183 38.9971 63.8628 39.4974 64.1729 40.127H67.7998L68.2217 40.1299C68.3641 40.1329 68.5063 40.1383 68.6387 40.1504L68.8838 40.1816C69.1414 40.2233 69.4327 40.3029 69.7295 40.4648L69.9248 40.583C70.3697 40.879 70.7384 41.3159 70.9473 41.8027L70.9971 41.9297C71.165 42.3937 71.1733 42.8642 71.1494 43.2393L71.1172 43.6055L71.1055 43.7217C70.4325 50.8264 66.0539 56.5692 59.333 58.3506C58.7749 58.9689 58.184 59.5115 57.5645 59.9795L57.2939 60.1777C56.9544 60.4195 56.5908 60.5908 56.2227 60.709C56.2297 60.7755 56.237 60.843 56.2451 60.9111L56.292 61.2588C56.4069 62.0357 56.5907 62.7476 56.8418 63.2578C57.4599 63.3004 58.0964 63.3807 58.7012 63.5332L58.9482 63.6006C60.1887 63.9607 61.4288 64.6942 62.0684 66.1807L62.082 66.2109L62.1914 66.4785C62.2304 66.5834 62.2684 66.7013 62.2959 66.8242L62.335 67.0605C62.3521 67.216 62.3522 67.3689 62.3369 67.5225L62.3027 67.7539C62.2371 68.101 62.0707 68.4091 61.9375 68.6113C61.8209 68.7884 61.6401 69.0212 61.4004 69.209L61.2949 69.2861C60.8323 69.598 60.3418 69.6728 59.9287 69.6895L59.5459 69.6934C59.508 69.6931 59.4708 69.6924 59.4355 69.6924H50.3301L50.2207 69.6934H50.2197C49.7819 69.696 49.1697 69.7012 48.5869 69.3594L48.4717 69.2861C48.2522 69.1381 48.0751 68.9463 47.9443 68.7744L47.8291 68.6113C47.7126 68.4343 47.57 68.1761 47.4922 67.8818L47.4629 67.7539C47.4043 67.4436 47.3986 67.1421 47.4697 66.8242L47.5176 66.6445C47.5712 66.4705 47.6378 66.3168 47.6836 66.2109L47.6973 66.1807L47.833 65.8936C48.5499 64.506 49.8268 63.8454 51.0645 63.5332L51.5381 63.4297C51.9965 63.3424 52.4651 63.2894 52.9238 63.2578C53.2119 62.6724 53.4115 61.8209 53.5205 60.9111L53.542 60.709C53.2727 60.6224 53.0055 60.5084 52.749 60.3574L52.4727 60.1777C51.7579 59.6687 51.0768 59.0649 50.4404 58.3613C43.9218 56.6439 39.61 51.174 38.7344 44.3838L38.6611 43.7217L38.6494 43.6055C38.6054 43.1804 38.5304 42.4755 38.8184 41.8037L38.917 41.5977C39.1698 41.1267 39.571 40.7187 40.0361 40.4648L40.1836 40.3906C40.5271 40.232 40.857 40.1752 41.1279 40.1504L41.5439 40.1299C41.6866 40.1269 41.8303 40.1269 41.9658 40.127H45.5928C45.9242 39.4541 46.5237 38.9297 47.249 38.7021L47.4082 38.6582C47.7806 38.5705 48.1595 38.5728 48.4102 38.5742L48.4941 38.5752H61.2715C61.2976 38.5752 61.3255 38.5744 61.3555 38.5742L61.5986 38.5752ZM41.9316 43.4121C42.3408 47.7204 44.3441 51.2758 47.4316 53.4189C46.3522 50.7584 45.6371 47.4517 45.3936 43.4121H41.9316ZM64.3721 43.4121C64.1289 47.446 63.4148 50.7486 62.3379 53.4072C65.3257 51.3354 67.2963 47.9484 67.79 43.8252L67.834 43.4121H64.3721Z" stroke="url(#paint7_linear_247_5190)" stroke-width="0.193277" stroke-linecap="round" style="mix-blend-mode:color-burn"/>
</g>
</g>
<g filter="url(#filter3_dd_247_5190)">
<path fill-rule="evenodd" clip-rule="evenodd" d="M79.8475 10.5504H93.0762C98.3897 10.5504 102.697 14.8771 102.697 20.2143C102.697 25.5515 98.3897 29.8781 93.0762 29.8781H71.3982C70.8434 29.8781 70.4692 29.3111 70.6874 28.801L71.8251 26.1414C71.9226 25.9134 71.9049 25.6529 71.7818 25.4377C71.4815 24.9126 70.9239 23.8983 70.7097 23.2464C70.3962 22.2928 70.2266 21.2734 70.2266 20.2143C70.2266 14.8771 74.534 10.5504 79.8475 10.5504Z" fill="#FFB413"/>
<path d="M79.8477 10.6471H93.0762C98.3359 10.6471 102.601 14.9302 102.601 20.2145C102.6 25.4986 98.3358 29.7819 93.0762 29.7819H71.3984C70.913 29.7819 70.5854 29.2848 70.7764 28.8385L71.9141 26.1793C72.0238 25.9228 72.0039 25.6301 71.8662 25.3893C71.6026 24.9284 71.1465 24.1013 70.8955 23.4723L70.8018 23.2164C70.4915 22.2725 70.3233 21.2632 70.3232 20.2145C70.3232 14.9302 74.5879 10.6471 79.8477 10.6471Z" stroke="url(#paint8_linear_247_5190)" stroke-width="0.193277" stroke-linecap="round" style="mix-blend-mode:darken"/>
</g>
<path fill-rule="evenodd" clip-rule="evenodd" d="M79.8475 10.5504H93.0762C98.3897 10.5504 102.697 14.8771 102.697 20.2143C102.697 25.5515 98.3897 29.8781 93.0762 29.8781H71.3982C70.8434 29.8781 70.4692 29.3111 70.6874 28.801L71.8251 26.1414C71.9226 25.9134 71.9049 25.6529 71.7818 25.4377C71.4815 24.9126 70.9239 23.8983 70.7097 23.2464C70.3962 22.2928 70.2266 21.2734 70.2266 20.2143C70.2266 14.8771 74.534 10.5504 79.8475 10.5504Z" fill="url(#paint9_linear_247_5190)" fill-opacity="0.3" style="mix-blend-mode:overlay"/>
<path fill-rule="evenodd" clip-rule="evenodd" d="M79.8475 10.5504H93.0762C98.3897 10.5504 102.697 14.8771 102.697 20.2143C102.697 25.5515 98.3897 29.8781 93.0762 29.8781H71.3982C70.8434 29.8781 70.4692 29.3111 70.6874 28.801L71.8251 26.1414C71.9226 25.9134 71.9049 25.6529 71.7818 25.4377C71.4815 24.9126 70.9239 23.8983 70.7097 23.2464C70.3962 22.2928 70.2266 21.2734 70.2266 20.2143C70.2266 14.8771 74.534 10.5504 79.8475 10.5504Z" fill="url(#paint10_radial_247_5190)" fill-opacity="0.6" style="mix-blend-mode:overlay"/>
<g filter="url(#filter4_i_247_5190)">
<path d="M82.5456 19.841L85.0288 22.6644C84.9381 23.0046 84.7737 23.2824 84.5356 23.4978C84.3088 23.7019 84.031 23.804 83.7022 23.804C83.5888 23.804 83.4527 23.77 83.294 23.7019C83.1352 23.6339 83.0048 23.5319 82.9028 23.3958L81.1339 21.2868L80.3515 20.6064L77.7152 17.8851C77.7946 17.5789 77.959 17.3011 78.2085 17.0517C78.4579 16.8022 78.7244 16.6775 79.0079 16.6775C79.1553 16.6775 79.2913 16.7115 79.4161 16.7795C79.5408 16.8362 79.6485 16.9156 79.7392 17.0176L81.8313 19.2968L82.5456 19.841ZM84.3655 18.6845L82.4606 20.6744L81.5081 21.4058L79.1439 23.906C78.7584 23.838 78.4296 23.6849 78.1574 23.4468C77.8966 23.1974 77.7662 22.9366 77.7662 22.6644C77.7662 22.551 77.8003 22.432 77.8683 22.3073C77.9477 22.1825 78.0554 22.0521 78.1915 21.9161L80.1814 19.841L81.0489 19.2798L83.6001 16.6094C83.8949 16.7115 84.1614 16.8816 84.3995 17.1197C84.649 17.3465 84.7737 17.6073 84.7737 17.9021C84.7737 18.0268 84.7397 18.1572 84.6717 18.2933C84.6036 18.418 84.5016 18.5484 84.3655 18.6845ZM88.0045 16.1502C88.0045 15.7987 88.1349 15.5039 88.3957 15.2658C88.6565 15.0163 89.0137 14.8292 89.4672 14.7045C89.9208 14.5798 90.448 14.5174 91.049 14.5174C91.8994 14.5174 92.6138 14.6535 93.1921 14.9256C93.7817 15.1864 94.2239 15.5549 94.5187 16.0312C94.8249 16.4961 94.978 17.029 94.978 17.6299C94.978 18.2309 94.8079 18.8205 94.4677 19.3988C94.1275 19.9658 93.6003 20.5497 92.8859 21.1507L90.5217 23.1237H94.8419C94.8986 23.2144 94.9553 23.3504 95.012 23.5319C95.0687 23.7019 95.097 23.889 95.097 24.0931C95.097 24.4446 95.0176 24.6998 94.8589 24.8585C94.7001 25.0173 94.4904 25.0966 94.2296 25.0966H88.2936C88.0782 24.9492 87.9081 24.7565 87.7834 24.5183C87.67 24.2802 87.6133 24.0138 87.6133 23.719C87.6133 23.3788 87.6813 23.0953 87.8174 22.8685C87.9648 22.6304 88.1236 22.432 88.2936 22.2732L90.8109 20.0451C91.4232 19.5122 91.8427 19.0757 92.0695 18.7355C92.2963 18.3953 92.4097 18.0722 92.4097 17.766C92.4097 17.3918 92.2679 17.097 91.9845 16.8816C91.7123 16.6548 91.3155 16.5414 90.7939 16.5414C90.329 16.5414 89.9094 16.6208 89.5353 16.7795C89.1724 16.9269 88.8719 17.08 88.6338 17.2388C88.4637 17.1254 88.3163 16.978 88.1916 16.7965C88.0669 16.6151 88.0045 16.3997 88.0045 16.1502Z" fill="black" fill-opacity="0.24" style="mix-blend-mode:color-burn"/>
<path d="M82.5456 19.841L85.0288 22.6644C84.9381 23.0046 84.7737 23.2824 84.5356 23.4978C84.3088 23.7019 84.031 23.804 83.7022 23.804C83.5888 23.804 83.4527 23.77 83.294 23.7019C83.1352 23.6339 83.0048 23.5319 82.9028 23.3958L81.1339 21.2868L80.3515 20.6064L77.7152 17.8851C77.7946 17.5789 77.959 17.3011 78.2085 17.0517C78.4579 16.8022 78.7244 16.6775 79.0079 16.6775C79.1553 16.6775 79.2913 16.7115 79.4161 16.7795C79.5408 16.8362 79.6485 16.9156 79.7392 17.0176L81.8313 19.2968L82.5456 19.841ZM84.3655 18.6845L82.4606 20.6744L81.5081 21.4058L79.1439 23.906C78.7584 23.838 78.4296 23.6849 78.1574 23.4468C77.8966 23.1974 77.7662 22.9366 77.7662 22.6644C77.7662 22.551 77.8003 22.432 77.8683 22.3073C77.9477 22.1825 78.0554 22.0521 78.1915 21.9161L80.1814 19.841L81.0489 19.2798L83.6001 16.6094C83.8949 16.7115 84.1614 16.8816 84.3995 17.1197C84.649 17.3465 84.7737 17.6073 84.7737 17.9021C84.7737 18.0268 84.7397 18.1572 84.6717 18.2933C84.6036 18.418 84.5016 18.5484 84.3655 18.6845ZM88.0045 16.1502C88.0045 15.7987 88.1349 15.5039 88.3957 15.2658C88.6565 15.0163 89.0137 14.8292 89.4672 14.7045C89.9208 14.5798 90.448 14.5174 91.049 14.5174C91.8994 14.5174 92.6138 14.6535 93.1921 14.9256C93.7817 15.1864 94.2239 15.5549 94.5187 16.0312C94.8249 16.4961 94.978 17.029 94.978 17.6299C94.978 18.2309 94.8079 18.8205 94.4677 19.3988C94.1275 19.9658 93.6003 20.5497 92.8859 21.1507L90.5217 23.1237H94.8419C94.8986 23.2144 94.9553 23.3504 95.012 23.5319C95.0687 23.7019 95.097 23.889 95.097 24.0931C95.097 24.4446 95.0176 24.6998 94.8589 24.8585C94.7001 25.0173 94.4904 25.0966 94.2296 25.0966H88.2936C88.0782 24.9492 87.9081 24.7565 87.7834 24.5183C87.67 24.2802 87.6133 24.0138 87.6133 23.719C87.6133 23.3788 87.6813 23.0953 87.8174 22.8685C87.9648 22.6304 88.1236 22.432 88.2936 22.2732L90.8109 20.0451C91.4232 19.5122 91.8427 19.0757 92.0695 18.7355C92.2963 18.3953 92.4097 18.0722 92.4097 17.766C92.4097 17.3918 92.2679 17.097 91.9845 16.8816C91.7123 16.6548 91.3155 16.5414 90.7939 16.5414C90.329 16.5414 89.9094 16.6208 89.5353 16.7795C89.1724 16.9269 88.8719 17.08 88.6338 17.2388C88.4637 17.1254 88.3163 16.978 88.1916 16.7965C88.0669 16.6151 88.0045 16.3997 88.0045 16.1502Z" fill="black" fill-opacity="0.32" style="mix-blend-mode:darken"/>
</g>
<g filter="url(#filter5_dd_247_5190)">
<rect x="10.916" y="83.7439" width="88.1667" height="16.5312" fill="#FFA00F"/>
<rect x="11.0308" y="83.8587" width="87.9371" height="16.3016" stroke="url(#paint11_linear_247_5190)" stroke-width="0.229601" stroke-linecap="round" style="mix-blend-mode:darken"/>
</g>
<rect x="10.916" y="83.7439" width="88.1667" height="16.5312" fill="url(#paint12_linear_247_5190)" fill-opacity="0.3" style="mix-blend-mode:overlay"/>
<rect x="10.916" y="83.7439" width="88.1667" height="16.5312" fill="url(#paint13_radial_247_5190)" fill-opacity="0.6" style="mix-blend-mode:overlay"/>
<g filter="url(#filter6_d_247_5190)">
<path fill-rule="evenodd" clip-rule="evenodd" d="M76.957 94.499L76.3535 94.8163C75.5067 95.2615 75.0834 95.4841 74.7703 95.426C74.498 95.3755 74.263 95.2047 74.1308 94.9613C73.9788 94.6816 74.0597 94.2101 74.2214 93.2673L74.3366 92.5952L73.8484 92.1193C73.1634 91.4516 72.8209 91.1177 72.7793 90.8021C72.7432 90.5274 72.833 90.2511 73.0236 90.0502C73.2428 89.8192 73.7161 89.7504 74.6628 89.6129L75.3375 89.5148L75.6393 88.9034C76.0627 88.0456 76.2743 87.6166 76.5617 87.4796C76.8118 87.3604 77.1022 87.3604 77.3523 87.4796C77.6397 87.6166 77.8513 88.0456 78.2747 88.9034L78.5765 89.5148L79.2512 89.6129C80.1979 89.7504 80.6712 89.8192 80.8904 90.0502C81.081 90.2511 81.1708 90.5274 81.1347 90.8021C81.0931 91.1177 80.7506 91.4516 80.0656 92.1193L79.5774 92.5952L79.6926 93.2673C79.8543 94.2101 79.9352 94.6816 79.7832 94.9613C79.651 95.2047 79.416 95.3755 79.1437 95.426C78.8306 95.4841 78.4073 95.2615 77.5605 94.8163L76.957 94.499Z" fill="white"/>
<path d="M76.6201 87.3316C76.8747 87.2438 77.1555 87.2584 77.4014 87.3755L77.4658 87.4107C77.6119 87.5017 77.7342 87.6549 77.8604 87.8609C78.0055 88.098 78.1673 88.4254 78.3779 88.8521L78.6523 89.4088L79.2676 89.4996L79.8945 89.5933C80.0773 89.623 80.235 89.6528 80.3701 89.6851C80.6387 89.7495 80.84 89.8304 80.9736 89.9713L81.0488 90.0601C81.188 90.2446 81.2612 90.4706 81.2568 90.7017L81.248 90.817C81.2227 91.0094 81.108 91.1931 80.9287 91.4029C80.8384 91.5086 80.7282 91.6258 80.5977 91.7574L80.1455 92.2017L79.7002 92.6343L79.8057 93.2476L79.9102 93.8726C79.9384 94.0559 79.9587 94.2154 79.9697 94.3541C79.9888 94.5948 79.9796 94.7904 79.915 94.9498L79.8838 95.0162C79.7536 95.2557 79.5352 95.4327 79.2773 95.5113L79.165 95.5386C78.9742 95.574 78.7629 95.5214 78.5078 95.4156C78.3796 95.3624 78.2346 95.2939 78.0693 95.2105L77.5068 94.9175L76.957 94.6285L76.4072 94.9175C75.9859 95.1391 75.6621 95.3091 75.4053 95.4156C75.1824 95.508 74.9937 95.5605 74.8223 95.5484L74.749 95.5386C74.4811 95.4888 74.2452 95.3357 74.0908 95.1148L74.0303 95.0162C73.9376 94.8456 73.9226 94.6293 73.9443 94.3541C73.9663 94.0769 74.0279 93.7168 74.1084 93.2476L74.2129 92.6343L73.7686 92.2017C73.4277 91.8695 73.166 91.6142 72.9854 91.4029C72.8285 91.2194 72.7202 91.0561 72.6787 90.8892L72.665 90.817C72.6244 90.508 72.726 90.1973 72.9404 89.9713L72.9932 89.9214C73.1249 89.8105 73.3087 89.7415 73.5439 89.6851C73.8143 89.6204 74.1756 89.568 74.6465 89.4996L75.2607 89.4088L75.5361 88.8521L75.8193 88.2857C75.9042 88.1209 75.9811 87.9795 76.0537 87.8609C76.1978 87.6256 76.3375 87.4591 76.5127 87.3755L76.6201 87.3316Z" stroke="url(#paint14_linear_247_5190)" stroke-width="0.229601" stroke-linecap="round" style="mix-blend-mode:color-burn"/>
</g>
<g filter="url(#filter7_d_247_5190)">
<path fill-rule="evenodd" clip-rule="evenodd" d="M65.9375 94.499L65.3339 94.8163C64.4872 95.2615 64.0638 95.4841 63.7508 95.426C63.4784 95.3755 63.2434 95.2047 63.1112 94.9613C62.9593 94.6816 63.0401 94.2101 63.2018 93.2673L63.3171 92.5952L62.8288 92.1193C62.1438 91.4516 61.8013 91.1177 61.7598 90.8021C61.7237 90.5274 61.8134 90.2511 62.0041 90.0502C62.2232 89.8192 62.6966 89.7504 63.6432 89.6129L64.318 89.5148L64.6198 88.9034C65.0431 88.0456 65.2548 87.6166 65.5422 87.4796C65.7922 87.3604 66.0827 87.3604 66.3327 87.4796C66.6201 87.6166 66.8318 88.0456 67.2552 88.9034L67.5569 89.5148L68.2317 89.6129C69.1784 89.7504 69.6517 89.8192 69.8708 90.0502C70.0615 90.2511 70.1513 90.5274 70.1151 90.8021C70.0736 91.1177 69.7311 91.4516 69.0461 92.1193L68.5578 92.5952L68.6731 93.2673C68.8348 94.2101 68.9157 94.6816 68.7637 94.9613C68.6315 95.2047 68.3965 95.3755 68.1241 95.426C67.8111 95.4841 67.3877 95.2615 66.541 94.8163L65.9375 94.499Z" fill="white"/>
<path d="M65.6006 87.3316C65.8552 87.2438 66.136 87.2584 66.3818 87.3755L66.4463 87.4107C66.5923 87.5017 66.7147 87.6549 66.8408 87.8609C66.9859 88.098 67.1478 88.4254 67.3584 88.8521L67.6328 89.4088L68.248 89.4996L68.875 89.5933C69.0578 89.623 69.2155 89.6528 69.3506 89.6851C69.6191 89.7495 69.8205 89.8304 69.9541 89.9713L70.0293 90.0601C70.1685 90.2446 70.2417 90.4706 70.2373 90.7017L70.2285 90.817C70.2032 91.0094 70.0885 91.1931 69.9092 91.4029C69.8188 91.5086 69.7087 91.6258 69.5781 91.7574L69.126 92.2017L68.6807 92.6343L68.7861 93.2476L68.8906 93.8726C68.9189 94.0559 68.9392 94.2154 68.9502 94.3541C68.9692 94.5948 68.9601 94.7904 68.8955 94.9498L68.8643 95.0162C68.7341 95.2557 68.5157 95.4327 68.2578 95.5113L68.1455 95.5386C67.9546 95.574 67.7434 95.5214 67.4883 95.4156C67.36 95.3624 67.2151 95.2939 67.0498 95.2105L66.4873 94.9175L65.9375 94.6285L65.3877 94.9175C64.9664 95.1391 64.6425 95.3091 64.3857 95.4156C64.1628 95.508 63.9742 95.5605 63.8027 95.5484L63.7295 95.5386C63.4615 95.4888 63.2256 95.3357 63.0713 95.1148L63.0107 95.0162C62.9181 94.8456 62.903 94.6293 62.9248 94.3541C62.9467 94.0769 63.0084 93.7168 63.0889 93.2476L63.1934 92.6343L62.749 92.2017C62.4082 91.8695 62.1465 91.6142 61.9658 91.4029C61.809 91.2194 61.7006 91.0561 61.6592 90.8892L61.6455 90.817C61.6049 90.508 61.7064 90.1973 61.9209 89.9713L61.9736 89.9214C62.1053 89.8105 62.2892 89.7415 62.5244 89.6851C62.7947 89.6204 63.156 89.568 63.627 89.4996L64.2412 89.4088L64.5166 88.8521L64.7998 88.2857C64.8846 88.1209 64.9616 87.9795 65.0342 87.8609C65.1783 87.6256 65.318 87.4591 65.4932 87.3755L65.6006 87.3316Z" stroke="url(#paint15_linear_247_5190)" stroke-width="0.229601" stroke-linecap="round" style="mix-blend-mode:color-burn"/>
</g>
<g filter="url(#filter8_d_247_5190)">
<path fill-rule="evenodd" clip-rule="evenodd" d="M54.916 94.499L54.3125 94.8163C53.4657 95.2615 53.0424 95.4841 52.7293 95.426C52.457 95.3755 52.222 95.2047 52.0897 94.9613C51.9378 94.6816 52.0187 94.2101 52.1804 93.2673L52.2956 92.5952L51.8074 92.1193C51.1223 91.4516 50.7798 91.1177 50.7383 90.8021C50.7022 90.5274 50.792 90.2511 50.9826 90.0502C51.2017 89.8192 51.6751 89.7504 52.6217 89.6129L53.2965 89.5148L53.5983 88.9034C54.0216 88.0456 54.2333 87.6166 54.5207 87.4796C54.7707 87.3604 55.0612 87.3604 55.3113 87.4796C55.5986 87.6166 55.8103 88.0456 56.2337 88.9034L56.5355 89.5148L57.2102 89.6129C58.1569 89.7504 58.6302 89.8192 58.8494 90.0502C59.04 90.2511 59.1298 90.5274 59.0937 90.8021C59.0521 91.1177 58.7096 91.4516 58.0246 92.1193L57.5363 92.5952L57.6516 93.2673C57.8133 94.2101 57.8942 94.6816 57.7422 94.9613C57.61 95.2047 57.375 95.3755 57.1026 95.426C56.7896 95.4841 56.3662 95.2615 55.5195 94.8163L54.916 94.499Z" fill="white"/>
<path d="M54.5791 87.3316C54.8337 87.2438 55.1145 87.2584 55.3604 87.3755L55.4248 87.4107C55.5709 87.5017 55.6932 87.6549 55.8193 87.8609C55.9645 88.098 56.1263 88.4254 56.3369 88.8521L56.6113 89.4088L57.2266 89.4996L57.8535 89.5933C58.0363 89.623 58.194 89.6528 58.3291 89.6851C58.5976 89.7495 58.799 89.8304 58.9326 89.9713L59.0078 90.0601C59.147 90.2446 59.2202 90.4706 59.2158 90.7017L59.207 90.817C59.1817 91.0094 59.067 91.1931 58.8877 91.4029C58.7974 91.5086 58.6872 91.6258 58.5566 91.7574L58.1045 92.2017L57.6592 92.6343L57.7646 93.2476L57.8691 93.8726C57.8974 94.0559 57.9177 94.2154 57.9287 94.3541C57.9478 94.5948 57.9386 94.7904 57.874 94.9498L57.8428 95.0162C57.7126 95.2557 57.4942 95.4327 57.2363 95.5113L57.124 95.5386C56.9331 95.574 56.7219 95.5214 56.4668 95.4156C56.3386 95.3624 56.1936 95.2939 56.0283 95.2105L55.4658 94.9175L54.916 94.6285L54.3662 94.9175C53.9449 95.1391 53.6211 95.3091 53.3643 95.4156C53.1413 95.508 52.9527 95.5605 52.7812 95.5484L52.708 95.5386C52.44 95.4888 52.2042 95.3357 52.0498 95.1148L51.9893 95.0162C51.8966 94.8456 51.8815 94.6293 51.9033 94.3541C51.9253 94.0769 51.9869 93.7168 52.0674 93.2476L52.1719 92.6343L51.7275 92.2017C51.3867 91.8695 51.125 91.6142 50.9443 91.4029C50.7875 91.2194 50.6792 91.0561 50.6377 90.8892L50.624 90.817C50.5834 90.508 50.685 90.1973 50.8994 89.9713L50.9521 89.9214C51.0839 89.8105 51.2677 89.7415 51.5029 89.6851C51.7733 89.6204 52.1345 89.568 52.6055 89.4996L53.2197 89.4088L53.4951 88.8521L53.7783 88.2857C53.8632 88.1209 53.9401 87.9795 54.0127 87.8609C54.1568 87.6256 54.2965 87.4591 54.4717 87.3755L54.5791 87.3316Z" stroke="url(#paint16_linear_247_5190)" stroke-width="0.229601" stroke-linecap="round" style="mix-blend-mode:color-burn"/>
</g>
<g filter="url(#filter9_d_247_5190)">
<path fill-rule="evenodd" clip-rule="evenodd" d="M43.8945 94.499L43.291 94.8163C42.4442 95.2615 42.0209 95.4841 41.7078 95.426C41.4355 95.3755 41.2005 95.2047 41.0683 94.9613C40.9163 94.6816 40.9972 94.2101 41.1589 93.2673L41.2741 92.5952L40.7859 92.1193C40.1009 91.4516 39.7584 91.1177 39.7168 90.8021C39.6807 90.5274 39.7705 90.2511 39.9611 90.0502C40.1803 89.8192 40.6536 89.7504 41.6003 89.6129L42.275 89.5148L42.5768 88.9034C43.0002 88.0456 43.2118 87.6166 43.4992 87.4796C43.7493 87.3604 44.0397 87.3604 44.2898 87.4796C44.5772 87.6166 44.7888 88.0456 45.2122 88.9034L45.514 89.5148L46.1887 89.6129C47.1354 89.7504 47.6087 89.8192 47.8279 90.0502C48.0185 90.2511 48.1083 90.5274 48.0722 90.8021C48.0306 91.1177 47.6881 91.4516 47.0031 92.1193L46.5149 92.5952L46.6301 93.2673C46.7918 94.2101 46.8727 94.6816 46.7207 94.9613C46.5885 95.2047 46.3535 95.3755 46.0812 95.426C45.7681 95.4841 45.3448 95.2615 44.498 94.8163L43.8945 94.499Z" fill="white"/>
<path d="M43.5576 87.3316C43.8122 87.2438 44.093 87.2584 44.3389 87.3755L44.4033 87.4107C44.5494 87.5017 44.6717 87.6549 44.7979 87.8609C44.943 88.098 45.1048 88.4254 45.3154 88.8521L45.5898 89.4088L46.2051 89.4996L46.832 89.5933C47.0148 89.623 47.1725 89.6528 47.3076 89.6851C47.5762 89.7495 47.7775 89.8304 47.9111 89.9713L47.9863 90.0601C48.1255 90.2446 48.1987 90.4706 48.1943 90.7017L48.1855 90.817C48.1602 91.0094 48.0455 91.1931 47.8662 91.4029C47.7759 91.5086 47.6657 91.6258 47.5352 91.7574L47.083 92.2017L46.6377 92.6343L46.7432 93.2476L46.8477 93.8726C46.8759 94.0559 46.8962 94.2154 46.9072 94.3541C46.9263 94.5948 46.9171 94.7904 46.8525 94.9498L46.8213 95.0162C46.6911 95.2557 46.4727 95.4327 46.2148 95.5113L46.1025 95.5386C45.9117 95.574 45.7004 95.5214 45.4453 95.4156C45.3171 95.3624 45.1721 95.2939 45.0068 95.2105L44.4443 94.9175L43.8945 94.6285L43.3447 94.9175C42.9234 95.1391 42.5996 95.3091 42.3428 95.4156C42.1199 95.508 41.9312 95.5605 41.7598 95.5484L41.6865 95.5386C41.4186 95.4888 41.1827 95.3357 41.0283 95.1148L40.9678 95.0162C40.8751 94.8456 40.8601 94.6293 40.8818 94.3541C40.9038 94.0769 40.9654 93.7168 41.0459 93.2476L41.1504 92.6343L40.7061 92.2017C40.3652 91.8695 40.1035 91.6142 39.9229 91.4029C39.766 91.2194 39.6577 91.0561 39.6162 90.8892L39.6025 90.817C39.5619 90.508 39.6635 90.1973 39.8779 89.9713L39.9307 89.9214C40.0624 89.8105 40.2462 89.7415 40.4814 89.6851C40.7518 89.6204 41.1131 89.568 41.584 89.4996L42.1982 89.4088L42.4736 88.8521L42.7568 88.2857C42.8417 88.1209 42.9186 87.9795 42.9912 87.8609C43.1353 87.6256 43.275 87.4591 43.4502 87.3755L43.5576 87.3316Z" stroke="url(#paint17_linear_247_5190)" stroke-width="0.229601" stroke-linecap="round" style="mix-blend-mode:color-burn"/>
</g>
<g filter="url(#filter10_d_247_5190)">
<path fill-rule="evenodd" clip-rule="evenodd" d="M32.875 94.499L32.2714 94.8163C31.4247 95.2615 31.0013 95.4841 30.6883 95.426C30.4159 95.3755 30.1809 95.2047 30.0487 94.9613C29.8968 94.6816 29.9776 94.2101 30.1393 93.2673L30.2546 92.5952L29.7663 92.1193C29.0813 91.4516 28.7388 91.1177 28.6973 90.8021C28.6612 90.5274 28.7509 90.2511 28.9416 90.0502C29.1607 89.8192 29.6341 89.7504 30.5807 89.6129L31.2555 89.5148L31.5573 88.9034C31.9806 88.0456 32.1923 87.6166 32.4797 87.4796C32.7297 87.3604 33.0202 87.3604 33.2702 87.4796C33.5576 87.6166 33.7693 88.0456 34.1927 88.9034L34.4944 89.5148L35.1692 89.6129C36.1159 89.7504 36.5892 89.8192 36.8083 90.0502C36.999 90.2511 37.0888 90.5274 37.0526 90.8021C37.0111 91.1177 36.6686 91.4516 35.9836 92.1193L35.4953 92.5952L35.6106 93.2673C35.7723 94.2101 35.8532 94.6816 35.7012 94.9613C35.569 95.2047 35.334 95.3755 35.0616 95.426C34.7486 95.4841 34.3252 95.2615 33.4785 94.8163L32.875 94.499Z" fill="white"/>
<path d="M32.5381 87.3316C32.7927 87.2438 33.0735 87.2584 33.3193 87.3755L33.3838 87.4107C33.5298 87.5017 33.6522 87.6549 33.7783 87.8609C33.9234 88.098 34.0853 88.4254 34.2959 88.8521L34.5703 89.4088L35.1855 89.4996L35.8125 89.5933C35.9953 89.623 36.153 89.6528 36.2881 89.6851C36.5566 89.7495 36.758 89.8304 36.8916 89.9713L36.9668 90.0601C37.106 90.2446 37.1792 90.4706 37.1748 90.7017L37.166 90.817C37.1407 91.0094 37.026 91.1931 36.8467 91.4029C36.7563 91.5086 36.6462 91.6258 36.5156 91.7574L36.0635 92.2017L35.6182 92.6343L35.7236 93.2476L35.8281 93.8726C35.8564 94.0559 35.8767 94.2154 35.8877 94.3541C35.9067 94.5948 35.8976 94.7904 35.833 94.9498L35.8018 95.0162C35.6716 95.2557 35.4532 95.4327 35.1953 95.5113L35.083 95.5386C34.8921 95.574 34.6809 95.5214 34.4258 95.4156C34.2975 95.3624 34.1526 95.2939 33.9873 95.2105L33.4248 94.9175L32.875 94.6285L32.3252 94.9175C31.9039 95.1391 31.58 95.3091 31.3232 95.4156C31.1003 95.508 30.9117 95.5605 30.7402 95.5484L30.667 95.5386C30.399 95.4888 30.1631 95.3357 30.0088 95.1148L29.9482 95.0162C29.8556 94.8456 29.8405 94.6293 29.8623 94.3541C29.8842 94.0769 29.9459 93.7168 30.0264 93.2476L30.1309 92.6343L29.6865 92.2017C29.3457 91.8695 29.084 91.6142 28.9033 91.4029C28.7465 91.2194 28.6381 91.0561 28.5967 90.8892L28.583 90.817C28.5424 90.508 28.6439 90.1973 28.8584 89.9713L28.9111 89.9214C29.0428 89.8105 29.2267 89.7415 29.4619 89.6851C29.7322 89.6204 30.0935 89.568 30.5645 89.4996L31.1787 89.4088L31.4541 88.8521L31.7373 88.2857C31.8221 88.1209 31.8991 87.9795 31.9717 87.8609C32.1158 87.6256 32.2555 87.4591 32.4307 87.3755L32.5381 87.3316Z" stroke="url(#paint18_linear_247_5190)" stroke-width="0.229601" stroke-linecap="round" style="mix-blend-mode:color-burn"/>
</g>
<defs>
<filter id="filter0_dddd_247_5190" x="6.64213" y="12.4019" width="96.4833" height="126.331" filterUnits="userSpaceOnUse" color-interpolation-filters="sRGB">
<feFlood flood-opacity="0" result="BackgroundImageFix"/>
<feColorMatrix in="SourceAlpha" type="matrix" values="0 0 0 0 0 0 0 0 0 0 0 0 0 0 0 0 0 0 127 0" result="hardAlpha"/>
<feOffset dy="1.93277"/>
<feGaussianBlur stdDeviation="2.12605"/>
<feColorMatrix type="matrix" values="0 0 0 0 0 0 0 0 0 0 0 0 0 0 0 0 0 0 0.24 0"/>
<feBlend mode="normal" in2="BackgroundImageFix" result="effect1_dropShadow_247_5190"/>
<feColorMatrix in="SourceAlpha" type="matrix" values="0 0 0 0 0 0 0 0 0 0 0 0 0 0 0 0 0 0 127 0" result="hardAlpha"/>
<feOffset dy="8.11765"/>
<feGaussianBlur stdDeviation="4.05882"/>
<feColorMatrix type="matrix" values="0 0 0 0 0 0 0 0 0 0 0 0 0 0 0 0 0 0 0.21 0"/>
<feBlend mode="normal" in2="effect1_dropShadow_247_5190" result="effect2_dropShadow_247_5190"/>
<feColorMatrix in="SourceAlpha" type="matrix" values="0 0 0 0 0 0 0 0 0 0 0 0 0 0 0 0 0 0 127 0" result="hardAlpha"/>
<feOffset dy="17.7815"/>
<feGaussianBlur stdDeviation="5.41176"/>
<feColorMatrix type="matrix" values="0 0 0 0 0 0 0 0 0 0 0 0 0 0 0 0 0 0 0.12 0"/>
<feBlend mode="normal" in2="effect2_dropShadow_247_5190" result="effect3_dropShadow_247_5190"/>
<feColorMatrix in="SourceAlpha" type="matrix" values="0 0 0 0 0 0 0 0 0 0 0 0 0 0 0 0 0 0 127 0" result="hardAlpha"/>
<feOffset dy="31.6975"/>
<feGaussianBlur stdDeviation="6.37815"/>
<feColorMatrix type="matrix" values="0 0 0 0 0 0 0 0 0 0 0 0 0 0 0 0 0 0 0.04 0"/>
<feBlend mode="normal" in2="effect3_dropShadow_247_5190" result="effect4_dropShadow_247_5190"/>
<feBlend mode="normal" in="SourceGraphic" in2="effect4_dropShadow_247_5190" result="shape"/>
</filter>
<filter id="filter1_d_247_5190" x="16.304" y="12.4027" width="77.1556" height="85.7417" filterUnits="userSpaceOnUse" color-interpolation-filters="sRGB">
<feFlood flood-opacity="0" result="BackgroundImageFix"/>
<feColorMatrix in="SourceAlpha" type="matrix" values="0 0 0 0 0 0 0 0 0 0 0 0 0 0 0 0 0 0 127 0" result="hardAlpha"/>
<feOffset dy="0.773109"/>
<feGaussianBlur stdDeviation="1.54622"/>
<feColorMatrix type="matrix" values="0 0 0 0 0 0 0 0 0 0 0 0 0 0 0 0 0 0 0.16 0"/>
<feBlend mode="color-burn" in2="BackgroundImageFix" result="effect1_dropShadow_247_5190"/>
<feBlend mode="normal" in="SourceGraphic" in2="effect1_dropShadow_247_5190" result="shape"/>
</filter>
<filter id="filter2_d_247_5190" x="33.8711" y="34.6121" width="42.0234" height="40.5899" filterUnits="userSpaceOnUse" color-interpolation-filters="sRGB">
<feFlood flood-opacity="0" result="BackgroundImageFix"/>
<feColorMatrix in="SourceAlpha" type="matrix" values="0 0 0 0 0 0 0 0 0 0 0 0 0 0 0 0 0 0 127 0" result="hardAlpha"/>
<feOffset dy="0.773109"/>
<feGaussianBlur stdDeviation="2.31933"/>
<feColorMatrix type="matrix" values="0 0 0 0 0 0 0 0 0 0 0 0 0 0 0 0 0 0 0.12 0"/>
<feBlend mode="plus-darker" in2="BackgroundImageFix" result="effect1_dropShadow_247_5190"/>
<feBlend mode="normal" in="SourceGraphic" in2="effect1_dropShadow_247_5190" result="shape"/>
</filter>
<filter id="filter3_dd_247_5190" x="65.5879" y="7.45798" width="41.748" height="28.605" filterUnits="userSpaceOnUse" color-interpolation-filters="sRGB">
<feFlood flood-opacity="0" result="BackgroundImageFix"/>
<feColorMatrix in="SourceAlpha" type="matrix" values="0 0 0 0 0 0 0 0 0 0 0 0 0 0 0 0 0 0 127 0" result="hardAlpha"/>
<feOffset dy="1.54622"/>
<feGaussianBlur stdDeviation="2.31933"/>
<feColorMatrix type="matrix" values="0 0 0 0 0 0 0 0 0 0 0 0 0 0 0 0 0 0 0.16 0"/>
<feBlend mode="normal" in2="BackgroundImageFix" result="effect1_dropShadow_247_5190"/>
<feColorMatrix in="SourceAlpha" type="matrix" values="0 0 0 0 0 0 0 0 0 0 0 0 0 0 0 0 0 0 127 0" result="hardAlpha"/>
<feOffset dy="0.773109"/>
<feGaussianBlur stdDeviation="0.773109"/>
<feColorMatrix type="matrix" values="0 0 0 0 0 0 0 0 0 0 0 0 0 0 0 0 0 0 0.24 0"/>
<feBlend mode="normal" in2="effect1_dropShadow_247_5190" result="effect2_dropShadow_247_5190"/>
<feBlend mode="normal" in="SourceGraphic" in2="effect2_dropShadow_247_5190" result="shape"/>
</filter>
<filter id="filter4_i_247_5190" x="77.7148" y="14.5174" width="17.3828" height="10.9658" filterUnits="userSpaceOnUse" color-interpolation-filters="sRGB">
<feFlood flood-opacity="0" result="BackgroundImageFix"/>
<feBlend mode="normal" in="SourceGraphic" in2="BackgroundImageFix" result="shape"/>
<feColorMatrix in="SourceAlpha" type="matrix" values="0 0 0 0 0 0 0 0 0 0 0 0 0 0 0 0 0 0 127 0" result="hardAlpha"/>
<feOffset dy="0.386555"/>
<feGaussianBlur stdDeviation="0.386555"/>
<feComposite in2="hardAlpha" operator="arithmetic" k2="-1" k3="1"/>
<feColorMatrix type="matrix" values="0 0 0 0 0 0 0 0 0 0 0 0 0 0 0 0 0 0 0.24 0"/>
<feBlend mode="darken" in2="shape" result="effect1_innerShadow_247_5190"/>
</filter>
<filter id="filter5_dd_247_5190" x="5.4056" y="80.0703" width="99.1868" height="27.5521" filterUnits="userSpaceOnUse" color-interpolation-filters="sRGB">
<feFlood flood-opacity="0" result="BackgroundImageFix"/>
<feColorMatrix in="SourceAlpha" type="matrix" values="0 0 0 0 0 0 0 0 0 0 0 0 0 0 0 0 0 0 127 0" result="hardAlpha"/>
<feOffset dy="1.83681"/>
<feGaussianBlur stdDeviation="2.75521"/>
<feColorMatrix type="matrix" values="0 0 0 0 0 0 0 0 0 0 0 0 0 0 0 0 0 0 0.16 0"/>
<feBlend mode="normal" in2="BackgroundImageFix" result="effect1_dropShadow_247_5190"/>
<feColorMatrix in="SourceAlpha" type="matrix" values="0 0 0 0 0 0 0 0 0 0 0 0 0 0 0 0 0 0 127 0" result="hardAlpha"/>
<feOffset dy="0.918403"/>
<feGaussianBlur stdDeviation="0.918403"/>
<feColorMatrix type="matrix" values="0 0 0 0 0 0 0 0 0 0 0 0 0 0 0 0 0 0 0.24 0"/>
<feBlend mode="normal" in2="effect1_dropShadow_247_5190" result="effect2_dropShadow_247_5190"/>
<feBlend mode="normal" in="SourceGraphic" in2="effect2_dropShadow_247_5190" result="shape"/>
</filter>
<filter id="filter6_d_247_5190" x="67.0306" y="82.5686" width="19.8529" height="19.5249" filterUnits="userSpaceOnUse" color-interpolation-filters="sRGB">
<feFlood flood-opacity="0" result="BackgroundImageFix"/>
<feColorMatrix in="SourceAlpha" type="matrix" values="0 0 0 0 0 0 0 0 0 0 0 0 0 0 0 0 0 0 127 0" result="hardAlpha"/>
<feOffset dy="0.918403"/>
<feGaussianBlur stdDeviation="2.75521"/>
<feColorMatrix type="matrix" values="0 0 0 0 0 0 0 0 0 0 0 0 0 0 0 0 0 0 0.12 0"/>
<feBlend mode="plus-darker" in2="BackgroundImageFix" result="effect1_dropShadow_247_5190"/>
<feBlend mode="normal" in="SourceGraphic" in2="effect1_dropShadow_247_5190" result="shape"/>
</filter>
<filter id="filter7_d_247_5190" x="56.0111" y="82.5686" width="19.8529" height="19.5249" filterUnits="userSpaceOnUse" color-interpolation-filters="sRGB">
<feFlood flood-opacity="0" result="BackgroundImageFix"/>
<feColorMatrix in="SourceAlpha" type="matrix" values="0 0 0 0 0 0 0 0 0 0 0 0 0 0 0 0 0 0 127 0" result="hardAlpha"/>
<feOffset dy="0.918403"/>
<feGaussianBlur stdDeviation="2.75521"/>
<feColorMatrix type="matrix" values="0 0 0 0 0 0 0 0 0 0 0 0 0 0 0 0 0 0 0.12 0"/>
<feBlend mode="plus-darker" in2="BackgroundImageFix" result="effect1_dropShadow_247_5190"/>
<feBlend mode="normal" in="SourceGraphic" in2="effect1_dropShadow_247_5190" result="shape"/>
</filter>
<filter id="filter8_d_247_5190" x="44.9896" y="82.5686" width="19.8529" height="19.5249" filterUnits="userSpaceOnUse" color-interpolation-filters="sRGB">
<feFlood flood-opacity="0" result="BackgroundImageFix"/>
<feColorMatrix in="SourceAlpha" type="matrix" values="0 0 0 0 0 0 0 0 0 0 0 0 0 0 0 0 0 0 127 0" result="hardAlpha"/>
<feOffset dy="0.918403"/>
<feGaussianBlur stdDeviation="2.75521"/>
<feColorMatrix type="matrix" values="0 0 0 0 0 0 0 0 0 0 0 0 0 0 0 0 0 0 0.12 0"/>
<feBlend mode="plus-darker" in2="BackgroundImageFix" result="effect1_dropShadow_247_5190"/>
<feBlend mode="normal" in="SourceGraphic" in2="effect1_dropShadow_247_5190" result="shape"/>
</filter>
<filter id="filter9_d_247_5190" x="33.9681" y="82.5686" width="19.8529" height="19.5249" filterUnits="userSpaceOnUse" color-interpolation-filters="sRGB">
<feFlood flood-opacity="0" result="BackgroundImageFix"/>
<feColorMatrix in="SourceAlpha" type="matrix" values="0 0 0 0 0 0 0 0 0 0 0 0 0 0 0 0 0 0 127 0" result="hardAlpha"/>
<feOffset dy="0.918403"/>
<feGaussianBlur stdDeviation="2.75521"/>
<feColorMatrix type="matrix" values="0 0 0 0 0 0 0 0 0 0 0 0 0 0 0 0 0 0 0.12 0"/>
<feBlend mode="plus-darker" in2="BackgroundImageFix" result="effect1_dropShadow_247_5190"/>
<feBlend mode="normal" in="SourceGraphic" in2="effect1_dropShadow_247_5190" result="shape"/>
</filter>
<filter id="filter10_d_247_5190" x="22.9486" y="82.5686" width="19.8529" height="19.5249" filterUnits="userSpaceOnUse" color-interpolation-filters="sRGB">
<feFlood flood-opacity="0" result="BackgroundImageFix"/>
<feColorMatrix in="SourceAlpha" type="matrix" values="0 0 0 0 0 0 0 0 0 0 0 0 0 0 0 0 0 0 127 0" result="hardAlpha"/>
<feOffset dy="0.918403"/>
<feGaussianBlur stdDeviation="2.75521"/>
<feColorMatrix type="matrix" values="0 0 0 0 0 0 0 0 0 0 0 0 0 0 0 0 0 0 0.12 0"/>
<feBlend mode="plus-darker" in2="BackgroundImageFix" result="effect1_dropShadow_247_5190"/>
<feBlend mode="normal" in="SourceGraphic" in2="effect1_dropShadow_247_5190" result="shape"/>
</filter>
<linearGradient id="paint0_linear_247_5190" x1="13.9082" y1="13.5252" x2="13.9082" y2="95.4748" gradientUnits="userSpaceOnUse">
<stop stop-color="#FFEDAF"/>
<stop offset="1" stop-color="#F2BE2F"/>
</linearGradient>
<linearGradient id="paint1_linear_247_5190" x1="54.8833" y1="12.6471" x2="54.8833" y2="95.7917" gradientUnits="userSpaceOnUse">
<stop stop-color="white"/>
<stop offset="1" stop-color="white" stop-opacity="0"/>
</linearGradient>
<radialGradient id="paint2_radial_247_5190" cx="0" cy="0" r="1" gradientUnits="userSpaceOnUse" gradientTransform="translate(54.8833 36.5291) rotate(90) scale(54.8401 41.6083)">
<stop stop-color="white"/>
<stop offset="1" stop-color="white" stop-opacity="0"/>
</radialGradient>
<linearGradient id="paint3_linear_247_5190" x1="54.8813" y1="12.647" x2="54.8813" y2="95.7916" gradientUnits="userSpaceOnUse">
<stop stop-color="white"/>
<stop offset="1" stop-color="white" stop-opacity="0"/>
</linearGradient>
<radialGradient id="paint4_radial_247_5190" cx="0" cy="0" r="1" gradientUnits="userSpaceOnUse" gradientTransform="translate(54.8813 36.529) rotate(90) scale(54.8401 41.6083)">
<stop stop-color="white"/>
<stop offset="1" stop-color="white" stop-opacity="0"/>
</radialGradient>
<linearGradient id="paint5_linear_247_5190" x1="0.763672" y1="0.382355" x2="0.763672" y2="108.618" gradientUnits="userSpaceOnUse">
<stop offset="0.135095" stop-color="white"/>
<stop offset="0.877908" stop-color="white" stop-opacity="0.01"/>
</linearGradient>
<linearGradient id="paint6_linear_247_5190" x1="54.8818" y1="14.722" x2="54.8818" y2="94.2788" gradientUnits="userSpaceOnUse">
<stop stop-color="white"/>
<stop offset="1" stop-color="#999999"/>
</linearGradient>
<linearGradient id="paint7_linear_247_5190" x1="54.8829" y1="38.6709" x2="54.8829" y2="69.5969" gradientUnits="userSpaceOnUse">
<stop stop-color="#DFDFDF"/>
<stop offset="1" stop-color="#A9A9A9"/>
</linearGradient>
<linearGradient id="paint8_linear_247_5190" x1="86.4619" y1="10.5504" x2="86.4619" y2="29.8781" gradientUnits="userSpaceOnUse">
<stop stop-opacity="0"/>
<stop offset="1" stop-opacity="0.16"/>
</linearGradient>
<linearGradient id="paint9_linear_247_5190" x1="86.4619" y1="10.5504" x2="86.4619" y2="29.8781" gradientUnits="userSpaceOnUse">
<stop stop-color="white"/>
<stop offset="1" stop-color="white" stop-opacity="0"/>
</linearGradient>
<radialGradient id="paint10_radial_247_5190" cx="0" cy="0" r="1" gradientUnits="userSpaceOnUse" gradientTransform="translate(70.2266 10.5504) rotate(30.7627) scale(37.7876 16.8217)">
<stop stop-color="white"/>
<stop offset="1" stop-color="white" stop-opacity="0"/>
</radialGradient>
<linearGradient id="paint11_linear_247_5190" x1="54.9994" y1="83.7439" x2="54.9994" y2="100.275" gradientUnits="userSpaceOnUse">
<stop stop-opacity="0"/>
<stop offset="1" stop-opacity="0.16"/>
</linearGradient>
<linearGradient id="paint12_linear_247_5190" x1="54.9994" y1="83.7439" x2="54.9994" y2="100.275" gradientUnits="userSpaceOnUse">
<stop stop-color="white"/>
<stop offset="1" stop-color="white" stop-opacity="0"/>
</linearGradient>
<radialGradient id="paint13_radial_247_5190" cx="0" cy="0" r="1" gradientUnits="userSpaceOnUse" gradientTransform="translate(54.9993 86.6286) rotate(90) scale(13.6465 44.0833)">
<stop stop-color="white"/>
<stop offset="1" stop-color="white" stop-opacity="0"/>
</radialGradient>
<linearGradient id="paint14_linear_247_5190" x1="76.957" y1="87.3902" x2="76.957" y2="95.4351" gradientUnits="userSpaceOnUse">
<stop stop-color="#DFDFDF"/>
<stop offset="1" stop-color="#A9A9A9"/>
</linearGradient>
<linearGradient id="paint15_linear_247_5190" x1="65.9375" y1="87.3902" x2="65.9375" y2="95.4351" gradientUnits="userSpaceOnUse">
<stop stop-color="#DFDFDF"/>
<stop offset="1" stop-color="#A9A9A9"/>
</linearGradient>
<linearGradient id="paint16_linear_247_5190" x1="54.916" y1="87.3902" x2="54.916" y2="95.4351" gradientUnits="userSpaceOnUse">
<stop stop-color="#DFDFDF"/>
<stop offset="1" stop-color="#A9A9A9"/>
</linearGradient>
<linearGradient id="paint17_linear_247_5190" x1="43.8945" y1="87.3902" x2="43.8945" y2="95.4351" gradientUnits="userSpaceOnUse">
<stop stop-color="#DFDFDF"/>
<stop offset="1" stop-color="#A9A9A9"/>
</linearGradient>
<linearGradient id="paint18_linear_247_5190" x1="32.875" y1="87.3902" x2="32.875" y2="95.4351" gradientUnits="userSpaceOnUse">
<stop stop-color="#DFDFDF"/>
<stop offset="1" stop-color="#A9A9A9"/>
</linearGradient>
</defs>
</svg>
