<svg width="110" height="139" viewBox="0 0 110 139" fill="none" xmlns="http://www.w3.org/2000/svg">
<g filter="url(#filter0_dddd_247_5136)">
<path d="M51.0174 15.757C53.4095 14.376 56.3565 14.376 58.7485 15.757L86.5027 31.7808C88.8947 33.1619 90.3682 35.7141 90.3682 38.4762V70.5239C90.3682 73.2859 88.8947 75.8381 86.5027 77.2192L58.7485 93.243C56.3565 94.624 53.4095 94.624 51.0174 93.243L23.2633 77.2192C20.8713 75.8381 19.3978 73.2859 19.3978 70.5238V38.4761C19.3978 35.7141 20.8713 33.1619 23.2633 31.7808L51.0174 15.757Z" fill="white"/>
</g>
<mask id="mask0_247_5136" style="mask-type:alpha" maskUnits="userSpaceOnUse" x="19" y="14" width="72" height="81">
<path d="M51.0174 15.757C53.4095 14.376 56.3565 14.376 58.7485 15.757L86.5027 31.7808C88.8947 33.1619 90.3682 35.7141 90.3682 38.4762V70.5239C90.3682 73.2859 88.8947 75.8381 86.5027 77.2192L58.7485 93.243C56.3565 94.624 53.4095 94.624 51.0174 93.243L23.2633 77.2192C20.8713 75.8381 19.3978 73.2859 19.3978 70.5238V38.4761C19.3978 35.7141 20.8713 33.1619 23.2633 31.7808L51.0174 15.757Z" fill="black"/>
</mask>
<g mask="url(#mask0_247_5136)">
<mask id="mask1_247_5136" style="mask-type:alpha" maskUnits="userSpaceOnUse" x="19" y="14" width="72" height="81">
<path d="M51.0174 15.757C53.4095 14.376 56.3565 14.376 58.7485 15.757L86.5027 31.7808C88.8947 33.1619 90.3682 35.7141 90.3682 38.4762V70.5239C90.3682 73.2859 88.8947 75.8381 86.5027 77.2192L58.7485 93.243C56.3565 94.624 53.4095 94.624 51.0174 93.243L23.2633 77.2192C20.8713 75.8381 19.3978 73.2859 19.3978 70.5238V38.4761C19.3978 35.7141 20.8713 33.1619 23.2633 31.7808L51.0174 15.757Z" fill="url(#paint0_linear_247_5136)"/>
</mask>
<g mask="url(#mask1_247_5136)">
<rect x="0.765625" y="0.382324" width="108.235" height="108.235" fill="#15BD8A"/>
<rect x="0.765625" y="0.382324" width="108.235" height="108.235" fill="url(#paint1_linear_247_5136)" fill-opacity="0.6" style="mix-blend-mode:overlay"/>
<rect x="0.765625" y="0.382324" width="108.235" height="108.235" fill="url(#paint2_radial_247_5136)" fill-opacity="0.6" style="mix-blend-mode:overlay"/>
<rect x="0.765625" y="0.382355" width="108.235" height="108.235" fill="black" fill-opacity="0.16" style="mix-blend-mode:overlay"/>
<rect x="0.765625" y="0.382355" width="108.235" height="108.235" fill="black" fill-opacity="0.12" style="mix-blend-mode:darken"/>
</g>
<g filter="url(#filter1_d_247_5136)">
<mask id="mask2_247_5136" style="mask-type:alpha" maskUnits="userSpaceOnUse" x="19" y="14" width="72" height="81">
<path d="M53.2744 14.8909C54.334 14.6658 55.4297 14.6657 56.4893 14.8909C57.6867 15.1456 58.8139 15.7964 61.0664 17.0969L84.1826 30.4426C86.435 31.7431 87.5626 32.3942 88.3818 33.304C89.1062 34.1088 89.6546 35.0573 89.9893 36.0872C90.3674 37.2515 90.3672 38.5534 90.3672 41.1546V67.846L90.3613 69.5716C90.3436 71.0894 90.273 72.04 89.9893 72.9133L89.8535 73.2962C89.5145 74.1787 89.0159 74.9932 88.3818 75.6975L88.2236 75.8655C87.4166 76.6913 86.2944 77.3396 84.1826 78.5589L61.0664 91.9046L59.5693 92.762C58.2461 93.5054 57.3873 93.9196 56.4893 94.1106L56.0908 94.1839C55.2904 94.3106 54.4743 94.3104 53.6738 94.1839L53.2744 94.1106C52.3763 93.9197 51.5175 93.5054 50.1943 92.762L48.6973 91.9046L25.582 78.5589C23.4704 77.3397 22.3471 76.6911 21.54 75.8655L21.3828 75.6975C20.7488 74.9933 20.2501 74.1785 19.9111 73.2962L19.7754 72.9133C19.4916 72.04 19.4201 71.0894 19.4023 69.5716L19.3965 67.846V41.1546C19.3965 38.7157 19.3973 37.4198 19.709 36.3079L19.7754 36.0872C20.0684 35.1856 20.5241 34.3466 21.1191 33.6116L21.3828 33.304C21.9973 32.6216 22.7842 32.0841 24.0898 31.3098L25.582 30.4426L48.6973 17.0969C50.8096 15.8774 51.9318 15.2286 53.0508 14.9426L53.2744 14.8909ZM67.792 84.2825H41.9717C41.871 84.2825 41.7731 84.2816 41.6787 84.2815L50.2432 89.2258L51.7588 90.0911C52.9924 90.7813 53.4643 90.9888 53.918 91.0852L54.1572 91.1301C54.7173 91.2186 55.2907 91.2034 55.8467 91.0852L56.0781 91.0266C56.6382 90.8589 57.3914 90.4551 59.5205 89.2258L68.084 84.2805L67.792 84.2825ZM59.251 81.1897H67.791C69.5603 81.1897 69.7546 81.1543 69.877 81.1145L70.0283 81.0559C70.1756 80.9902 70.3123 80.9015 70.4326 80.7932L70.5225 80.6956C70.6402 80.5453 70.8781 80.1729 71.541 79.0247L75.8105 71.6282L59.251 81.1897ZM38.2227 79.0247C39.106 80.5547 39.2345 80.7061 39.3301 80.7923L39.457 80.8948C39.5876 80.9895 39.7327 81.0634 39.8867 81.1135L40.0156 81.1419C40.2047 81.1687 40.6459 81.1897 41.9717 81.1897H50.5127L33.9521 71.6272L38.2227 79.0247ZM22.4893 67.846C22.4893 70.655 22.5249 71.3693 22.7158 71.9573L22.7979 72.1868C23.0013 72.7163 23.3002 73.2056 23.6807 73.6282L23.8477 73.7991C24.273 74.2002 24.9993 74.6512 27.1279 75.8801L35.6914 80.8245L35.5439 80.5706L22.6348 58.2112C22.5845 58.1242 22.5363 58.0389 22.4893 57.9573V67.846ZM87.1289 58.2112L74.2188 80.5716L74.0713 80.8245L82.6357 75.8801C85.0689 74.4753 85.6692 74.0876 86.083 73.6282L86.2412 73.4426C86.5981 73.0018 86.8721 72.4981 87.0479 71.9573L87.1123 71.7278C87.2473 71.1589 87.2744 70.3051 87.2744 67.846V57.9573C87.2273 58.039 87.1792 58.1241 87.1289 58.2112ZM25.3125 52.3352C24.6496 53.4835 24.4472 53.8759 24.376 54.053L24.3359 54.178C24.3022 54.3369 24.2946 54.5005 24.3115 54.6614L24.3359 54.8216C24.3628 54.9473 24.4304 55.1347 25.3135 56.6643L29.584 64.0608V44.9368L25.3125 52.3352ZM80.1807 64.0598L84.4502 56.6653C85.3345 55.1336 85.4 54.9474 85.4268 54.8216L85.4521 54.6614C85.469 54.5006 85.4615 54.3368 85.4277 54.178L85.3877 54.053C85.3166 53.8761 85.1135 53.4841 84.4502 52.3352L80.1807 44.9397V64.0598ZM27.1279 33.1204C24.9986 34.3498 24.2729 34.8002 23.8477 35.2014L23.6807 35.3723C23.3001 35.795 23.0013 36.2841 22.7979 36.8137L22.7158 37.0432C22.5249 37.6313 22.4893 38.3451 22.4893 41.1546V51.0432L22.6348 50.7893L35.5449 28.429C35.5954 28.3416 35.6441 28.2569 35.6914 28.1751L27.1279 33.1204ZM74.2188 28.429L87.1289 50.7883L87.2744 51.0423V41.1546C87.2744 38.6969 87.247 37.8426 87.1123 37.2737L87.0479 37.0432C86.8722 36.5025 86.598 35.9988 86.2412 35.5579L86.083 35.3723C85.6693 34.913 85.0682 34.5248 82.6357 33.1204L74.0713 28.1751C74.1186 28.2569 74.1683 28.3416 74.2188 28.429ZM41.9727 27.8098C40.6482 27.8098 40.206 27.8309 40.0166 27.8577L39.8867 27.886C39.7327 27.9361 39.5876 28.0101 39.457 28.1048L39.3311 28.2073C39.2355 28.2934 39.1074 28.4425 38.2227 29.9749L33.9512 37.3714L50.5137 27.8098H41.9727ZM75.8105 37.3704L71.541 29.9749C70.8778 28.8262 70.6392 28.4541 70.5215 28.304L70.4336 28.2073C70.3129 28.0986 70.1751 28.0094 70.0273 27.9436L69.876 27.886C69.7536 27.8463 69.5576 27.8108 67.791 27.8108L59.25 27.8098L75.8105 37.3704ZM55.8467 17.9153C55.2112 17.7802 54.5535 17.7804 53.918 17.9153C53.3131 18.0439 52.6767 18.3697 50.2432 19.7747L41.6787 24.719C41.7731 24.7189 41.871 24.718 41.9717 24.718H67.792C67.8923 24.718 67.9899 24.719 68.084 24.719L59.5205 19.7747C57.3921 18.5458 56.6382 18.1427 56.0781 17.9749L55.8467 17.9153Z" fill="black"/>
</mask>
<g mask="url(#mask2_247_5136)">
<rect x="0.763672" y="0.382263" width="108.235" height="108.235" fill="#15BD8A"/>
<rect x="0.763672" y="0.382263" width="108.235" height="108.235" fill="url(#paint3_linear_247_5136)" fill-opacity="0.6" style="mix-blend-mode:overlay"/>
<rect x="0.763672" y="0.382263" width="108.235" height="108.235" fill="url(#paint4_radial_247_5136)" fill-opacity="0.6" style="mix-blend-mode:overlay"/>
<g style="mix-blend-mode:soft-light">
<path fill-rule="evenodd" clip-rule="evenodd" d="M0.763672 0.382355H65.7049L44.9789 108.618H0.763672V0.382355Z" fill="url(#paint5_linear_247_5136)" style="mix-blend-mode:lighten"/>
</g>
<g style="mix-blend-mode:soft-light">
<mask id="path-11-inside-1_247_5136" fill="white">
<path d="M53.2744 14.8909C54.334 14.6658 55.4297 14.6657 56.4893 14.8909C57.6867 15.1456 58.8139 15.7964 61.0664 17.0969L84.1826 30.4426C86.435 31.7431 87.5626 32.3942 88.3818 33.304C89.1062 34.1088 89.6546 35.0573 89.9893 36.0872C90.3674 37.2515 90.3672 38.5534 90.3672 41.1546V67.846L90.3613 69.5716C90.3436 71.0894 90.273 72.04 89.9893 72.9133L89.8535 73.2962C89.5145 74.1787 89.0159 74.9932 88.3818 75.6975L88.2236 75.8655C87.4166 76.6913 86.2944 77.3396 84.1826 78.5589L61.0664 91.9046L59.5693 92.762C58.2461 93.5054 57.3873 93.9196 56.4893 94.1106L56.0908 94.1839C55.2904 94.3106 54.4743 94.3104 53.6738 94.1839L53.2744 94.1106C52.3763 93.9197 51.5175 93.5054 50.1943 92.762L48.6973 91.9046L25.582 78.5589C23.4704 77.3397 22.3471 76.6911 21.54 75.8655L21.3828 75.6975C20.7488 74.9933 20.2501 74.1785 19.9111 73.2962L19.7754 72.9133C19.4916 72.04 19.4201 71.0894 19.4023 69.5716L19.3965 67.846V41.1546C19.3965 38.7157 19.3973 37.4198 19.709 36.3079L19.7754 36.0872C20.0684 35.1856 20.5241 34.3466 21.1191 33.6116L21.3828 33.304C21.9973 32.6216 22.7842 32.0841 24.0898 31.3098L25.582 30.4426L48.6973 17.0969C50.8096 15.8774 51.9318 15.2286 53.0508 14.9426L53.2744 14.8909ZM67.792 84.2825H41.9717C41.871 84.2825 41.7731 84.2816 41.6787 84.2815L50.2432 89.2258L51.7588 90.0911C52.9924 90.7813 53.4643 90.9888 53.918 91.0852L54.1572 91.1301C54.7173 91.2186 55.2907 91.2034 55.8467 91.0852L56.0781 91.0266C56.6382 90.8589 57.3914 90.4551 59.5205 89.2258L68.084 84.2805L67.792 84.2825ZM59.251 81.1897H67.791C69.5603 81.1897 69.7546 81.1543 69.877 81.1145L70.0283 81.0559C70.1756 80.9902 70.3123 80.9015 70.4326 80.7932L70.5225 80.6956C70.6402 80.5453 70.8781 80.1729 71.541 79.0247L75.8105 71.6282L59.251 81.1897ZM38.2227 79.0247C39.106 80.5547 39.2345 80.7061 39.3301 80.7923L39.457 80.8948C39.5876 80.9895 39.7327 81.0634 39.8867 81.1135L40.0156 81.1419C40.2047 81.1687 40.6459 81.1897 41.9717 81.1897H50.5127L33.9521 71.6272L38.2227 79.0247ZM22.4893 67.846C22.4893 70.655 22.5249 71.3693 22.7158 71.9573L22.7979 72.1868C23.0013 72.7163 23.3002 73.2056 23.6807 73.6282L23.8477 73.7991C24.273 74.2002 24.9993 74.6512 27.1279 75.8801L35.6914 80.8245L35.5439 80.5706L22.6348 58.2112C22.5845 58.1242 22.5363 58.0389 22.4893 57.9573V67.846ZM87.1289 58.2112L74.2188 80.5716L74.0713 80.8245L82.6357 75.8801C85.0689 74.4753 85.6692 74.0876 86.083 73.6282L86.2412 73.4426C86.5981 73.0018 86.8721 72.4981 87.0479 71.9573L87.1123 71.7278C87.2473 71.1589 87.2744 70.3051 87.2744 67.846V57.9573C87.2273 58.039 87.1792 58.1241 87.1289 58.2112ZM25.3125 52.3352C24.6496 53.4835 24.4472 53.8759 24.376 54.053L24.3359 54.178C24.3022 54.3369 24.2946 54.5005 24.3115 54.6614L24.3359 54.8216C24.3628 54.9473 24.4304 55.1347 25.3135 56.6643L29.584 64.0608V44.9368L25.3125 52.3352ZM80.1807 64.0598L84.4502 56.6653C85.3345 55.1336 85.4 54.9474 85.4268 54.8216L85.4521 54.6614C85.469 54.5006 85.4615 54.3368 85.4277 54.178L85.3877 54.053C85.3166 53.8761 85.1135 53.4841 84.4502 52.3352L80.1807 44.9397V64.0598ZM27.1279 33.1204C24.9986 34.3498 24.2729 34.8002 23.8477 35.2014L23.6807 35.3723C23.3001 35.795 23.0013 36.2841 22.7979 36.8137L22.7158 37.0432C22.5249 37.6313 22.4893 38.3451 22.4893 41.1546V51.0432L22.6348 50.7893L35.5449 28.429C35.5954 28.3416 35.6441 28.2569 35.6914 28.1751L27.1279 33.1204ZM74.2188 28.429L87.1289 50.7883L87.2744 51.0423V41.1546C87.2744 38.6969 87.247 37.8426 87.1123 37.2737L87.0479 37.0432C86.8722 36.5025 86.598 35.9988 86.2412 35.5579L86.083 35.3723C85.6693 34.913 85.0682 34.5248 82.6357 33.1204L74.0713 28.1751C74.1186 28.2569 74.1683 28.3416 74.2188 28.429ZM41.9727 27.8098C40.6482 27.8098 40.206 27.8309 40.0166 27.8577L39.8867 27.886C39.7327 27.9361 39.5876 28.0101 39.457 28.1048L39.3311 28.2073C39.2355 28.2934 39.1074 28.4425 38.2227 29.9749L33.9512 37.3714L50.5137 27.8098H41.9727ZM75.8105 37.3704L71.541 29.9749C70.8778 28.8262 70.6392 28.4541 70.5215 28.304L70.4336 28.2073C70.3129 28.0986 70.1751 28.0094 70.0273 27.9436L69.876 27.886C69.7536 27.8463 69.5576 27.8108 67.791 27.8108L59.25 27.8098L75.8105 37.3704ZM55.8467 17.9153C55.2112 17.7802 54.5535 17.7804 53.918 17.9153C53.3131 18.0439 52.6767 18.3697 50.2432 19.7747L41.6787 24.719C41.7731 24.7189 41.871 24.718 41.9717 24.718H67.792C67.8923 24.718 67.9899 24.719 68.084 24.719L59.5205 19.7747C57.3921 18.5458 56.6382 18.1427 56.0781 17.9749L55.8467 17.9153Z"/>
</mask>
<path d="M53.2744 14.8909L53.2342 14.7018L53.2308 14.7026L53.2744 14.8909ZM56.4893 14.8909L56.5295 14.7018L56.5294 14.7018L56.4893 14.8909ZM61.0664 17.0969L60.9698 17.2643L60.9698 17.2643L61.0664 17.0969ZM84.1826 30.4426L84.2793 30.2753L84.2793 30.2753L84.1826 30.4426ZM88.3818 33.304L88.5255 33.1747L88.5255 33.1746L88.3818 33.304ZM89.9893 36.0872L90.1731 36.0275L90.1731 36.0274L89.9893 36.0872ZM90.3672 41.1546L90.5605 41.1546L90.3672 41.1546ZM90.3672 67.846L90.5605 67.8466V67.846H90.3672ZM90.3613 69.5716L90.5546 69.5738L90.5546 69.5722L90.3613 69.5716ZM89.9893 72.9133L90.1715 72.978L90.1731 72.9731L89.9893 72.9133ZM89.8535 73.2962L90.034 73.3655L90.0357 73.3608L89.8535 73.2962ZM88.3818 75.6975L88.5226 75.8301L88.5255 75.8268L88.3818 75.6975ZM88.2236 75.8655L88.3619 76.0006L88.3643 75.998L88.2236 75.8655ZM84.1826 78.5589L84.2793 78.7262L84.2793 78.7262L84.1826 78.5589ZM61.0664 91.9046L61.1625 92.0723L61.163 92.0719L61.0664 91.9046ZM59.5693 92.762L59.664 92.9305L59.6654 92.9297L59.5693 92.762ZM56.4893 94.1106L56.5242 94.3008L56.5295 94.2997L56.4893 94.1106ZM56.0908 94.1839L56.1211 94.3748L56.1258 94.3739L56.0908 94.1839ZM53.6738 94.1839L53.639 94.374L53.6436 94.3748L53.6738 94.1839ZM53.2744 94.1106L53.2342 94.2997L53.2396 94.3007L53.2744 94.1106ZM50.1943 92.762L50.0983 92.9297L50.0997 92.9305L50.1943 92.762ZM48.6973 91.9046L48.6006 92.0719L48.6012 92.0723L48.6973 91.9046ZM25.582 78.5589L25.6787 78.3915L25.6787 78.3915L25.582 78.5589ZM21.54 75.8655L21.3989 75.9976L21.4018 76.0006L21.54 75.8655ZM21.3828 75.6975L21.2392 75.8269L21.2417 75.8296L21.3828 75.6975ZM19.9111 73.2962L19.7289 73.3608L19.7307 73.3655L19.9111 73.2962ZM19.7754 72.9133L19.5915 72.9731L19.5932 72.9779L19.7754 72.9133ZM19.4023 69.5716L19.2091 69.5722L19.2091 69.5738L19.4023 69.5716ZM19.3965 67.846H19.2032L19.2032 67.8466L19.3965 67.846ZM19.3965 41.1546H19.2032H19.3965ZM19.709 36.3079L19.5239 36.2522L19.5229 36.2557L19.709 36.3079ZM19.7754 36.0872L19.5915 36.0274L19.5903 36.0315L19.7754 36.0872ZM21.1191 33.6116L20.9723 33.4858L20.9689 33.49L21.1191 33.6116ZM21.3828 33.304L21.2391 33.1746L21.2361 33.1782L21.3828 33.304ZM24.0898 31.3098L23.9927 31.1427L23.9913 31.1436L24.0898 31.3098ZM25.582 30.4426L25.4854 30.2753L25.4849 30.2755L25.582 30.4426ZM48.6973 17.0969L48.6006 16.9296L48.6006 16.9296L48.6973 17.0969ZM53.0508 14.9426L53.0072 14.7543L53.0029 14.7554L53.0508 14.9426ZM67.792 84.2825V84.4758L67.7933 84.4758L67.792 84.2825ZM41.9717 84.2825L41.9717 84.0892H41.9717L41.9717 84.2825ZM41.6787 84.2815L41.6788 84.0882C41.5913 84.0882 41.5147 84.1469 41.492 84.2314C41.4694 84.3159 41.5063 84.4051 41.5821 84.4489L41.6787 84.2815ZM50.2432 89.2258L50.1465 89.3932L50.1473 89.3937L50.2432 89.2258ZM51.7588 90.0911L51.663 90.2589L51.6644 90.2598L51.7588 90.0911ZM53.918 91.0852L53.8778 91.2743L53.8823 91.2752L53.918 91.0852ZM54.1572 91.1301L54.1215 91.3202L54.1271 91.3211L54.1572 91.1301ZM55.8467 91.0852L55.8869 91.2744L55.8941 91.2726L55.8467 91.0852ZM56.0781 91.0266L56.1256 91.2142L56.1336 91.2118L56.0781 91.0266ZM59.5205 89.2258L59.6171 89.3932L59.6172 89.3932L59.5205 89.2258ZM68.084 84.2805L68.1806 84.4479C68.2566 84.404 68.2935 84.3145 68.2705 84.2299C68.2475 84.1452 68.1704 84.0867 68.0827 84.0873L68.084 84.2805ZM59.251 81.1897L59.1543 81.0223C59.0786 81.0661 59.0416 81.1552 59.0643 81.2397C59.0869 81.3242 59.1635 81.383 59.251 81.383V81.1897ZM67.791 81.1897L67.791 81.383L67.791 81.383L67.791 81.1897ZM69.877 81.1145L69.9368 81.2986L69.9467 81.2948L69.877 81.1145ZM70.0283 81.0559L70.0982 81.2364L70.1071 81.2324L70.0283 81.0559ZM70.4326 80.7932L70.5619 80.9369C70.5664 80.9328 70.5707 80.9286 70.5749 80.9241L70.4326 80.7932ZM70.5225 80.6956L70.6647 80.8264C70.6682 80.8227 70.6715 80.8188 70.6746 80.8148L70.5225 80.6956ZM71.541 79.0247L71.7084 79.1213L71.7084 79.1213L71.541 79.0247ZM75.8105 71.6282L75.9779 71.7248C76.0217 71.6491 76.0091 71.5534 75.9472 71.4915C75.8853 71.4297 75.7897 71.4171 75.7139 71.4608L75.8105 71.6282ZM38.2227 79.0247L38.0553 79.1213L38.0553 79.1213L38.2227 79.0247ZM39.3301 80.7923L39.2005 80.936L39.2086 80.9426L39.3301 80.7923ZM39.457 80.8948L39.3354 81.0454L39.3436 81.0512L39.457 80.8948ZM39.8867 81.1135L39.8269 81.2973C39.8329 81.2993 39.8391 81.301 39.8452 81.3023L39.8867 81.1135ZM40.0156 81.1419L39.9742 81.3306C39.9789 81.3317 39.9837 81.3325 39.9885 81.3332L40.0156 81.1419ZM41.9717 81.1897L41.9717 81.383H41.9717V81.1897ZM50.5127 81.1897V81.383C50.6002 81.383 50.6767 81.3242 50.6994 81.2397C50.722 81.1552 50.6851 81.0661 50.6093 81.0223L50.5127 81.1897ZM33.9521 71.6272L34.0488 71.4598C33.973 71.4161 33.8773 71.4287 33.8155 71.4905C33.7536 71.5524 33.741 71.6481 33.7848 71.7238L33.9521 71.6272ZM22.4893 67.846L22.296 67.846L22.296 67.846L22.4893 67.846ZM22.7158 71.9573L22.5319 72.017L22.5338 72.0223L22.7158 71.9573ZM22.7979 72.1868L22.6158 72.2519L22.6174 72.2561L22.7979 72.1868ZM23.6807 73.6282L23.5369 73.7576L23.5424 73.7633L23.6807 73.6282ZM23.8477 73.7991L23.7093 73.9343L23.715 73.9397L23.8477 73.7991ZM27.1279 75.8801L27.2246 75.7128L27.2246 75.7128L27.1279 75.8801ZM35.6914 80.8245L35.5948 80.9919C35.6706 81.0356 35.7664 81.023 35.8282 80.961C35.8901 80.899 35.9025 80.8031 35.8585 80.7274L35.6914 80.8245ZM35.5439 80.5706L35.3766 80.6672L35.3768 80.6676L35.5439 80.5706ZM22.6348 58.2112L22.8021 58.1146L22.8021 58.1146L22.6348 58.2112ZM22.4893 57.9573L22.6567 57.8608C22.613 57.785 22.5238 57.748 22.4393 57.7706C22.3548 57.7932 22.296 57.8698 22.296 57.9573H22.4893ZM87.1289 58.2112L87.2963 58.3078L87.2963 58.3078L87.1289 58.2112ZM74.2188 80.5716L74.3857 80.6689L74.3861 80.6682L74.2188 80.5716ZM74.0713 80.8245L73.9043 80.7271C73.8602 80.8028 73.8725 80.8988 73.9343 80.9609C73.9962 81.023 74.092 81.0357 74.1679 80.9919L74.0713 80.8245ZM82.6357 75.8801L82.7324 76.0475L82.7324 76.0475L82.6357 75.8801ZM86.083 73.6282L86.2267 73.7576L86.2301 73.7536L86.083 73.6282ZM86.2412 73.4426L86.3883 73.5681L86.3914 73.5642L86.2412 73.4426ZM87.0479 71.9573L87.2318 72.0171L87.2339 72.0096L87.0479 71.9573ZM87.1123 71.7278L87.2985 71.7801L87.3004 71.7724L87.1123 71.7278ZM87.2744 67.846L87.4677 67.846V67.846H87.2744ZM87.2744 57.9573H87.4677C87.4677 57.8698 87.4089 57.7932 87.3244 57.7706C87.2399 57.748 87.1507 57.785 87.107 57.8608L87.2744 57.9573ZM25.3125 52.3352L25.1451 52.2386L25.1451 52.2386L25.3125 52.3352ZM24.376 54.053L24.1962 53.9807L24.1919 53.994L24.376 54.053ZM24.3359 54.178L24.1519 54.119C24.1499 54.1252 24.1482 54.1315 24.1469 54.1378L24.3359 54.178ZM24.3115 54.6614L24.1191 54.6816L24.1205 54.6905L24.3115 54.6614ZM24.3359 54.8216L24.1445 54.8507L24.1469 54.8619L24.3359 54.8216ZM25.3135 56.6643L25.1461 56.761L25.1461 56.761L25.3135 56.6643ZM29.584 64.0608L29.4166 64.1574C29.4603 64.2332 29.5495 64.2701 29.634 64.2475C29.7185 64.2249 29.7773 64.1483 29.7773 64.0608H29.584ZM29.584 44.9368H29.7773C29.7773 44.8493 29.7185 44.7727 29.634 44.7501C29.5495 44.7275 29.4603 44.7644 29.4166 44.8401L29.584 44.9368ZM80.1807 64.0598H79.9874C79.9874 64.1473 80.0461 64.2239 80.1306 64.2465C80.2151 64.2692 80.3043 64.2322 80.348 64.1565L80.1807 64.0598ZM84.4502 56.6653L84.6176 56.7619L84.6176 56.7619L84.4502 56.6653ZM85.4268 54.8216L85.6161 54.8618L85.6177 54.8518L85.4268 54.8216ZM85.4521 54.6614L85.6433 54.6917L85.6444 54.6815L85.4521 54.6614ZM85.4277 54.178L85.6168 54.1378C85.6154 54.1315 85.6138 54.1252 85.6118 54.119L85.4277 54.178ZM85.3877 54.053L85.5722 53.9939L85.567 53.9809L85.3877 54.053ZM84.4502 52.3352L84.2828 52.4319L84.2828 52.4319L84.4502 52.3352ZM80.1807 44.9397L80.348 44.8431C80.3043 44.7673 80.2151 44.7304 80.1306 44.753C80.0461 44.7757 79.9874 44.8522 79.9874 44.9397H80.1807ZM27.1279 33.1204L27.2246 33.2878L27.2246 33.2878L27.1279 33.1204ZM23.8477 35.2014L23.7149 35.0607L23.7094 35.0664L23.8477 35.2014ZM23.6807 35.3723L23.5423 35.2371L23.537 35.243L23.6807 35.3723ZM22.7979 36.8137L22.6174 36.7444L22.6159 36.7487L22.7979 36.8137ZM22.7158 37.0432L22.5337 36.9781L22.532 36.9835L22.7158 37.0432ZM22.4893 41.1546L22.296 41.1546V41.1546H22.4893ZM22.4893 51.0432H22.296C22.296 51.1308 22.3549 51.2075 22.4395 51.23C22.5242 51.2525 22.6134 51.2153 22.657 51.1393L22.4893 51.0432ZM22.6348 50.7893L22.4674 50.6927L22.4671 50.6932L22.6348 50.7893ZM35.5449 28.429L35.7123 28.5256L35.7123 28.5256L35.5449 28.429ZM35.6914 28.1751L35.8587 28.2718C35.9025 28.1961 35.89 28.1003 35.8281 28.0384C35.7663 27.9765 35.6705 27.9639 35.5948 28.0077L35.6914 28.1751ZM74.2188 28.429L74.0514 28.5256L74.0514 28.5256L74.2188 28.429ZM87.1289 50.7883L87.2966 50.6922L87.2963 50.6917L87.1289 50.7883ZM87.2744 51.0423L87.1067 51.1384C87.1503 51.2144 87.2395 51.2516 87.3241 51.229C87.4088 51.2065 87.4677 51.1298 87.4677 51.0423H87.2744ZM87.2744 41.1546L87.4677 41.1546L87.4677 41.1546L87.2744 41.1546ZM87.1123 37.2737L87.3005 37.2291L87.2984 37.2216L87.1123 37.2737ZM87.0479 37.0432L87.2341 36.9911L87.2317 36.9835L87.0479 37.0432ZM86.2412 35.5579L86.3915 35.4362L86.3883 35.4325L86.2412 35.5579ZM86.083 35.3723L86.2301 35.2469L86.2266 35.243L86.083 35.3723ZM82.6357 33.1204L82.5391 33.2878L82.5391 33.2878L82.6357 33.1204ZM74.0713 28.1751L74.1679 28.0077C74.0922 27.9639 73.9964 27.9765 73.9346 28.0384C73.8727 28.1003 73.8602 28.1961 73.904 28.2718L74.0713 28.1751ZM41.9727 27.8098L41.9727 28.0031H41.9727V27.8098ZM40.0166 27.8577L39.9895 27.6663C39.9848 27.667 39.9801 27.6678 39.9754 27.6688L40.0166 27.8577ZM39.8867 27.886L39.8455 27.6972C39.8393 27.6985 39.833 27.7002 39.8269 27.7022L39.8867 27.886ZM39.457 28.1048L39.3434 27.948L39.335 27.9549L39.457 28.1048ZM39.3311 28.2073L39.2089 28.0572L39.2017 28.0637L39.3311 28.2073ZM38.2227 29.9749L38.39 30.0715L38.39 30.0715L38.2227 29.9749ZM33.9512 37.3714L33.7838 37.2747C33.7401 37.3505 33.7526 37.4461 33.8145 37.508C33.8763 37.5699 33.972 37.5825 34.0478 37.5387L33.9512 37.3714ZM50.5137 27.8098L50.6103 27.9772C50.6861 27.9335 50.723 27.8443 50.7004 27.7598C50.6777 27.6753 50.6012 27.6166 50.5137 27.6166V27.8098ZM75.8105 37.3704L75.7139 37.5378C75.7897 37.5815 75.8854 37.5689 75.9472 37.507C76.0091 37.4452 76.0217 37.3495 75.9779 37.2737L75.8105 37.3704ZM71.541 29.9749L71.7084 29.8782L71.7084 29.8782L71.541 29.9749ZM70.5215 28.304L70.674 28.1844L70.6645 28.174L70.5215 28.304ZM70.4336 28.2073L70.5766 28.0773C70.5723 28.0725 70.5677 28.068 70.5629 28.0636L70.4336 28.2073ZM70.0273 27.9436L70.1061 27.7668L70.0961 27.763L70.0273 27.9436ZM69.876 27.886L69.9448 27.7051L69.9356 27.7022L69.876 27.886ZM67.791 27.8108L67.791 28.0041L67.791 28.0041L67.791 27.8108ZM59.25 27.8098L59.25 27.6166C59.1625 27.6165 59.086 27.6753 59.0633 27.7598C59.0407 27.8443 59.0776 27.9335 59.1534 27.9772L59.25 27.8098ZM55.8467 17.9153L55.8949 17.728L55.8869 17.7262L55.8467 17.9153ZM53.918 17.9153L53.8778 17.7262L53.8778 17.7262L53.918 17.9153ZM50.2432 19.7747L50.3398 19.9421L50.3398 19.9421L50.2432 19.7747ZM41.6787 24.719L41.5821 24.5516C41.5063 24.5954 41.4694 24.6846 41.492 24.7691C41.5147 24.8536 41.5913 24.9124 41.6789 24.9123L41.6787 24.719ZM41.9717 24.718L41.9717 24.5248H41.9717L41.9717 24.718ZM67.792 24.718L67.792 24.5248H67.792V24.718ZM68.084 24.719L68.0839 24.9123C68.1714 24.9123 68.248 24.8536 68.2707 24.7691C68.2933 24.6846 68.2564 24.5954 68.1806 24.5516L68.084 24.719ZM59.5205 19.7747L59.6171 19.6073L59.6171 19.6073L59.5205 19.7747ZM56.0781 17.9749L56.1336 17.7896L56.1263 17.7877L56.0781 17.9749ZM53.2744 14.8909L53.3146 15.0799C54.3476 14.8604 55.416 14.8604 56.4491 15.0799L56.4893 14.8909L56.5294 14.7018C55.4434 14.471 54.3203 14.4711 53.2342 14.7018L53.2744 14.8909ZM56.4893 14.8909L56.449 15.0799C57.6094 15.3268 58.7059 15.9573 60.9698 17.2643L61.0664 17.0969L61.163 16.9296C58.9218 15.6356 57.7639 14.9644 56.5295 14.7018L56.4893 14.8909ZM61.0664 17.0969L60.9698 17.2643L84.086 30.61L84.1826 30.4426L84.2793 30.2753L61.163 16.9296L61.0664 17.0969ZM84.1826 30.4426L84.086 30.61C86.3497 31.917 87.4443 32.5516 88.2382 33.4333L88.3818 33.304L88.5255 33.1746C87.6809 32.2367 86.5204 31.5692 84.2793 30.2753L84.1826 30.4426ZM88.3818 33.304L88.2382 33.4333C88.9445 34.2181 89.4792 35.1429 89.8054 36.1469L89.9893 36.0872L90.1731 36.0274C89.83 34.9718 89.2679 33.9996 88.5255 33.1747L88.3818 33.304ZM89.9893 36.0872L89.8054 36.1469C90.1719 37.2752 90.1739 38.5404 90.1739 41.1546L90.3672 41.1546L90.5605 41.1546C90.5605 38.5665 90.5629 37.2278 90.1731 36.0275L89.9893 36.0872ZM90.3672 41.1546H90.1739V67.846H90.3672H90.5605V41.1546H90.3672ZM90.3672 67.846L90.1739 67.8453L90.1681 69.5709L90.3613 69.5716L90.5546 69.5722L90.5605 67.8466L90.3672 67.846ZM90.3613 69.5716L90.1681 69.5693C90.1503 71.0864 90.0793 72.0108 89.8054 72.8536L89.9893 72.9133L90.1731 72.9731C90.4667 72.0692 90.5368 71.0924 90.5546 69.5738L90.3613 69.5716ZM89.9893 72.9133L89.8071 72.8488L89.6714 73.2316L89.8535 73.2962L90.0357 73.3608L90.1714 72.9779L89.9893 72.9133ZM89.8535 73.2962L89.6731 73.2269C89.3426 74.0874 88.8564 74.8815 88.2382 75.5682L88.3818 75.6975L88.5255 75.8268C89.1755 75.1049 89.6865 74.2701 90.0339 73.3655L89.8535 73.2962ZM88.3818 75.6975L88.2411 75.565L88.0829 75.733L88.2236 75.8655L88.3643 75.998L88.5225 75.83L88.3818 75.6975ZM88.2236 75.8655L88.0854 75.7304C87.3014 76.5326 86.2078 77.1664 84.086 78.3915L84.1826 78.5589L84.2793 78.7262C86.3809 77.5128 87.5318 76.8499 88.3619 76.0006L88.2236 75.8655ZM84.1826 78.5589L84.086 78.3915L60.9698 91.7372L61.0664 91.9046L61.163 92.0719L84.2793 78.7262L84.1826 78.5589ZM61.0664 91.9046L60.9703 91.7368L59.4733 92.5943L59.5693 92.762L59.6654 92.9297L61.1625 92.0723L61.0664 91.9046ZM59.5693 92.762L59.4747 92.5935C58.1521 93.3366 57.3157 93.7372 56.4491 93.9216L56.4893 94.1106L56.5295 94.2997C57.4589 94.102 58.3401 93.6743 59.664 92.9305L59.5693 92.762ZM56.4893 94.1106L56.4543 93.9205L56.0559 93.9938L56.0908 94.1839L56.1258 94.3739L56.5242 94.3007L56.4893 94.1106ZM56.0908 94.1839L56.0606 93.993C55.2802 94.1165 54.4845 94.1164 53.704 93.9929L53.6738 94.1839L53.6436 94.3748C54.4641 94.5045 55.3006 94.5046 56.121 94.3748L56.0908 94.1839ZM53.6738 94.1839L53.7087 93.9937L53.3093 93.9205L53.2744 94.1106L53.2396 94.3007L53.639 94.374L53.6738 94.1839ZM53.2744 94.1106L53.3146 93.9216C52.4479 93.7373 51.6115 93.3365 50.289 92.5935L50.1943 92.762L50.0997 92.9305C51.4235 93.6743 52.3047 94.1021 53.2342 94.2997L53.2744 94.1106ZM50.1943 92.762L50.2904 92.5943L48.7933 91.7368L48.6973 91.9046L48.6012 92.0723L50.0983 92.9297L50.1943 92.762ZM48.6973 91.9046L48.7939 91.7372L25.6787 78.3915L25.582 78.5589L25.4854 78.7262L48.6006 92.0719L48.6973 91.9046ZM25.582 78.5589L25.6787 78.3915C23.5569 77.1665 22.4623 76.5324 21.6783 75.7304L21.54 75.8655L21.4018 76.0006C22.232 76.8498 23.3838 77.5129 25.4854 78.7262L25.582 78.5589ZM21.54 75.8655L21.6811 75.7334L21.5239 75.5654L21.3828 75.6975L21.2417 75.8296L21.3989 75.9976L21.54 75.8655ZM21.3828 75.6975L21.5264 75.5682C20.9083 74.8817 20.4221 74.0872 20.0916 73.2268L19.9111 73.2962L19.7307 73.3655C20.0782 74.2699 20.5893 75.105 21.2392 75.8269L21.3828 75.6975ZM19.9111 73.2962L20.0933 73.2316L19.9576 72.8488L19.7754 72.9133L19.5932 72.9779L19.729 73.3608L19.9111 73.2962ZM19.7754 72.9133L19.9592 72.8536C19.6853 72.0107 19.6133 71.0862 19.5956 69.5693L19.4023 69.5716L19.2091 69.5738C19.2268 71.0926 19.2979 72.0693 19.5916 72.9731L19.7754 72.9133ZM19.4023 69.5716L19.5956 69.5709L19.5898 67.8453L19.3965 67.846L19.2032 67.8466L19.2091 69.5722L19.4023 69.5716ZM19.3965 67.846H19.5898V41.1546H19.3965H19.2032V67.846H19.3965ZM19.3965 41.1546L19.5898 41.1546C19.5898 38.7042 19.5923 37.4402 19.8951 36.36L19.709 36.3079L19.5229 36.2557C19.2023 37.3994 19.2032 38.7273 19.2032 41.1546L19.3965 41.1546ZM19.709 36.3079L19.8941 36.3636L19.9605 36.1429L19.7754 36.0872L19.5903 36.0315L19.5239 36.2522L19.709 36.3079ZM19.7754 36.0872L19.9592 36.1469C20.2449 35.2679 20.6892 34.4498 21.2694 33.7332L21.1191 33.6116L20.9689 33.49C20.359 34.2433 19.8919 35.1034 19.5916 36.0274L19.7754 36.0872ZM21.1191 33.6116L21.2659 33.7374L21.5296 33.4298L21.3828 33.304L21.2361 33.1782L20.9724 33.4858L21.1191 33.6116ZM21.3828 33.304L21.5264 33.4333C22.1195 32.7747 22.8836 32.2499 24.1884 31.4761L24.0898 31.3098L23.9913 31.1436C22.6847 31.9184 21.8751 32.4685 21.2392 33.1746L21.3828 33.304ZM24.0898 31.3098L24.187 31.4769L25.6791 30.6098L25.582 30.4426L25.4849 30.2755L23.9927 31.1427L24.0898 31.3098ZM25.582 30.4426L25.6787 30.61L48.7939 17.2643L48.6973 17.0969L48.6006 16.9296L25.4854 30.2753L25.582 30.4426ZM48.6973 17.0969L48.7939 17.2643C50.9164 16.0389 52.0117 15.4077 53.0986 15.1299L53.0508 14.9426L53.0029 14.7554C51.852 15.0495 50.7027 15.7159 48.6006 16.9296L48.6973 17.0969ZM53.0508 14.9426L53.0944 15.1309L53.318 15.0792L53.2744 14.8909L53.2308 14.7026L53.0072 14.7543L53.0508 14.9426ZM67.792 84.2825V84.0892H41.9717V84.2825V84.4758H67.792V84.2825ZM41.9717 84.2825L41.9717 84.0892C41.864 84.0892 41.7825 84.0883 41.6788 84.0882L41.6787 84.2815L41.6786 84.4748C41.7637 84.4748 41.8779 84.4758 41.9717 84.4758L41.9717 84.2825ZM41.6787 84.2815L41.5821 84.4489L50.1465 89.3932L50.2432 89.2258L50.3398 89.0585L41.7753 84.1141L41.6787 84.2815ZM50.2432 89.2258L50.1473 89.3937L51.663 90.2589L51.7588 90.0911L51.8546 89.9232L50.339 89.058L50.2432 89.2258ZM51.7588 90.0911L51.6644 90.2598C52.8958 90.9487 53.3916 91.1709 53.8778 91.2743L53.918 91.0852L53.9582 90.8962C53.537 90.8067 53.089 90.6139 51.8532 89.9224L51.7588 90.0911ZM53.918 91.0852L53.8823 91.2752L54.1216 91.3201L54.1572 91.1301L54.1929 90.9402L53.9536 90.8953L53.918 91.0852ZM54.1572 91.1301L54.1271 91.3211C54.7106 91.4132 55.3078 91.3974 55.8869 91.2743L55.8467 91.0852L55.8065 90.8962C55.2736 91.0094 54.7241 91.024 54.1874 90.9392L54.1572 91.1301ZM55.8467 91.0852L55.8941 91.2726L56.1256 91.214L56.0781 91.0266L56.0307 90.8393L55.7992 90.8979L55.8467 91.0852ZM56.0781 91.0266L56.1336 91.2118C56.7208 91.036 57.4979 90.6168 59.6171 89.3932L59.5205 89.2258L59.4239 89.0585C57.2849 90.2934 56.5556 90.6819 56.0227 90.8415L56.0781 91.0266ZM59.5205 89.2258L59.6172 89.3932L68.1806 84.4479L68.084 84.2805L67.9873 84.1132L59.4239 89.0585L59.5205 89.2258ZM68.084 84.2805L68.0827 84.0873L67.7907 84.0892L67.792 84.2825L67.7933 84.4758L68.0853 84.4738L68.084 84.2805ZM59.251 81.1897V81.383H67.791V81.1897V80.9964H59.251V81.1897ZM67.791 81.1897L67.791 81.383C68.6758 81.383 69.1708 81.3741 69.461 81.3601C69.7509 81.346 69.8506 81.3263 69.9367 81.2983L69.877 81.1145L69.8172 80.9307C69.7809 80.9425 69.7224 80.9604 69.4422 80.974C69.1623 80.9876 68.6755 80.9964 67.791 80.9964L67.791 81.1897ZM69.877 81.1145L69.9467 81.2948L70.0981 81.2362L70.0283 81.0559L69.9585 80.8757L69.8072 80.9343L69.877 81.1145ZM70.0283 81.0559L70.1071 81.2324C70.2727 81.1585 70.4265 81.0587 70.5619 80.9369L70.4326 80.7932L70.3033 80.6495C70.198 80.7443 70.0784 80.8219 69.9495 80.8794L70.0283 81.0559ZM70.4326 80.7932L70.5749 80.9241L70.6647 80.8264L70.5225 80.6956L70.3802 80.5647L70.2904 80.6624L70.4326 80.7932ZM70.5225 80.6956L70.6746 80.8148C70.8027 80.6512 71.0481 80.265 71.7084 79.1213L71.541 79.0247L71.3736 78.928C70.708 80.0809 70.4777 80.4393 70.3703 80.5764L70.5225 80.6956ZM71.541 79.0247L71.7084 79.1213L75.9779 71.7248L75.8105 71.6282L75.6432 71.5316L71.3736 78.9281L71.541 79.0247ZM75.8105 71.6282L75.7139 71.4608L59.1543 81.0223L59.251 81.1897L59.3476 81.3571L75.9072 71.7956L75.8105 71.6282ZM38.2227 79.0247L38.0553 79.1213C38.497 79.8865 38.7521 80.3104 38.9093 80.5546C39.0664 80.7986 39.1335 80.8753 39.2007 80.9358L39.3301 80.7923L39.4595 80.6487C39.4311 80.6231 39.3862 80.5811 39.2343 80.3453C39.0826 80.1097 38.8316 79.6929 38.39 78.928L38.2227 79.0247ZM39.3301 80.7923L39.2086 80.9426L39.3356 81.0452L39.457 80.8948L39.5785 80.7444L39.4515 80.6419L39.3301 80.7923ZM39.457 80.8948L39.3436 81.0512C39.4905 81.1578 39.6537 81.241 39.8269 81.2973L39.8867 81.1135L39.9465 80.9298C39.8117 80.8859 39.6847 80.8211 39.5705 80.7383L39.457 80.8948ZM39.8867 81.1135L39.8452 81.3023L39.9742 81.3306L40.0156 81.1419L40.0571 80.9531L39.9282 80.9248L39.8867 81.1135ZM40.0156 81.1419L39.9885 81.3332C40.194 81.3624 40.6508 81.383 41.9717 81.383L41.9717 81.1897L41.9717 80.9964C40.641 80.9964 40.2153 80.975 40.0428 80.9505L40.0156 81.1419ZM41.9717 81.1897V81.383H50.5127V81.1897V80.9964H41.9717V81.1897ZM50.5127 81.1897L50.6093 81.0223L34.0488 71.4598L33.9521 71.6272L33.8555 71.7946L50.416 81.3571L50.5127 81.1897ZM33.9521 71.6272L33.7848 71.7238L38.0553 79.1213L38.2227 79.0247L38.39 78.928L34.1195 71.5306L33.9521 71.6272ZM22.4893 67.846L22.296 67.846C22.296 70.6399 22.3292 71.3925 22.532 72.017L22.7158 71.9573L22.8996 71.8976C22.7205 71.3461 22.6825 70.6702 22.6825 67.846L22.4893 67.846ZM22.7158 71.9573L22.5338 72.0223L22.6159 72.2518L22.7979 72.1868L22.9799 72.1217L22.8978 71.8922L22.7158 71.9573ZM22.7979 72.1868L22.6174 72.2561C22.8293 72.8076 23.1406 73.3172 23.537 73.7575L23.6807 73.6282L23.8243 73.4989C23.4598 73.094 23.1733 72.6251 22.9783 72.1175L22.7979 72.1868ZM23.6807 73.6282L23.5424 73.7633L23.7094 73.9342L23.8477 73.7991L23.9859 73.664L23.8189 73.4931L23.6807 73.6282ZM23.8477 73.7991L23.715 73.9397C24.1609 74.3603 24.9124 74.8242 27.0313 76.0475L27.1279 75.8801L27.2246 75.7128C25.0862 74.4782 24.385 74.0402 23.9803 73.6585L23.8477 73.7991ZM27.1279 75.8801L27.0313 76.0475L35.5948 80.9919L35.6914 80.8245L35.788 80.6571L27.2246 75.7128L27.1279 75.8801ZM35.6914 80.8245L35.8585 80.7274L35.7111 80.4735L35.5439 80.5706L35.3768 80.6676L35.5243 80.9215L35.6914 80.8245ZM35.5439 80.5706L35.7113 80.4739L22.8021 58.1146L22.6348 58.2112L22.4674 58.3078L35.3766 80.6672L35.5439 80.5706ZM22.6348 58.2112L22.8021 58.1146C22.7491 58.0227 22.7076 57.9491 22.6567 57.8608L22.4893 57.9573L22.3218 58.0538C22.3649 58.1286 22.42 58.2257 22.4674 58.3078L22.6348 58.2112ZM22.4893 57.9573H22.296V67.846H22.4893H22.6825V57.9573H22.4893ZM87.1289 58.2112L86.9615 58.1146L74.0514 80.4749L74.2188 80.5716L74.3861 80.6682L87.2963 58.3078L87.1289 58.2112ZM74.2188 80.5716L74.0518 80.4742L73.9043 80.7271L74.0713 80.8245L74.2383 80.9218L74.3857 80.6689L74.2188 80.5716ZM74.0713 80.8245L74.1679 80.9919L82.7324 76.0475L82.6357 75.8801L82.5391 75.7128L73.9747 80.6571L74.0713 80.8245ZM82.6357 75.8801L82.7324 76.0475C85.1524 74.6503 85.7872 74.2455 86.2266 73.7575L86.083 73.6282L85.9394 73.4988C85.5513 73.9298 84.9854 74.3004 82.5391 75.7128L82.6357 75.8801ZM86.083 73.6282L86.2301 73.7536L86.3883 73.568L86.2412 73.4426L86.0941 73.3172L85.9359 73.5028L86.083 73.6282ZM86.2412 73.4426L86.3914 73.5642C86.7632 73.105 87.0486 72.5804 87.2317 72.017L87.0479 71.9573L86.864 71.8976C86.6956 72.4157 86.433 72.8985 86.091 73.321L86.2412 73.4426ZM87.0479 71.9573L87.2339 72.0096L87.2984 71.7801L87.1123 71.7278L86.9262 71.6755L86.8618 71.905L87.0479 71.9573ZM87.1123 71.7278L87.3004 71.7724C87.4419 71.1759 87.4677 70.2938 87.4677 67.846L87.2744 67.846L87.0811 67.846C87.0811 70.3164 87.0527 71.1419 86.9242 71.6832L87.1123 71.7278ZM87.2744 67.846H87.4677V57.9573H87.2744H87.0811V67.846H87.2744ZM87.2744 57.9573L87.107 57.8608C87.0553 57.9504 87.0153 58.0215 86.9615 58.1146L87.1289 58.2112L87.2963 58.3078C87.3431 58.2267 87.3993 58.1276 87.4419 58.0538L87.2744 57.9573ZM25.3125 52.3352L25.1451 52.2386C24.4846 53.3826 24.2742 53.7882 24.1967 53.9808L24.376 54.053L24.5553 54.1251C24.6203 53.9635 24.8145 53.5844 25.4799 52.4319L25.3125 52.3352ZM24.376 54.053L24.1919 53.994L24.1519 54.119L24.3359 54.178L24.52 54.237L24.56 54.112L24.376 54.053ZM24.3359 54.178L24.1469 54.1378C24.1087 54.3174 24.1004 54.5013 24.1193 54.6816L24.3115 54.6614L24.5037 54.6412C24.4889 54.4996 24.4956 54.3565 24.525 54.2182L24.3359 54.178ZM24.3115 54.6614L24.1205 54.6905L24.1449 54.8507L24.3359 54.8216L24.527 54.7924L24.5026 54.6323L24.3115 54.6614ZM24.3359 54.8216L24.1469 54.8619C24.1658 54.9504 24.199 55.047 24.3318 55.305C24.4647 55.5632 24.7045 55.996 25.1461 56.761L25.3135 56.6643L25.4809 56.5677C25.0394 55.803 24.8038 55.3773 24.6754 55.128C24.547 54.8785 24.5329 54.8185 24.525 54.7812L24.3359 54.8216ZM25.3135 56.6643L25.1461 56.761L29.4166 64.1574L29.584 64.0608L29.7514 63.9642L25.4809 56.5677L25.3135 56.6643ZM29.584 64.0608H29.7773V44.9368H29.584H29.3907V64.0608H29.584ZM29.584 44.9368L29.4166 44.8401L25.1451 52.2386L25.3125 52.3352L25.4799 52.4319L29.7514 45.0334L29.584 44.9368ZM80.1807 64.0598L80.348 64.1565L84.6176 56.7619L84.4502 56.6653L84.2828 56.5687L80.0133 63.9632L80.1807 64.0598ZM84.4502 56.6653L84.6176 56.7619C85.0598 55.9959 85.2994 55.5628 85.432 55.3045C85.5646 55.0461 85.597 54.95 85.6158 54.8618L85.4268 54.8216L85.2377 54.7813C85.2297 54.8189 85.216 54.8788 85.0881 55.1279C84.9602 55.3771 84.7249 55.803 84.2828 56.5687L84.4502 56.6653ZM85.4268 54.8216L85.6177 54.8518L85.643 54.6917L85.4521 54.6614L85.2613 54.6311L85.2359 54.7913L85.4268 54.8216ZM85.4521 54.6614L85.6444 54.6815C85.6632 54.5014 85.6549 54.3172 85.6168 54.1378L85.4277 54.178L85.2387 54.2181C85.268 54.3563 85.2747 54.4998 85.2599 54.6413L85.4521 54.6614ZM85.4277 54.178L85.6118 54.119L85.5718 53.994L85.3877 54.053L85.2036 54.112L85.2437 54.237L85.4277 54.178ZM85.3877 54.053L85.567 53.9809C85.4896 53.7884 85.2783 53.3829 84.6176 52.2386L84.4502 52.3352L84.2828 52.4319C84.9487 53.5853 85.1435 53.9638 85.2084 54.1251L85.3877 54.053ZM84.4502 52.3352L84.6176 52.2386L80.348 44.8431L80.1807 44.9397L80.0133 45.0363L84.2828 52.4319L84.4502 52.3352ZM80.1807 44.9397H79.9874V64.0598H80.1807H80.3739V44.9397H80.1807ZM27.1279 33.1204L27.0313 32.953C24.9117 34.1767 24.1609 34.6402 23.715 35.0609L23.8477 35.2014L23.9803 35.342C24.385 34.9602 25.0855 34.5228 27.2246 33.2878L27.1279 33.1204ZM23.8477 35.2014L23.7094 35.0664L23.5424 35.2373L23.6807 35.3723L23.8189 35.5074L23.9859 35.3365L23.8477 35.2014ZM23.6807 35.3723L23.537 35.243C23.1405 35.6834 22.8293 36.1928 22.6174 36.7444L22.7979 36.8137L22.9783 36.883C23.1733 36.3753 23.4597 35.9066 23.8243 35.5017L23.6807 35.3723ZM22.7979 36.8137L22.6159 36.7487L22.5338 36.9782L22.7158 37.0432L22.8978 37.1083L22.9799 36.8788L22.7979 36.8137ZM22.7158 37.0432L22.532 36.9835C22.3292 37.608 22.296 38.3602 22.296 41.1546L22.4893 41.1546L22.6825 41.1546C22.6825 38.3299 22.7205 37.6545 22.8996 37.1029L22.7158 37.0432ZM22.4893 41.1546H22.296V51.0432H22.4893H22.6825V41.1546H22.4893ZM22.4893 51.0432L22.657 51.1393L22.8025 50.8854L22.6348 50.7893L22.4671 50.6932L22.3216 50.9471L22.4893 51.0432ZM22.6348 50.7893L22.8021 50.886L35.7123 28.5256L35.5449 28.429L35.3775 28.3323L22.4674 50.6927L22.6348 50.7893ZM35.5449 28.429L35.7123 28.5256C35.763 28.4377 35.8114 28.3537 35.8587 28.2718L35.6914 28.1751L35.5241 28.0783C35.4768 28.1601 35.4277 28.2455 35.3775 28.3323L35.5449 28.429ZM35.6914 28.1751L35.5948 28.0077L27.0313 32.953L27.1279 33.1204L27.2246 33.2878L35.7881 28.3424L35.6914 28.1751ZM74.2188 28.429L74.0514 28.5256L86.9615 50.885L87.1289 50.7883L87.2963 50.6917L74.3861 28.3323L74.2188 28.429ZM87.1289 50.7883L86.9612 50.8844L87.1067 51.1384L87.2744 51.0423L87.4421 50.9462L87.2966 50.6922L87.1289 50.7883ZM87.2744 51.0423H87.4677V41.1546H87.2744H87.0811V51.0423H87.2744ZM87.2744 41.1546L87.4677 41.1546C87.4677 38.7082 87.4416 37.8256 87.3004 37.2292L87.1123 37.2737L86.9242 37.3182C87.0524 37.8596 87.0811 38.6857 87.0811 41.1546L87.2744 41.1546ZM87.1123 37.2737L87.2984 37.2216L87.234 36.9912L87.0479 37.0432L86.8617 37.0953L86.9262 37.3258L87.1123 37.2737ZM87.0479 37.0432L87.2317 36.9835C87.0486 36.4202 86.7631 35.8955 86.3915 35.4363L86.2412 35.5579L86.091 35.6795C86.433 36.102 86.6957 36.5849 86.864 37.103L87.0479 37.0432ZM86.2412 35.5579L86.3883 35.4325L86.2301 35.2469L86.083 35.3723L85.9359 35.4977L86.0941 35.6833L86.2412 35.5579ZM86.083 35.3723L86.2266 35.243C85.7872 34.7551 85.1517 34.3498 82.7324 32.953L82.6357 33.1204L82.5391 33.2878C84.9847 34.6998 85.5513 35.0708 85.9394 35.5017L86.083 35.3723ZM82.6357 33.1204L82.7324 32.953L74.1679 28.0077L74.0713 28.1751L73.9746 28.3424L82.5391 33.2878L82.6357 33.1204ZM74.0713 28.1751L73.904 28.2718C73.9537 28.3578 73.9994 28.4356 74.0514 28.5256L74.2188 28.429L74.3861 28.3323C74.3373 28.2477 74.2835 28.156 74.2386 28.0783L74.0713 28.1751ZM41.9727 27.8098L41.9727 27.6166C40.6531 27.6166 40.1954 27.6372 39.9895 27.6663L40.0166 27.8577L40.0437 28.0491C40.2166 28.0246 40.6434 28.0031 41.9727 28.0031L41.9727 27.8098ZM40.0166 27.8577L39.9754 27.6688L39.8455 27.6972L39.8867 27.886L39.9279 28.0748L40.0578 28.0465L40.0166 27.8577ZM39.8867 27.886L39.8269 27.7022C39.6537 27.7586 39.4905 27.8418 39.3436 27.9483L39.457 28.1048L39.5705 28.2612C39.6847 28.1784 39.8117 28.1136 39.9465 28.0698L39.8867 27.886ZM39.457 28.1048L39.335 27.9549L39.209 28.0574L39.3311 28.2073L39.4531 28.3572L39.579 28.2547L39.457 28.1048ZM39.3311 28.2073L39.2017 28.0637C39.1347 28.124 39.0677 28.2 38.9104 28.4439C38.753 28.6879 38.4977 29.1119 38.0553 29.8782L38.2227 29.9749L38.39 30.0715C38.8323 29.3055 39.0834 28.8887 39.2352 28.6535C39.3869 28.4183 39.4318 28.3766 39.4604 28.3509L39.3311 28.2073ZM38.2227 29.9749L38.0553 29.8782L33.7838 37.2747L33.9512 37.3714L34.1185 37.468L38.39 30.0715L38.2227 29.9749ZM33.9512 37.3714L34.0478 37.5387L50.6103 27.9772L50.5137 27.8098L50.417 27.6424L33.8545 37.204L33.9512 37.3714ZM50.5137 27.8098V27.6166H41.9727V27.8098V28.0031H50.5137V27.8098ZM75.8105 37.3704L75.9779 37.2737L71.7084 29.8782L71.541 29.9749L71.3736 30.0715L75.6432 37.467L75.8105 37.3704ZM71.541 29.9749L71.7084 29.8782C71.0478 28.734 70.8016 28.3481 70.6736 28.1847L70.5215 28.304L70.3694 28.4232C70.4767 28.5602 70.7079 28.9185 71.3736 30.0715L71.541 29.9749ZM70.5215 28.304L70.6645 28.174L70.5766 28.0773L70.4336 28.2073L70.2906 28.3373L70.3785 28.434L70.5215 28.304ZM70.4336 28.2073L70.5629 28.0636C70.427 27.9413 70.2721 27.8411 70.106 27.7671L70.0273 27.9436L69.9487 28.1202C70.0781 28.1778 70.1988 28.256 70.3043 28.3509L70.4336 28.2073ZM70.0273 27.9436L70.0961 27.763L69.9447 27.7054L69.876 27.886L69.8072 28.0666L69.9586 28.1243L70.0273 27.9436ZM69.876 27.886L69.9356 27.7022C69.8496 27.6743 69.7494 27.6546 69.4595 27.6405C69.1693 27.6264 68.6745 27.6175 67.791 27.6175L67.791 27.8108L67.791 28.0041C68.6741 28.0041 69.1607 28.013 69.4407 28.0266C69.721 28.0402 69.78 28.0581 69.8164 28.0699L69.876 27.886ZM67.791 27.8108L67.791 27.6175L59.25 27.6166L59.25 27.8098L59.25 28.0031L67.791 28.0041L67.791 27.8108ZM59.25 27.8098L59.1534 27.9772L75.7139 37.5378L75.8105 37.3704L75.9072 37.203L59.3466 27.6424L59.25 27.8098ZM55.8467 17.9153L55.8869 17.7262C55.2248 17.5855 54.5398 17.5857 53.8778 17.7262L53.918 17.9153L53.9581 18.1044C54.5672 17.975 55.1975 17.9749 55.8065 18.1044L55.8467 17.9153ZM53.918 17.9153L53.8778 17.7262C53.2354 17.8628 52.567 18.2098 50.1465 19.6073L50.2432 19.7747L50.3398 19.9421C52.7865 18.5295 53.3908 18.225 53.9582 18.1044L53.918 17.9153ZM50.2432 19.7747L50.1465 19.6073L41.5821 24.5516L41.6787 24.719L41.7753 24.8864L50.3398 19.9421L50.2432 19.7747ZM41.6787 24.719L41.6789 24.9123C41.7815 24.9122 41.8651 24.9113 41.9717 24.9113L41.9717 24.718L41.9717 24.5248C41.8769 24.5248 41.7647 24.5257 41.6786 24.5257L41.6787 24.719ZM41.9717 24.718V24.9113H67.792V24.718V24.5248H41.9717V24.718ZM67.792 24.718L67.792 24.9113C67.9008 24.9113 67.979 24.9122 68.0839 24.9123L68.084 24.719L68.0841 24.5257C68.0008 24.5257 67.8839 24.5248 67.792 24.5248L67.792 24.718ZM68.084 24.719L68.1806 24.5516L59.6171 19.6073L59.5205 19.7747L59.4239 19.9421L67.9873 24.8864L68.084 24.719ZM59.5205 19.7747L59.6171 19.6073C57.4984 18.384 56.7207 17.9656 56.1336 17.7897L56.0781 17.9749L56.0227 18.16C56.5556 18.3197 57.2858 18.7076 59.4239 19.9421L59.5205 19.7747ZM56.0781 17.9749L56.1263 17.7877L55.8949 17.7281L55.8467 17.9153L55.7985 18.1025L56.0299 18.162L56.0781 17.9749Z" fill="url(#paint6_linear_247_5136)" mask="url(#path-11-inside-1_247_5136)"/>
</g>
</g>
</g>
<g filter="url(#filter2_d_247_5136)">
<path d="M43.3954 53.4974C41.6467 55.4018 42.8682 58.4838 45.4468 58.6731L51.0951 59.0877L49.6134 69.5798C49.4011 71.0832 51.2565 71.9601 52.2834 70.8418L66.3682 55.5029C68.117 53.5985 66.8954 50.5165 64.3168 50.3272L58.6685 49.9125L60.1502 39.4204C60.3625 37.9171 58.5072 37.0401 57.4803 38.1584L43.3954 53.4974Z" fill="white"/>
<path d="M57.5137 37.9877C58.5854 36.9965 60.3466 37.8292 60.2607 39.2866L60.2461 39.434L58.7783 49.8227L64.3242 50.2309L64.5693 50.2573C66.9785 50.6114 68.112 53.4719 66.5996 55.3803L66.4395 55.5678L52.3545 70.9067C51.2634 72.0949 49.292 71.1632 49.5176 69.5659L50.9844 59.1762L45.4395 58.769C42.7805 58.5736 41.521 55.396 43.3242 53.4321L57.4092 38.0932L57.5137 37.9877Z" stroke="url(#paint7_linear_247_5136)" stroke-width="0.193277" stroke-linecap="round" style="mix-blend-mode:color-burn"/>
</g>
</g>
<defs>
<filter id="filter0_dddd_247_5136" x="6.64213" y="12.4019" width="96.4833" height="126.331" filterUnits="userSpaceOnUse" color-interpolation-filters="sRGB">
<feFlood flood-opacity="0" result="BackgroundImageFix"/>
<feColorMatrix in="SourceAlpha" type="matrix" values="0 0 0 0 0 0 0 0 0 0 0 0 0 0 0 0 0 0 127 0" result="hardAlpha"/>
<feOffset dy="1.93277"/>
<feGaussianBlur stdDeviation="2.12605"/>
<feColorMatrix type="matrix" values="0 0 0 0 0 0 0 0 0 0 0 0 0 0 0 0 0 0 0.24 0"/>
<feBlend mode="normal" in2="BackgroundImageFix" result="effect1_dropShadow_247_5136"/>
<feColorMatrix in="SourceAlpha" type="matrix" values="0 0 0 0 0 0 0 0 0 0 0 0 0 0 0 0 0 0 127 0" result="hardAlpha"/>
<feOffset dy="8.11765"/>
<feGaussianBlur stdDeviation="4.05882"/>
<feColorMatrix type="matrix" values="0 0 0 0 0 0 0 0 0 0 0 0 0 0 0 0 0 0 0.21 0"/>
<feBlend mode="normal" in2="effect1_dropShadow_247_5136" result="effect2_dropShadow_247_5136"/>
<feColorMatrix in="SourceAlpha" type="matrix" values="0 0 0 0 0 0 0 0 0 0 0 0 0 0 0 0 0 0 127 0" result="hardAlpha"/>
<feOffset dy="17.7815"/>
<feGaussianBlur stdDeviation="5.41176"/>
<feColorMatrix type="matrix" values="0 0 0 0 0 0 0 0 0 0 0 0 0 0 0 0 0 0 0.12 0"/>
<feBlend mode="normal" in2="effect2_dropShadow_247_5136" result="effect3_dropShadow_247_5136"/>
<feColorMatrix in="SourceAlpha" type="matrix" values="0 0 0 0 0 0 0 0 0 0 0 0 0 0 0 0 0 0 127 0" result="hardAlpha"/>
<feOffset dy="31.6975"/>
<feGaussianBlur stdDeviation="6.37815"/>
<feColorMatrix type="matrix" values="0 0 0 0 0 0 0 0 0 0 0 0 0 0 0 0 0 0 0.04 0"/>
<feBlend mode="normal" in2="effect3_dropShadow_247_5136" result="effect4_dropShadow_247_5136"/>
<feBlend mode="normal" in="SourceGraphic" in2="effect4_dropShadow_247_5136" result="shape"/>
</filter>
<filter id="filter1_d_247_5136" x="16.304" y="12.4027" width="77.1556" height="85.7417" filterUnits="userSpaceOnUse" color-interpolation-filters="sRGB">
<feFlood flood-opacity="0" result="BackgroundImageFix"/>
<feColorMatrix in="SourceAlpha" type="matrix" values="0 0 0 0 0 0 0 0 0 0 0 0 0 0 0 0 0 0 127 0" result="hardAlpha"/>
<feOffset dy="0.773109"/>
<feGaussianBlur stdDeviation="1.54622"/>
<feColorMatrix type="matrix" values="0 0 0 0 0 0 0 0 0 0 0 0 0 0 0 0 0 0 0.16 0"/>
<feBlend mode="color-burn" in2="BackgroundImageFix" result="effect1_dropShadow_247_5136"/>
<feBlend mode="normal" in="SourceGraphic" in2="effect1_dropShadow_247_5136" result="shape"/>
</filter>
<filter id="filter2_d_247_5136" x="37.7442" y="33.5933" width="34.2754" height="43.3598" filterUnits="userSpaceOnUse" color-interpolation-filters="sRGB">
<feFlood flood-opacity="0" result="BackgroundImageFix"/>
<feColorMatrix in="SourceAlpha" type="matrix" values="0 0 0 0 0 0 0 0 0 0 0 0 0 0 0 0 0 0 127 0" result="hardAlpha"/>
<feOffset dy="0.773109"/>
<feGaussianBlur stdDeviation="2.31933"/>
<feColorMatrix type="matrix" values="0 0 0 0 0 0 0 0 0 0 0 0 0 0 0 0 0 0 0.12 0"/>
<feBlend mode="plus-darker" in2="BackgroundImageFix" result="effect1_dropShadow_247_5136"/>
<feBlend mode="normal" in="SourceGraphic" in2="effect1_dropShadow_247_5136" result="shape"/>
</filter>
<linearGradient id="paint0_linear_247_5136" x1="13.9082" y1="13.5252" x2="13.9082" y2="95.4748" gradientUnits="userSpaceOnUse">
<stop stop-color="#FFEDAF"/>
<stop offset="1" stop-color="#F2BE2F"/>
</linearGradient>
<linearGradient id="paint1_linear_247_5136" x1="54.8833" y1="12.6471" x2="54.8833" y2="95.7917" gradientUnits="userSpaceOnUse">
<stop stop-color="white"/>
<stop offset="1" stop-color="white" stop-opacity="0"/>
</linearGradient>
<radialGradient id="paint2_radial_247_5136" cx="0" cy="0" r="1" gradientUnits="userSpaceOnUse" gradientTransform="translate(54.8833 36.5291) rotate(90) scale(54.8401 41.6083)">
<stop stop-color="white"/>
<stop offset="1" stop-color="white" stop-opacity="0"/>
</radialGradient>
<linearGradient id="paint3_linear_247_5136" x1="54.8813" y1="12.647" x2="54.8813" y2="95.7916" gradientUnits="userSpaceOnUse">
<stop stop-color="white"/>
<stop offset="1" stop-color="white" stop-opacity="0"/>
</linearGradient>
<radialGradient id="paint4_radial_247_5136" cx="0" cy="0" r="1" gradientUnits="userSpaceOnUse" gradientTransform="translate(54.8813 36.529) rotate(90) scale(54.8401 41.6083)">
<stop stop-color="white"/>
<stop offset="1" stop-color="white" stop-opacity="0"/>
</radialGradient>
<linearGradient id="paint5_linear_247_5136" x1="0.763672" y1="0.382355" x2="0.763672" y2="108.618" gradientUnits="userSpaceOnUse">
<stop offset="0.135095" stop-color="white"/>
<stop offset="0.877908" stop-color="white" stop-opacity="0.01"/>
</linearGradient>
<linearGradient id="paint6_linear_247_5136" x1="54.8818" y1="14.722" x2="54.8818" y2="94.2788" gradientUnits="userSpaceOnUse">
<stop stop-color="white"/>
<stop offset="1" stop-color="#999999"/>
</linearGradient>
<linearGradient id="paint7_linear_247_5136" x1="54.8818" y1="37.6528" x2="54.8818" y2="71.3475" gradientUnits="userSpaceOnUse">
<stop stop-color="#DFDFDF"/>
<stop offset="1" stop-color="#A9A9A9"/>
</linearGradient>
</defs>
</svg>
