<svg width="150" height="96" viewBox="0 0 150 96" fill="none" xmlns="http://www.w3.org/2000/svg">
<path d="M109.854 17.0256C160.435 17.0257 201.422 57.2119 201.422 106.763C201.422 156.314 160.435 196.5 109.854 196.5C59.2724 196.5 18.2852 156.314 18.2852 106.763C18.2852 57.2118 59.2723 17.0256 109.854 17.0256Z" stroke="white" stroke-opacity="0.35"/>
<path d="M109.855 -2.32968C165.684 -2.32959 210.84 37.9008 210.84 87.4076C210.84 136.914 165.684 177.145 109.855 177.145C54.0266 177.145 8.87114 136.914 8.87109 87.4076C8.87109 37.9007 54.0266 -2.32968 109.855 -2.32968Z" stroke="white" stroke-opacity="0.35"/>
<path d="M109.854 -17.5C170.345 -17.4998 219.208 22.7644 219.208 72.2373C219.208 121.71 170.345 161.974 109.854 161.975C49.3635 161.975 0.500055 121.71 0.5 72.2373C0.5 22.7643 49.3634 -17.5 109.854 -17.5Z" stroke="white" stroke-opacity="0.35"/>
</svg>
