<svg width="96" height="43" viewBox="0 0 96 43" fill="none" xmlns="http://www.w3.org/2000/svg">
<g filter="url(#filter0_d_245_4367)">
<path fill-rule="evenodd" clip-rule="evenodd" d="M47.9995 25.9999L46.6852 26.6909C44.8413 27.6603 43.9194 28.145 43.2377 28.0186C42.6445 27.9086 42.1328 27.5367 41.8449 27.0066C41.514 26.3974 41.69 25.3708 42.0422 23.3175L42.2932 21.854L41.2299 20.8176C39.7381 19.3635 38.9923 18.6364 38.9019 17.949C38.8232 17.3509 39.0187 16.7493 39.4339 16.3117C39.9111 15.8087 40.9418 15.6589 43.0034 15.3594L44.4728 15.1458L45.13 13.8143C46.0519 11.9462 46.5129 11.0122 47.1387 10.7138C47.6832 10.4541 48.3158 10.4541 48.8603 10.7138C49.4862 11.0122 49.9471 11.9462 50.8691 13.8143L51.5262 15.1458L52.9957 15.3594C55.0572 15.6589 56.088 15.8087 56.5652 16.3117C56.9804 16.7493 57.1759 17.3509 57.0972 17.949C57.0068 18.6364 56.2609 19.3635 54.7692 20.8176L53.7059 21.854L53.9569 23.3175C54.309 25.3708 54.4851 26.3974 54.1542 27.0066C53.8663 27.5367 53.3545 27.9086 52.7614 28.0186C52.0797 28.145 51.1578 27.6603 49.3138 26.6909L47.9995 25.9999Z" fill="white"/>
<path d="M47.2646 10.3921C47.8196 10.2003 48.4317 10.2323 48.9678 10.4878L49.1074 10.5649C49.4253 10.7631 49.6922 11.0958 49.9668 11.5444C50.2829 12.0608 50.635 12.774 51.0938 13.7036L51.6914 14.9165L53.0312 15.1118L54.3965 15.3169C54.7947 15.3816 55.1384 15.4456 55.4326 15.5161C56.0171 15.6561 56.4551 15.8327 56.7461 16.1392L56.9102 16.3325C57.2133 16.734 57.3734 17.226 57.3643 17.729L57.3447 17.9819C57.2895 18.401 57.0391 18.8013 56.6484 19.2583C56.4517 19.4884 56.2111 19.7422 55.9268 20.0288L54.9434 20.9966L53.9736 21.9409L54.2031 23.2749L54.4297 24.6362C54.4912 25.0353 54.5366 25.3823 54.5605 25.6841C54.6021 26.2086 54.5822 26.6347 54.4414 26.9819L54.374 27.1255C54.0906 27.6473 53.6144 28.0335 53.0527 28.2046L52.8066 28.2642C52.3911 28.3411 51.9332 28.2269 51.3779 27.9966C51.0983 27.8806 50.7823 27.7302 50.4219 27.5483L49.1973 26.9126L47.999 26.2817L46.8018 26.9126C45.8842 27.395 45.1803 27.7646 44.6211 27.9966C44.135 28.1982 43.7234 28.3114 43.3496 28.2847L43.1924 28.2642C42.6086 28.1559 42.0941 27.8226 41.7578 27.3413L41.625 27.1255C41.4235 26.7541 41.3911 26.2832 41.4385 25.6841C41.4863 25.0805 41.6207 24.2966 41.7959 23.2749L42.0244 21.9399L41.0557 20.9966C40.3134 20.2731 39.744 19.7185 39.3506 19.2583C39.0087 18.8584 38.7738 18.5019 38.6836 18.1382L38.6543 17.9819C38.5658 17.3091 38.7858 16.6315 39.2529 16.1392L39.3682 16.0308C39.6549 15.7894 40.0545 15.6387 40.5664 15.5161C41.1552 15.3751 41.942 15.2609 42.9678 15.1118L44.3076 14.9165L44.9062 13.7036L45.5225 12.4692C45.7072 12.1103 45.8742 11.8026 46.0322 11.5444C46.3461 11.0317 46.6497 10.6697 47.0312 10.4878L47.2646 10.3921Z" stroke="url(#paint0_linear_245_4367)" stroke-width="0.5" stroke-linecap="round" style="mix-blend-mode:color-burn"/>
</g>
<defs>
<filter id="filter0_d_245_4367" x="26.3848" y="0.019043" width="43.2295" height="42.5193" filterUnits="userSpaceOnUse" color-interpolation-filters="sRGB">
<feFlood flood-opacity="0" result="BackgroundImageFix"/>
<feColorMatrix in="SourceAlpha" type="matrix" values="0 0 0 0 0 0 0 0 0 0 0 0 0 0 0 0 0 0 127 0" result="hardAlpha"/>
<feOffset dy="2"/>
<feGaussianBlur stdDeviation="6"/>
<feColorMatrix type="matrix" values="0 0 0 0 0 0 0 0 0 0 0 0 0 0 0 0 0 0 0.12 0"/>
<feBlend mode="plus-darker" in2="BackgroundImageFix" result="effect1_dropShadow_245_4367"/>
<feBlend mode="normal" in="SourceGraphic" in2="effect1_dropShadow_245_4367" result="shape"/>
</filter>
<linearGradient id="paint0_linear_245_4367" x1="47.9995" y1="10.519" x2="47.9995" y2="28.0383" gradientUnits="userSpaceOnUse">
<stop stop-color="#DFDFDF"/>
<stop offset="1" stop-color="#A9A9A9"/>
</linearGradient>
</defs>
</svg>
