<svg width="216" height="60" viewBox="0 0 216 60" fill="none" xmlns="http://www.w3.org/2000/svg">
<g filter="url(#filter0_dd_245_4386)">
<rect x="12" y="8" width="192" height="36" fill="#FFA00F"/>
<rect x="12.25" y="8.25" width="191.5" height="35.5" stroke="url(#paint0_linear_245_4386)" stroke-width="0.5" stroke-linecap="round" style="mix-blend-mode:darken"/>
</g>
<rect x="12" y="8" width="192" height="36" fill="url(#paint1_linear_245_4386)" fill-opacity="0.3" style="mix-blend-mode:overlay"/>
<rect x="12" y="8" width="192" height="36" fill="url(#paint2_radial_245_4386)" fill-opacity="0.6" style="mix-blend-mode:overlay"/>
<g filter="url(#filter1_i_245_4386)">
<path fill-rule="evenodd" clip-rule="evenodd" d="M156 31.9999L154.685 32.6909C152.841 33.6603 151.919 34.145 151.238 34.0186C150.645 33.9086 150.133 33.5367 149.845 33.0066C149.514 32.3974 149.69 31.3708 150.042 29.3175L150.293 27.854L149.23 26.8176C147.738 25.3635 146.992 24.6364 146.902 23.949C146.823 23.3509 147.019 22.7493 147.434 22.3117C147.911 21.8087 148.942 21.6589 151.003 21.3594L152.473 21.1458L153.13 19.8143C154.052 17.9462 154.513 17.0122 155.139 16.7138C155.683 16.4541 156.316 16.4541 156.86 16.7138C157.486 17.0122 157.947 17.9462 158.869 19.8143L159.526 21.1458L160.996 21.3594C163.057 21.6589 164.088 21.8087 164.565 22.3117C164.98 22.7493 165.176 23.3509 165.097 23.949C165.007 24.6364 164.261 25.3635 162.769 26.8176L161.706 27.854L161.957 29.3175C162.309 31.3708 162.485 32.3974 162.154 33.0066C161.866 33.5367 161.355 33.9086 160.761 34.0186C160.08 34.145 159.158 33.6603 157.314 32.6909L156 31.9999Z" fill="black" fill-opacity="0.24" style="mix-blend-mode:color-burn"/>
<path fill-rule="evenodd" clip-rule="evenodd" d="M156 31.9999L154.685 32.6909C152.841 33.6603 151.919 34.145 151.238 34.0186C150.645 33.9086 150.133 33.5367 149.845 33.0066C149.514 32.3974 149.69 31.3708 150.042 29.3175L150.293 27.854L149.23 26.8176C147.738 25.3635 146.992 24.6364 146.902 23.949C146.823 23.3509 147.019 22.7493 147.434 22.3117C147.911 21.8087 148.942 21.6589 151.003 21.3594L152.473 21.1458L153.13 19.8143C154.052 17.9462 154.513 17.0122 155.139 16.7138C155.683 16.4541 156.316 16.4541 156.86 16.7138C157.486 17.0122 157.947 17.9462 158.869 19.8143L159.526 21.1458L160.996 21.3594C163.057 21.6589 164.088 21.8087 164.565 22.3117C164.98 22.7493 165.176 23.3509 165.097 23.949C165.007 24.6364 164.261 25.3635 162.769 26.8176L161.706 27.854L161.957 29.3175C162.309 31.3708 162.485 32.3974 162.154 33.0066C161.866 33.5367 161.355 33.9086 160.761 34.0186C160.08 34.145 159.158 33.6603 157.314 32.6909L156 31.9999Z" fill="black" fill-opacity="0.32" style="mix-blend-mode:darken"/>
</g>
<g filter="url(#filter2_i_245_4386)">
<path fill-rule="evenodd" clip-rule="evenodd" d="M132 31.9999L130.685 32.6909C128.841 33.6603 127.919 34.145 127.238 34.0186C126.645 33.9086 126.133 33.5367 125.845 33.0066C125.514 32.3974 125.69 31.3708 126.042 29.3175L126.293 27.854L125.23 26.8176C123.738 25.3635 122.992 24.6364 122.902 23.949C122.823 23.3509 123.019 22.7493 123.434 22.3117C123.911 21.8087 124.942 21.6589 127.003 21.3594L128.473 21.1458L129.13 19.8143C130.052 17.9462 130.513 17.0122 131.139 16.7138C131.683 16.4541 132.316 16.4541 132.86 16.7138C133.486 17.0122 133.947 17.9462 134.869 19.8143L135.526 21.1458L136.996 21.3594C139.057 21.6589 140.088 21.8087 140.565 22.3117C140.98 22.7493 141.176 23.3509 141.097 23.949C141.007 24.6364 140.261 25.3635 138.769 26.8176L137.706 27.854L137.957 29.3175C138.309 31.3708 138.485 32.3974 138.154 33.0066C137.866 33.5367 137.355 33.9086 136.761 34.0186C136.08 34.145 135.158 33.6603 133.314 32.6909L132 31.9999Z" fill="black" fill-opacity="0.24" style="mix-blend-mode:color-burn"/>
<path fill-rule="evenodd" clip-rule="evenodd" d="M132 31.9999L130.685 32.6909C128.841 33.6603 127.919 34.145 127.238 34.0186C126.645 33.9086 126.133 33.5367 125.845 33.0066C125.514 32.3974 125.69 31.3708 126.042 29.3175L126.293 27.854L125.23 26.8176C123.738 25.3635 122.992 24.6364 122.902 23.949C122.823 23.3509 123.019 22.7493 123.434 22.3117C123.911 21.8087 124.942 21.6589 127.003 21.3594L128.473 21.1458L129.13 19.8143C130.052 17.9462 130.513 17.0122 131.139 16.7138C131.683 16.4541 132.316 16.4541 132.86 16.7138C133.486 17.0122 133.947 17.9462 134.869 19.8143L135.526 21.1458L136.996 21.3594C139.057 21.6589 140.088 21.8087 140.565 22.3117C140.98 22.7493 141.176 23.3509 141.097 23.949C141.007 24.6364 140.261 25.3635 138.769 26.8176L137.706 27.854L137.957 29.3175C138.309 31.3708 138.485 32.3974 138.154 33.0066C137.866 33.5367 137.355 33.9086 136.761 34.0186C136.08 34.145 135.158 33.6603 133.314 32.6909L132 31.9999Z" fill="black" fill-opacity="0.32" style="mix-blend-mode:darken"/>
</g>
<g filter="url(#filter3_i_245_4386)">
<path fill-rule="evenodd" clip-rule="evenodd" d="M108 31.9999L106.685 32.6909C104.841 33.6603 103.919 34.145 103.238 34.0186C102.645 33.9086 102.133 33.5367 101.845 33.0066C101.514 32.3974 101.69 31.3708 102.042 29.3175L102.293 27.854L101.23 26.8176C99.7381 25.3635 98.9923 24.6364 98.9019 23.949C98.8232 23.3509 99.0187 22.7493 99.4339 22.3117C99.9111 21.8087 100.942 21.6589 103.003 21.3594L104.473 21.1458L105.13 19.8143C106.052 17.9462 106.513 17.0122 107.139 16.7138C107.683 16.4541 108.316 16.4541 108.86 16.7138C109.486 17.0122 109.947 17.9462 110.869 19.8143L111.526 21.1458L112.996 21.3594C115.057 21.6589 116.088 21.8087 116.565 22.3117C116.98 22.7493 117.176 23.3509 117.097 23.949C117.007 24.6364 116.261 25.3635 114.769 26.8176L113.706 27.854L113.957 29.3175C114.309 31.3708 114.485 32.3974 114.154 33.0066C113.866 33.5367 113.355 33.9086 112.761 34.0186C112.08 34.145 111.158 33.6603 109.314 32.6909L108 31.9999Z" fill="black" fill-opacity="0.24" style="mix-blend-mode:color-burn"/>
<path fill-rule="evenodd" clip-rule="evenodd" d="M108 31.9999L106.685 32.6909C104.841 33.6603 103.919 34.145 103.238 34.0186C102.645 33.9086 102.133 33.5367 101.845 33.0066C101.514 32.3974 101.69 31.3708 102.042 29.3175L102.293 27.854L101.23 26.8176C99.7381 25.3635 98.9923 24.6364 98.9019 23.949C98.8232 23.3509 99.0187 22.7493 99.4339 22.3117C99.9111 21.8087 100.942 21.6589 103.003 21.3594L104.473 21.1458L105.13 19.8143C106.052 17.9462 106.513 17.0122 107.139 16.7138C107.683 16.4541 108.316 16.4541 108.86 16.7138C109.486 17.0122 109.947 17.9462 110.869 19.8143L111.526 21.1458L112.996 21.3594C115.057 21.6589 116.088 21.8087 116.565 22.3117C116.98 22.7493 117.176 23.3509 117.097 23.949C117.007 24.6364 116.261 25.3635 114.769 26.8176L113.706 27.854L113.957 29.3175C114.309 31.3708 114.485 32.3974 114.154 33.0066C113.866 33.5367 113.355 33.9086 112.761 34.0186C112.08 34.145 111.158 33.6603 109.314 32.6909L108 31.9999Z" fill="black" fill-opacity="0.32" style="mix-blend-mode:darken"/>
</g>
<g filter="url(#filter4_d_245_4386)">
<path fill-rule="evenodd" clip-rule="evenodd" d="M83.9995 31.9999L82.6852 32.6909C80.8413 33.6603 79.9194 34.145 79.2377 34.0186C78.6445 33.9086 78.1328 33.5367 77.8449 33.0066C77.514 32.3974 77.69 31.3708 78.0422 29.3175L78.2932 27.854L77.2299 26.8176C75.7381 25.3635 74.9923 24.6364 74.9019 23.949C74.8232 23.3509 75.0187 22.7493 75.4339 22.3117C75.9111 21.8087 76.9418 21.6589 79.0034 21.3594L80.4728 21.1458L81.13 19.8143C82.0519 17.9462 82.5129 17.0122 83.1387 16.7138C83.6832 16.4541 84.3158 16.4541 84.8603 16.7138C85.4862 17.0122 85.9471 17.9462 86.8691 19.8143L87.5262 21.1458L88.9957 21.3594C91.0572 21.6589 92.088 21.8087 92.5652 22.3117C92.9804 22.7493 93.1759 23.3509 93.0972 23.949C93.0068 24.6364 92.2609 25.3635 90.7692 26.8176L89.7059 27.854L89.9569 29.3175C90.309 31.3708 90.4851 32.3974 90.1542 33.0066C89.8663 33.5367 89.3545 33.9086 88.7614 34.0186C88.0797 34.145 87.1578 33.6603 85.3138 32.6909L83.9995 31.9999Z" fill="white"/>
<path d="M83.2646 16.3921C83.8196 16.2003 84.4317 16.2323 84.9678 16.4878L85.1074 16.5649C85.4253 16.7631 85.6922 17.0958 85.9668 17.5444C86.2829 18.0608 86.635 18.774 87.0938 19.7036L87.6914 20.9165L89.0312 21.1118L90.3965 21.3169C90.7947 21.3816 91.1384 21.4456 91.4326 21.5161C92.0171 21.6561 92.4551 21.8327 92.7461 22.1392L92.9102 22.3325C93.2133 22.734 93.3734 23.226 93.3643 23.729L93.3447 23.9819C93.2895 24.401 93.0391 24.8013 92.6484 25.2583C92.4517 25.4884 92.2111 25.7422 91.9268 26.0288L90.9434 26.9966L89.9736 27.9409L90.2031 29.2749L90.4297 30.6362C90.4912 31.0353 90.5366 31.3823 90.5605 31.6841C90.6021 32.2086 90.5822 32.6347 90.4414 32.9819L90.374 33.1255C90.0906 33.6473 89.6144 34.0335 89.0527 34.2046L88.8066 34.2642C88.3911 34.3411 87.9332 34.2269 87.3779 33.9966C87.0983 33.8806 86.7823 33.7302 86.4219 33.5483L85.1973 32.9126L83.999 32.2817L82.8018 32.9126C81.8842 33.395 81.1803 33.7646 80.6211 33.9966C80.135 34.1982 79.7234 34.3114 79.3496 34.2847L79.1924 34.2642C78.6086 34.1559 78.0941 33.8226 77.7578 33.3413L77.625 33.1255C77.4235 32.7541 77.3911 32.2832 77.4385 31.6841C77.4863 31.0805 77.6207 30.2966 77.7959 29.2749L78.0244 27.9399L77.0557 26.9966C76.3134 26.2731 75.744 25.7185 75.3506 25.2583C75.0087 24.8584 74.7738 24.5019 74.6836 24.1382L74.6543 23.9819C74.5658 23.3091 74.7858 22.6315 75.2529 22.1392L75.3682 22.0308C75.6549 21.7894 76.0545 21.6387 76.5664 21.5161C77.1552 21.3751 77.942 21.2609 78.9678 21.1118L80.3076 20.9165L80.9062 19.7036L81.5225 18.4692C81.7072 18.1103 81.8742 17.8026 82.0322 17.5444C82.3461 17.0317 82.6497 16.6697 83.0312 16.4878L83.2646 16.3921Z" stroke="url(#paint3_linear_245_4386)" stroke-width="0.5" stroke-linecap="round" style="mix-blend-mode:color-burn"/>
</g>
<g filter="url(#filter5_d_245_4386)">
<path fill-rule="evenodd" clip-rule="evenodd" d="M59.9995 31.9999L58.6852 32.6909C56.8413 33.6603 55.9194 34.145 55.2377 34.0186C54.6445 33.9086 54.1328 33.5367 53.8449 33.0066C53.514 32.3974 53.69 31.3708 54.0422 29.3175L54.2932 27.854L53.2299 26.8176C51.7381 25.3635 50.9923 24.6364 50.9019 23.949C50.8232 23.3509 51.0187 22.7493 51.4339 22.3117C51.9111 21.8087 52.9418 21.6589 55.0034 21.3594L56.4728 21.1458L57.13 19.8143C58.0519 17.9462 58.5129 17.0122 59.1387 16.7138C59.6832 16.4541 60.3158 16.4541 60.8603 16.7138C61.4862 17.0122 61.9471 17.9462 62.8691 19.8143L63.5262 21.1458L64.9957 21.3594C67.0572 21.6589 68.088 21.8087 68.5652 22.3117C68.9804 22.7493 69.1759 23.3509 69.0972 23.949C69.0068 24.6364 68.2609 25.3635 66.7692 26.8176L65.7059 27.854L65.9569 29.3175C66.309 31.3708 66.4851 32.3974 66.1542 33.0066C65.8663 33.5367 65.3545 33.9086 64.7614 34.0186C64.0797 34.145 63.1578 33.6603 61.3138 32.6909L59.9995 31.9999Z" fill="white"/>
<path d="M59.2646 16.3921C59.8196 16.2003 60.4317 16.2323 60.9678 16.4878L61.1074 16.5649C61.4253 16.7631 61.6922 17.0958 61.9668 17.5444C62.2829 18.0608 62.635 18.774 63.0938 19.7036L63.6914 20.9165L65.0312 21.1118L66.3965 21.3169C66.7947 21.3816 67.1384 21.4456 67.4326 21.5161C68.0171 21.6561 68.4551 21.8327 68.7461 22.1392L68.9102 22.3325C69.2133 22.734 69.3734 23.226 69.3643 23.729L69.3447 23.9819C69.2895 24.401 69.0391 24.8013 68.6484 25.2583C68.4517 25.4884 68.2111 25.7422 67.9268 26.0288L66.9434 26.9966L65.9736 27.9409L66.2031 29.2749L66.4297 30.6362C66.4912 31.0353 66.5366 31.3823 66.5605 31.6841C66.6021 32.2086 66.5822 32.6347 66.4414 32.9819L66.374 33.1255C66.0906 33.6473 65.6144 34.0335 65.0527 34.2046L64.8066 34.2642C64.3911 34.3411 63.9332 34.2269 63.3779 33.9966C63.0983 33.8806 62.7823 33.7302 62.4219 33.5483L61.1973 32.9126L59.999 32.2817L58.8018 32.9126C57.8842 33.395 57.1803 33.7646 56.6211 33.9966C56.135 34.1982 55.7234 34.3114 55.3496 34.2847L55.1924 34.2642C54.6086 34.1559 54.0941 33.8226 53.7578 33.3413L53.625 33.1255C53.4235 32.7541 53.3911 32.2832 53.4385 31.6841C53.4863 31.0805 53.6207 30.2966 53.7959 29.2749L54.0244 27.9399L53.0557 26.9966C52.3134 26.2731 51.744 25.7185 51.3506 25.2583C51.0087 24.8584 50.7738 24.5019 50.6836 24.1382L50.6543 23.9819C50.5658 23.3091 50.7858 22.6315 51.2529 22.1392L51.3682 22.0308C51.6549 21.7894 52.0545 21.6387 52.5664 21.5161C53.1552 21.3751 53.942 21.2609 54.9678 21.1118L56.3076 20.9165L56.9062 19.7036L57.5225 18.4692C57.7072 18.1103 57.8742 17.8026 58.0322 17.5444C58.3461 17.0317 58.6497 16.6697 59.0312 16.4878L59.2646 16.3921Z" stroke="url(#paint4_linear_245_4386)" stroke-width="0.5" stroke-linecap="round" style="mix-blend-mode:color-burn"/>
</g>
<defs>
<filter id="filter0_dd_245_4386" x="0" y="0" width="216" height="60" filterUnits="userSpaceOnUse" color-interpolation-filters="sRGB">
<feFlood flood-opacity="0" result="BackgroundImageFix"/>
<feColorMatrix in="SourceAlpha" type="matrix" values="0 0 0 0 0 0 0 0 0 0 0 0 0 0 0 0 0 0 127 0" result="hardAlpha"/>
<feOffset dy="4"/>
<feGaussianBlur stdDeviation="6"/>
<feColorMatrix type="matrix" values="0 0 0 0 0 0 0 0 0 0 0 0 0 0 0 0 0 0 0.16 0"/>
<feBlend mode="normal" in2="BackgroundImageFix" result="effect1_dropShadow_245_4386"/>
<feColorMatrix in="SourceAlpha" type="matrix" values="0 0 0 0 0 0 0 0 0 0 0 0 0 0 0 0 0 0 127 0" result="hardAlpha"/>
<feOffset dy="2"/>
<feGaussianBlur stdDeviation="2"/>
<feColorMatrix type="matrix" values="0 0 0 0 0 0 0 0 0 0 0 0 0 0 0 0 0 0 0.24 0"/>
<feBlend mode="normal" in2="effect1_dropShadow_245_4386" result="effect2_dropShadow_245_4386"/>
<feBlend mode="normal" in="SourceGraphic" in2="effect2_dropShadow_245_4386" result="shape"/>
</filter>
<filter id="filter1_i_245_4386" x="146.885" y="16.519" width="18.2295" height="18.5193" filterUnits="userSpaceOnUse" color-interpolation-filters="sRGB">
<feFlood flood-opacity="0" result="BackgroundImageFix"/>
<feBlend mode="normal" in="SourceGraphic" in2="BackgroundImageFix" result="shape"/>
<feColorMatrix in="SourceAlpha" type="matrix" values="0 0 0 0 0 0 0 0 0 0 0 0 0 0 0 0 0 0 127 0" result="hardAlpha"/>
<feOffset dy="1"/>
<feGaussianBlur stdDeviation="1"/>
<feComposite in2="hardAlpha" operator="arithmetic" k2="-1" k3="1"/>
<feColorMatrix type="matrix" values="0 0 0 0 0 0 0 0 0 0 0 0 0 0 0 0 0 0 0.24 0"/>
<feBlend mode="darken" in2="shape" result="effect1_innerShadow_245_4386"/>
</filter>
<filter id="filter2_i_245_4386" x="122.885" y="16.519" width="18.2295" height="18.5193" filterUnits="userSpaceOnUse" color-interpolation-filters="sRGB">
<feFlood flood-opacity="0" result="BackgroundImageFix"/>
<feBlend mode="normal" in="SourceGraphic" in2="BackgroundImageFix" result="shape"/>
<feColorMatrix in="SourceAlpha" type="matrix" values="0 0 0 0 0 0 0 0 0 0 0 0 0 0 0 0 0 0 127 0" result="hardAlpha"/>
<feOffset dy="1"/>
<feGaussianBlur stdDeviation="1"/>
<feComposite in2="hardAlpha" operator="arithmetic" k2="-1" k3="1"/>
<feColorMatrix type="matrix" values="0 0 0 0 0 0 0 0 0 0 0 0 0 0 0 0 0 0 0.24 0"/>
<feBlend mode="darken" in2="shape" result="effect1_innerShadow_245_4386"/>
</filter>
<filter id="filter3_i_245_4386" x="98.8848" y="16.519" width="18.2295" height="18.5193" filterUnits="userSpaceOnUse" color-interpolation-filters="sRGB">
<feFlood flood-opacity="0" result="BackgroundImageFix"/>
<feBlend mode="normal" in="SourceGraphic" in2="BackgroundImageFix" result="shape"/>
<feColorMatrix in="SourceAlpha" type="matrix" values="0 0 0 0 0 0 0 0 0 0 0 0 0 0 0 0 0 0 127 0" result="hardAlpha"/>
<feOffset dy="1"/>
<feGaussianBlur stdDeviation="1"/>
<feComposite in2="hardAlpha" operator="arithmetic" k2="-1" k3="1"/>
<feColorMatrix type="matrix" values="0 0 0 0 0 0 0 0 0 0 0 0 0 0 0 0 0 0 0.24 0"/>
<feBlend mode="darken" in2="shape" result="effect1_innerShadow_245_4386"/>
</filter>
<filter id="filter4_d_245_4386" x="62.3848" y="6.01904" width="43.2295" height="42.5193" filterUnits="userSpaceOnUse" color-interpolation-filters="sRGB">
<feFlood flood-opacity="0" result="BackgroundImageFix"/>
<feColorMatrix in="SourceAlpha" type="matrix" values="0 0 0 0 0 0 0 0 0 0 0 0 0 0 0 0 0 0 127 0" result="hardAlpha"/>
<feOffset dy="2"/>
<feGaussianBlur stdDeviation="6"/>
<feColorMatrix type="matrix" values="0 0 0 0 0 0 0 0 0 0 0 0 0 0 0 0 0 0 0.12 0"/>
<feBlend mode="plus-darker" in2="BackgroundImageFix" result="effect1_dropShadow_245_4386"/>
<feBlend mode="normal" in="SourceGraphic" in2="effect1_dropShadow_245_4386" result="shape"/>
</filter>
<filter id="filter5_d_245_4386" x="38.3848" y="6.01904" width="43.2295" height="42.5193" filterUnits="userSpaceOnUse" color-interpolation-filters="sRGB">
<feFlood flood-opacity="0" result="BackgroundImageFix"/>
<feColorMatrix in="SourceAlpha" type="matrix" values="0 0 0 0 0 0 0 0 0 0 0 0 0 0 0 0 0 0 127 0" result="hardAlpha"/>
<feOffset dy="2"/>
<feGaussianBlur stdDeviation="6"/>
<feColorMatrix type="matrix" values="0 0 0 0 0 0 0 0 0 0 0 0 0 0 0 0 0 0 0.12 0"/>
<feBlend mode="plus-darker" in2="BackgroundImageFix" result="effect1_dropShadow_245_4386"/>
<feBlend mode="normal" in="SourceGraphic" in2="effect1_dropShadow_245_4386" result="shape"/>
</filter>
<linearGradient id="paint0_linear_245_4386" x1="108" y1="8" x2="108" y2="44" gradientUnits="userSpaceOnUse">
<stop stop-opacity="0"/>
<stop offset="1" stop-opacity="0.16"/>
</linearGradient>
<linearGradient id="paint1_linear_245_4386" x1="108" y1="8" x2="108" y2="44" gradientUnits="userSpaceOnUse">
<stop stop-color="white"/>
<stop offset="1" stop-color="white" stop-opacity="0"/>
</linearGradient>
<radialGradient id="paint2_radial_245_4386" cx="0" cy="0" r="1" gradientUnits="userSpaceOnUse" gradientTransform="translate(108 14.2821) rotate(90) scale(29.7179 96)">
<stop stop-color="white"/>
<stop offset="1" stop-color="white" stop-opacity="0"/>
</radialGradient>
<linearGradient id="paint3_linear_245_4386" x1="83.9995" y1="16.519" x2="83.9995" y2="34.0383" gradientUnits="userSpaceOnUse">
<stop stop-color="#DFDFDF"/>
<stop offset="1" stop-color="#A9A9A9"/>
</linearGradient>
<linearGradient id="paint4_linear_245_4386" x1="59.9995" y1="16.519" x2="59.9995" y2="34.0383" gradientUnits="userSpaceOnUse">
<stop stop-color="#DFDFDF"/>
<stop offset="1" stop-color="#A9A9A9"/>
</linearGradient>
</defs>
</svg>
