<svg width="216" height="60" viewBox="0 0 216 60" fill="none" xmlns="http://www.w3.org/2000/svg">
<g filter="url(#filter0_dd_245_4410)">
<rect x="12" y="8" width="192" height="36" fill="#FFA00F"/>
<rect x="12.25" y="8.25" width="191.5" height="35.5" stroke="url(#paint0_linear_245_4410)" stroke-width="0.5" stroke-linecap="round" style="mix-blend-mode:darken"/>
</g>
<rect x="12" y="8" width="192" height="36" fill="url(#paint1_linear_245_4410)" fill-opacity="0.3" style="mix-blend-mode:overlay"/>
<rect x="12" y="8" width="192" height="36" fill="url(#paint2_radial_245_4410)" fill-opacity="0.6" style="mix-blend-mode:overlay"/>
<g filter="url(#filter1_d_245_4410)">
<path fill-rule="evenodd" clip-rule="evenodd" d="M156 31.9999L154.685 32.6909C152.841 33.6603 151.919 34.145 151.238 34.0186C150.645 33.9086 150.133 33.5367 149.845 33.0066C149.514 32.3974 149.69 31.3708 150.042 29.3175L150.293 27.854L149.23 26.8176C147.738 25.3635 146.992 24.6364 146.902 23.949C146.823 23.3509 147.019 22.7493 147.434 22.3117C147.911 21.8087 148.942 21.6589 151.003 21.3594L152.473 21.1458L153.13 19.8143C154.052 17.9462 154.513 17.0122 155.139 16.7138C155.683 16.4541 156.316 16.4541 156.86 16.7138C157.486 17.0122 157.947 17.9462 158.869 19.8143L159.526 21.1458L160.996 21.3594C163.057 21.6589 164.088 21.8087 164.565 22.3117C164.98 22.7493 165.176 23.3509 165.097 23.949C165.007 24.6364 164.261 25.3635 162.769 26.8176L161.706 27.854L161.957 29.3175C162.309 31.3708 162.485 32.3974 162.154 33.0066C161.866 33.5367 161.355 33.9086 160.761 34.0186C160.08 34.145 159.158 33.6603 157.314 32.6909L156 31.9999Z" fill="white"/>
<path d="M155.265 16.3921C155.82 16.2003 156.432 16.2323 156.968 16.4878L157.107 16.5649C157.425 16.7631 157.692 17.0958 157.967 17.5444C158.283 18.0608 158.635 18.774 159.094 19.7036L159.691 20.9165L161.031 21.1118L162.396 21.3169C162.795 21.3816 163.138 21.4456 163.433 21.5161C164.017 21.6561 164.455 21.8327 164.746 22.1392L164.91 22.3325C165.213 22.734 165.373 23.226 165.364 23.729L165.345 23.9819C165.29 24.401 165.039 24.8013 164.648 25.2583C164.452 25.4884 164.211 25.7422 163.927 26.0288L162.943 26.9966L161.974 27.9409L162.203 29.2749L162.43 30.6362C162.491 31.0353 162.537 31.3823 162.561 31.6841C162.602 32.2086 162.582 32.6347 162.441 32.9819L162.374 33.1255C162.091 33.6473 161.614 34.0335 161.053 34.2046L160.807 34.2642C160.391 34.3411 159.933 34.2269 159.378 33.9966C159.098 33.8806 158.782 33.7302 158.422 33.5483L157.197 32.9126L155.999 32.2817L154.802 32.9126C153.884 33.395 153.18 33.7646 152.621 33.9966C152.135 34.1982 151.723 34.3114 151.35 34.2847L151.192 34.2642C150.609 34.1559 150.094 33.8226 149.758 33.3413L149.625 33.1255C149.423 32.7541 149.391 32.2832 149.438 31.6841C149.486 31.0805 149.621 30.2966 149.796 29.2749L150.024 27.9399L149.056 26.9966C148.313 26.2731 147.744 25.7185 147.351 25.2583C147.009 24.8584 146.774 24.5019 146.684 24.1382L146.654 23.9819C146.566 23.3091 146.786 22.6315 147.253 22.1392L147.368 22.0308C147.655 21.7894 148.055 21.6387 148.566 21.5161C149.155 21.3751 149.942 21.2609 150.968 21.1118L152.308 20.9165L152.906 19.7036L153.522 18.4692C153.707 18.1103 153.874 17.8026 154.032 17.5444C154.346 17.0317 154.65 16.6697 155.031 16.4878L155.265 16.3921Z" stroke="url(#paint3_linear_245_4410)" stroke-width="0.5" stroke-linecap="round" style="mix-blend-mode:color-burn"/>
</g>
<g filter="url(#filter2_d_245_4410)">
<path fill-rule="evenodd" clip-rule="evenodd" d="M132 31.9999L130.685 32.6909C128.841 33.6603 127.919 34.145 127.238 34.0186C126.645 33.9086 126.133 33.5367 125.845 33.0066C125.514 32.3974 125.69 31.3708 126.042 29.3175L126.293 27.854L125.23 26.8176C123.738 25.3635 122.992 24.6364 122.902 23.949C122.823 23.3509 123.019 22.7493 123.434 22.3117C123.911 21.8087 124.942 21.6589 127.003 21.3594L128.473 21.1458L129.13 19.8143C130.052 17.9462 130.513 17.0122 131.139 16.7138C131.683 16.4541 132.316 16.4541 132.86 16.7138C133.486 17.0122 133.947 17.9462 134.869 19.8143L135.526 21.1458L136.996 21.3594C139.057 21.6589 140.088 21.8087 140.565 22.3117C140.98 22.7493 141.176 23.3509 141.097 23.949C141.007 24.6364 140.261 25.3635 138.769 26.8176L137.706 27.854L137.957 29.3175C138.309 31.3708 138.485 32.3974 138.154 33.0066C137.866 33.5367 137.355 33.9086 136.761 34.0186C136.08 34.145 135.158 33.6603 133.314 32.6909L132 31.9999Z" fill="white"/>
<path d="M131.265 16.3921C131.82 16.2003 132.432 16.2323 132.968 16.4878L133.107 16.5649C133.425 16.7631 133.692 17.0958 133.967 17.5444C134.283 18.0608 134.635 18.774 135.094 19.7036L135.691 20.9165L137.031 21.1118L138.396 21.3169C138.795 21.3816 139.138 21.4456 139.433 21.5161C140.017 21.6561 140.455 21.8327 140.746 22.1392L140.91 22.3325C141.213 22.734 141.373 23.226 141.364 23.729L141.345 23.9819C141.29 24.401 141.039 24.8013 140.648 25.2583C140.452 25.4884 140.211 25.7422 139.927 26.0288L138.943 26.9966L137.974 27.9409L138.203 29.2749L138.43 30.6362C138.491 31.0353 138.537 31.3823 138.561 31.6841C138.602 32.2086 138.582 32.6347 138.441 32.9819L138.374 33.1255C138.091 33.6473 137.614 34.0335 137.053 34.2046L136.807 34.2642C136.391 34.3411 135.933 34.2269 135.378 33.9966C135.098 33.8806 134.782 33.7302 134.422 33.5483L133.197 32.9126L131.999 32.2817L130.802 32.9126C129.884 33.395 129.18 33.7646 128.621 33.9966C128.135 34.1982 127.723 34.3114 127.35 34.2847L127.192 34.2642C126.609 34.1559 126.094 33.8226 125.758 33.3413L125.625 33.1255C125.423 32.7541 125.391 32.2832 125.438 31.6841C125.486 31.0805 125.621 30.2966 125.796 29.2749L126.024 27.9399L125.056 26.9966C124.313 26.2731 123.744 25.7185 123.351 25.2583C123.009 24.8584 122.774 24.5019 122.684 24.1382L122.654 23.9819C122.566 23.3091 122.786 22.6315 123.253 22.1392L123.368 22.0308C123.655 21.7894 124.055 21.6387 124.566 21.5161C125.155 21.3751 125.942 21.2609 126.968 21.1118L128.308 20.9165L128.906 19.7036L129.522 18.4692C129.707 18.1103 129.874 17.8026 130.032 17.5444C130.346 17.0317 130.65 16.6697 131.031 16.4878L131.265 16.3921Z" stroke="url(#paint4_linear_245_4410)" stroke-width="0.5" stroke-linecap="round" style="mix-blend-mode:color-burn"/>
</g>
<g filter="url(#filter3_d_245_4410)">
<path fill-rule="evenodd" clip-rule="evenodd" d="M108 31.9999L106.685 32.6909C104.841 33.6603 103.919 34.145 103.238 34.0186C102.645 33.9086 102.133 33.5367 101.845 33.0066C101.514 32.3974 101.69 31.3708 102.042 29.3175L102.293 27.854L101.23 26.8176C99.7381 25.3635 98.9923 24.6364 98.9019 23.949C98.8232 23.3509 99.0187 22.7493 99.4339 22.3117C99.9111 21.8087 100.942 21.6589 103.003 21.3594L104.473 21.1458L105.13 19.8143C106.052 17.9462 106.513 17.0122 107.139 16.7138C107.683 16.4541 108.316 16.4541 108.86 16.7138C109.486 17.0122 109.947 17.9462 110.869 19.8143L111.526 21.1458L112.996 21.3594C115.057 21.6589 116.088 21.8087 116.565 22.3117C116.98 22.7493 117.176 23.3509 117.097 23.949C117.007 24.6364 116.261 25.3635 114.769 26.8176L113.706 27.854L113.957 29.3175C114.309 31.3708 114.485 32.3974 114.154 33.0066C113.866 33.5367 113.355 33.9086 112.761 34.0186C112.08 34.145 111.158 33.6603 109.314 32.6909L108 31.9999Z" fill="white"/>
<path d="M107.265 16.3921C107.82 16.2003 108.432 16.2323 108.968 16.4878L109.107 16.5649C109.425 16.7631 109.692 17.0958 109.967 17.5444C110.283 18.0608 110.635 18.774 111.094 19.7036L111.691 20.9165L113.031 21.1118L114.396 21.3169C114.795 21.3816 115.138 21.4456 115.433 21.5161C116.017 21.6561 116.455 21.8327 116.746 22.1392L116.91 22.3325C117.213 22.734 117.373 23.226 117.364 23.729L117.345 23.9819C117.29 24.401 117.039 24.8013 116.648 25.2583C116.452 25.4884 116.211 25.7422 115.927 26.0288L114.943 26.9966L113.974 27.9409L114.203 29.2749L114.43 30.6362C114.491 31.0353 114.537 31.3823 114.561 31.6841C114.602 32.2086 114.582 32.6347 114.441 32.9819L114.374 33.1255C114.091 33.6473 113.614 34.0335 113.053 34.2046L112.807 34.2642C112.391 34.3411 111.933 34.2269 111.378 33.9966C111.098 33.8806 110.782 33.7302 110.422 33.5483L109.197 32.9126L107.999 32.2817L106.802 32.9126C105.884 33.395 105.18 33.7646 104.621 33.9966C104.135 34.1982 103.723 34.3114 103.35 34.2847L103.192 34.2642C102.609 34.1559 102.094 33.8226 101.758 33.3413L101.625 33.1255C101.423 32.7541 101.391 32.2832 101.438 31.6841C101.486 31.0805 101.621 30.2966 101.796 29.2749L102.024 27.9399L101.056 26.9966C100.313 26.2731 99.744 25.7185 99.3506 25.2583C99.0087 24.8584 98.7738 24.5019 98.6836 24.1382L98.6543 23.9819C98.5658 23.3091 98.7858 22.6315 99.2529 22.1392L99.3682 22.0308C99.6549 21.7894 100.055 21.6387 100.566 21.5161C101.155 21.3751 101.942 21.2609 102.968 21.1118L104.308 20.9165L104.906 19.7036L105.522 18.4692C105.707 18.1103 105.874 17.8026 106.032 17.5444C106.346 17.0317 106.65 16.6697 107.031 16.4878L107.265 16.3921Z" stroke="url(#paint5_linear_245_4410)" stroke-width="0.5" stroke-linecap="round" style="mix-blend-mode:color-burn"/>
</g>
<g filter="url(#filter4_d_245_4410)">
<path fill-rule="evenodd" clip-rule="evenodd" d="M83.9995 31.9999L82.6852 32.6909C80.8413 33.6603 79.9194 34.145 79.2377 34.0186C78.6445 33.9086 78.1328 33.5367 77.8449 33.0066C77.514 32.3974 77.69 31.3708 78.0422 29.3175L78.2932 27.854L77.2299 26.8176C75.7381 25.3635 74.9923 24.6364 74.9019 23.949C74.8232 23.3509 75.0187 22.7493 75.4339 22.3117C75.9111 21.8087 76.9418 21.6589 79.0034 21.3594L80.4728 21.1458L81.13 19.8143C82.0519 17.9462 82.5129 17.0122 83.1387 16.7138C83.6832 16.4541 84.3158 16.4541 84.8603 16.7138C85.4862 17.0122 85.9471 17.9462 86.8691 19.8143L87.5262 21.1458L88.9957 21.3594C91.0572 21.6589 92.088 21.8087 92.5652 22.3117C92.9804 22.7493 93.1759 23.3509 93.0972 23.949C93.0068 24.6364 92.2609 25.3635 90.7692 26.8176L89.7059 27.854L89.9569 29.3175C90.309 31.3708 90.4851 32.3974 90.1542 33.0066C89.8663 33.5367 89.3545 33.9086 88.7614 34.0186C88.0797 34.145 87.1578 33.6603 85.3138 32.6909L83.9995 31.9999Z" fill="white"/>
<path d="M83.2646 16.3921C83.8196 16.2003 84.4317 16.2323 84.9678 16.4878L85.1074 16.5649C85.4253 16.7631 85.6922 17.0958 85.9668 17.5444C86.2829 18.0608 86.635 18.774 87.0938 19.7036L87.6914 20.9165L89.0312 21.1118L90.3965 21.3169C90.7947 21.3816 91.1384 21.4456 91.4326 21.5161C92.0171 21.6561 92.4551 21.8327 92.7461 22.1392L92.9102 22.3325C93.2133 22.734 93.3734 23.226 93.3643 23.729L93.3447 23.9819C93.2895 24.401 93.0391 24.8013 92.6484 25.2583C92.4517 25.4884 92.2111 25.7422 91.9268 26.0288L90.9434 26.9966L89.9736 27.9409L90.2031 29.2749L90.4297 30.6362C90.4912 31.0353 90.5366 31.3823 90.5605 31.6841C90.6021 32.2086 90.5822 32.6347 90.4414 32.9819L90.374 33.1255C90.0906 33.6473 89.6144 34.0335 89.0527 34.2046L88.8066 34.2642C88.3911 34.3411 87.9332 34.2269 87.3779 33.9966C87.0983 33.8806 86.7823 33.7302 86.4219 33.5483L85.1973 32.9126L83.999 32.2817L82.8018 32.9126C81.8842 33.395 81.1803 33.7646 80.6211 33.9966C80.135 34.1982 79.7234 34.3114 79.3496 34.2847L79.1924 34.2642C78.6086 34.1559 78.0941 33.8226 77.7578 33.3413L77.625 33.1255C77.4235 32.7541 77.3911 32.2832 77.4385 31.6841C77.4863 31.0805 77.6207 30.2966 77.7959 29.2749L78.0244 27.9399L77.0557 26.9966C76.3134 26.2731 75.744 25.7185 75.3506 25.2583C75.0087 24.8584 74.7738 24.5019 74.6836 24.1382L74.6543 23.9819C74.5658 23.3091 74.7858 22.6315 75.2529 22.1392L75.3682 22.0308C75.6549 21.7894 76.0545 21.6387 76.5664 21.5161C77.1552 21.3751 77.942 21.2609 78.9678 21.1118L80.3076 20.9165L80.9062 19.7036L81.5225 18.4692C81.7072 18.1103 81.8742 17.8026 82.0322 17.5444C82.3461 17.0317 82.6497 16.6697 83.0312 16.4878L83.2646 16.3921Z" stroke="url(#paint6_linear_245_4410)" stroke-width="0.5" stroke-linecap="round" style="mix-blend-mode:color-burn"/>
</g>
<g filter="url(#filter5_d_245_4410)">
<path fill-rule="evenodd" clip-rule="evenodd" d="M59.9995 31.9999L58.6852 32.6909C56.8413 33.6603 55.9194 34.145 55.2377 34.0186C54.6445 33.9086 54.1328 33.5367 53.8449 33.0066C53.514 32.3974 53.69 31.3708 54.0422 29.3175L54.2932 27.854L53.2299 26.8176C51.7381 25.3635 50.9923 24.6364 50.9019 23.949C50.8232 23.3509 51.0187 22.7493 51.4339 22.3117C51.9111 21.8087 52.9418 21.6589 55.0034 21.3594L56.4728 21.1458L57.13 19.8143C58.0519 17.9462 58.5129 17.0122 59.1387 16.7138C59.6832 16.4541 60.3158 16.4541 60.8603 16.7138C61.4862 17.0122 61.9471 17.9462 62.8691 19.8143L63.5262 21.1458L64.9957 21.3594C67.0572 21.6589 68.088 21.8087 68.5652 22.3117C68.9804 22.7493 69.1759 23.3509 69.0972 23.949C69.0068 24.6364 68.2609 25.3635 66.7692 26.8176L65.7059 27.854L65.9569 29.3175C66.309 31.3708 66.4851 32.3974 66.1542 33.0066C65.8663 33.5367 65.3545 33.9086 64.7614 34.0186C64.0797 34.145 63.1578 33.6603 61.3138 32.6909L59.9995 31.9999Z" fill="white"/>
<path d="M59.2646 16.3921C59.8196 16.2003 60.4317 16.2323 60.9678 16.4878L61.1074 16.5649C61.4253 16.7631 61.6922 17.0958 61.9668 17.5444C62.2829 18.0608 62.635 18.774 63.0938 19.7036L63.6914 20.9165L65.0312 21.1118L66.3965 21.3169C66.7947 21.3816 67.1384 21.4456 67.4326 21.5161C68.0171 21.6561 68.4551 21.8327 68.7461 22.1392L68.9102 22.3325C69.2133 22.734 69.3734 23.226 69.3643 23.729L69.3447 23.9819C69.2895 24.401 69.0391 24.8013 68.6484 25.2583C68.4517 25.4884 68.2111 25.7422 67.9268 26.0288L66.9434 26.9966L65.9736 27.9409L66.2031 29.2749L66.4297 30.6362C66.4912 31.0353 66.5366 31.3823 66.5605 31.6841C66.6021 32.2086 66.5822 32.6347 66.4414 32.9819L66.374 33.1255C66.0906 33.6473 65.6144 34.0335 65.0527 34.2046L64.8066 34.2642C64.3911 34.3411 63.9332 34.2269 63.3779 33.9966C63.0983 33.8806 62.7823 33.7302 62.4219 33.5483L61.1973 32.9126L59.999 32.2817L58.8018 32.9126C57.8842 33.395 57.1803 33.7646 56.6211 33.9966C56.135 34.1982 55.7234 34.3114 55.3496 34.2847L55.1924 34.2642C54.6086 34.1559 54.0941 33.8226 53.7578 33.3413L53.625 33.1255C53.4235 32.7541 53.3911 32.2832 53.4385 31.6841C53.4863 31.0805 53.6207 30.2966 53.7959 29.2749L54.0244 27.9399L53.0557 26.9966C52.3134 26.2731 51.744 25.7185 51.3506 25.2583C51.0087 24.8584 50.7738 24.5019 50.6836 24.1382L50.6543 23.9819C50.5658 23.3091 50.7858 22.6315 51.2529 22.1392L51.3682 22.0308C51.6549 21.7894 52.0545 21.6387 52.5664 21.5161C53.1552 21.3751 53.942 21.2609 54.9678 21.1118L56.3076 20.9165L56.9062 19.7036L57.5225 18.4692C57.7072 18.1103 57.8742 17.8026 58.0322 17.5444C58.3461 17.0317 58.6497 16.6697 59.0312 16.4878L59.2646 16.3921Z" stroke="url(#paint7_linear_245_4410)" stroke-width="0.5" stroke-linecap="round" style="mix-blend-mode:color-burn"/>
</g>
<defs>
<filter id="filter0_dd_245_4410" x="0" y="0" width="216" height="60" filterUnits="userSpaceOnUse" color-interpolation-filters="sRGB">
<feFlood flood-opacity="0" result="BackgroundImageFix"/>
<feColorMatrix in="SourceAlpha" type="matrix" values="0 0 0 0 0 0 0 0 0 0 0 0 0 0 0 0 0 0 127 0" result="hardAlpha"/>
<feOffset dy="4"/>
<feGaussianBlur stdDeviation="6"/>
<feColorMatrix type="matrix" values="0 0 0 0 0 0 0 0 0 0 0 0 0 0 0 0 0 0 0.16 0"/>
<feBlend mode="normal" in2="BackgroundImageFix" result="effect1_dropShadow_245_4410"/>
<feColorMatrix in="SourceAlpha" type="matrix" values="0 0 0 0 0 0 0 0 0 0 0 0 0 0 0 0 0 0 127 0" result="hardAlpha"/>
<feOffset dy="2"/>
<feGaussianBlur stdDeviation="2"/>
<feColorMatrix type="matrix" values="0 0 0 0 0 0 0 0 0 0 0 0 0 0 0 0 0 0 0.24 0"/>
<feBlend mode="normal" in2="effect1_dropShadow_245_4410" result="effect2_dropShadow_245_4410"/>
<feBlend mode="normal" in="SourceGraphic" in2="effect2_dropShadow_245_4410" result="shape"/>
</filter>
<filter id="filter1_d_245_4410" x="134.385" y="6.01904" width="43.2295" height="42.5193" filterUnits="userSpaceOnUse" color-interpolation-filters="sRGB">
<feFlood flood-opacity="0" result="BackgroundImageFix"/>
<feColorMatrix in="SourceAlpha" type="matrix" values="0 0 0 0 0 0 0 0 0 0 0 0 0 0 0 0 0 0 127 0" result="hardAlpha"/>
<feOffset dy="2"/>
<feGaussianBlur stdDeviation="6"/>
<feColorMatrix type="matrix" values="0 0 0 0 0 0 0 0 0 0 0 0 0 0 0 0 0 0 0.12 0"/>
<feBlend mode="plus-darker" in2="BackgroundImageFix" result="effect1_dropShadow_245_4410"/>
<feBlend mode="normal" in="SourceGraphic" in2="effect1_dropShadow_245_4410" result="shape"/>
</filter>
<filter id="filter2_d_245_4410" x="110.385" y="6.01904" width="43.2295" height="42.5193" filterUnits="userSpaceOnUse" color-interpolation-filters="sRGB">
<feFlood flood-opacity="0" result="BackgroundImageFix"/>
<feColorMatrix in="SourceAlpha" type="matrix" values="0 0 0 0 0 0 0 0 0 0 0 0 0 0 0 0 0 0 127 0" result="hardAlpha"/>
<feOffset dy="2"/>
<feGaussianBlur stdDeviation="6"/>
<feColorMatrix type="matrix" values="0 0 0 0 0 0 0 0 0 0 0 0 0 0 0 0 0 0 0.12 0"/>
<feBlend mode="plus-darker" in2="BackgroundImageFix" result="effect1_dropShadow_245_4410"/>
<feBlend mode="normal" in="SourceGraphic" in2="effect1_dropShadow_245_4410" result="shape"/>
</filter>
<filter id="filter3_d_245_4410" x="86.3848" y="6.01904" width="43.2295" height="42.5193" filterUnits="userSpaceOnUse" color-interpolation-filters="sRGB">
<feFlood flood-opacity="0" result="BackgroundImageFix"/>
<feColorMatrix in="SourceAlpha" type="matrix" values="0 0 0 0 0 0 0 0 0 0 0 0 0 0 0 0 0 0 127 0" result="hardAlpha"/>
<feOffset dy="2"/>
<feGaussianBlur stdDeviation="6"/>
<feColorMatrix type="matrix" values="0 0 0 0 0 0 0 0 0 0 0 0 0 0 0 0 0 0 0.12 0"/>
<feBlend mode="plus-darker" in2="BackgroundImageFix" result="effect1_dropShadow_245_4410"/>
<feBlend mode="normal" in="SourceGraphic" in2="effect1_dropShadow_245_4410" result="shape"/>
</filter>
<filter id="filter4_d_245_4410" x="62.3848" y="6.01904" width="43.2295" height="42.5193" filterUnits="userSpaceOnUse" color-interpolation-filters="sRGB">
<feFlood flood-opacity="0" result="BackgroundImageFix"/>
<feColorMatrix in="SourceAlpha" type="matrix" values="0 0 0 0 0 0 0 0 0 0 0 0 0 0 0 0 0 0 127 0" result="hardAlpha"/>
<feOffset dy="2"/>
<feGaussianBlur stdDeviation="6"/>
<feColorMatrix type="matrix" values="0 0 0 0 0 0 0 0 0 0 0 0 0 0 0 0 0 0 0.12 0"/>
<feBlend mode="plus-darker" in2="BackgroundImageFix" result="effect1_dropShadow_245_4410"/>
<feBlend mode="normal" in="SourceGraphic" in2="effect1_dropShadow_245_4410" result="shape"/>
</filter>
<filter id="filter5_d_245_4410" x="38.3848" y="6.01904" width="43.2295" height="42.5193" filterUnits="userSpaceOnUse" color-interpolation-filters="sRGB">
<feFlood flood-opacity="0" result="BackgroundImageFix"/>
<feColorMatrix in="SourceAlpha" type="matrix" values="0 0 0 0 0 0 0 0 0 0 0 0 0 0 0 0 0 0 127 0" result="hardAlpha"/>
<feOffset dy="2"/>
<feGaussianBlur stdDeviation="6"/>
<feColorMatrix type="matrix" values="0 0 0 0 0 0 0 0 0 0 0 0 0 0 0 0 0 0 0.12 0"/>
<feBlend mode="plus-darker" in2="BackgroundImageFix" result="effect1_dropShadow_245_4410"/>
<feBlend mode="normal" in="SourceGraphic" in2="effect1_dropShadow_245_4410" result="shape"/>
</filter>
<linearGradient id="paint0_linear_245_4410" x1="108" y1="8" x2="108" y2="44" gradientUnits="userSpaceOnUse">
<stop stop-opacity="0"/>
<stop offset="1" stop-opacity="0.16"/>
</linearGradient>
<linearGradient id="paint1_linear_245_4410" x1="108" y1="8" x2="108" y2="44" gradientUnits="userSpaceOnUse">
<stop stop-color="white"/>
<stop offset="1" stop-color="white" stop-opacity="0"/>
</linearGradient>
<radialGradient id="paint2_radial_245_4410" cx="0" cy="0" r="1" gradientUnits="userSpaceOnUse" gradientTransform="translate(108 14.2821) rotate(90) scale(29.7179 96)">
<stop stop-color="white"/>
<stop offset="1" stop-color="white" stop-opacity="0"/>
</radialGradient>
<linearGradient id="paint3_linear_245_4410" x1="156" y1="16.519" x2="156" y2="34.0383" gradientUnits="userSpaceOnUse">
<stop stop-color="#DFDFDF"/>
<stop offset="1" stop-color="#A9A9A9"/>
</linearGradient>
<linearGradient id="paint4_linear_245_4410" x1="132" y1="16.519" x2="132" y2="34.0383" gradientUnits="userSpaceOnUse">
<stop stop-color="#DFDFDF"/>
<stop offset="1" stop-color="#A9A9A9"/>
</linearGradient>
<linearGradient id="paint5_linear_245_4410" x1="108" y1="16.519" x2="108" y2="34.0383" gradientUnits="userSpaceOnUse">
<stop stop-color="#DFDFDF"/>
<stop offset="1" stop-color="#A9A9A9"/>
</linearGradient>
<linearGradient id="paint6_linear_245_4410" x1="83.9995" y1="16.519" x2="83.9995" y2="34.0383" gradientUnits="userSpaceOnUse">
<stop stop-color="#DFDFDF"/>
<stop offset="1" stop-color="#A9A9A9"/>
</linearGradient>
<linearGradient id="paint7_linear_245_4410" x1="59.9995" y1="16.519" x2="59.9995" y2="34.0383" gradientUnits="userSpaceOnUse">
<stop stop-color="#DFDFDF"/>
<stop offset="1" stop-color="#A9A9A9"/>
</linearGradient>
</defs>
</svg>
