<svg width="96" height="43" viewBox="0 0 96 43" fill="none" xmlns="http://www.w3.org/2000/svg">
<g filter="url(#filter0_d_245_4369)">
<path fill-rule="evenodd" clip-rule="evenodd" d="M58.4247 25.4696L57.1603 25.9736C55.3865 26.6807 54.4995 27.0342 53.8902 26.8536C53.36 26.6965 52.9291 26.3085 52.7174 25.7976C52.4741 25.2105 52.733 24.2915 53.2508 22.4534L53.6198 21.1432L52.7498 20.0965C51.5292 18.6279 50.9189 17.8936 50.9023 17.2583C50.8879 16.7055 51.1237 16.1758 51.5442 15.8166C52.0274 15.4038 52.9815 15.366 54.8896 15.2904L56.2496 15.2366L56.9763 14.0857C57.9958 12.471 58.5055 11.6636 59.1047 11.4515C59.6259 11.267 60.2026 11.3276 60.6742 11.6165C61.2161 11.9485 61.5468 12.8442 62.2083 14.6356L62.6798 15.9124L63.999 16.2479C65.8497 16.7185 66.775 16.9538 67.1619 17.4581C67.4985 17.8968 67.619 18.464 67.49 19.0017C67.3417 19.6197 66.5921 20.2111 65.0928 21.3938L64.0241 22.2368L64.1127 23.595C64.237 25.5006 64.2992 26.4533 63.9391 26.9771C63.6259 27.4328 63.1237 27.7227 62.5724 27.7661C61.9389 27.8161 61.1448 27.2859 59.5567 26.2255L58.4247 25.4696Z" fill="white"/>
<path d="M59.2456 11.1504C59.7753 11.0275 60.3359 11.1163 60.8048 11.4036L60.9265 11.4881C61.2014 11.7024 61.4147 12.0355 61.6225 12.4715C61.8616 12.9736 62.114 13.6583 62.443 14.5491L62.8687 15.7025L64.0604 16.0055L65.2848 16.3237C65.6423 16.421 65.9504 16.5121 66.2126 16.6048C66.7331 16.7889 67.1207 16.9933 67.3605 17.3058L67.4923 17.4993C67.7328 17.8986 67.832 18.3675 67.7747 18.8301L67.7328 19.0604C67.6409 19.4432 67.3708 19.7878 66.9704 20.1674C66.7686 20.3587 66.5239 20.567 66.237 20.8013L65.2478 21.5899L64.2811 22.3514L64.3622 23.5785L64.4386 24.8415C64.4565 25.2115 64.4647 25.5326 64.4575 25.8107C64.4451 26.2934 64.3864 26.6842 64.2224 26.9918L64.1452 27.1192C63.8337 27.5721 63.3576 27.8807 62.824 27.9838L62.5919 28.0154C62.1993 28.0463 61.7885 27.8951 61.3036 27.6316C61.0593 27.4988 60.785 27.3314 60.4735 27.1309L59.4175 26.4337L58.3946 25.7498L57.2527 26.2062C56.3706 26.5578 55.6928 26.8276 55.1597 26.9858C54.6967 27.1232 54.3068 27.1881 53.9636 27.1272L53.8189 27.0933C53.2918 26.9371 52.8515 26.5796 52.5884 26.1038L52.4868 25.8938C52.336 25.5299 52.3525 25.0917 52.4534 24.549C52.555 24.0022 52.7522 23.2995 53.0097 22.3853L53.3434 21.2008L52.5579 20.2561C51.9508 19.5257 51.484 18.9648 51.1687 18.5066C50.895 18.1087 50.7132 17.758 50.6651 17.4128L50.6521 17.2651C50.6357 16.637 50.9043 16.0345 51.3821 15.6264L51.4995 15.5366C51.7882 15.3413 52.1708 15.2421 52.6496 15.1793C53.201 15.107 53.9305 15.0781 54.8795 15.0405L56.1081 14.9919L56.7653 13.9524L57.4459 12.8858C57.6489 12.5761 57.8307 12.3114 57.9998 12.0908C58.3357 11.6526 58.6503 11.3477 59.0217 11.2162L59.2456 11.1504Z" stroke="url(#paint0_linear_245_4369)" stroke-width="0.5" stroke-linecap="round" style="mix-blend-mode:color-burn"/>
</g>
<g filter="url(#filter1_d_245_4369)">
<path fill-rule="evenodd" clip-rule="evenodd" d="M37.575 25.4695L36.443 26.2253C34.8549 27.2857 34.0609 27.816 33.4273 27.766C32.876 27.7226 32.3738 27.4326 32.0606 26.9769C31.7005 26.4532 31.7627 25.5004 31.887 23.5949L31.9756 22.2366L30.9069 21.3936C29.4077 20.211 28.658 19.6196 28.5097 19.0016C28.3807 18.4639 28.5013 17.8967 28.8378 17.458C29.2247 16.9537 30.15 16.7184 32.0007 16.2478L33.3199 15.9123L33.7914 14.6354C34.4529 12.8441 34.7836 11.9484 35.3256 11.6164C35.7971 11.3275 36.3738 11.2669 36.8951 11.4514C37.4942 11.6635 38.0039 12.4708 39.0234 14.0855L39.7501 15.2365L41.1102 15.2903C43.0183 15.3659 43.9723 15.4036 44.4556 15.8165C44.876 16.1756 45.1118 16.7054 45.0974 17.2582C45.0809 17.8935 44.4706 18.6278 43.25 20.0963L42.3799 21.1431L42.749 22.4533C43.2668 24.2913 43.5256 25.2103 43.2823 25.7975C43.0707 26.3083 42.6397 26.6964 42.1096 26.8535C41.5002 27.0341 40.6133 26.6805 38.8394 25.9735L37.575 25.4695Z" fill="white"/>
<path d="M35.4008 11.2925C35.8934 11.0621 36.4602 11.0325 36.9786 11.216L37.1152 11.2733C37.4287 11.4258 37.7066 11.7072 38.0004 12.0906C38.3387 12.5319 38.728 13.1492 39.235 13.9522L39.8912 14.9918L41.1198 15.0404L42.3836 15.0971C42.7536 15.118 43.0738 15.143 43.3496 15.1792C43.897 15.251 44.3187 15.3704 44.6182 15.6262L44.7874 15.7881C45.1055 16.1287 45.3002 16.5667 45.3402 17.0311L45.3472 17.265C45.3368 17.6586 45.1442 18.0518 44.8315 18.5064C44.6739 18.7355 44.4779 18.9901 44.246 19.2789L43.4423 20.2559L42.6551 21.2018L42.9896 22.3852L43.3269 23.6047C43.4213 23.963 43.4961 24.2753 43.5469 24.5488C43.6351 25.0236 43.6589 25.418 43.5625 25.753L43.5135 25.8936C43.3029 26.4014 42.9014 26.8022 42.4009 27.0141L42.1804 27.0933C41.8029 27.2051 41.3695 27.1426 40.8405 26.9856C40.5739 26.9065 40.2708 26.7999 39.9244 26.6685L38.7466 26.2061L37.6038 25.7498L36.5817 26.4336C35.792 26.961 35.1852 27.3658 34.6966 27.6314C34.2723 27.8621 33.9044 28.0066 33.556 28.0184L33.4074 28.0153C32.8593 27.9721 32.3544 27.7139 31.9981 27.3033L31.855 27.119C31.6319 26.7944 31.5569 26.3624 31.5427 25.8105C31.5284 25.2545 31.5752 24.5262 31.6371 23.5784L31.7172 22.3504L30.7525 21.5897C30.0068 21.0014 29.4335 20.5498 29.0299 20.1672C28.6794 19.835 28.4287 19.5297 28.3098 19.202L28.2664 19.0603C28.1198 18.4493 28.2573 17.8042 28.6398 17.3056L28.736 17.1934C28.9778 16.9423 29.3313 16.7657 29.7867 16.6047C30.311 16.4193 31.0185 16.2394 31.9389 16.0054L33.1306 15.7024L33.5573 14.5489L34.0013 13.3642C34.1354 13.019 34.2582 12.7223 34.3778 12.4713C34.6152 11.9729 34.8596 11.6092 35.1955 11.4034L35.4008 11.2925Z" stroke="url(#paint1_linear_245_4369)" stroke-width="0.5" stroke-linecap="round" style="mix-blend-mode:color-burn"/>
</g>
<defs>
<filter id="filter0_d_245_4369" x="38.4014" y="0.846436" width="41.6396" height="41.4229" filterUnits="userSpaceOnUse" color-interpolation-filters="sRGB">
<feFlood flood-opacity="0" result="BackgroundImageFix"/>
<feColorMatrix in="SourceAlpha" type="matrix" values="0 0 0 0 0 0 0 0 0 0 0 0 0 0 0 0 0 0 127 0" result="hardAlpha"/>
<feOffset dy="2"/>
<feGaussianBlur stdDeviation="6"/>
<feColorMatrix type="matrix" values="0 0 0 0 0 0 0 0 0 0 0 0 0 0 0 0 0 0 0.12 0"/>
<feBlend mode="plus-darker" in2="BackgroundImageFix" result="effect1_dropShadow_245_4369"/>
<feBlend mode="normal" in="SourceGraphic" in2="effect1_dropShadow_245_4369" result="shape"/>
</filter>
<filter id="filter1_d_245_4369" x="15.959" y="0.846436" width="41.6387" height="41.4229" filterUnits="userSpaceOnUse" color-interpolation-filters="sRGB">
<feFlood flood-opacity="0" result="BackgroundImageFix"/>
<feColorMatrix in="SourceAlpha" type="matrix" values="0 0 0 0 0 0 0 0 0 0 0 0 0 0 0 0 0 0 127 0" result="hardAlpha"/>
<feOffset dy="2"/>
<feGaussianBlur stdDeviation="6"/>
<feColorMatrix type="matrix" values="0 0 0 0 0 0 0 0 0 0 0 0 0 0 0 0 0 0 0.12 0"/>
<feBlend mode="plus-darker" in2="BackgroundImageFix" result="effect1_dropShadow_245_4369"/>
<feBlend mode="normal" in="SourceGraphic" in2="effect1_dropShadow_245_4369" result="shape"/>
</filter>
<linearGradient id="paint0_linear_245_4369" x1="59.9081" y1="11.3565" x2="58.2294" y2="27.3279" gradientUnits="userSpaceOnUse">
<stop stop-color="#DFDFDF"/>
<stop offset="1" stop-color="#A9A9A9"/>
</linearGradient>
<linearGradient id="paint1_linear_245_4369" x1="36.0917" y1="11.3564" x2="37.7703" y2="27.3278" gradientUnits="userSpaceOnUse">
<stop stop-color="#DFDFDF"/>
<stop offset="1" stop-color="#A9A9A9"/>
</linearGradient>
</defs>
</svg>
