<svg width="96" height="46" viewBox="0 0 96 46" fill="none" xmlns="http://www.w3.org/2000/svg">
<g filter="url(#filter0_d_245_4373)">
<path fill-rule="evenodd" clip-rule="evenodd" d="M47.9995 25.9999L46.6852 26.6909C44.8413 27.6603 43.9194 28.145 43.2377 28.0186C42.6445 27.9086 42.1328 27.5367 41.8449 27.0066C41.514 26.3974 41.69 25.3708 42.0422 23.3175L42.2932 21.854L41.2299 20.8176C39.7381 19.3635 38.9923 18.6364 38.9019 17.949C38.8232 17.3509 39.0187 16.7493 39.4339 16.3117C39.9111 15.8087 40.9418 15.6589 43.0034 15.3594L44.4728 15.1458L45.13 13.8143C46.0519 11.9462 46.5129 11.0122 47.1387 10.7138C47.6832 10.4541 48.3158 10.4541 48.8603 10.7138C49.4862 11.0122 49.9471 11.9462 50.8691 13.8143L51.5262 15.1458L52.9957 15.3594C55.0572 15.6589 56.088 15.8087 56.5652 16.3117C56.9804 16.7493 57.1759 17.3509 57.0972 17.949C57.0068 18.6364 56.2609 19.3635 54.7692 20.8176L53.7059 21.854L53.9569 23.3175C54.309 25.3708 54.4851 26.3974 54.1542 27.0066C53.8663 27.5367 53.3545 27.9086 52.7614 28.0186C52.0797 28.145 51.1578 27.6603 49.3138 26.6909L47.9995 25.9999Z" fill="white"/>
<path d="M47.2646 10.3921C47.8196 10.2003 48.4317 10.2323 48.9678 10.4878L49.1074 10.5649C49.4253 10.7631 49.6922 11.0958 49.9668 11.5444C50.2829 12.0608 50.635 12.774 51.0938 13.7036L51.6914 14.9165L53.0312 15.1118L54.3965 15.3169C54.7947 15.3816 55.1384 15.4456 55.4326 15.5161C56.0171 15.6561 56.4551 15.8327 56.7461 16.1392L56.9102 16.3325C57.2133 16.734 57.3734 17.226 57.3643 17.729L57.3447 17.9819C57.2895 18.401 57.0391 18.8013 56.6484 19.2583C56.4517 19.4884 56.2111 19.7422 55.9268 20.0288L54.9434 20.9966L53.9736 21.9409L54.2031 23.2749L54.4297 24.6362C54.4912 25.0353 54.5366 25.3823 54.5605 25.6841C54.6021 26.2086 54.5822 26.6347 54.4414 26.9819L54.374 27.1255C54.0906 27.6473 53.6144 28.0335 53.0527 28.2046L52.8066 28.2642C52.3911 28.3411 51.9332 28.2269 51.3779 27.9966C51.0983 27.8806 50.7823 27.7302 50.4219 27.5483L49.1973 26.9126L47.999 26.2817L46.8018 26.9126C45.8842 27.395 45.1803 27.7646 44.6211 27.9966C44.135 28.1982 43.7234 28.3114 43.3496 28.2847L43.1924 28.2642C42.6086 28.1559 42.0941 27.8226 41.7578 27.3413L41.625 27.1255C41.4235 26.7541 41.3911 26.2832 41.4385 25.6841C41.4863 25.0805 41.6207 24.2966 41.7959 23.2749L42.0244 21.9399L41.0557 20.9966C40.3134 20.2731 39.744 19.7185 39.3506 19.2583C39.0087 18.8584 38.7738 18.5019 38.6836 18.1382L38.6543 17.9819C38.5658 17.3091 38.7858 16.6315 39.2529 16.1392L39.3682 16.0308C39.6549 15.7894 40.0545 15.6387 40.5664 15.5161C41.1552 15.3751 41.942 15.2609 42.9678 15.1118L44.3076 14.9165L44.9062 13.7036L45.5225 12.4692C45.7072 12.1103 45.8742 11.8026 46.0322 11.5444C46.3461 11.0317 46.6497 10.6697 47.0312 10.4878L47.2646 10.3921Z" stroke="url(#paint0_linear_245_4373)" stroke-width="0.5" stroke-linecap="round" style="mix-blend-mode:color-burn"/>
</g>
<g filter="url(#filter1_d_245_4373)">
<path fill-rule="evenodd" clip-rule="evenodd" d="M67.1317 28.9241L65.9531 29.301C64.2995 29.8297 63.4728 30.0941 62.9316 29.8917C62.4608 29.7156 62.0946 29.3364 61.935 28.8597C61.7516 28.3118 62.0447 27.4947 62.6308 25.8607L63.0486 24.6959L62.3259 23.6915C61.3121 22.2823 60.8052 21.5777 60.8305 21.0004C60.8525 20.4982 61.0999 20.0328 61.504 19.7337C61.9684 19.39 62.836 19.4162 64.5712 19.4687L65.808 19.5061L66.54 18.5084C67.567 17.1088 68.0805 16.4089 68.6372 16.2546C69.1217 16.1203 69.6408 16.2119 70.0501 16.5037C70.5205 16.8392 70.7637 17.6724 71.25 19.3389L71.5966 20.5268L72.7716 20.9147C74.4201 21.4588 75.2444 21.7309 75.5632 22.2127C75.8406 22.632 75.914 23.154 75.7629 23.6334C75.5892 24.1845 74.8719 24.6732 73.4372 25.6507L72.4146 26.3474L72.4089 27.5848C72.4007 29.3208 72.3967 30.1888 72.037 30.6409C71.724 31.0343 71.2502 31.2654 70.7475 31.2698C70.1697 31.2749 69.4833 30.7438 68.1103 29.6814L67.1317 28.9241Z" fill="white"/>
<path d="M68.7807 15.9674C69.2747 15.8886 69.7837 16.0064 70.1956 16.3002L70.3024 16.3864C70.5422 16.6019 70.7156 16.9213 70.8766 17.3305C71.0622 17.8022 71.248 18.4407 71.4897 19.2692L71.7994 20.3303L72.8499 20.6772L73.9406 21.043C74.2591 21.1541 74.5331 21.2571 74.7656 21.3581C75.2268 21.5583 75.5703 21.7705 75.7717 22.0749L75.8807 22.2607C76.0757 22.6426 76.1371 23.0794 76.0548 23.5002L76.0012 23.7089C75.8914 24.0569 75.6198 24.3555 75.2319 24.675C75.0362 24.8361 74.8011 25.0104 74.5256 25.2049L73.5777 25.8569L72.6638 26.4791L72.659 27.5859L72.6476 28.7362C72.6403 29.0733 72.6283 29.3657 72.6041 29.618C72.5622 30.0557 72.4831 30.4108 72.312 30.684L72.2326 30.797C71.9176 31.1927 71.4608 31.4451 70.9644 31.5055L70.7496 31.5202C70.3846 31.5233 70.0162 31.3574 69.5923 31.087C69.3787 30.9508 69.1408 30.7807 68.8708 30.579L67.9569 29.8794L67.0828 29.2017L66.0296 29.5396C65.2077 29.8024 64.5745 30.0051 64.0797 30.115C63.6501 30.2105 63.2878 30.2446 62.975 30.1661L62.8442 30.1262C62.3703 29.949 61.9887 29.5925 61.7777 29.1389L61.6979 28.9394C61.582 28.5933 61.6259 28.1912 61.752 27.7045C61.8792 27.2138 62.1041 26.5884 62.3955 25.7762L62.7686 24.7343L62.1226 23.837C61.6188 23.1367 61.2307 22.5973 60.9733 22.1608C60.7499 21.782 60.6046 21.4487 60.5825 21.127L60.5809 20.9899C60.6061 20.4124 60.8907 19.8769 61.3554 19.5329L61.4698 19.4579C61.7489 19.2961 62.1066 19.2301 62.5459 19.2034C63.0519 19.1727 63.7164 19.1927 64.579 19.2188L65.6838 19.252L66.3387 18.3609L67.0233 17.4365C67.2274 17.1679 67.41 16.9389 67.5779 16.7489C67.9108 16.3723 68.2186 16.1111 68.5703 16.0136L68.7807 15.9674Z" stroke="url(#paint1_linear_245_4373)" stroke-width="0.5" stroke-linecap="round" style="mix-blend-mode:color-burn"/>
</g>
<g filter="url(#filter2_d_245_4373)">
<path fill-rule="evenodd" clip-rule="evenodd" d="M28.8689 28.7496L27.8902 29.5068C26.5173 30.5692 25.8308 31.1004 25.253 31.0953C24.7504 31.0908 24.2766 30.8597 23.9636 30.4664C23.6038 30.0142 23.5998 29.1462 23.5917 27.4103L23.5859 26.1729L22.5633 25.4761C21.1286 24.4987 20.4113 24.0099 20.2376 23.4589C20.0865 22.9794 20.1599 22.4574 20.4373 22.0382C20.7561 21.5563 21.5804 21.2843 23.2289 20.7401L24.4039 20.3522L24.7506 19.1644C25.2369 17.4979 25.48 16.6646 25.9504 16.3292C26.3597 16.0373 26.8789 15.9458 27.3633 16.08C27.9201 16.2344 28.4336 16.9342 29.4605 18.3339L30.1925 19.3315L31.4293 19.2941C33.1645 19.2417 34.0321 19.2154 34.4965 19.5592C34.9006 19.8582 35.1481 20.3237 35.1701 20.8259C35.1953 21.4031 34.6884 22.1077 33.6746 23.5169L32.952 24.5214L33.3698 25.6861C33.9559 27.3202 34.2489 28.1372 34.0655 28.6851C33.906 29.1618 33.5398 29.541 33.0689 29.7171C32.5278 29.9195 31.701 29.6552 30.0475 29.1264L28.8689 28.7496Z" fill="white"/>
<path d="M25.987 16.0102C26.4242 15.7672 26.9429 15.7039 27.4304 15.839L27.5602 15.8835C27.8593 16.004 28.1315 16.2448 28.4228 16.5743C28.7584 16.9541 29.1514 17.4905 29.6619 18.1864L30.3159 19.0776L31.4216 19.0442L32.5717 19.015C32.909 19.0104 33.2017 19.0135 33.4547 19.0288C33.9565 19.0593 34.3519 19.1412 34.6453 19.3583L34.8113 19.4957C35.1251 19.7878 35.3322 20.1773 35.3988 20.6009L35.4198 20.8153C35.4356 21.1798 35.2826 21.5533 35.0273 21.9862C34.8986 22.2045 34.7372 22.4488 34.5449 22.7258L33.8771 23.6626L33.2311 24.5599L33.6052 25.6016L33.9879 26.6864C34.0963 27.0057 34.1851 27.2845 34.2486 27.5299C34.3589 27.9556 34.4061 28.3163 34.3388 28.6316L34.3028 28.7648C34.1421 29.2445 33.7992 29.6378 33.3533 29.8644L33.1565 29.9516C32.8146 30.0794 32.4117 30.0495 31.9209 29.9404C31.6736 29.8855 31.3918 29.8071 31.0691 29.7098L29.9711 29.365L28.9179 29.0271L28.0438 29.7048C27.3613 30.2329 26.8356 30.6399 26.4083 30.9125C26.0373 31.1491 25.7085 31.3051 25.3877 31.3383L25.2511 31.3456C24.7452 31.3411 24.2646 31.1366 23.9113 30.7826L23.768 30.6224C23.5408 30.3368 23.4445 29.9439 23.3965 29.4434C23.3482 28.9389 23.3457 28.2742 23.3416 27.4113L23.3359 26.3047L22.422 25.6824C21.709 25.1967 21.1599 24.8225 20.7688 24.5004C20.4293 24.2208 20.1787 23.9573 20.0479 23.6627L19.9995 23.5343C19.8257 22.983 19.91 22.3824 20.229 21.9003L20.3108 21.7907C20.5178 21.5432 20.8313 21.3588 21.235 21.1835C21.7 20.9816 22.3313 20.7731 23.1508 20.5026L24.2003 20.1559L24.5109 19.0946L24.8381 17.9918C24.938 17.6696 25.0312 17.3919 25.124 17.156C25.308 16.6882 25.508 16.3375 25.8051 16.1256L25.987 16.0102Z" stroke="url(#paint2_linear_245_4373)" stroke-width="0.5" stroke-linecap="round" style="mix-blend-mode:color-burn"/>
</g>
<defs>
<filter id="filter0_d_245_4373" x="26.3848" y="0.019043" width="43.2295" height="42.5193" filterUnits="userSpaceOnUse" color-interpolation-filters="sRGB">
<feFlood flood-opacity="0" result="BackgroundImageFix"/>
<feColorMatrix in="SourceAlpha" type="matrix" values="0 0 0 0 0 0 0 0 0 0 0 0 0 0 0 0 0 0 127 0" result="hardAlpha"/>
<feOffset dy="2"/>
<feGaussianBlur stdDeviation="6"/>
<feColorMatrix type="matrix" values="0 0 0 0 0 0 0 0 0 0 0 0 0 0 0 0 0 0 0.12 0"/>
<feBlend mode="plus-darker" in2="BackgroundImageFix" result="effect1_dropShadow_245_4373"/>
<feBlend mode="normal" in="SourceGraphic" in2="effect1_dropShadow_245_4373" result="shape"/>
</filter>
<filter id="filter1_d_245_4373" x="48.3291" y="5.69409" width="40.0107" height="40.0757" filterUnits="userSpaceOnUse" color-interpolation-filters="sRGB">
<feFlood flood-opacity="0" result="BackgroundImageFix"/>
<feColorMatrix in="SourceAlpha" type="matrix" values="0 0 0 0 0 0 0 0 0 0 0 0 0 0 0 0 0 0 127 0" result="hardAlpha"/>
<feOffset dy="2"/>
<feGaussianBlur stdDeviation="6"/>
<feColorMatrix type="matrix" values="0 0 0 0 0 0 0 0 0 0 0 0 0 0 0 0 0 0 0.12 0"/>
<feBlend mode="plus-darker" in2="BackgroundImageFix" result="effect1_dropShadow_245_4373"/>
<feBlend mode="normal" in="SourceGraphic" in2="effect1_dropShadow_245_4373" result="shape"/>
</filter>
<filter id="filter2_d_245_4373" x="7.66016" y="5.51953" width="40.0107" height="40.0757" filterUnits="userSpaceOnUse" color-interpolation-filters="sRGB">
<feFlood flood-opacity="0" result="BackgroundImageFix"/>
<feColorMatrix in="SourceAlpha" type="matrix" values="0 0 0 0 0 0 0 0 0 0 0 0 0 0 0 0 0 0 127 0" result="hardAlpha"/>
<feOffset dy="2"/>
<feGaussianBlur stdDeviation="6"/>
<feColorMatrix type="matrix" values="0 0 0 0 0 0 0 0 0 0 0 0 0 0 0 0 0 0 0.12 0"/>
<feBlend mode="plus-darker" in2="BackgroundImageFix" result="effect1_dropShadow_245_4373"/>
<feBlend mode="normal" in="SourceGraphic" in2="effect1_dropShadow_245_4373" result="shape"/>
</filter>
<linearGradient id="paint0_linear_245_4373" x1="47.9995" y1="10.519" x2="47.9995" y2="28.0383" gradientUnits="userSpaceOnUse">
<stop stop-color="#DFDFDF"/>
<stop offset="1" stop-color="#A9A9A9"/>
</linearGradient>
<linearGradient id="paint1_linear_245_4373" x1="69.3718" y1="16.2194" x2="66.8367" y2="30.597" gradientUnits="userSpaceOnUse">
<stop stop-color="#DFDFDF"/>
<stop offset="1" stop-color="#A9A9A9"/>
</linearGradient>
<linearGradient id="paint2_linear_245_4373" x1="26.6287" y1="16.0448" x2="29.1638" y2="30.4224" gradientUnits="userSpaceOnUse">
<stop stop-color="#DFDFDF"/>
<stop offset="1" stop-color="#A9A9A9"/>
</linearGradient>
</defs>
</svg>
