<svg width="242" height="124" viewBox="0 0 242 124" fill="none" xmlns="http://www.w3.org/2000/svg">
<path d="M231.837 49H161.978V60H241.978L231.837 49Z" fill="url(#paint0_linear_125_3126)"/>
<path d="M231.837 49H161.978V60H241.978L231.837 49Z" fill="url(#paint1_linear_125_3126)"/>
<path d="M91.3622 0L79.1836 12.1786H162.219L151.148 0H91.3622Z" fill="#D9D9D9"/>
<path d="M91.3622 0L79.1836 12.1786H162.219L151.148 0H91.3622Z" fill="url(#paint2_linear_125_3126)"/>
<path d="M79.1836 124V12.1786H162.219V124H79.1836Z" fill="#D9D9D9"/>
<path d="M79.1836 124V12.1786H162.219V124H79.1836Z" fill="url(#paint3_linear_125_3126)"/>
<path d="M0.0224609 124V37.6429H79.7367V124H0.0224609Z" fill="url(#paint4_linear_125_3126)"/>
<path d="M162.219 124V59.7857H241.933V124H162.219Z" fill="url(#paint5_linear_125_3126)"/>
<path d="M10.5405 24.3571L0.576172 36.5357V37.6428H79.1833V24.3571H10.5405Z" fill="#D9D9D9"/>
<path d="M10.5405 24.3571L0.576172 36.5357V37.6428H79.1833V24.3571H10.5405Z" fill="url(#paint6_linear_125_3126)"/>
<path d="M112.345 61.021V53.23H125.918V89H117.196V61.021H112.345Z" fill="white"/>
<path d="M28.5825 89.52C29.4891 88.8 29.9025 88.4667 29.8225 88.52C32.4358 86.36 34.4891 84.5867 35.9825 83.2C37.5025 81.8133 38.7825 80.36 39.8225 78.84C40.8625 77.32 41.3825 75.84 41.3825 74.4C41.3825 73.3067 41.1291 72.4533 40.6225 71.84C40.1158 71.2267 39.3558 70.92 38.3425 70.92C37.3291 70.92 36.5291 71.3067 35.9425 72.08C35.3825 72.8267 35.1025 73.8933 35.1025 75.28H28.5025C28.5558 73.0133 29.0358 71.12 29.9425 69.6C30.8758 68.08 32.0891 66.96 33.5825 66.24C35.1025 65.52 36.7825 65.16 38.6225 65.16C41.7958 65.16 44.1825 65.9733 45.7825 67.6C47.4091 69.2267 48.2225 71.3467 48.2225 73.96C48.2225 76.8133 47.2491 79.4667 45.3025 81.92C43.3558 84.3467 40.8758 86.72 37.8625 89.04H48.6625V94.6H28.5825V89.52Z" fill="white"/>
<path d="M191.062 85.04C191.169 82.1867 192.102 79.9867 193.862 78.44C195.622 76.8933 198.009 76.12 201.022 76.12C203.022 76.12 204.729 76.4667 206.142 77.16C207.582 77.8533 208.662 78.8 209.382 80C210.129 81.2 210.502 82.5467 210.502 84.04C210.502 85.8 210.062 87.24 209.182 88.36C208.302 89.4533 207.276 90.2 206.102 90.6V90.76C207.622 91.2667 208.822 92.1067 209.702 93.28C210.582 94.4533 211.022 95.96 211.022 97.8C211.022 99.4533 210.636 100.92 209.862 102.2C209.116 103.453 208.009 104.44 206.542 105.16C205.102 105.88 203.382 106.24 201.382 106.24C198.182 106.24 195.622 105.453 193.702 103.88C191.809 102.307 190.809 99.9333 190.702 96.76H197.342C197.369 97.9333 197.702 98.8667 198.342 99.56C198.982 100.227 199.916 100.56 201.142 100.56C202.182 100.56 202.982 100.267 203.542 99.68C204.129 99.0667 204.422 98.2667 204.422 97.28C204.422 96 204.009 95.08 203.182 94.52C202.382 93.9333 201.089 93.64 199.302 93.64H198.022V88.08H199.302C200.662 88.08 201.756 87.8533 202.582 87.4C203.436 86.92 203.862 86.08 203.862 84.88C203.862 83.92 203.596 83.1733 203.062 82.64C202.529 82.1067 201.796 81.84 200.862 81.84C199.849 81.84 199.089 82.1467 198.582 82.76C198.102 83.3733 197.822 84.1333 197.742 85.04H191.062Z" fill="white"/>
<defs>
<linearGradient id="paint0_linear_125_3126" x1="201.978" y1="36.1667" x2="201.978" y2="65.5" gradientUnits="userSpaceOnUse">
<stop stop-color="white"/>
<stop offset="1" stop-color="#FF9FA2"/>
</linearGradient>
<linearGradient id="paint1_linear_125_3126" x1="202.077" y1="32.1452" x2="202.077" y2="76.8549" gradientUnits="userSpaceOnUse">
<stop stop-color="white"/>
<stop offset="1" stop-color="#F73C42"/>
</linearGradient>
<linearGradient id="paint2_linear_125_3126" x1="120.978" y1="-26" x2="120.421" y2="25.2418" gradientUnits="userSpaceOnUse">
<stop stop-color="white"/>
<stop offset="1" stop-color="#E51F25"/>
</linearGradient>
<linearGradient id="paint3_linear_125_3126" x1="120.803" y1="29.4743" x2="120.939" y2="169" gradientUnits="userSpaceOnUse">
<stop stop-color="#FF6A6F"/>
<stop offset="1" stop-color="white"/>
</linearGradient>
<linearGradient id="paint4_linear_125_3126" x1="39.9775" y1="51" x2="39.8796" y2="205.929" gradientUnits="userSpaceOnUse">
<stop stop-color="#FF6A6F"/>
<stop offset="1" stop-color="white"/>
</linearGradient>
<linearGradient id="paint5_linear_125_3126" x1="202.076" y1="87.7765" x2="202.076" y2="184.921" gradientUnits="userSpaceOnUse">
<stop stop-color="#FF6A6F"/>
<stop offset="1" stop-color="white"/>
</linearGradient>
<linearGradient id="paint6_linear_125_3126" x1="39.9775" y1="4" x2="39.9775" y2="58" gradientUnits="userSpaceOnUse">
<stop stop-color="white"/>
<stop offset="1" stop-color="#F73C42"/>
</linearGradient>
</defs>
</svg>
